<svg xmlns="http://www.w3.org/2000/svg" height="24px" viewBox="0 -960 960 960" width="24px" fill="var(--navbar-heading-color)"><path d="M602-404 461-262q-17 17-39 26t-46 9q-24 0-46-9t-39-26l-28-29q-17-17-26.5-39t-9.5-46q0-24 9-46t26-39l142-141-57-57-123 124q-31 31-47.5 71T160-380q0 92 64 156t156 64q44 0 84-16.5t71-47.5l124-123-57-57Zm113 0 85-85-57-56-84 85 56 56ZM461-659l84-84-56-57-85 85 57 56Zm84-197 57 56q12 12 17.5 26.5T625-743q0 16-5.5 30T602-687L319-404q-5 5-8.5 12.5T307-376q0 8 3.5 16t8.5 13l28 28q6 6 13.5 9t15.5 3q8 0 15-3t13-9l283-283q12-12 26-17.5t30-5.5q16 0 30.5 5.5T800-602l56 57q12 12 18 26t6 30q0 16-6 30.5T856-432L592-168q-42 42-97.5 65T379-80q-125 0-212-87.5T80-380q0-60 23-115t65-97l264-264q12-12 26.5-18t30.5-6q16 0 30 6t26 18Z"/></svg>