<?xml version="1.0" encoding="UTF-8" standalone="no"?>
<!DOCTYPE svg PUBLIC "-//W3C//DTD SVG 1.1//EN"
 "http://www.w3.org/Graphics/SVG/1.1/DTD/svg11.dtd">
<!-- Generated by graphviz version 2.43.0 (0)
 -->
<!-- Title: flat_smf Pages: 1 -->
<svg width="129pt" height="231pt"
 viewBox="0.00 0.00 129.00 230.60" xmlns="http://www.w3.org/2000/svg" xmlns:xlink="http://www.w3.org/1999/xlink">
<g id="graph0" class="graph" transform="scale(1 1) rotate(0) translate(4 226.6)">
<title>flat_smf</title>
<polygon fill="white" stroke="transparent" points="-4,4 -4,-226.6 125,-226.6 125,4 -4,4"/>
<!-- ENTRY -->
<g id="node1" class="node">
<title>ENTRY</title>
<ellipse fill="black" stroke="black" cx="78" cy="-220.8" rx="1.8" ry="1.8"/>
</g>
<!-- A -->
<g id="node2" class="node">
<title>A</title>
<path fill="none" stroke="black" d="M47,-146.5C47,-146.5 109,-146.5 109,-146.5 115,-146.5 121,-152.5 121,-158.5 121,-158.5 121,-170.5 121,-170.5 121,-176.5 115,-182.5 109,-182.5 109,-182.5 47,-182.5 47,-182.5 41,-182.5 35,-176.5 35,-170.5 35,-170.5 35,-158.5 35,-158.5 35,-152.5 41,-146.5 47,-146.5"/>
<text text-anchor="middle" x="78" y="-160.8" font-family="Times,serif" font-size="14.00">STATE S0</text>
</g>
<!-- ENTRY&#45;&gt;A -->
<g id="edge1" class="edge">
<title>ENTRY&#45;&gt;A</title>
<path fill="none" stroke="black" d="M78,-218.86C78,-215.58 78,-204.26 78,-192.88"/>
<polygon fill="black" stroke="black" points="81.5,-192.64 78,-182.64 74.5,-192.64 81.5,-192.64"/>
</g>
<!-- B -->
<g id="node3" class="node">
<title>B</title>
<path fill="none" stroke="black" d="M12,-73.5C12,-73.5 74,-73.5 74,-73.5 80,-73.5 86,-79.5 86,-85.5 86,-85.5 86,-97.5 86,-97.5 86,-103.5 80,-109.5 74,-109.5 74,-109.5 12,-109.5 12,-109.5 6,-109.5 0,-103.5 0,-97.5 0,-97.5 0,-85.5 0,-85.5 0,-79.5 6,-73.5 12,-73.5"/>
<text text-anchor="middle" x="43" y="-87.8" font-family="Times,serif" font-size="14.00">STATE S1</text>
</g>
<!-- A&#45;&gt;B -->
<g id="edge2" class="edge">
<title>A&#45;&gt;B</title>
<path fill="none" stroke="black" d="M69.53,-146.31C65.44,-138.03 60.46,-127.91 55.91,-118.69"/>
<polygon fill="black" stroke="black" points="58.96,-116.95 51.39,-109.53 52.68,-120.05 58.96,-116.95"/>
</g>
<!-- C -->
<g id="node4" class="node">
<title>C</title>
<path fill="none" stroke="black" d="M47,-0.5C47,-0.5 109,-0.5 109,-0.5 115,-0.5 121,-6.5 121,-12.5 121,-12.5 121,-24.5 121,-24.5 121,-30.5 115,-36.5 109,-36.5 109,-36.5 47,-36.5 47,-36.5 41,-36.5 35,-30.5 35,-24.5 35,-24.5 35,-12.5 35,-12.5 35,-6.5 41,-0.5 47,-0.5"/>
<text text-anchor="middle" x="78" y="-14.8" font-family="Times,serif" font-size="14.00">STATE S2</text>
</g>
<!-- B&#45;&gt;C -->
<g id="edge3" class="edge">
<title>B&#45;&gt;C</title>
<path fill="none" stroke="black" d="M51.47,-73.31C55.56,-65.03 60.54,-54.91 65.09,-45.69"/>
<polygon fill="black" stroke="black" points="68.32,-47.05 69.61,-36.53 62.04,-43.95 68.32,-47.05"/>
</g>
<!-- C&#45;&gt;A -->
<g id="edge4" class="edge">
<title>C&#45;&gt;A</title>
<path fill="none" stroke="black" d="M84.89,-36.52C88.71,-46.88 93.06,-60.48 95,-73 97.52,-89.25 97.52,-93.75 95,-110 93.62,-118.9 91.02,-128.35 88.26,-136.79"/>
<polygon fill="black" stroke="black" points="84.87,-135.88 84.89,-146.48 91.48,-138.18 84.87,-135.88"/>
</g>
</g>
</svg>
