<?xml version="1.0" encoding="UTF-8" standalone="no"?>
<!DOCTYPE svg PUBLIC "-//W3C//DTD SVG 1.1//EN"
 "http://www.w3.org/Graphics/SVG/1.1/DTD/svg11.dtd">
<!-- Generated by graphviz version 2.43.0 (0)
 -->
<!-- Title: hierarchical_smf Pages: 1 -->
<svg width="145pt" height="234pt"
 viewBox="0.00 0.00 145.00 233.60" xmlns="http://www.w3.org/2000/svg" xmlns:xlink="http://www.w3.org/1999/xlink">
<g id="graph0" class="graph" transform="scale(1 1) rotate(0) translate(4 229.6)">
<title>hierarchical_smf</title>
<polygon fill="white" stroke="transparent" points="-4,4 -4,-229.6 141,-229.6 141,4 -4,4"/>
<g id="clust1" class="cluster">
<title>clusterOpen</title>
<path fill="none" stroke="black" d="M20,-65C20,-65 98,-65 98,-65 104,-65 110,-71 110,-77 110,-77 110,-202 110,-202 110,-208 104,-214 98,-214 98,-214 20,-214 20,-214 14,-214 8,-208 8,-202 8,-202 8,-77 8,-77 8,-71 14,-65 20,-65"/>
<text text-anchor="middle" x="59" y="-198.8" font-family="Times,serif" font-size="14.00">PARENT</text>
</g>
<!-- A -->
<g id="node1" class="node">
<title>A</title>
<path fill="none" stroke="black" d="M28,-146.5C28,-146.5 90,-146.5 90,-146.5 96,-146.5 102,-152.5 102,-158.5 102,-158.5 102,-170.5 102,-170.5 102,-176.5 96,-182.5 90,-182.5 90,-182.5 28,-182.5 28,-182.5 22,-182.5 16,-176.5 16,-170.5 16,-170.5 16,-158.5 16,-158.5 16,-152.5 22,-146.5 28,-146.5"/>
<text text-anchor="middle" x="59" y="-160.8" font-family="Times,serif" font-size="14.00">STATE S0</text>
</g>
<!-- B -->
<g id="node2" class="node">
<title>B</title>
<path fill="none" stroke="black" d="M28,-73.5C28,-73.5 90,-73.5 90,-73.5 96,-73.5 102,-79.5 102,-85.5 102,-85.5 102,-97.5 102,-97.5 102,-103.5 96,-109.5 90,-109.5 90,-109.5 28,-109.5 28,-109.5 22,-109.5 16,-103.5 16,-97.5 16,-97.5 16,-85.5 16,-85.5 16,-79.5 22,-73.5 28,-73.5"/>
<text text-anchor="middle" x="59" y="-87.8" font-family="Times,serif" font-size="14.00">STATE S1</text>
</g>
<!-- A&#45;&gt;B -->
<g id="edge2" class="edge">
<title>A&#45;&gt;B</title>
<path fill="none" stroke="black" d="M59,-146.31C59,-138.29 59,-128.55 59,-119.57"/>
<polygon fill="black" stroke="black" points="62.5,-119.53 59,-109.53 55.5,-119.53 62.5,-119.53"/>
</g>
<!-- C -->
<g id="node3" class="node">
<title>C</title>
<path fill="none" stroke="black" d="M63,-0.5C63,-0.5 125,-0.5 125,-0.5 131,-0.5 137,-6.5 137,-12.5 137,-12.5 137,-24.5 137,-24.5 137,-30.5 131,-36.5 125,-36.5 125,-36.5 63,-36.5 63,-36.5 57,-36.5 51,-30.5 51,-24.5 51,-24.5 51,-12.5 51,-12.5 51,-6.5 57,-0.5 63,-0.5"/>
<text text-anchor="middle" x="94" y="-14.8" font-family="Times,serif" font-size="14.00">STATE S2</text>
</g>
<!-- B&#45;&gt;C -->
<g id="edge3" class="edge">
<title>B&#45;&gt;C</title>
<path fill="none" stroke="black" d="M67.47,-73.31C71.56,-65.03 76.54,-54.91 81.09,-45.69"/>
<polygon fill="black" stroke="black" points="84.32,-47.05 85.61,-36.53 78.04,-43.95 84.32,-47.05"/>
</g>
<!-- C&#45;&gt;A -->
<g id="edge4" class="edge">
<title>C&#45;&gt;A</title>
<path fill="none" stroke="black" d="M102.83,-36.75C111.11,-55.4 120.86,-85.71 111,-110 106.48,-121.14 98.4,-131.23 89.94,-139.58"/>
<polygon fill="black" stroke="black" points="87.47,-137.09 82.48,-146.44 92.21,-142.24 87.47,-137.09"/>
</g>
<!-- ENTRY -->
<g id="node4" class="node">
<title>ENTRY</title>
<ellipse fill="black" stroke="black" cx="59" cy="-223.8" rx="1.8" ry="1.8"/>
</g>
<!-- ENTRY&#45;&gt;A -->
<g id="edge1" class="edge">
<title>ENTRY&#45;&gt;A</title>
<path fill="none" stroke="black" d="M59,-221.81C59,-218.21 59,-205.41 59,-192.93"/>
<polygon fill="black" stroke="black" points="62.5,-192.73 59,-182.73 55.5,-192.73 62.5,-192.73"/>
</g>
</g>
</svg>
