<svg width="1280" height="720" xmlns="http://www.w3.org/2000/svg" xmlns:xlink="http://www.w3.org/1999/xlink" overflow="hidden"><defs><clipPath id="clip0"><rect x="0" y="0" width="1280" height="720"/></clipPath><linearGradient x1="1101.5" y1="38.5001" x2="1101.5" y2="704.5" gradientUnits="userSpaceOnUse" spreadMethod="reflect" id="fill1"><stop offset="0" stop-color="#00B0F0"/><stop offset="0.00628931" stop-color="#01B0EF"/><stop offset="0.0125786" stop-color="#03B0EF"/><stop offset="0.0188679" stop-color="#05B1EF"/><stop offset="0.0251572" stop-color="#06B1EF"/><stop offset="0.0314465" stop-color="#08B1EF"/><stop offset="0.0377358" stop-color="#0AB2EF"/><stop offset="0.0440252" stop-color="#0BB2EF"/><stop offset="0.0503145" stop-color="#0DB2EF"/><stop offset="0.0566038" stop-color="#0FB3EF"/><stop offset="0.0628931" stop-color="#10B3EF"/><stop offset="0.0691824" stop-color="#12B4EE"/><stop offset="0.0754717" stop-color="#13B4EE"/><stop offset="0.081761" stop-color="#15B4EE"/><stop offset="0.0880503" stop-color="#17B5EE"/><stop offset="0.0943396" stop-color="#18B5EE"/><stop offset="0.100629" stop-color="#1AB5ED"/><stop offset="0.106918" stop-color="#1BB6ED"/><stop offset="0.113208" stop-color="#1DB6ED"/><stop offset="0.119497" stop-color="#1EB6ED"/><stop offset="0.125786" stop-color="#20B7EC"/><stop offset="0.132075" stop-color="#22B7EC"/><stop offset="0.138365" stop-color="#23B7EC"/><stop offset="0.144654" stop-color="#25B8EB"/><stop offset="0.150943" stop-color="#26B8EB"/><stop offset="0.157233" stop-color="#28B8EB"/><stop offset="0.163522" stop-color="#29B9EA"/><stop offset="0.169811" stop-color="#2BB9EA"/><stop offset="0.176101" stop-color="#2CB9E9"/><stop offset="0.18239" stop-color="#2DBAE9"/><stop offset="0.188679" stop-color="#2FBAE8"/><stop offset="0.194969" stop-color="#30BAE8"/><stop offset="0.201258" stop-color="#32BBE8"/><stop offset="0.207547" stop-color="#33BBE7"/><stop offset="0.213836" stop-color="#35BBE7"/><stop offset="0.220126" stop-color="#36BBE6"/><stop offset="0.226415" stop-color="#37BCE6"/><stop offset="0.232704" stop-color="#39BCE5"/><stop offset="0.238994" stop-color="#3ABCE5"/><stop offset="0.245283" stop-color="#3BBDE4"/><stop offset="0.251572" stop-color="#3DBDE3"/><stop offset="0.257862" stop-color="#3EBDE3"/><stop offset="0.264151" stop-color="#3FBDE2"/><stop offset="0.27044" stop-color="#41BEE2"/><stop offset="0.27673" stop-color="#42BEE1"/><stop offset="0.283019" stop-color="#43BEE0"/><stop offset="0.289308" stop-color="#45BFE0"/><stop offset="0.295597" stop-color="#46BFDF"/><stop offset="0.301887" stop-color="#47BFDF"/><stop offset="0.308176" stop-color="#48BFDE"/><stop offset="0.314465" stop-color="#4AC0DD"/><stop offset="0.320755" stop-color="#4BC0DD"/><stop offset="0.327044" stop-color="#4CC0DC"/><stop offset="0.333333" stop-color="#4DC1DB"/><stop offset="0.339623" stop-color="#4EC1DA"/><stop offset="0.345912" stop-color="#50C1DA"/><stop offset="0.352201" stop-color="#51C1D9"/><stop offset="0.358491" stop-color="#52C2D8"/><stop offset="0.36478" stop-color="#53C2D7"/><stop offset="0.371069" stop-color="#54C2D7"/><stop offset="0.377358" stop-color="#55C2D6"/><stop offset="0.383648" stop-color="#57C3D5"/><stop offset="0.389937" stop-color="#58C3D4"/><stop offset="0.396226" stop-color="#59C3D3"/><stop offset="0.402516" stop-color="#5AC3D2"/><stop offset="0.408805" stop-color="#5BC4D2"/><stop offset="0.415094" stop-color="#5CC4D1"/><stop offset="0.421384" stop-color="#5DC4D0"/><stop offset="0.427673" stop-color="#5EC4CF"/><stop offset="0.433962" stop-color="#5FC4CE"/><stop offset="0.440252" stop-color="#60C5CD"/><stop offset="0.446541" stop-color="#61C5CC"/><stop offset="0.45283" stop-color="#62C5CB"/><stop offset="0.459119" stop-color="#63C5CA"/><stop offset="0.465409" stop-color="#64C6C9"/><stop offset="0.471698" stop-color="#65C6C8"/><stop offset="0.477987" stop-color="#66C6C7"/><stop offset="0.484277" stop-color="#67C6C6"/><stop offset="0.490566" stop-color="#68C6C5"/><stop offset="0.496855" stop-color="#69C7C4"/><stop offset="0.503145" stop-color="#6AC7C3"/><stop offset="0.509434" stop-color="#6BC7C2"/><stop offset="0.515723" stop-color="#6CC7C1"/><stop offset="0.522013" stop-color="#6DC7C0"/><stop offset="0.528302" stop-color="#6EC8BF"/><stop offset="0.534591" stop-color="#6FC8BE"/><stop offset="0.540881" stop-color="#70C8BD"/><stop offset="0.54717" stop-color="#70C8BC"/><stop offset="0.553459" stop-color="#71C8BB"/><stop offset="0.559748" stop-color="#72C9BA"/><stop offset="0.566038" stop-color="#73C9B8"/><stop offset="0.572327" stop-color="#74C9B7"/><stop offset="0.578616" stop-color="#75C9B6"/><stop offset="0.584906" stop-color="#75C9B5"/><stop offset="0.591195" stop-color="#76CAB4"/><stop offset="0.597484" stop-color="#77CAB3"/><stop offset="0.603774" stop-color="#78CAB1"/><stop offset="0.610063" stop-color="#79CAB0"/><stop offset="0.616352" stop-color="#79CAAF"/><stop offset="0.622642" stop-color="#7ACAAE"/><stop offset="0.628931" stop-color="#7BCBAC"/><stop offset="0.63522" stop-color="#7BCBAB"/><stop offset="0.641509" stop-color="#7CCBAA"/><stop offset="0.647799" stop-color="#7DCBA9"/><stop offset="0.654088" stop-color="#7ECBA7"/><stop offset="0.660377" stop-color="#7ECBA6"/><stop offset="0.666667" stop-color="#7FCBA5"/><stop offset="0.672956" stop-color="#80CCA3"/><stop offset="0.679245" stop-color="#80CCA2"/><stop offset="0.685535" stop-color="#81CCA1"/><stop offset="0.691824" stop-color="#81CC9F"/><stop offset="0.698113" stop-color="#82CC9E"/><stop offset="0.704403" stop-color="#83CC9D"/><stop offset="0.710692" stop-color="#83CC9B"/><stop offset="0.716981" stop-color="#84CC9A"/><stop offset="0.72327" stop-color="#84CD98"/><stop offset="0.72956" stop-color="#85CD97"/><stop offset="0.735849" stop-color="#85CD95"/><stop offset="0.742138" stop-color="#86CD94"/><stop offset="0.748428" stop-color="#87CD93"/><stop offset="0.754717" stop-color="#87CD91"/><stop offset="0.761006" stop-color="#88CD90"/><stop offset="0.767296" stop-color="#88CD8E"/><stop offset="0.773585" stop-color="#88CE8D"/><stop offset="0.779874" stop-color="#89CE8B"/><stop offset="0.786164" stop-color="#89CE8A"/><stop offset="0.792453" stop-color="#8ACE88"/><stop offset="0.798742" stop-color="#8ACE87"/><stop offset="0.805031" stop-color="#8BCE85"/><stop offset="0.811321" stop-color="#8BCE83"/><stop offset="0.81761" stop-color="#8BCE82"/><stop offset="0.823899" stop-color="#8CCE80"/><stop offset="0.830189" stop-color="#8CCE7F"/><stop offset="0.836478" stop-color="#8DCE7D"/><stop offset="0.842767" stop-color="#8DCF7B"/><stop offset="0.849057" stop-color="#8DCF7A"/><stop offset="0.855346" stop-color="#8ECF78"/><stop offset="0.861635" stop-color="#8ECF76"/><stop offset="0.867925" stop-color="#8ECF75"/><stop offset="0.874214" stop-color="#8FCF73"/><stop offset="0.880503" stop-color="#8FCF71"/><stop offset="0.886792" stop-color="#8FCF70"/><stop offset="0.893082" stop-color="#8FCF6E"/><stop offset="0.899371" stop-color="#90CF6C"/><stop offset="0.90566" stop-color="#90CF6B"/><stop offset="0.91195" stop-color="#90CF69"/><stop offset="0.918239" stop-color="#90CF67"/><stop offset="0.924528" stop-color="#90CF65"/><stop offset="0.930818" stop-color="#91CF64"/><stop offset="0.937107" stop-color="#91CF62"/><stop offset="0.943396" stop-color="#91CF60"/><stop offset="0.949686" stop-color="#91CF5E"/><stop offset="0.955975" stop-color="#91CF5C"/><stop offset="0.962264" stop-color="#91CF5B"/><stop offset="0.968553" stop-color="#91CF59"/><stop offset="0.974843" stop-color="#91CF57"/><stop offset="0.981132" stop-color="#91CF55"/><stop offset="0.987421" stop-color="#91CF53"/><stop offset="0.993711" stop-color="#91CF51"/><stop offset="1" stop-color="#92D050"/></linearGradient></defs><g clip-path="url(#clip0)"><rect x="0" y="0" width="1280" height="720" fill="#FFFFFF"/><path d="M205.5 255.333C205.5 221.736 394.884 194.5 628.5 194.5 862.116 194.5 1051.5 221.736 1051.5 255.333L1051.5 498.667C1051.5 532.264 862.116 559.5 628.5 559.5 394.884 559.5 205.5 532.264 205.5 498.667Z" fill="#D9D9D9" fill-rule="evenodd"/><path d="M1051.5 255.333C1051.5 288.931 862.116 316.167 628.5 316.167 394.884 316.167 205.5 288.931 205.5 255.333" stroke="#2F528F" stroke-width="1.33333" stroke-miterlimit="8" fill="none" fill-rule="evenodd"/><path d="M205.5 255.333C205.5 221.736 394.884 194.5 628.5 194.5 862.116 194.5 1051.5 221.736 1051.5 255.333L1051.5 498.667C1051.5 532.264 862.116 559.5 628.5 559.5 394.884 559.5 205.5 532.264 205.5 498.667Z" stroke="#2F528F" stroke-width="1.33333" stroke-miterlimit="8" fill="none" fill-rule="evenodd"/><text font-family="Calibri,Calibri_MSFontService,sans-serif" font-weight="400" font-size="24" transform="translate(574.175 224)">Asset Base</text><path d="M229.5 280C229.5 253.214 284.569 231.5 352.5 231.5 420.431 231.5 475.5 253.214 475.5 280L475.5 474C475.5 500.786 420.431 522.5 352.5 522.5 284.569 522.5 229.5 500.786 229.5 474Z" fill="#00B0F0" fill-rule="evenodd"/><path d="M475.5 280C475.5 306.786 420.431 328.5 352.5 328.5 284.569 328.5 229.5 306.786 229.5 280" stroke="#2F528F" stroke-width="1.33333" stroke-miterlimit="8" fill="none" fill-rule="evenodd"/><path d="M229.5 280C229.5 253.214 284.569 231.5 352.5 231.5 420.431 231.5 475.5 253.214 475.5 280L475.5 474C475.5 500.786 420.431 522.5 352.5 522.5 284.569 522.5 229.5 500.786 229.5 474Z" stroke="#2F528F" stroke-width="1.33333" stroke-miterlimit="8" fill="none" fill-rule="evenodd"/><text font-family="Calibri,Calibri_MSFontService,sans-serif" font-weight="400" font-size="24" transform="translate(314.716 266)">Domain<tspan font-family="Arial,Arial_MSFontService,sans-serif" font-size="19" x="-70.2467" y="82">•</tspan><tspan font-size="19" x="-40.2466" y="82">Domain Architecture</tspan><tspan font-family="Arial,Arial_MSFontService,sans-serif" font-size="19" x="-70.2467" y="104">•</tspan><tspan font-size="19" x="-40.2466" y="104">Shared Asset Superset</tspan><tspan font-family="Arial,Arial_MSFontService,sans-serif" font-size="19" x="-70.2467" y="127">•</tspan><tspan font-size="19" x="-40.2466" y="127">Variation Points</tspan><tspan font-family="Arial,Arial_MSFontService,sans-serif" font-size="19" x="-70.2467" y="149">•</tspan><tspan font-size="19" x="-40.2466" y="149">Feature Catalog</tspan></text><path d="M781.5 280C781.5 253.214 836.569 231.5 904.5 231.5 972.431 231.5 1027.5 253.214 1027.5 280L1027.5 474C1027.5 500.786 972.431 522.5 904.5 522.5 836.569 522.5 781.5 500.786 781.5 474Z" fill="#92D050" fill-rule="evenodd"/><path d="M1027.5 280C1027.5 306.786 972.431 328.5 904.5 328.5 836.569 328.5 781.5 306.786 781.5 280" stroke="#2F528F" stroke-width="1.33333" stroke-miterlimit="8" fill="none" fill-rule="evenodd"/><path d="M781.5 280C781.5 253.214 836.569 231.5 904.5 231.5 972.431 231.5 1027.5 253.214 1027.5 280L1027.5 474C1027.5 500.786 972.431 522.5 904.5 522.5 836.569 522.5 781.5 500.786 781.5 474Z" stroke="#2F528F" stroke-width="1.33333" stroke-miterlimit="8" fill="none" fill-rule="evenodd"/><text font-family="Calibri,Calibri_MSFontService,sans-serif" font-weight="400" font-size="24" transform="translate(849.084 263)">Application<tspan font-family="Arial,Arial_MSFontService,sans-serif" font-size="19" x="-53.46" y="82">•</tspan><tspan font-size="19" x="-23.46" y="82">Application Assets</tspan><tspan font-family="Arial,Arial_MSFontService,sans-serif" font-size="19" x="-53.46" y="104">•</tspan><tspan font-size="19" x="-23.46" y="104">Bill of Features Portfolio</tspan><tspan font-family="Arial,Arial_MSFontService,sans-serif" font-size="19" x="-53.46" y="127">•</tspan><tspan font-size="19" x="-23.46" y="127">Application </tspan><tspan font-size="19" x="-23.46" y="149">Architecture</tspan><tspan font-size="19" x="70.6533" y="149">(s)</tspan></text><rect x="207.5" y="38.5001" width="846" height="130" stroke="#2F528F" stroke-width="1.33333" stroke-miterlimit="8" fill="#00B0F0"/><text font-family="Calibri,Calibri_MSFontService,sans-serif" font-weight="400" font-size="24" transform="translate(216.473 65)">Domain Engineering</text><rect x="227.5" y="80.5001" width="118" height="76" stroke="#2F528F" stroke-width="1.33333" stroke-miterlimit="8" fill="#4472C4"/><text fill="#FFFFFF" font-family="Calibri,Calibri_MSFontService,sans-serif" font-weight="400" font-size="21" transform="translate(251.777 112)">Domain <tspan font-size="21" x="-13.3667" y="26">Realization</tspan></text><rect x="374.5" y="80.5001" width="118" height="76" stroke="#2F528F" stroke-width="1.33333" stroke-miterlimit="8" fill="#4472C4"/><text fill="#FFFFFF" font-family="Calibri,Calibri_MSFontService,sans-serif" font-weight="400" font-size="21" transform="translate(398.766 112)">Domain <tspan font-size="21" x="4.75333" y="26">Design</tspan></text><rect x="521.5" y="49.5001" width="148" height="107" stroke="#2F528F" stroke-width="1.33333" stroke-miterlimit="8" fill="#4472C4"/><text fill="#FFFFFF" font-family="Calibri,Calibri_MSFontService,sans-serif" font-weight="400" font-size="21" transform="translate(561.164 84)">Domain <tspan font-size="21" x="-26.74" y="26">Requirements </tspan><tspan font-size="21" x="-17.42" y="51">Engineering</tspan></text><rect x="698.5" y="50.5001" width="149" height="107" stroke="#2F528F" stroke-width="1.33333" stroke-miterlimit="8" fill="#4472C4"/><text fill="#FFFFFF" font-family="Calibri,Calibri_MSFontService,sans-serif" font-weight="400" font-size="21" transform="translate(738.98 85)">Domain <tspan font-size="21" x="-25.2" y="26">Verification &amp; </tspan><tspan font-size="21" x="-9.39337" y="51">Validation</tspan></text><rect x="876.5" y="49.5001" width="149" height="107" stroke="#2F528F" stroke-width="1.33333" stroke-miterlimit="8" fill="#4472C4"/><text fill="#FFFFFF" font-family="Calibri,Calibri_MSFontService,sans-serif" font-weight="400" font-size="21" transform="translate(916.381 97)">Domain <tspan font-size="21" x="0.253296" y="26">Scoping</tspan></text><rect x="205.5" y="575.5" width="846" height="129" stroke="#2F528F" stroke-width="1.33333" stroke-miterlimit="8" fill="#92D050"/><text font-family="Calibri,Calibri_MSFontService,sans-serif" font-weight="400" font-size="24" transform="translate(214.445 692)">Application Engineering</text><rect x="341.5" y="586.5" width="148" height="77" stroke="#2F528F" stroke-width="1.33333" stroke-miterlimit="8" fill="#00B050"/><text fill="#FFFFFF" font-family="Calibri,Calibri_MSFontService,sans-serif" font-weight="400" font-size="21" transform="translate(366.344 619)">Application <tspan font-size="21" x="-11.76" y="26">Requirements</tspan></text><rect x="519.5" y="585.5" width="148" height="107" stroke="#2F528F" stroke-width="1.33333" stroke-miterlimit="8" fill="#00B050"/><text fill="#FFFFFF" font-family="Calibri,Calibri_MSFontService,sans-serif" font-weight="400" font-size="21" transform="translate(544.159 633)">Application <tspan font-size="21" x="19.7267" y="26">Design</tspan></text><rect x="696.5" y="586.5" width="149" height="107" stroke="#2F528F" stroke-width="1.33333" stroke-miterlimit="8" fill="#00B050"/><text fill="#FFFFFF" font-family="Calibri,Calibri_MSFontService,sans-serif" font-weight="400" font-size="21" transform="translate(721.971 634)">Application <tspan font-size="21" x="1.60669" y="26">Realization</tspan></text><rect x="874.5" y="585.5" width="149" height="107" stroke="#2F528F" stroke-width="1.33333" stroke-miterlimit="8" fill="#00B050"/><text fill="#FFFFFF" font-family="Calibri,Calibri_MSFontService,sans-serif" font-weight="400" font-size="21" transform="translate(899.376 620)">Application <tspan font-size="21" x="-10.22" y="26">Verification &amp; </tspan><tspan font-size="21" x="5.58667" y="51">Validation</tspan></text><rect x="461.5" y="371.5" width="331" height="40" stroke="#2F528F" stroke-width="1.33333" stroke-miterlimit="8" fill="#4472C4"/><text fill="#FFFFFF" font-family="Calibri,Calibri_MSFontService,sans-serif" font-weight="400" font-size="24" transform="translate(590.025 399)">Binding</text><path d="M588.5 450.5 608 450.5 608 411.5 647 411.5 647 450.5 666.5 450.5 627.5 489.5Z" stroke="#2F528F" stroke-width="1.33333" stroke-miterlimit="8" fill="#4472C4" fill-rule="evenodd"/><path d="M533.5 514.302 559.757 508 569.786 497.802 602.242 497.802 628.5 491.5 654.758 497.802 687.214 497.802 697.244 508 723.5 514.302 713.471 524.5 723.5 534.698 697.244 541 687.214 551.198 654.758 551.198 628.5 557.5 602.242 551.198 569.786 551.198 559.757 541 533.5 534.698 543.529 524.5Z" stroke="#2F528F" stroke-width="1.33333" stroke-miterlimit="8" fill="#FFFF00" fill-rule="evenodd"/><text font-family="Calibri,Calibri_MSFontService,sans-serif" font-weight="400" font-size="24" transform="translate(585.723 517)">Member<tspan font-size="24" x="4.10663" y="29">Product</tspan></text><path d="M588.5 329.5 608 329.5 608 290.5 647 290.5 647 329.5 666.5 329.5 627.5 368.5Z" stroke="#2F528F" stroke-width="1.33333" stroke-miterlimit="8" fill="#4472C4" fill-rule="evenodd"/><path d="M570.5 233.5 682.5 233.5 682.5 293.646C626.5 293.646 626.5 316.563 570.5 303.542Z" stroke="#2F528F" stroke-width="1.33333" stroke-miterlimit="8" fill="#FFFF00" fill-rule="evenodd"/><text font-family="Calibri,Calibri_MSFontService,sans-serif" font-weight="400" font-size="24" transform="translate(598.528 256)">Bill of <tspan font-size="24" x="-14.4733" y="29">Features</tspan></text><rect x="112.5" y="38.5001" width="76" height="666" stroke="#2F528F" stroke-width="1.33333" stroke-miterlimit="8" fill="#7030A0"/><text fill="#FFFFFF" font-family="Calibri,Calibri_MSFontService,sans-serif" font-weight="400" font-size="24" transform="matrix(6.12323e-17 1 -1 6.12323e-17 142.68 233)">Organizational Management</text><rect x="1063.5" y="38.5001" width="76" height="666" stroke="#2F528F" stroke-width="1.33333" stroke-miterlimit="8" fill="url(#fill1)"/><text font-family="Calibri,Calibri_MSFontService,sans-serif" font-weight="400" font-size="24" transform="matrix(6.12323e-17 1 -1 6.12323e-17 1093.58 258)">Technical Management</text></g></svg>