<svg width="504" height="333" viewBox="0 0 504 333" fill="none" xmlns="http://www.w3.org/2000/svg">
<path d="M504 2H0V332.387H504V2Z" fill="white"/>
<path d="M258.568 92V85.68H257.064V84.176H258.568V84.16C258.568 83.0507 258.856 82.2133 259.432 81.648C260.019 81.0827 260.925 80.7627 262.152 80.688L262.936 80.64L263.064 82.112L262.328 82.16C261.688 82.2027 261.235 82.3627 260.968 82.64C260.701 82.9067 260.568 83.3067 260.568 83.84V84.176H262.696V85.68H260.568V92H258.568ZM271.829 95.04C271.103 95.04 270.421 94.9547 269.781 94.784C269.151 94.624 268.597 94.3733 268.117 94.032L268.693 92.64C269.141 92.9387 269.621 93.1573 270.133 93.296C270.645 93.4453 271.157 93.52 271.669 93.52C273.098 93.52 273.813 92.832 273.813 91.456V90.384C273.589 90.8213 273.242 91.168 272.773 91.424C272.314 91.68 271.802 91.808 271.237 91.808C270.533 91.808 269.919 91.648 269.397 91.328C268.874 90.9973 268.469 90.5387 268.181 89.952C267.893 89.3653 267.749 88.6827 267.749 87.904C267.749 87.1253 267.893 86.448 268.181 85.872C268.469 85.2853 268.874 84.832 269.397 84.512C269.919 84.1813 270.533 84.016 271.237 84.016C271.823 84.016 272.346 84.1493 272.805 84.416C273.263 84.672 273.599 85.0187 273.813 85.456V84.176H275.765V91.216C275.765 92.4853 275.429 93.44 274.757 94.08C274.085 94.72 273.109 95.04 271.829 95.04ZM271.781 90.288C272.399 90.288 272.89 90.0747 273.253 89.648C273.615 89.2213 273.797 88.64 273.797 87.904C273.797 87.168 273.615 86.592 273.253 86.176C272.89 85.7493 272.399 85.536 271.781 85.536C271.162 85.536 270.671 85.7493 270.309 86.176C269.946 86.592 269.765 87.168 269.765 87.904C269.765 88.64 269.946 89.2213 270.309 89.648C270.671 90.0747 271.162 90.288 271.781 90.288ZM282.149 92V80.72H284.149V85.312C284.416 84.8853 284.773 84.5653 285.221 84.352C285.669 84.128 286.165 84.016 286.709 84.016C288.555 84.016 289.477 85.088 289.477 87.232V92H287.477V87.328C287.477 86.72 287.36 86.2773 287.125 86C286.901 85.7227 286.549 85.584 286.069 85.584C285.483 85.584 285.013 85.7707 284.661 86.144C284.32 86.5067 284.149 86.992 284.149 87.6V92H282.149Z" fill="#747474"/>
<path d="M503.697 305.975L460.741 332.387V279.563L503.697 305.975Z" fill="#EBEBEB"/>
<path d="M469.333 288.653H10.3773V323.295H469.333V288.653Z" fill="#EBEBEB"/>
<path d="M27.6973 74.2293L54.0613 117.108H1.33331L27.6973 74.2293Z" fill="#EBEBEB"/>
<path d="M10.3773 104.609V323.295H45.0187V104.609H10.3773Z" fill="#EBEBEB"/>
<path d="M35.656 241.925H20.616V235.397C20.616 233.748 21.0284 232.475 21.8533 231.579C22.6782 230.683 23.8302 230.235 25.3093 230.235C26.7884 230.235 27.9475 230.683 28.7866 231.579C29.6115 232.475 30.024 233.748 30.024 235.397V239.195H35.656V241.925ZM27.8693 239.195V235.824C27.8693 233.861 27.016 232.88 25.3093 232.88C23.6169 232.88 22.7706 233.861 22.7706 235.824V239.195H27.8693ZM35.656 228.473H25.224V225.87H27.0586C25.8213 225.358 25.1386 224.263 25.0106 222.585L24.9466 221.774L27.208 221.604L27.3573 223.14C27.528 224.889 28.424 225.764 30.0453 225.764H35.656V228.473ZM22.984 220.289H20.3813V217.303H22.984V220.289ZM35.656 220.119H25.224V217.452H35.656V220.119ZM35.8693 209.924C35.8693 211.005 35.6489 211.944 35.208 212.74C34.7671 213.536 34.1413 214.155 33.3306 214.596C32.5058 215.037 31.5386 215.257 30.4293 215.257C29.32 215.257 28.36 215.037 27.5493 214.596C26.7386 214.155 26.1129 213.536 25.672 212.74C25.2311 211.944 25.0106 211.005 25.0106 209.924C25.0106 208.843 25.2311 207.904 25.672 207.108C26.1129 206.312 26.7386 205.693 27.5493 205.252C28.36 204.811 29.32 204.591 30.4293 204.591C31.5386 204.591 32.5058 204.811 33.3306 205.252C34.1413 205.693 34.7671 206.312 35.208 207.108C35.6489 207.904 35.8693 208.843 35.8693 209.924ZM33.8426 209.924C33.8426 209.128 33.5582 208.488 32.9893 208.004C32.4062 207.52 31.5529 207.279 30.4293 207.279C29.2915 207.279 28.4453 207.52 27.8906 208.004C27.3218 208.488 27.0373 209.128 27.0373 209.924C27.0373 210.72 27.3218 211.36 27.8906 211.844C28.4453 212.328 29.2915 212.569 30.4293 212.569C31.5529 212.569 32.4062 212.328 32.9893 211.844C33.5582 211.36 33.8426 210.72 33.8426 209.924ZM35.656 202.39H25.224V199.787H27.0586C25.8213 199.275 25.1386 198.18 25.0106 196.502L24.9466 195.691L27.208 195.52L27.3573 197.056C27.528 198.806 28.424 199.68 30.0453 199.68H35.656V202.39ZM22.984 194.206H20.3813V191.219H22.984V194.206ZM35.656 194.035H25.224V191.369H35.656V194.035ZM35.8693 183.819C35.8693 186.578 34.504 187.958 31.7733 187.958H27.2293V189.963H25.224V187.958H22.1093V185.291H25.224V182.134H27.2293V185.291H31.624C32.3066 185.291 32.8186 185.142 33.16 184.843C33.5013 184.545 33.672 184.061 33.672 183.393C33.672 183.194 33.6506 182.987 33.608 182.774C33.5511 182.561 33.4942 182.34 33.4373 182.113L35.4 181.707C35.5422 181.963 35.656 182.29 35.7413 182.689C35.8266 183.073 35.8693 183.45 35.8693 183.819ZM39.496 179.305L35.2293 177.385L25.224 181.716V178.878L32.52 175.956L25.224 172.969V170.281L39.496 176.553V179.305Z" fill="#171717" fill-opacity="0.8"/>
<path d="M219.839 313.933V301.176H214.676V298.893H227.732V301.176H222.569V313.933H219.839ZM229.035 301.261V298.659H232.022V301.261H229.035ZM229.206 313.933V303.501H231.873V313.933H229.206ZM234.686 313.933V303.501H237.289V305.101C237.602 304.532 238.035 304.092 238.59 303.779C239.145 303.452 239.785 303.288 240.51 303.288C242.075 303.288 243.099 303.971 243.582 305.336C243.909 304.696 244.379 304.198 244.99 303.843C245.602 303.473 246.299 303.288 247.081 303.288C249.427 303.288 250.601 304.717 250.601 307.576V313.933H247.934V307.683C247.934 306.886 247.799 306.303 247.529 305.933C247.273 305.564 246.832 305.379 246.206 305.379C245.509 305.379 244.962 305.628 244.563 306.125C244.165 306.609 243.966 307.284 243.966 308.152V313.933H241.299V307.683C241.299 306.886 241.164 306.303 240.894 305.933C240.638 305.564 240.204 305.379 239.593 305.379C238.896 305.379 238.348 305.628 237.95 306.125C237.552 306.609 237.353 307.284 237.353 308.152V313.933H234.686ZM258.493 314.147C257.313 314.147 256.296 313.926 255.442 313.485C254.589 313.044 253.928 312.419 253.458 311.608C253.003 310.797 252.776 309.837 252.776 308.728C252.776 307.647 252.996 306.701 253.437 305.891C253.892 305.08 254.511 304.447 255.293 303.992C256.09 303.523 256.993 303.288 258.002 303.288C259.482 303.288 260.648 303.757 261.501 304.696C262.369 305.635 262.802 306.915 262.802 308.536V309.325H255.336C255.535 311.188 256.602 312.12 258.536 312.12C259.119 312.12 259.702 312.035 260.285 311.864C260.868 311.679 261.402 311.395 261.885 311.011L262.632 312.803C262.134 313.215 261.508 313.542 260.754 313.784C260.001 314.026 259.247 314.147 258.493 314.147ZM258.109 305.101C257.327 305.101 256.694 305.343 256.21 305.827C255.727 306.31 255.435 306.964 255.336 307.789H260.584C260.527 306.922 260.285 306.26 259.858 305.805C259.446 305.336 258.863 305.101 258.109 305.101Z" fill="#171717" fill-opacity="0.8"/>
<path d="M504 96H117.556V121.076H504V96Z" fill="#EEEEEE"/>
<path d="M305.556 96H138.889V121.076H305.556V96Z" fill="#F7B859"/>
<path d="M305.556 96H161.556V121.076H305.556V96Z" fill="#6931D0"/>
<path d="M302.889 98.3827H295.112V118.695H302.889V98.3827Z" fill="#3900A0"/>
<path d="M290.777 98.3827H283V118.695H290.777V98.3827Z" fill="white"/>
<path d="M276.777 98.3827H269V118.695H276.777V98.3827Z" fill="#A9CC1E"/>
<path d="M264.777 98.3827H257V118.695H264.777V98.3827Z" fill="#A9CC1E"/>
<path d="M219.953 98.3827H196.571V118.695H219.953V98.3827Z" fill="#FF7A00"/>
<path d="M200.419 114.955H203.971V116.137H198.951V108.554H200.419V114.955ZM208.857 116.137H207.393V110.32L205.477 111.007V109.747L208.779 108.554H208.857V116.137Z" fill="#747474"/>
<path d="M217.82 99.716H211.42C210.979 99.716 210.62 100.073 210.62 100.516V107.716L212.22 106.116H217.82C218.261 106.116 218.62 105.757 218.62 105.316V100.516C218.62 100.072 218.26 99.716 217.82 99.716Z" fill="#0000FF"/>
<path d="M251.652 98.3827H224.985V118.695H251.652V98.3827Z" fill="#FF7A00"/>
<path d="M228.834 114.955H232.386V116.137H227.365V108.554H228.834V114.955ZM238.683 116.137H233.511V115.148L235.964 112.512C236.155 112.304 236.317 112.115 236.449 111.945C236.581 111.774 236.688 111.618 236.771 111.476C236.851 111.337 236.909 111.207 236.943 111.085C236.982 110.964 237.001 110.846 237.001 110.731C237.001 110.561 236.976 110.41 236.928 110.278C236.879 110.146 236.811 110.033 236.725 109.939C236.634 109.849 236.527 109.78 236.402 109.731C236.28 109.682 236.145 109.658 235.995 109.658C235.801 109.658 235.629 109.686 235.48 109.741C235.334 109.794 235.212 109.872 235.115 109.976C235.015 110.084 234.938 110.217 234.886 110.377C234.834 110.537 234.808 110.719 234.808 110.924H233.355C233.355 110.587 233.419 110.269 233.548 109.971C233.676 109.669 233.858 109.405 234.094 109.179C234.327 108.953 234.608 108.776 234.938 108.648C235.271 108.516 235.64 108.45 236.042 108.45C236.428 108.45 236.768 108.504 237.063 108.611C237.362 108.719 237.612 108.87 237.813 109.064C238.011 109.259 238.162 109.493 238.266 109.768C238.37 110.038 238.423 110.339 238.423 110.669C238.423 110.919 238.383 111.158 238.303 111.387C238.226 111.613 238.117 111.837 237.975 112.059C237.829 112.281 237.655 112.509 237.454 112.741C237.252 112.971 237.028 113.212 236.782 113.465L235.355 114.976H238.683V116.137Z" fill="#747474"/>
<path d="M249.519 99.716H243.119C242.676 99.716 242.319 100.073 242.319 100.516V107.716L243.919 106.116H249.519C249.96 106.116 250.319 105.757 250.319 105.316V100.516C250.319 100.072 249.959 99.716 249.519 99.716Z" fill="#0000FF"/>
<path d="M172 98.3827H164.223V118.695H172V98.3827Z" fill="#2E0084"/>
<path d="M191.539 98.3827H177.032V118.695H191.539V98.3827Z" fill="#AA7CFF"/>
<path d="M187.485 104.247H181.085C180.644 104.247 180.285 104.604 180.285 105.047V112.247L181.885 110.647H187.485C187.928 110.647 188.285 110.288 188.285 109.847V105.047C188.285 104.603 187.925 104.247 187.485 104.247Z" fill="#0000FF"/>
<path d="M94.5085 118V103.045H91.7565V100.72H100.375V103.045H97.6658V118H94.5085ZM103.867 118V103.984C103.782 104.027 103.611 104.091 103.355 104.176C103.113 104.261 102.843 104.347 102.544 104.432C102.246 104.503 101.968 104.574 101.712 104.645C101.471 104.716 101.3 104.773 101.2 104.816V102.619C101.4 102.548 101.648 102.448 101.947 102.32C102.246 102.192 102.559 102.05 102.886 101.893C103.227 101.723 103.54 101.538 103.824 101.339C104.123 101.14 104.365 100.933 104.55 100.72H106.811V118H103.867Z" fill="#F7B859"/>
<path d="M142.929 135.16C142.363 135.16 141.857 135.053 141.409 134.84C140.971 134.616 140.625 134.317 140.368 133.944C140.123 133.571 140.001 133.149 140.001 132.68C140.001 132.104 140.15 131.651 140.449 131.32C140.747 130.979 141.233 130.733 141.905 130.584C142.577 130.435 143.478 130.36 144.609 130.36H145.169V130.024C145.169 129.491 145.051 129.107 144.817 128.872C144.582 128.637 144.187 128.52 143.633 128.52C143.195 128.52 142.747 128.589 142.289 128.728C141.83 128.856 141.366 129.059 140.897 129.336L140.321 127.976C140.598 127.784 140.923 127.619 141.297 127.48C141.681 127.331 142.081 127.219 142.497 127.144C142.923 127.059 143.323 127.016 143.697 127.016C144.838 127.016 145.686 127.283 146.241 127.816C146.795 128.339 147.073 129.155 147.073 130.264V135H145.201V133.752C145.019 134.189 144.731 134.536 144.337 134.792C143.942 135.037 143.473 135.16 142.929 135.16ZM143.345 133.784C143.867 133.784 144.299 133.603 144.641 133.24C144.993 132.877 145.169 132.419 145.169 131.864V131.512H144.625C143.622 131.512 142.923 131.592 142.529 131.752C142.145 131.901 141.953 132.179 141.953 132.584C141.953 132.936 142.075 133.224 142.321 133.448C142.566 133.672 142.907 133.784 143.345 133.784ZM170.865 135.16C170.289 135.16 169.771 135.032 169.312 134.776C168.865 134.52 168.529 134.173 168.305 133.736V135H166.353V123.72H168.353V128.328C168.587 127.933 168.923 127.619 169.361 127.384C169.809 127.139 170.31 127.016 170.865 127.016C171.558 127.016 172.161 127.181 172.673 127.512C173.185 127.843 173.585 128.312 173.873 128.92C174.161 129.517 174.305 130.237 174.305 131.08C174.305 131.912 174.161 132.637 173.873 133.256C173.585 133.864 173.179 134.333 172.657 134.664C172.145 134.995 171.547 135.16 170.865 135.16ZM170.305 133.64C170.902 133.64 171.382 133.427 171.745 133C172.107 132.563 172.289 131.923 172.289 131.08C172.289 130.227 172.107 129.592 171.745 129.176C171.382 128.749 170.902 128.536 170.305 128.536C169.707 128.536 169.227 128.749 168.865 129.176C168.502 129.592 168.321 130.227 168.321 131.08C168.321 131.923 168.502 132.563 168.865 133C169.227 133.427 169.707 133.64 170.305 133.64ZM188.187 135.16C187.366 135.16 186.651 134.995 186.043 134.664C185.435 134.323 184.966 133.843 184.635 133.224C184.305 132.605 184.139 131.88 184.139 131.048C184.139 130.216 184.305 129.501 184.635 128.904C184.966 128.296 185.435 127.832 186.043 127.512C186.651 127.181 187.366 127.016 188.187 127.016C188.689 127.016 189.185 127.096 189.675 127.256C190.166 127.416 190.571 127.64 190.891 127.928L190.299 129.32C190.022 129.075 189.707 128.888 189.355 128.76C189.014 128.632 188.683 128.568 188.363 128.568C187.67 128.568 187.131 128.787 186.747 129.224C186.374 129.651 186.187 130.264 186.187 131.064C186.187 131.853 186.374 132.477 186.747 132.936C187.131 133.384 187.67 133.608 188.363 133.608C188.673 133.608 189.003 133.544 189.355 133.416C189.707 133.288 190.022 133.096 190.299 132.84L190.891 134.248C190.571 134.525 190.161 134.749 189.659 134.92C189.169 135.08 188.678 135.16 188.187 135.16ZM203.751 135.16C203.068 135.16 202.466 134.995 201.943 134.664C201.431 134.333 201.031 133.864 200.743 133.256C200.455 132.637 200.311 131.912 200.311 131.08C200.311 130.237 200.455 129.517 200.743 128.92C201.031 128.312 201.431 127.843 201.943 127.512C202.466 127.181 203.068 127.016 203.751 127.016C204.306 127.016 204.807 127.139 205.255 127.384C205.703 127.629 206.039 127.955 206.263 128.36V123.72H208.263V135H206.311V133.704C206.098 134.152 205.762 134.509 205.303 134.776C204.844 135.032 204.327 135.16 203.751 135.16ZM204.311 133.64C204.908 133.64 205.388 133.427 205.751 133C206.114 132.563 206.295 131.923 206.295 131.08C206.295 130.227 206.114 129.592 205.751 129.176C205.388 128.749 204.908 128.536 204.311 128.536C203.714 128.536 203.234 128.749 202.871 129.176C202.508 129.592 202.327 130.227 202.327 131.08C202.327 131.923 202.508 132.563 202.871 133C203.234 133.427 203.714 133.64 204.311 133.64ZM231.443 135.16C230.558 135.16 229.795 134.995 229.155 134.664C228.515 134.333 228.019 133.864 227.667 133.256C227.326 132.648 227.155 131.928 227.155 131.096C227.155 130.285 227.32 129.576 227.651 128.968C227.992 128.36 228.456 127.885 229.043 127.544C229.64 127.192 230.318 127.016 231.075 127.016C232.184 127.016 233.059 127.368 233.699 128.072C234.35 128.776 234.675 129.736 234.675 130.952V131.544H229.075C229.224 132.941 230.024 133.64 231.475 133.64C231.912 133.64 232.35 133.576 232.787 133.448C233.224 133.309 233.624 133.096 233.987 132.808L234.547 134.152C234.174 134.461 233.704 134.707 233.139 134.888C232.574 135.069 232.008 135.16 231.443 135.16ZM231.155 128.376C230.568 128.376 230.094 128.557 229.731 128.92C229.368 129.283 229.15 129.773 229.075 130.392H233.011C232.968 129.741 232.787 129.245 232.467 128.904C232.158 128.552 231.72 128.376 231.155 128.376ZM296.506 125.496V123.544H298.746V125.496H296.506ZM296.634 135V127.176H298.634V135H296.634Z" fill="#747474"/>
<path d="M504 147H117.556V172.076H504V147Z" fill="#EEEEEE"/>
<path d="M344 147H261V172H344V147Z" fill="#009688"/>
<path d="M306 147H251V172H306V147Z" fill="#9EB5B2"/>
<path d="M258.4 163.1H258.193L258.046 163.246L256.5 164.793V155.2C256.5 154.813 256.813 154.5 257.2 154.5H266.8C267.185 154.5 267.5 154.812 267.5 155.2V162.4C267.5 162.787 267.187 163.1 266.8 163.1H258.4Z" fill="#6C6CF9" stroke="#0000FF"/>
<path d="M76.9253 170L77.224 152.72H80.488L82.9413 164.688L85.5013 152.72H88.6587L88.9787 170H86.632L86.376 157.989L83.9227 170H82.024L79.528 157.947L79.2933 170H76.9253ZM95.7575 170.235C94.7193 170.235 93.8517 170.036 93.1548 169.637C92.4579 169.225 91.9317 168.628 91.5762 167.845C91.2206 167.063 91.0215 166.103 90.9788 164.965L93.6882 164.432C93.7166 165.1 93.7948 165.691 93.9228 166.203C94.0651 166.715 94.2713 167.113 94.5415 167.397C94.8259 167.668 95.1957 167.803 95.6508 167.803C96.1628 167.803 96.5255 167.653 96.7388 167.355C96.9522 167.042 97.0588 166.651 97.0588 166.181C97.0588 165.428 96.8882 164.809 96.5468 164.325C96.2055 163.842 95.7504 163.358 95.1815 162.875L93.0055 160.955C92.3939 160.428 91.9033 159.845 91.5335 159.205C91.1779 158.551 91.0002 157.748 91.0002 156.795C91.0002 155.429 91.3984 154.377 92.1948 153.637C92.9913 152.898 94.0793 152.528 95.4588 152.528C96.2695 152.528 96.9451 152.656 97.4855 152.912C98.0259 153.154 98.4526 153.495 98.7655 153.936C99.0926 154.377 99.3344 154.882 99.4908 155.451C99.6473 156.005 99.7468 156.596 99.7895 157.221L97.1015 157.691C97.0731 157.15 97.0091 156.667 96.9095 156.24C96.8242 155.813 96.6606 155.479 96.4188 155.237C96.1913 154.996 95.8499 154.875 95.3948 154.875C94.9255 154.875 94.5628 155.031 94.3068 155.344C94.0651 155.643 93.9442 156.02 93.9442 156.475C93.9442 157.058 94.0651 157.541 94.3068 157.925C94.5486 158.295 94.8971 158.679 95.3522 159.077L97.5068 160.976C98.2179 161.573 98.8224 162.277 99.3202 163.088C99.8322 163.884 100.088 164.852 100.088 165.989C100.088 166.814 99.9033 167.547 99.5335 168.187C99.1779 168.827 98.6731 169.332 98.0188 169.701C97.3788 170.057 96.6251 170.235 95.7575 170.235ZM103.867 170V155.984C103.782 156.027 103.611 156.091 103.355 156.176C103.113 156.261 102.843 156.347 102.544 156.432C102.246 156.503 101.968 156.574 101.712 156.645C101.471 156.716 101.3 156.773 101.2 156.816V154.619C101.4 154.548 101.648 154.448 101.947 154.32C102.246 154.192 102.559 154.05 102.886 153.893C103.227 153.723 103.54 153.538 103.824 153.339C104.123 153.14 104.365 152.933 104.55 152.72H106.811V170H103.867Z" fill="#009688"/>
<path d="M261 147L263.887 142L258.113 142L261 147ZM260.5 119L260.5 142.5L261.5 142.5L261.5 119L260.5 119Z" fill="#9EB5B2"/>
<path d="M504 194H117.556V219.076H504V194Z" fill="#EEEEEE"/>
<path d="M389 194H273V219H389V194Z" fill="#FF0000"/>
<path d="M344 194H262V219H344V194Z" fill="#FFABAB"/>
<path d="M270.4 210.1H270.193L270.046 210.246L268.5 211.793V202.2C268.5 201.813 268.813 201.5 269.2 201.5H278.8C279.185 201.5 279.5 201.812 279.5 202.2V209.4C279.5 209.787 279.187 210.1 278.8 210.1H270.4Z" fill="#6C6CF9" stroke="#0000FF"/>
<path d="M74.6753 217L74.974 199.72H78.238L80.6913 211.688L83.2513 199.72H86.4087L86.7287 217H84.382L84.126 204.989L81.6727 217H79.774L77.278 204.947L77.0433 217H74.6753ZM93.5075 217.235C92.4693 217.235 91.6017 217.036 90.9048 216.637C90.2079 216.225 89.6817 215.628 89.3262 214.845C88.9706 214.063 88.7715 213.103 88.7288 211.965L91.4382 211.432C91.4666 212.1 91.5448 212.691 91.6728 213.203C91.8151 213.715 92.0213 214.113 92.2915 214.397C92.5759 214.668 92.9457 214.803 93.4008 214.803C93.9128 214.803 94.2755 214.653 94.4888 214.355C94.7022 214.042 94.8088 213.651 94.8088 213.181C94.8088 212.428 94.6382 211.809 94.2968 211.325C93.9555 210.842 93.5004 210.358 92.9315 209.875L90.7555 207.955C90.1439 207.428 89.6533 206.845 89.2835 206.205C88.9279 205.551 88.7502 204.748 88.7502 203.795C88.7502 202.429 89.1484 201.377 89.9448 200.637C90.7413 199.898 91.8293 199.528 93.2088 199.528C94.0195 199.528 94.6951 199.656 95.2355 199.912C95.7759 200.154 96.2026 200.495 96.5155 200.936C96.8426 201.377 97.0844 201.882 97.2408 202.451C97.3973 203.005 97.4968 203.596 97.5395 204.221L94.8515 204.691C94.8231 204.15 94.7591 203.667 94.6595 203.24C94.5742 202.813 94.4106 202.479 94.1688 202.237C93.9413 201.996 93.5999 201.875 93.1448 201.875C92.6755 201.875 92.3128 202.031 92.0568 202.344C91.8151 202.643 91.6942 203.02 91.6942 203.475C91.6942 204.058 91.8151 204.541 92.0568 204.925C92.2986 205.295 92.6471 205.679 93.1022 206.077L95.2568 207.976C95.9679 208.573 96.5724 209.277 97.0702 210.088C97.5822 210.884 97.8382 211.852 97.8382 212.989C97.8382 213.814 97.6533 214.547 97.2835 215.187C96.9279 215.827 96.4231 216.332 95.7688 216.701C95.1288 217.057 94.3751 217.235 93.5075 217.235ZM99.2705 217V214.909L103.537 208.317C103.85 207.834 104.142 207.372 104.412 206.931C104.696 206.49 104.924 206.035 105.094 205.565C105.279 205.082 105.372 204.556 105.372 203.987C105.372 203.347 105.258 202.856 105.03 202.515C104.803 202.173 104.447 202.003 103.964 202.003C103.509 202.003 103.153 202.131 102.897 202.387C102.641 202.643 102.463 202.977 102.364 203.389C102.278 203.802 102.236 204.257 102.236 204.755V205.48H99.3345V204.712C99.3345 203.688 99.4838 202.792 99.7825 202.024C100.095 201.242 100.586 200.63 101.254 200.189C101.923 199.748 102.798 199.528 103.878 199.528C105.358 199.528 106.467 199.926 107.206 200.723C107.946 201.519 108.316 202.628 108.316 204.051C108.316 204.762 108.216 205.409 108.017 205.992C107.818 206.561 107.555 207.108 107.228 207.635C106.901 208.161 106.545 208.701 106.161 209.256L102.62 214.632H107.868V217H99.2705Z" fill="#FF0000"/>
<path d="M273 194L275.887 189L270.113 189L273 194ZM272.5 119L272.5 189.5L273.5 189.5L273.5 119L272.5 119Z" fill="#FFABAB"/>
<path d="M504 240.155H117.556V265.231H504V240.155Z" fill="#EEEEEE"/>
<path d="M450 240H287V265H450V240Z" fill="#980000"/>
<path d="M389 240H287V265H389V240Z" fill="#843F3F"/>
<path d="M404.4 255.793H404.193L404.046 255.94L402.5 257.486V247.893C402.5 247.506 402.813 247.193 403.2 247.193H412.8C413.186 247.193 413.5 247.505 413.5 247.893V255.093C413.5 255.48 413.187 255.793 412.8 255.793H404.4Z" fill="#6C6CF9" stroke="#0000FF"/>
<path d="M95.7575 261.235C94.7193 261.235 93.8517 261.036 93.1548 260.637C92.4579 260.225 91.9317 259.628 91.5762 258.845C91.2206 258.063 91.0215 257.103 90.9788 255.965L93.6882 255.432C93.7166 256.1 93.7948 256.691 93.9228 257.203C94.0651 257.715 94.2713 258.113 94.5415 258.397C94.8259 258.668 95.1957 258.803 95.6508 258.803C96.1628 258.803 96.5255 258.653 96.7388 258.355C96.9522 258.042 97.0588 257.651 97.0588 257.181C97.0588 256.428 96.8882 255.809 96.5468 255.325C96.2055 254.842 95.7504 254.358 95.1815 253.875L93.0055 251.955C92.3939 251.428 91.9033 250.845 91.5335 250.205C91.1779 249.551 91.0002 248.748 91.0002 247.795C91.0002 246.429 91.3984 245.377 92.1948 244.637C92.9913 243.898 94.0793 243.528 95.4588 243.528C96.2695 243.528 96.9451 243.656 97.4855 243.912C98.0259 244.154 98.4526 244.495 98.7655 244.936C99.0926 245.377 99.3344 245.882 99.4908 246.451C99.6473 247.005 99.7468 247.596 99.7895 248.221L97.1015 248.691C97.0731 248.15 97.0091 247.667 96.9095 247.24C96.8242 246.813 96.6606 246.479 96.4188 246.237C96.1913 245.996 95.8499 245.875 95.3948 245.875C94.9255 245.875 94.5628 246.031 94.3068 246.344C94.0651 246.643 93.9442 247.02 93.9442 247.475C93.9442 248.058 94.0651 248.541 94.3068 248.925C94.5486 249.295 94.8971 249.679 95.3522 250.077L97.5068 251.976C98.2179 252.573 98.8224 253.277 99.3202 254.088C99.8322 254.884 100.088 255.852 100.088 256.989C100.088 257.814 99.9033 258.547 99.5335 259.187C99.1779 259.827 98.6731 260.332 98.0188 260.701C97.3788 261.057 96.6251 261.235 95.7575 261.235ZM103.867 261V246.984C103.782 247.027 103.611 247.091 103.355 247.176C103.113 247.261 102.843 247.347 102.544 247.432C102.246 247.503 101.968 247.574 101.712 247.645C101.471 247.716 101.3 247.773 101.2 247.816V245.619C101.4 245.548 101.648 245.448 101.947 245.32C102.246 245.192 102.559 245.05 102.886 244.893C103.227 244.723 103.54 244.538 103.824 244.339C104.123 244.14 104.365 243.933 104.55 243.72H106.811V261H103.867Z" fill="#980000"/>
<path d="M287 240L289.887 235L284.113 235L287 240ZM286.5 119L286.5 235.5L287.5 235.5L287.5 119L286.5 119Z" fill="#843F3F"/>
<path d="M504 21.088H117.556V46.164H504V21.088Z" fill="#EEEEEE"/>
<path d="M305.556 21.088H161.556V46.164H305.556V21.088Z" fill="#3A8BF1"/>
<path d="M168.223 41.064C168.96 41.064 169.556 40.504 169.556 39.8133C169.556 39.12 168.956 38.564 168.223 38.564C167.487 38.564 166.889 39.124 166.889 39.8133C166.889 40.504 167.487 41.064 168.223 41.064ZM172.223 35.44C172.96 35.44 173.556 35.9987 173.556 36.6893V42.9387C173.556 43.6293 172.96 44.188 172.223 44.188H164.223C163.487 44.188 162.889 43.6293 162.889 42.9387V36.6893C162.889 35.996 163.489 35.44 164.223 35.44H164.889V34.1893C164.889 32.464 166.383 31.0653 168.223 31.0653C170.064 31.0653 171.556 32.464 171.556 34.1893V35.44H172.223ZM168.223 32.3147C167.119 32.3147 166.223 33.1547 166.223 34.1893V35.44H170.223V34.1893C170.223 33.1547 169.328 32.3147 168.223 32.3147Z" fill="#D2D2D2"/>
<path d="M302.889 35.2933C303.627 35.2933 304.223 35.8906 304.223 36.6266V43.2933C304.223 44.0293 303.627 44.6266 302.889 44.6266H294.889C294.149 44.6266 293.556 44.0266 293.556 43.2933V36.6266C293.556 35.8906 294.153 35.2933 294.889 35.2933H300.889V33.96C300.889 32.856 299.995 31.96 298.889 31.96C297.785 31.96 296.889 32.856 296.889 33.96H295.556C295.556 32.1186 297.049 30.6266 298.889 30.6266C300.731 30.6266 302.223 32.1186 302.223 33.96V35.2933H302.889ZM298.889 41.2933C299.627 41.2933 300.223 40.696 300.223 39.96C300.223 39.224 299.627 38.6266 298.889 38.6266C298.153 38.6266 297.556 39.224 297.556 39.96C297.556 40.696 298.153 41.2933 298.889 41.2933Z" fill="#D2D2D2"/>
<path d="M188.8 28.96H179.2C178.537 28.96 178 29.4973 178 30.16V40.96L180.4 38.56H188.8C189.463 38.56 190 38.0227 190 37.36V30.16C190 29.4947 189.46 28.96 188.8 28.96Z" fill="#0000FF"/>
<path d="M168 98L168 46" stroke="#607D8B" stroke-opacity="0.7" stroke-width="1.33333" stroke-miterlimit="1" stroke-linecap="round" stroke-dasharray="0.33 4 0.33 4"/>
<path d="M299 96L299 46" stroke="#607D8B" stroke-opacity="0.7" stroke-width="1.33333" stroke-miterlimit="1" stroke-linecap="round" stroke-dasharray="0.33 4 0.33 4"/>
<path d="M215 99L215 34" stroke="#FF7A00" stroke-width="1.5" stroke-miterlimit="3" stroke-linejoin="bevel" stroke-dasharray="3 3"/>
<path d="M247 100L247 34" stroke="#FF7A00" stroke-width="1.5" stroke-miterlimit="3" stroke-linejoin="bevel" stroke-dasharray="3 3"/>
<path d="M247 34L191 34" stroke="#FF7A00" stroke-width="1.5" stroke-miterlimit="3" stroke-linecap="square" stroke-dasharray="3 3"/>
<path d="M184 47L184 104" stroke="#1D559C" stroke-width="1.33333" stroke-miterlimit="3" stroke-linejoin="bevel"/>
<path d="M188.556 50.86L184.223 42.1933L179.889 50.86H188.556Z" fill="#1D559C"/>
<path d="M427.223 21.088H389.889V46.164H427.223V21.088Z" fill="#3A8BF1"/>
<path d="M396.556 41.064C397.293 41.064 397.889 40.504 397.889 39.8133C397.889 39.12 397.289 38.564 396.556 38.564C395.82 38.564 395.223 39.124 395.223 39.8133C395.223 40.504 395.82 41.064 396.556 41.064ZM400.556 35.44C401.293 35.44 401.889 35.9987 401.889 36.6893V42.9387C401.889 43.6293 401.293 44.188 400.556 44.188H392.556C391.82 44.188 391.223 43.6293 391.223 42.9387V36.6893C391.223 35.996 391.823 35.44 392.556 35.44H393.223V34.1893C393.223 32.464 394.716 31.0653 396.556 31.0653C398.397 31.0653 399.889 32.464 399.889 34.1893V35.44H400.556ZM396.556 32.3147C395.452 32.3147 394.556 33.1547 394.556 34.1893V35.44H398.556V34.1893C398.556 33.1547 397.661 32.3147 396.556 32.3147Z" fill="#D2D2D2"/>
<path d="M424.556 35.2933C425.293 35.2933 425.889 35.8907 425.889 36.6267V43.2933C425.889 44.0293 425.293 44.6267 424.556 44.6267H416.556C415.816 44.6267 415.223 44.0267 415.223 43.2933V36.6267C415.223 35.8907 415.82 35.2933 416.556 35.2933H422.556V33.96C422.556 32.856 421.661 31.96 420.556 31.96C419.452 31.96 418.556 32.856 418.556 33.96H417.223C417.223 32.1187 418.716 30.6267 420.556 30.6267C422.397 30.6267 423.889 32.1187 423.889 33.96V35.2933H424.556ZM420.556 41.2933C421.293 41.2933 421.889 40.696 421.889 39.96C421.889 39.224 421.293 38.6267 420.556 38.6267C419.82 38.6267 419.223 39.224 419.223 39.96C419.223 40.696 419.82 41.2933 420.556 41.2933Z" fill="#D2D2D2"/>
<path d="M413.5 27.4H403.9C403.237 27.4 402.7 27.9374 402.7 28.6V39.4L405.1 37H413.5C414.163 37 414.7 36.4627 414.7 35.8V28.6C414.7 27.9347 414.16 27.4 413.5 27.4Z" fill="#0000FF"/>
<path d="M397 240L397 46" stroke="#607D8B" stroke-opacity="0.7" stroke-width="1.33333" stroke-miterlimit="1" stroke-linecap="round" stroke-dasharray="0.33 4 0.33 4"/>
<path d="M421 240L421 46" stroke="#607D8B" stroke-opacity="0.7" stroke-width="1.33333" stroke-miterlimit="1" stroke-linecap="round" stroke-dasharray="0.33 4 0.33 4"/>
<path d="M409 238L409 38" stroke="#1D559C" stroke-width="1.33333" stroke-miterlimit="3" stroke-linejoin="bevel"/>
<path d="M404.223 238L408.556 246.667L412.889 238H404.223Z" fill="#1D559C"/>
<path d="M25.952 44.2347C24.6862 44.2347 23.6907 43.9858 22.9653 43.488C22.2542 42.9902 21.7564 42.3147 21.472 41.4613C21.1876 40.5938 21.0453 39.5982 21.0453 38.4747V32.3093C21.0453 31.1289 21.1876 30.1049 21.472 29.2373C21.7564 28.3698 22.2542 27.7013 22.9653 27.232C23.6907 26.7627 24.6862 26.528 25.952 26.528C27.1467 26.528 28.0782 26.7342 28.7467 27.1467C29.4293 27.5449 29.9129 28.1209 30.1973 28.8747C30.4818 29.6284 30.624 30.5031 30.624 31.4987V32.9493H27.5947V31.456C27.5947 30.9724 27.5662 30.5316 27.5093 30.1333C27.4667 29.7351 27.3316 29.4222 27.104 29.1947C26.8907 28.9529 26.5138 28.832 25.9733 28.832C25.4329 28.832 25.0347 28.96 24.7787 29.216C24.5369 29.4578 24.3804 29.792 24.3093 30.2187C24.2382 30.6311 24.2027 31.1004 24.2027 31.6267V39.136C24.2027 39.7618 24.2524 40.2809 24.352 40.6933C24.4516 41.0916 24.6293 41.3973 24.8853 41.6107C25.1556 41.8098 25.5182 41.9093 25.9733 41.9093C26.4996 41.9093 26.8693 41.7884 27.0827 41.5467C27.3102 41.2907 27.4524 40.9564 27.5093 40.544C27.5662 40.1316 27.5947 39.6693 27.5947 39.1573V37.6H30.624V38.9867C30.624 40.0107 30.4889 40.9209 30.2187 41.7173C29.9484 42.4996 29.472 43.1182 28.7893 43.5733C28.1209 44.0142 27.1751 44.2347 25.952 44.2347ZM32.8648 44V26.72H36.0008V33.952H39.5208V26.72H42.6782V44H39.5208V36.192H36.0008V44H32.8648ZM44.4475 44L47.9035 26.72H51.2742L54.7302 44H51.8075L51.1248 40.0107H48.1168L47.4128 44H44.4475ZM48.4368 38.0053H50.7835L49.6102 30.752L48.4368 38.0053ZM56.468 44V26.72H58.6653L62.868 36.576V26.72H65.4707V44H63.38L59.156 33.6747V44H56.468ZM68.093 44V26.72H70.2903L74.493 36.576V26.72H77.0957V44H75.005L70.781 33.6747V44H68.093ZM79.718 44V26.72H86.9713V28.9387H82.8753V33.9093H86.0967V36.1067H82.8753V41.824H87.014V44H79.718ZM88.843 44V26.72H92.0003V41.824H96.1817V44H88.843ZM102.135 44L105.591 26.72H108.962L112.418 44H109.495L108.812 40.0107H105.804L105.1 44H102.135ZM106.124 38.0053H108.471L107.298 30.752L106.124 38.0053Z" fill="#3A8BF1"/>
<path d="M399.275 17.004C398.347 17.004 397.659 16.7533 397.211 16.252C396.773 15.74 396.555 14.9933 396.555 14.012V5.56399H398.555V13.916C398.555 14.876 398.96 15.356 399.771 15.356C399.888 15.356 400.005 15.3507 400.123 15.34C400.24 15.3293 400.352 15.308 400.459 15.276L400.427 16.86C400.043 16.956 399.659 17.004 399.275 17.004ZM401.696 16.844V9.01999H403.648V10.22C403.883 9.79333 404.208 9.46266 404.624 9.22799C405.04 8.98266 405.52 8.85999 406.064 8.85999C407.237 8.85999 408.005 9.37199 408.368 10.396C408.613 9.91599 408.965 9.54266 409.424 9.27599C409.883 8.99866 410.405 8.85999 410.992 8.85999C412.752 8.85999 413.632 9.93199 413.632 12.076V16.844H411.632V12.156C411.632 11.5587 411.531 11.1213 411.328 10.844C411.136 10.5667 410.805 10.428 410.336 10.428C409.813 10.428 409.403 10.6147 409.104 10.988C408.805 11.3507 408.656 11.8573 408.656 12.508V16.844H406.656V12.156C406.656 11.5587 406.555 11.1213 406.352 10.844C406.16 10.5667 405.835 10.428 405.376 10.428C404.853 10.428 404.443 10.6147 404.144 10.988C403.845 11.3507 403.696 11.8573 403.696 12.508V16.844H401.696ZM415.695 16.844V9.01999H417.647V10.236C417.914 9.78799 418.271 9.44666 418.719 9.21199C419.178 8.97733 419.69 8.85999 420.255 8.85999C422.101 8.85999 423.023 9.93199 423.023 12.076V16.844H421.023V12.172C421.023 11.564 420.906 11.1213 420.671 10.844C420.447 10.5667 420.095 10.428 419.615 10.428C419.029 10.428 418.559 10.6147 418.207 10.988C417.866 11.3507 417.695 11.836 417.695 12.444V16.844H415.695Z" fill="#747474"/>
<path d="M338.976 84.496V82.544H341.216V84.496H338.976ZM337.28 97.088L337.136 95.632L337.872 95.552C338.693 95.456 339.104 94.976 339.104 94.112V86.176H341.104V93.856C341.104 94.9013 340.864 95.6693 340.384 96.16C339.904 96.6613 339.099 96.9547 337.968 97.04L337.28 97.088Z" fill="#747474"/>
<path d="M385.04 148V136.72H387.04V143.504H387.072L390.224 140.176H392.64L389.088 143.92L392.864 148H390.416L387.072 144.512H387.04V148H385.04Z" fill="#747474"/>
<path d="M449.608 236.16C448.797 236.16 448.093 235.995 447.496 235.664C446.899 235.333 446.435 234.864 446.104 234.256C445.773 233.637 445.608 232.912 445.608 232.08C445.608 231.248 445.773 230.528 446.104 229.92C446.435 229.312 446.899 228.843 447.496 228.512C448.093 228.181 448.797 228.016 449.608 228.016C450.419 228.016 451.123 228.181 451.72 228.512C452.317 228.843 452.781 229.312 453.112 229.92C453.443 230.528 453.608 231.248 453.608 232.08C453.608 232.912 453.443 233.637 453.112 234.256C452.781 234.864 452.317 235.333 451.72 235.664C451.123 235.995 450.419 236.16 449.608 236.16ZM449.608 234.64C450.205 234.64 450.685 234.427 451.048 234C451.411 233.563 451.592 232.923 451.592 232.08C451.592 231.227 451.411 230.592 451.048 230.176C450.685 229.749 450.205 229.536 449.608 229.536C449.011 229.536 448.531 229.749 448.168 230.176C447.805 230.592 447.624 231.227 447.624 232.08C447.624 232.923 447.805 233.563 448.168 234C448.531 234.427 449.011 234.64 449.608 234.64Z" fill="#747474"/>
</svg>
