<?xml version="1.0" encoding="UTF-8" standalone="no"?>
<!-- Generator: Gravit.io -->
<svg xmlns="http://www.w3.org/2000/svg" xmlns:xlink="http://www.w3.org/1999/xlink" style="isolation:isolate" viewBox="0 0 317 173" width="317pt" height="173pt"><g><path d="M 2.028 54 L 197.972 54 C 199.091 54 200 54.909 200 56.028 L 200 109.722 C 200 110.841 199.091 111.75 197.972 111.75 L 2.028 111.75 C 0.909 111.75 0 110.841 0 109.722 L 0 56.028 C 0 54.909 0.909 54 2.028 54 Z" style="stroke:none;fill:#6931D0;stroke-miterlimit:10;"/><path d=" M 24.193 91.36 L 16.833 91.36 L 16.833 89.46 L 21.193 77.2 L 17.073 77.2 L 17.073 75.16 L 24.173 75.16 L 24.173 76.68 L 19.653 89.32 L 24.193 89.32 L 24.193 91.36 L 24.193 91.36 Z  M 30.493 91.36 L 25.833 91.36 L 25.833 75.16 L 29.813 75.16 L 29.813 75.16 Q 30.893 75.16 31.763 75.36 L 31.763 75.36 L 31.763 75.36 Q 32.633 75.56 33.263 76.03 L 33.263 76.03 L 33.263 76.03 Q 33.893 76.5 34.233 77.3 L 34.233 77.3 L 34.233 77.3 Q 34.573 78.1 34.573 79.32 L 34.573 79.32 L 34.573 79.32 Q 34.573 80.3 34.303 81 L 34.303 81 L 34.303 81 Q 34.033 81.7 33.513 82.11 L 33.513 82.11 L 33.513 82.11 Q 32.993 82.52 32.213 82.66 L 32.213 82.66 L 32.213 82.66 Q 33.173 82.82 33.803 83.33 L 33.803 83.33 L 33.803 83.33 Q 34.433 83.84 34.743 84.66 L 34.743 84.66 L 34.743 84.66 Q 35.053 85.48 35.053 86.64 L 35.053 86.64 L 35.053 86.64 Q 35.053 87.8 34.763 88.69 L 34.763 88.69 L 34.763 88.69 Q 34.473 89.58 33.903 90.17 L 33.903 90.17 L 33.903 90.17 Q 33.333 90.76 32.483 91.06 L 32.483 91.06 L 32.483 91.06 Q 31.633 91.36 30.493 91.36 L 30.493 91.36 L 30.493 91.36 Z  M 28.793 83.82 L 28.793 89.28 L 29.913 89.28 L 29.913 89.28 Q 31.253 89.28 31.733 88.63 L 31.733 88.63 L 31.733 88.63 Q 32.213 87.98 32.213 86.62 L 32.213 86.62 L 32.213 86.62 Q 32.213 85.64 31.983 85.03 L 31.983 85.03 L 31.983 85.03 Q 31.753 84.42 31.223 84.12 L 31.223 84.12 L 31.223 84.12 Q 30.693 83.82 29.813 83.82 L 29.813 83.82 L 28.793 83.82 L 28.793 83.82 Z  M 28.793 77.22 L 28.793 81.78 L 29.793 81.78 L 29.793 81.78 Q 30.673 81.78 31.153 81.52 L 31.153 81.52 L 31.153 81.52 Q 31.633 81.26 31.823 80.72 L 31.823 80.72 L 31.823 80.72 Q 32.013 80.18 32.013 79.36 L 32.013 79.36 L 32.013 79.36 Q 32.013 78.5 31.723 78.03 L 31.723 78.03 L 31.723 78.03 Q 31.433 77.56 30.853 77.39 L 30.853 77.39 L 30.853 77.39 Q 30.273 77.22 29.373 77.22 L 29.373 77.22 L 28.793 77.22 L 28.793 77.22 Z  M 41.413 91.58 L 41.413 91.58 L 41.413 91.58 Q 39.613 91.58 38.613 90.92 L 38.613 90.92 L 38.613 90.92 Q 37.613 90.26 37.233 89.04 L 37.233 89.04 L 37.233 89.04 Q 36.853 87.82 36.853 86.12 L 36.853 86.12 L 36.853 75.16 L 39.733 75.16 L 39.733 86.46 L 39.733 86.46 Q 39.733 87.22 39.833 87.89 L 39.833 87.89 L 39.833 87.89 Q 39.933 88.56 40.303 88.97 L 40.303 88.97 L 40.303 88.97 Q 40.673 89.38 41.413 89.38 L 41.413 89.38 L 41.413 89.38 Q 42.193 89.38 42.543 88.97 L 42.543 88.97 L 42.543 88.97 Q 42.893 88.56 43.003 87.89 L 43.003 87.89 L 43.003 87.89 Q 43.113 87.22 43.113 86.46 L 43.113 86.46 L 43.113 75.16 L 45.973 75.16 L 45.973 86.12 L 45.973 86.12 Q 45.973 87.82 45.593 89.04 L 45.593 89.04 L 45.593 89.04 Q 45.213 90.26 44.223 90.92 L 44.223 90.92 L 44.223 90.92 Q 43.233 91.58 41.413 91.58 Z  M 52.373 91.58 L 52.373 91.58 L 52.373 91.58 Q 50.913 91.58 49.933 91.01 L 49.933 91.01 L 49.933 91.01 Q 48.953 90.44 48.453 89.34 L 48.453 89.34 L 48.453 89.34 Q 47.953 88.24 47.893 86.64 L 47.893 86.64 L 50.433 86.14 L 50.433 86.14 Q 50.473 87.08 50.663 87.8 L 50.663 87.8 L 50.663 87.8 Q 50.853 88.52 51.243 88.91 L 51.243 88.91 L 51.243 88.91 Q 51.633 89.3 52.273 89.3 L 52.273 89.3 L 52.273 89.3 Q 52.993 89.3 53.293 88.87 L 53.293 88.87 L 53.293 88.87 Q 53.593 88.44 53.593 87.78 L 53.593 87.78 L 53.593 87.78 Q 53.593 86.72 53.113 86.04 L 53.113 86.04 L 53.113 86.04 Q 52.633 85.36 51.833 84.68 L 51.833 84.68 L 49.793 82.88 L 49.793 82.88 Q 48.933 82.14 48.423 81.23 L 48.423 81.23 L 48.423 81.23 Q 47.913 80.32 47.913 78.98 L 47.913 78.98 L 47.913 78.98 Q 47.913 77.06 49.033 76.02 L 49.033 76.02 L 49.033 76.02 Q 50.153 74.98 52.093 74.98 L 52.093 74.98 L 52.093 74.98 Q 53.233 74.98 53.993 75.33 L 53.993 75.33 L 53.993 75.33 Q 54.753 75.68 55.203 76.3 L 55.203 76.3 L 55.203 76.3 Q 55.653 76.92 55.873 77.71 L 55.873 77.71 L 55.873 77.71 Q 56.093 78.5 56.153 79.38 L 56.153 79.38 L 53.633 79.82 L 53.633 79.82 Q 53.593 79.06 53.463 78.46 L 53.463 78.46 L 53.463 78.46 Q 53.333 77.86 53.003 77.52 L 53.003 77.52 L 53.003 77.52 Q 52.673 77.18 52.033 77.18 L 52.033 77.18 L 52.033 77.18 Q 51.373 77.18 51.023 77.61 L 51.023 77.61 L 51.023 77.61 Q 50.673 78.04 50.673 78.68 L 50.673 78.68 L 50.673 78.68 Q 50.673 79.5 51.013 80.03 L 51.013 80.03 L 51.013 80.03 Q 51.353 80.56 51.993 81.12 L 51.993 81.12 L 54.013 82.9 L 54.013 82.9 Q 55.013 83.74 55.723 84.87 L 55.723 84.87 L 55.723 84.87 Q 56.433 86 56.433 87.6 L 56.433 87.6 L 56.433 87.6 Q 56.433 88.76 55.923 89.66 L 55.923 89.66 L 55.923 89.66 Q 55.413 90.56 54.503 91.07 L 54.503 91.07 L 54.503 91.07 Q 53.593 91.58 52.373 91.58 Z " fill="rgb(232,232,232)"/><path d="M 85.462 63.94 L 178.538 63.94 C 180.449 63.94 182 65.491 182 67.402 L 182 98.348 C 182 100.259 180.449 101.81 178.538 101.81 L 85.462 101.81 C 83.551 101.81 82 100.259 82 98.348 L 82 67.402 C 82 65.491 83.551 63.94 85.462 63.94 Z" style="stroke:none;fill:#3A8BF1;stroke-miterlimit:10;"/><clipPath id="_clipPath_kEGWRzjKO7rz2GI2PScymAZh6L7N3Bue"><path d="M 85.462 63.94 L 178.538 63.94 C 180.449 63.94 182 65.491 182 67.402 L 182 98.348 C 182 100.259 180.449 101.81 178.538 101.81 L 85.462 101.81 C 83.551 101.81 82 100.259 82 98.348 L 82 67.402 C 82 65.491 83.551 63.94 85.462 63.94 Z" style="stroke:none;fill:#3A8BF1;stroke-miterlimit:10;"/></clipPath><g clip-path="url(#_clipPath_kEGWRzjKO7rz2GI2PScymAZh6L7N3Bue)"><g opacity="0.87"><path d=" M 150.921 87.847 L 149.392 87.847 L 151.174 78.937 L 152.912 78.937 L 154.694 87.847 L 153.187 87.847 L 152.835 85.79 L 151.284 85.79 L 150.921 87.847 L 150.921 87.847 Z  M 152.054 81.016 L 151.449 84.756 L 152.659 84.756 L 152.054 81.016 L 152.054 81.016 Z  M 110.155 87.968 L 110.155 87.968 L 110.155 87.968 Q 109.176 87.968 108.621 87.583 L 108.621 87.583 L 108.621 87.583 Q 108.065 87.198 107.845 86.532 L 107.845 86.532 L 107.845 86.532 Q 107.625 85.867 107.625 84.998 L 107.625 84.998 L 107.625 81.819 L 107.625 81.819 Q 107.625 80.906 107.845 80.235 L 107.845 80.235 L 107.845 80.235 Q 108.065 79.564 108.621 79.201 L 108.621 79.201 L 108.621 79.201 Q 109.176 78.838 110.155 78.838 L 110.155 78.838 L 110.155 78.838 Q 111.079 78.838 111.602 79.151 L 111.602 79.151 L 111.602 79.151 Q 112.124 79.465 112.344 80.048 L 112.344 80.048 L 112.344 80.048 Q 112.564 80.631 112.564 81.401 L 112.564 81.401 L 112.564 82.149 L 111.002 82.149 L 111.002 81.379 L 111.002 81.379 Q 111.002 81.005 110.964 80.697 L 110.964 80.697 L 110.964 80.697 Q 110.925 80.389 110.755 80.207 L 110.755 80.207 L 110.755 80.207 Q 110.584 80.026 110.166 80.026 L 110.166 80.026 L 110.166 80.026 Q 109.748 80.026 109.556 80.218 L 109.556 80.218 L 109.556 80.218 Q 109.363 80.411 109.308 80.735 L 109.308 80.735 L 109.308 80.735 Q 109.253 81.06 109.253 81.467 L 109.253 81.467 L 109.253 85.339 L 109.253 85.339 Q 109.253 85.823 109.33 86.136 L 109.33 86.136 L 109.33 86.136 Q 109.407 86.45 109.611 86.609 L 109.611 86.609 L 109.611 86.609 Q 109.814 86.769 110.166 86.769 L 110.166 86.769 L 110.166 86.769 Q 110.573 86.769 110.744 86.576 L 110.744 86.576 L 110.744 86.576 Q 110.914 86.384 110.958 86.065 L 110.958 86.065 L 110.958 86.065 Q 111.002 85.746 111.002 85.35 L 111.002 85.35 L 111.002 84.547 L 112.564 84.547 L 112.564 85.262 L 112.564 85.262 Q 112.564 86.054 112.355 86.664 L 112.355 86.664 L 112.355 86.664 Q 112.146 87.275 111.624 87.621 L 111.624 87.621 L 111.624 87.621 Q 111.101 87.968 110.155 87.968 Z  M 115.336 87.847 L 113.719 87.847 L 113.719 78.937 L 115.336 78.937 L 115.336 82.666 L 117.151 82.666 L 117.151 78.937 L 118.779 78.937 L 118.779 87.847 L 117.151 87.847 L 117.151 83.821 L 115.336 83.821 L 115.336 87.847 L 115.336 87.847 Z  M 121.221 87.847 L 119.692 87.847 L 121.474 78.937 L 123.212 78.937 L 124.994 87.847 L 123.487 87.847 L 123.135 85.79 L 121.584 85.79 L 121.221 87.847 L 121.221 87.847 Z  M 122.354 81.016 L 121.749 84.756 L 122.959 84.756 L 122.354 81.016 L 122.354 81.016 Z  M 127.227 87.847 L 125.841 87.847 L 125.841 78.937 L 126.974 78.937 L 129.141 84.019 L 129.141 78.937 L 130.483 78.937 L 130.483 87.847 L 129.405 87.847 L 127.227 82.523 L 127.227 87.847 L 127.227 87.847 Z  M 133.222 87.847 L 131.836 87.847 L 131.836 78.937 L 132.969 78.937 L 135.136 84.019 L 135.136 78.937 L 136.478 78.937 L 136.478 87.847 L 135.4 87.847 L 133.222 82.523 L 133.222 87.847 L 133.222 87.847 Z  M 141.593 87.847 L 137.831 87.847 L 137.831 78.937 L 141.571 78.937 L 141.571 80.081 L 139.459 80.081 L 139.459 82.644 L 141.12 82.644 L 141.12 83.777 L 139.459 83.777 L 139.459 86.725 L 141.593 86.725 L 141.593 87.847 L 141.593 87.847 Z  M 146.323 87.847 L 142.539 87.847 L 142.539 78.937 L 144.167 78.937 L 144.167 86.725 L 146.323 86.725 L 146.323 87.847 L 146.323 87.847 Z " fill="rgb(255,255,255)"/></g></g></g><g><line x1="94.795" y1="24" x2="94.795" y2="62" vector-effect="non-scaling-stroke" stroke-width="1.5" stroke="rgb(96,125,139)" stroke-linejoin="bevel" stroke-linecap="butt" stroke-miterlimit="3"/><path d=" M 91.733 58.326 L 94.795 64.449 L 97.856 58.326 Z " fill="rgb(96,125,139)" stroke="none"/></g><g><line x1="167" y1="27" x2="167" y2="64" vector-effect="non-scaling-stroke" stroke-width="1.5" stroke="rgb(96,125,139)" stroke-linejoin="bevel" stroke-linecap="butt" stroke-miterlimit="3"/><path d=" M 170.062 29.756 L 167 23.632 L 163.938 29.756 Z " fill="rgb(96,125,139)" stroke="none"/></g><g><line x1="227" y1="96.875" x2="182" y2="96.875" vector-effect="non-scaling-stroke" stroke-width="1.5" stroke="rgb(96,125,139)" stroke-linejoin="bevel" stroke-linecap="butt" stroke-miterlimit="3"/><path d=" M 224.306 99.937 L 230.429 96.875 L 224.306 93.813 Z " fill="rgb(96,125,139)" stroke="none"/></g><g><line x1="227" y1="69.875" x2="182" y2="69.875" vector-effect="non-scaling-stroke" stroke-width="1.5" stroke="rgb(96,125,139)" stroke-linejoin="bevel" stroke-linecap="butt" stroke-miterlimit="3"/><path d=" M 224.306 72.937 L 230.429 69.875 L 224.306 66.813 Z " fill="rgb(96,125,139)" stroke="none"/></g><g><line x1="94.795" y1="102" x2="94.795" y2="146" vector-effect="non-scaling-stroke" stroke-width="1.5" stroke="rgb(96,125,139)" stroke-linejoin="bevel" stroke-linecap="butt" stroke-miterlimit="3"/><path d=" M 91.733 143.244 L 94.795 149.368 L 97.856 143.244 Z " fill="rgb(96,125,139)" stroke="none"/></g><g><line x1="167" y1="102" x2="167" y2="146" vector-effect="non-scaling-stroke" stroke-width="1.5" stroke="rgb(96,125,139)" stroke-linejoin="bevel" stroke-linecap="butt" stroke-miterlimit="3"/><path d=" M 163.938 143.244 L 167 149.368 L 170.062 143.244 Z " fill="rgb(96,125,139)" stroke="none"/></g><path d="M 62.964 149 L 126.616 149 C 127.463 149 128.15 149.687 128.15 150.534 L 128.15 171.466 C 128.15 172.313 127.463 173 126.616 173 L 62.964 173 C 62.117 173 61.43 172.313 61.43 171.466 L 61.43 150.534 C 61.43 149.687 62.117 149 62.964 149 Z" style="stroke:none;fill:#EBEBEB;stroke-miterlimit:10;"/><clipPath id="_clipPath_SAa30SuXICni1SOsHYmxS4Qjw2VHXdWF"><path d="M 62.964 149 L 126.616 149 C 127.463 149 128.15 149.687 128.15 150.534 L 128.15 171.466 C 128.15 172.313 127.463 173 126.616 173 L 62.964 173 C 62.117 173 61.43 172.313 61.43 171.466 L 61.43 150.534 C 61.43 149.687 62.117 149 62.964 149 Z" style="stroke:none;fill:#EBEBEB;stroke-miterlimit:10;"/></clipPath><g clip-path="url(#_clipPath_SAa30SuXICni1SOsHYmxS4Qjw2VHXdWF)"><rect x="61.435" y="149.5" width="23" height="23" transform="matrix(1,0,0,1,0,0)" fill="rgb(0,0,0)" fill-opacity="0.05"/><clipPath id="_clipPath_B4jkMonEbX1PlgPHGL7rPXZzAfY3Q39X"><rect x="61.435" y="149.5" width="23" height="23" transform="matrix(1,0,0,1,0,0)" fill="rgb(0,0,0)" fill-opacity="0.05"/></clipPath><g clip-path="url(#_clipPath_B4jkMonEbX1PlgPHGL7rPXZzAfY3Q39X)"><path d=" M 66.953 155.018 L 77.362 155.018 C 78.081 155.018 78.664 155.6 78.664 156.319 L 78.664 159.455 C 78.013 158.824 77.167 158.42 76.263 158.31 L 77.362 157.62 L 77.362 156.319 L 72.157 159.572 L 66.953 156.319 L 66.953 157.62 L 71.91 160.717 C 71.644 161.277 71.507 161.882 71.507 162.5 C 71.507 163.593 71.93 164.64 72.684 165.427 L 66.953 165.427 C 66.234 165.427 65.651 164.845 65.651 164.126 L 65.651 156.319 C 65.651 155.597 66.23 155.018 66.953 155.018 Z  M 75.736 159.572 C 77.362 159.572 78.664 160.873 78.664 162.5 C 78.664 163.072 78.501 163.612 78.215 164.061 L 80.218 166.078 L 79.314 166.982 L 77.284 164.985 C 76.835 165.265 76.302 165.427 75.736 165.427 C 74.109 165.427 72.808 164.126 72.808 162.5 C 72.808 160.873 74.109 159.572 75.736 159.572 Z  M 75.736 160.873 C 74.838 160.873 74.109 161.601 74.109 162.5 C 74.109 163.398 74.838 164.126 75.736 164.126 C 76.634 164.126 77.362 163.398 77.362 162.5 C 77.362 161.601 76.634 160.873 75.736 160.873 Z " fill="rgb(93,93,93)"/></g><path d=" M 101.469 164.948 L 99.921 164.948 L 99.921 157.76 L 97.161 157.76 L 97.161 156.488 L 104.229 156.488 L 104.229 157.76 L 101.469 157.76 L 101.469 164.948 L 101.469 164.948 Z  M 109.281 160.604 L 109.281 160.604 Q 110.025 160.796 110.427 161.33 L 110.427 161.33 L 110.427 161.33 Q 110.829 161.864 110.829 162.656 L 110.829 162.656 L 110.829 162.656 Q 110.829 163.76 110.019 164.402 L 110.019 164.402 L 110.019 164.402 Q 109.209 165.044 107.817 165.044 L 107.817 165.044 L 107.817 165.044 Q 106.965 165.044 106.179 164.78 L 106.179 164.78 L 106.179 164.78 Q 105.393 164.516 104.877 164.06 L 104.877 164.06 L 105.393 162.932 L 105.393 162.932 Q 106.497 163.808 107.757 163.808 L 107.757 163.808 L 107.757 163.808 Q 108.561 163.808 108.957 163.49 L 108.957 163.49 L 108.957 163.49 Q 109.353 163.172 109.353 162.524 L 109.353 162.524 L 109.353 162.524 Q 109.353 161.888 108.951 161.582 L 108.951 161.582 L 108.951 161.582 Q 108.549 161.276 107.709 161.276 L 107.709 161.276 L 106.593 161.276 L 106.593 160.052 L 107.505 160.052 L 107.505 160.052 Q 109.149 160.052 109.149 158.816 L 109.149 158.816 L 109.149 158.816 Q 109.149 158.24 108.795 157.928 L 108.795 157.928 L 108.795 157.928 Q 108.441 157.616 107.793 157.616 L 107.793 157.616 L 107.793 157.616 Q 107.229 157.616 106.647 157.838 L 106.647 157.838 L 106.647 157.838 Q 106.065 158.06 105.513 158.492 L 105.513 158.492 L 104.997 157.364 L 104.997 157.364 Q 105.501 156.908 106.287 156.644 L 106.287 156.644 L 106.287 156.644 Q 107.073 156.38 107.889 156.38 L 107.889 156.38 L 107.889 156.38 Q 109.137 156.38 109.881 156.986 L 109.881 156.986 L 109.881 156.986 Q 110.625 157.592 110.625 158.624 L 110.625 158.624 L 110.625 158.624 Q 110.613 159.332 110.259 159.854 L 110.259 159.854 L 110.259 159.854 Q 109.905 160.376 109.281 160.604 L 109.281 160.604 L 109.281 160.604 Z " fill="rgb(0,0,0)"/></g><path d="M 62.964 0 L 126.616 0 C 127.463 0 128.15 0.687 128.15 1.534 L 128.15 22.466 C 128.15 23.313 127.463 24 126.616 24 L 62.964 24 C 62.117 24 61.43 23.313 61.43 22.466 L 61.43 1.534 C 61.43 0.687 62.117 0 62.964 0 Z" style="stroke:none;fill:#EBEBEB;stroke-miterlimit:10;"/><clipPath id="_clipPath_lPVsazLwKdCWa8zuXieNdH8G6GUWwhZi"><path d="M 62.964 0 L 126.616 0 C 127.463 0 128.15 0.687 128.15 1.534 L 128.15 22.466 C 128.15 23.313 127.463 24 126.616 24 L 62.964 24 C 62.117 24 61.43 23.313 61.43 22.466 L 61.43 1.534 C 61.43 0.687 62.117 0 62.964 0 Z" style="stroke:none;fill:#EBEBEB;stroke-miterlimit:10;"/></clipPath><g clip-path="url(#_clipPath_lPVsazLwKdCWa8zuXieNdH8G6GUWwhZi)"><rect x="61.435" y="0.5" width="23" height="23" transform="matrix(1,0,0,1,0,0)" fill="rgb(0,0,0)" fill-opacity="0.05"/><clipPath id="_clipPath_CUI79ISqAZZwiexk5LMETA68KkQWk04W"><rect x="61.435" y="0.5" width="23" height="23" transform="matrix(1,0,0,1,0,0)" fill="rgb(0,0,0)" fill-opacity="0.05"/></clipPath><g clip-path="url(#_clipPath_CUI79ISqAZZwiexk5LMETA68KkQWk04W)"><path d=" M 66.953 6.018 L 77.362 6.018 C 78.081 6.018 78.664 6.6 78.664 7.319 L 78.664 10.455 C 78.013 9.824 77.167 9.42 76.263 9.31 L 77.362 8.62 L 77.362 7.319 L 72.157 10.572 L 66.953 7.319 L 66.953 8.62 L 71.91 11.717 C 71.644 12.277 71.507 12.882 71.507 13.5 C 71.507 14.593 71.93 15.64 72.684 16.427 L 66.953 16.427 C 66.234 16.427 65.651 15.845 65.651 15.126 L 65.651 7.319 C 65.651 6.597 66.23 6.018 66.953 6.018 Z  M 75.736 10.572 C 77.362 10.572 78.664 11.873 78.664 13.5 C 78.664 14.072 78.501 14.612 78.215 15.061 L 80.218 17.078 L 79.314 17.982 L 77.284 15.985 C 76.835 16.265 76.302 16.427 75.736 16.427 C 74.109 16.427 72.808 15.126 72.808 13.5 C 72.808 11.873 74.109 10.572 75.736 10.572 Z  M 75.736 11.873 C 74.838 11.873 74.109 12.601 74.109 13.5 C 74.109 14.398 74.838 15.126 75.736 15.126 C 76.634 15.126 77.362 14.398 77.362 13.5 C 77.362 12.601 76.634 11.873 75.736 11.873 Z " fill="rgb(93,93,93)"/></g><path d=" M 101.469 15.948 L 99.921 15.948 L 99.921 8.76 L 97.161 8.76 L 97.161 7.488 L 104.229 7.488 L 104.229 8.76 L 101.469 8.76 L 101.469 15.948 L 101.469 15.948 Z  M 109.125 7.488 L 109.125 14.7 L 110.961 14.7 L 110.961 15.948 L 105.741 15.948 L 105.741 14.7 L 107.577 14.7 L 107.577 9.252 L 106.125 10.128 L 105.513 9 L 108.021 7.488 L 109.125 7.488 L 109.125 7.488 Z " fill="rgb(0,0,0)"/></g><path d="M 135.174 0 L 198.826 0 C 199.673 0 200.36 0.687 200.36 1.534 L 200.36 22.466 C 200.36 23.313 199.673 24 198.826 24 L 135.174 24 C 134.327 24 133.64 23.313 133.64 22.466 L 133.64 1.534 C 133.64 0.687 134.327 0 135.174 0 Z" style="stroke:none;fill:#EBEBEB;stroke-miterlimit:10;"/><clipPath id="_clipPath_oWop0372SC1OhXYWESdZtRcnu79XRazp"><path d="M 135.174 0 L 198.826 0 C 199.673 0 200.36 0.687 200.36 1.534 L 200.36 22.466 C 200.36 23.313 199.673 24 198.826 24 L 135.174 24 C 134.327 24 133.64 23.313 133.64 22.466 L 133.64 1.534 C 133.64 0.687 134.327 0 135.174 0 Z" style="stroke:none;fill:#EBEBEB;stroke-miterlimit:10;"/></clipPath><g clip-path="url(#_clipPath_oWop0372SC1OhXYWESdZtRcnu79XRazp)"><rect x="133.64" y="0.5" width="23" height="23" transform="matrix(1,0,0,1,0,0)" fill="rgb(0,0,0)" fill-opacity="0.05"/><clipPath id="_clipPath_Egx4LVsKaPuxfj3GgwZC96bbouINFRpA"><rect x="133.64" y="0.5" width="23" height="23" transform="matrix(1,0,0,1,0,0)" fill="rgb(0,0,0)" fill-opacity="0.05"/></clipPath><g clip-path="url(#_clipPath_Egx4LVsKaPuxfj3GgwZC96bbouINFRpA)"><path d=" M 139.158 6.018 L 149.568 6.018 C 150.286 6.018 150.869 6.6 150.869 7.319 L 150.869 10.455 C 150.218 9.824 149.373 9.42 148.468 9.31 L 149.568 8.62 L 149.568 7.319 L 144.363 10.572 L 139.158 7.319 L 139.158 8.62 L 144.116 11.717 C 143.849 12.277 143.712 12.882 143.712 13.5 C 143.712 14.593 144.135 15.64 144.89 16.427 L 139.158 16.427 C 138.439 16.427 137.857 15.845 137.857 15.126 L 137.857 7.319 C 137.857 6.597 138.436 6.018 139.158 6.018 Z  M 147.941 10.572 C 149.568 10.572 150.869 11.873 150.869 13.5 C 150.869 14.072 150.706 14.612 150.42 15.061 L 152.424 17.078 L 151.52 17.982 L 149.49 15.985 C 149.041 16.265 148.507 16.427 147.941 16.427 C 146.315 16.427 145.014 15.126 145.014 13.5 C 145.014 11.873 146.315 10.572 147.941 10.572 Z  M 147.941 11.873 C 147.043 11.873 146.315 12.601 146.315 13.5 C 146.315 14.398 147.043 15.126 147.941 15.126 C 148.84 15.126 149.568 14.398 149.568 13.5 C 149.568 12.601 148.84 11.873 147.941 11.873 Z " fill="rgb(93,93,93)"/></g><path d=" M 173.668 15.948 L 172.12 15.948 L 172.12 8.76 L 169.36 8.76 L 169.36 7.488 L 176.428 7.488 L 176.428 8.76 L 173.668 8.76 L 173.668 15.948 L 173.668 15.948 Z  M 179.38 14.7 L 183.136 14.7 L 183.136 15.948 L 177.448 15.948 L 177.448 14.808 L 180.328 11.712 L 180.328 11.712 Q 180.832 11.16 181.066 10.698 L 181.066 10.698 L 181.066 10.698 Q 181.3 10.236 181.3 9.78 L 181.3 9.78 L 181.3 9.78 Q 181.3 9.204 180.97 8.91 L 180.97 8.91 L 180.97 8.91 Q 180.64 8.616 180.004 8.616 L 180.004 8.616 L 180.004 8.616 Q 178.864 8.616 177.712 9.492 L 177.712 9.492 L 177.196 8.364 L 177.196 8.364 Q 177.7 7.92 178.486 7.65 L 178.486 7.65 L 178.486 7.65 Q 179.272 7.38 180.064 7.38 L 180.064 7.38 L 180.064 7.38 Q 181.336 7.38 182.08 8.004 L 182.08 8.004 L 182.08 8.004 Q 182.824 8.628 182.824 9.684 L 182.824 9.684 L 182.824 9.684 Q 182.824 10.416 182.512 11.058 L 182.512 11.058 L 182.512 11.058 Q 182.2 11.7 181.456 12.492 L 181.456 12.492 L 179.38 14.7 L 179.38 14.7 Z " fill="rgb(0,0,0)"/></g><path d="M 135.174 149 L 198.826 149 C 199.673 149 200.36 149.687 200.36 150.534 L 200.36 171.466 C 200.36 172.313 199.673 173 198.826 173 L 135.174 173 C 134.327 173 133.64 172.313 133.64 171.466 L 133.64 150.534 C 133.64 149.687 134.327 149 135.174 149 Z" style="stroke:none;fill:#EBEBEB;stroke-miterlimit:10;"/><clipPath id="_clipPath_gBKHlkhOG3nE94mHOsHebNCjAhAfVggk"><path d="M 135.174 149 L 198.826 149 C 199.673 149 200.36 149.687 200.36 150.534 L 200.36 171.466 C 200.36 172.313 199.673 173 198.826 173 L 135.174 173 C 134.327 173 133.64 172.313 133.64 171.466 L 133.64 150.534 C 133.64 149.687 134.327 149 135.174 149 Z" style="stroke:none;fill:#EBEBEB;stroke-miterlimit:10;"/></clipPath><g clip-path="url(#_clipPath_gBKHlkhOG3nE94mHOsHebNCjAhAfVggk)"><rect x="133.64" y="149.5" width="23" height="23" transform="matrix(1,0,0,1,0,0)" fill="rgb(0,0,0)" fill-opacity="0.05"/><clipPath id="_clipPath_XpksYYTwWo6WE8pEHT8NcpfKvzcAQks9"><rect x="133.64" y="149.5" width="23" height="23" transform="matrix(1,0,0,1,0,0)" fill="rgb(0,0,0)" fill-opacity="0.05"/></clipPath><g clip-path="url(#_clipPath_XpksYYTwWo6WE8pEHT8NcpfKvzcAQks9)"><path d=" M 139.158 155.018 L 149.568 155.018 C 150.286 155.018 150.869 155.6 150.869 156.319 L 150.869 159.455 C 150.218 158.824 149.373 158.42 148.468 158.31 L 149.568 157.62 L 149.568 156.319 L 144.363 159.572 L 139.158 156.319 L 139.158 157.62 L 144.116 160.717 C 143.849 161.277 143.712 161.882 143.712 162.5 C 143.712 163.593 144.135 164.64 144.89 165.427 L 139.158 165.427 C 138.439 165.427 137.857 164.845 137.857 164.126 L 137.857 156.319 C 137.857 155.597 138.436 155.018 139.158 155.018 Z  M 147.941 159.572 C 149.568 159.572 150.869 160.873 150.869 162.5 C 150.869 163.072 150.706 163.612 150.42 164.061 L 152.424 166.078 L 151.52 166.982 L 149.49 164.985 C 149.041 165.265 148.507 165.427 147.941 165.427 C 146.315 165.427 145.014 164.126 145.014 162.5 C 145.014 160.873 146.315 159.572 147.941 159.572 Z  M 147.941 160.873 C 147.043 160.873 146.315 161.601 146.315 162.5 C 146.315 163.398 147.043 164.126 147.941 164.126 C 148.84 164.126 149.568 163.398 149.568 162.5 C 149.568 161.601 148.84 160.873 147.941 160.873 Z " fill="rgb(93,93,93)"/></g><path d=" M 173.674 164.948 L 172.126 164.948 L 172.126 157.76 L 169.366 157.76 L 169.366 156.488 L 176.434 156.488 L 176.434 157.76 L 173.674 157.76 L 173.674 164.948 L 173.674 164.948 Z  M 182.266 162.092 L 183.454 162.092 L 183.454 163.292 L 182.266 163.292 L 182.266 164.948 L 180.754 164.948 L 180.754 163.292 L 177.082 163.292 L 177.082 162.152 L 181.018 156.488 L 182.266 156.488 L 182.266 162.092 L 182.266 162.092 Z  M 180.754 158.864 L 178.522 162.092 L 180.754 162.092 L 180.754 158.864 L 180.754 158.864 Z " fill="rgb(0,0,0)"/></g><path d="M 231.406 84.88 L 284.594 84.88 C 285.37 84.88 286 85.51 286 86.286 L 286 107.474 C 286 108.25 285.37 108.88 284.594 108.88 L 231.406 108.88 C 230.63 108.88 230 108.25 230 107.474 L 230 86.286 C 230 85.51 230.63 84.88 231.406 84.88 Z" style="stroke:none;fill:#FF9900;stroke-miterlimit:10;"/><clipPath id="_clipPath_stsGWI4bx4jCviWS9i0UnfA4Y2XCIWoN"><path d="M 231.406 84.88 L 284.594 84.88 C 285.37 84.88 286 85.51 286 86.286 L 286 107.474 C 286 108.25 285.37 108.88 284.594 108.88 L 231.406 108.88 C 230.63 108.88 230 108.25 230 107.474 L 230 86.286 C 230 85.51 230.63 84.88 231.406 84.88 Z" style="stroke:none;fill:#FF9900;stroke-miterlimit:10;"/></clipPath><g clip-path="url(#_clipPath_stsGWI4bx4jCviWS9i0UnfA4Y2XCIWoN)"><path d=" M 267.847 100.823 L 262.351 100.823 L 262.351 92.363 L 263.899 92.363 L 263.899 99.551 L 267.847 99.551 L 267.847 100.823 L 267.847 100.823 Z  M 270.907 99.575 L 274.663 99.575 L 274.663 100.823 L 268.975 100.823 L 268.975 99.683 L 271.855 96.587 L 271.855 96.587 Q 272.359 96.035 272.593 95.573 L 272.593 95.573 L 272.593 95.573 Q 272.827 95.111 272.827 94.655 L 272.827 94.655 L 272.827 94.655 Q 272.827 94.079 272.497 93.785 L 272.497 93.785 L 272.497 93.785 Q 272.167 93.491 271.531 93.491 L 271.531 93.491 L 271.531 93.491 Q 270.391 93.491 269.239 94.367 L 269.239 94.367 L 268.723 93.239 L 268.723 93.239 Q 269.227 92.795 270.013 92.525 L 270.013 92.525 L 270.013 92.525 Q 270.799 92.255 271.591 92.255 L 271.591 92.255 L 271.591 92.255 Q 272.863 92.255 273.607 92.879 L 273.607 92.879 L 273.607 92.879 Q 274.351 93.503 274.351 94.559 L 274.351 94.559 L 274.351 94.559 Q 274.351 95.291 274.039 95.933 L 274.039 95.933 L 274.039 95.933 Q 273.727 96.575 272.983 97.367 L 272.983 97.367 L 270.907 99.575 L 270.907 99.575 Z " fill="rgb(0,0,0)"/><rect x="230" y="85" width="23" height="24" transform="matrix(1,0,0,1,0,0)" fill="rgb(0,0,0)" fill-opacity="0.05"/><clipPath id="_clipPath_yh2HGIG8HWlMvt0iaTFLMLAuwngcunpz"><rect x="230" y="85" width="23" height="24" transform="matrix(1,0,0,1,0,0)" fill="rgb(0,0,0)" fill-opacity="0.05"/></clipPath><g clip-path="url(#_clipPath_yh2HGIG8HWlMvt0iaTFLMLAuwngcunpz)"><path d=" M 244.461 102.185 C 244.29 102.185 244.13 102.148 244.011 102.092 C 243.591 101.876 243.295 101.549 242.998 100.622 C 242.685 99.657 242.128 99.206 241.583 98.768 C 241.115 98.391 240.629 98.001 240.209 97.204 C 239.895 96.623 239.723 95.962 239.723 95.387 C 239.723 93.657 241.026 92.297 242.685 92.297 C 244.343 92.297 245.646 93.657 245.646 95.387 L 246.83 95.387 C 246.83 92.958 245.012 91.061 242.685 91.061 C 240.357 91.061 238.539 92.958 238.539 95.387 C 238.539 96.166 238.764 97.025 239.172 97.797 C 239.723 98.817 240.345 99.33 240.86 99.744 C 241.34 100.127 241.684 100.405 241.873 101.011 C 242.228 102.136 242.685 102.766 243.49 103.205 C 243.792 103.347 244.124 103.421 244.461 103.421 C 245.77 103.421 246.83 102.314 246.83 100.949 L 245.646 100.949 C 245.646 101.632 245.116 102.185 244.461 102.185 Z  M 238.918 91.456 L 238.077 90.579 C 236.898 91.809 236.17 93.508 236.17 95.387 C 236.17 97.266 236.898 98.965 238.077 100.195 L 238.912 99.324 C 237.946 98.316 237.354 96.932 237.354 95.387 C 237.354 93.842 237.946 92.458 238.918 91.456 Z  M 241.204 95.387 C 241.204 96.24 241.867 96.932 242.685 96.932 C 243.502 96.932 244.165 96.24 244.165 95.387 C 244.165 94.534 243.502 93.842 242.685 93.842 C 241.867 93.842 241.204 94.534 241.204 95.387 Z " fill="rgb(155,93,0)"/></g></g><path d="M 231.406 57.88 L 284.594 57.88 C 285.37 57.88 286 58.51 286 59.286 L 286 80.474 C 286 81.25 285.37 81.88 284.594 81.88 L 231.406 81.88 C 230.63 81.88 230 81.25 230 80.474 L 230 59.286 C 230 58.51 230.63 57.88 231.406 57.88 Z" style="stroke:none;fill:#FF9900;stroke-miterlimit:10;"/><clipPath id="_clipPath_9vscdWTEqt8V2QBqC1Sd9kbAh8rFmwh0"><path d="M 231.406 57.88 L 284.594 57.88 C 285.37 57.88 286 58.51 286 59.286 L 286 80.474 C 286 81.25 285.37 81.88 284.594 81.88 L 231.406 81.88 C 230.63 81.88 230 81.25 230 80.474 L 230 59.286 C 230 58.51 230.63 57.88 231.406 57.88 Z" style="stroke:none;fill:#FF9900;stroke-miterlimit:10;"/></clipPath><g clip-path="url(#_clipPath_9vscdWTEqt8V2QBqC1Sd9kbAh8rFmwh0)"><path d=" M 267.853 73.823 L 262.357 73.823 L 262.357 65.363 L 263.905 65.363 L 263.905 72.551 L 267.853 72.551 L 267.853 73.823 L 267.853 73.823 Z  M 272.857 65.363 L 272.857 72.575 L 274.693 72.575 L 274.693 73.823 L 269.473 73.823 L 269.473 72.575 L 271.309 72.575 L 271.309 67.127 L 269.857 68.003 L 269.245 66.875 L 271.753 65.363 L 272.857 65.363 L 272.857 65.363 Z " fill="rgb(0,0,0)"/><rect x="230" y="58" width="23" height="24" transform="matrix(1,0,0,1,0,0)" fill="rgb(0,0,0)" fill-opacity="0.05"/><clipPath id="_clipPath_NyRNJkYdHudO3VTN8OP8jtoiFtgWikvy"><rect x="230" y="58" width="23" height="24" transform="matrix(1,0,0,1,0,0)" fill="rgb(0,0,0)" fill-opacity="0.05"/></clipPath><g clip-path="url(#_clipPath_NyRNJkYdHudO3VTN8OP8jtoiFtgWikvy)"><path d=" M 244.461 75.185 C 244.29 75.185 244.13 75.148 244.011 75.092 C 243.591 74.876 243.295 74.549 242.998 73.622 C 242.685 72.657 242.128 72.206 241.583 71.768 C 241.115 71.391 240.629 71.001 240.209 70.204 C 239.895 69.623 239.723 68.962 239.723 68.387 C 239.723 66.657 241.026 65.297 242.685 65.297 C 244.343 65.297 245.646 66.657 245.646 68.387 L 246.83 68.387 C 246.83 65.958 245.012 64.061 242.685 64.061 C 240.357 64.061 238.539 65.958 238.539 68.387 C 238.539 69.166 238.764 70.025 239.172 70.797 C 239.723 71.817 240.345 72.33 240.86 72.744 C 241.34 73.127 241.684 73.405 241.873 74.011 C 242.228 75.136 242.685 75.766 243.49 76.205 C 243.792 76.347 244.124 76.421 244.461 76.421 C 245.77 76.421 246.83 75.314 246.83 73.949 L 245.646 73.949 C 245.646 74.632 245.116 75.185 244.461 75.185 Z  M 238.918 64.456 L 238.077 63.579 C 236.898 64.809 236.17 66.508 236.17 68.387 C 236.17 70.266 236.898 71.965 238.077 73.195 L 238.912 72.324 C 237.946 71.316 237.354 69.932 237.354 68.387 C 237.354 66.842 237.946 65.458 238.918 64.456 Z  M 241.204 68.387 C 241.204 69.24 241.867 69.932 242.685 69.932 C 243.502 69.932 244.165 69.24 244.165 68.387 C 244.165 67.534 243.502 66.842 242.685 66.842 C 241.867 66.842 241.204 67.534 241.204 68.387 Z " fill="rgb(155,93,0)"/></g></g></svg>