<svg width="504" height="333" viewBox="0 0 504 333" fill="none" xmlns="http://www.w3.org/2000/svg">
<path d="M504 2H0V332.387H504V2Z" fill="white"/>
<path d="M503.697 305.975L460.741 332.387V279.563L503.697 305.975Z" fill="#EBEBEB"/>
<path d="M469.333 288.653H10.3773V323.295H469.333V288.653Z" fill="#EBEBEB"/>
<path d="M27.6973 74.2293L54.0613 117.108H1.33331L27.6973 74.2293Z" fill="#EBEBEB"/>
<path d="M10.3773 104.609V323.295H45.0187V104.609H10.3773Z" fill="#EBEBEB"/>
<path d="M35.656 241.925H20.616V235.397C20.616 233.748 21.0284 232.475 21.8533 231.579C22.6782 230.683 23.8302 230.235 25.3093 230.235C26.7884 230.235 27.9475 230.683 28.7866 231.579C29.6115 232.475 30.024 233.748 30.024 235.397V239.195H35.656V241.925ZM27.8693 239.195V235.824C27.8693 233.861 27.016 232.88 25.3093 232.88C23.6169 232.88 22.7706 233.861 22.7706 235.824V239.195H27.8693ZM35.656 228.473H25.224V225.87H27.0586C25.8213 225.358 25.1386 224.263 25.0106 222.585L24.9466 221.774L27.208 221.604L27.3573 223.14C27.528 224.889 28.424 225.764 30.0453 225.764H35.656V228.473ZM22.984 220.289H20.3813V217.303H22.984V220.289ZM35.656 220.119H25.224V217.452H35.656V220.119ZM35.8693 209.924C35.8693 211.005 35.6489 211.944 35.208 212.74C34.7671 213.536 34.1413 214.155 33.3306 214.596C32.5058 215.037 31.5386 215.257 30.4293 215.257C29.32 215.257 28.36 215.037 27.5493 214.596C26.7386 214.155 26.1129 213.536 25.672 212.74C25.2311 211.944 25.0106 211.005 25.0106 209.924C25.0106 208.843 25.2311 207.904 25.672 207.108C26.1129 206.312 26.7386 205.693 27.5493 205.252C28.36 204.811 29.32 204.591 30.4293 204.591C31.5386 204.591 32.5058 204.811 33.3306 205.252C34.1413 205.693 34.7671 206.312 35.208 207.108C35.6489 207.904 35.8693 208.843 35.8693 209.924ZM33.8426 209.924C33.8426 209.128 33.5582 208.488 32.9893 208.004C32.4062 207.52 31.5529 207.279 30.4293 207.279C29.2915 207.279 28.4453 207.52 27.8906 208.004C27.3218 208.488 27.0373 209.128 27.0373 209.924C27.0373 210.72 27.3218 211.36 27.8906 211.844C28.4453 212.328 29.2915 212.569 30.4293 212.569C31.5529 212.569 32.4062 212.328 32.9893 211.844C33.5582 211.36 33.8426 210.72 33.8426 209.924ZM35.656 202.39H25.224V199.787H27.0586C25.8213 199.275 25.1386 198.18 25.0106 196.502L24.9466 195.691L27.208 195.52L27.3573 197.056C27.528 198.806 28.424 199.68 30.0453 199.68H35.656V202.39ZM22.984 194.206H20.3813V191.219H22.984V194.206ZM35.656 194.035H25.224V191.369H35.656V194.035ZM35.8693 183.819C35.8693 186.578 34.504 187.958 31.7733 187.958H27.2293V189.963H25.224V187.958H22.1093V185.291H25.224V182.134H27.2293V185.291H31.624C32.3066 185.291 32.8186 185.142 33.16 184.843C33.5013 184.545 33.672 184.061 33.672 183.393C33.672 183.194 33.6506 182.987 33.608 182.774C33.5511 182.561 33.4942 182.34 33.4373 182.113L35.4 181.707C35.5422 181.963 35.656 182.29 35.7413 182.689C35.8266 183.073 35.8693 183.45 35.8693 183.819ZM39.496 179.305L35.2293 177.385L25.224 181.716V178.878L32.52 175.956L25.224 172.969V170.281L39.496 176.553V179.305Z" fill="#171717" fill-opacity="0.8"/>
<path d="M219.839 313.933V301.176H214.676V298.893H227.732V301.176H222.569V313.933H219.839ZM229.035 301.261V298.659H232.022V301.261H229.035ZM229.206 313.933V303.501H231.873V313.933H229.206ZM234.686 313.933V303.501H237.289V305.101C237.602 304.532 238.035 304.092 238.59 303.779C239.145 303.452 239.785 303.288 240.51 303.288C242.075 303.288 243.099 303.971 243.582 305.336C243.909 304.696 244.379 304.198 244.99 303.843C245.602 303.473 246.299 303.288 247.081 303.288C249.427 303.288 250.601 304.717 250.601 307.576V313.933H247.934V307.683C247.934 306.886 247.799 306.303 247.529 305.933C247.273 305.564 246.832 305.379 246.206 305.379C245.509 305.379 244.962 305.628 244.563 306.125C244.165 306.609 243.966 307.284 243.966 308.152V313.933H241.299V307.683C241.299 306.886 241.164 306.303 240.894 305.933C240.638 305.564 240.204 305.379 239.593 305.379C238.896 305.379 238.348 305.628 237.95 306.125C237.552 306.609 237.353 307.284 237.353 308.152V313.933H234.686ZM258.493 314.147C257.313 314.147 256.296 313.926 255.442 313.485C254.589 313.044 253.928 312.419 253.458 311.608C253.003 310.797 252.776 309.837 252.776 308.728C252.776 307.647 252.996 306.701 253.437 305.891C253.892 305.08 254.511 304.447 255.293 303.992C256.09 303.523 256.993 303.288 258.002 303.288C259.482 303.288 260.648 303.757 261.501 304.696C262.369 305.635 262.802 306.915 262.802 308.536V309.325H255.336C255.535 311.188 256.602 312.12 258.536 312.12C259.119 312.12 259.702 312.035 260.285 311.864C260.868 311.679 261.402 311.395 261.885 311.011L262.632 312.803C262.134 313.215 261.508 313.542 260.754 313.784C260.001 314.026 259.247 314.147 258.493 314.147ZM258.109 305.101C257.327 305.101 256.694 305.343 256.21 305.827C255.727 306.31 255.435 306.964 255.336 307.789H260.584C260.527 306.922 260.285 306.26 259.858 305.805C259.446 305.336 258.863 305.101 258.109 305.101Z" fill="#171717" fill-opacity="0.8"/>
<path d="M504 246H117.556V271.076H504V246Z" fill="#EEEEEE"/>
<path d="M266 246H139V271H266V246Z" fill="#F7B859"/>
<path d="M267 246H162V271H267V246Z" fill="#6931D0"/>
<path d="M315 246H303V271H315V246Z" fill="#6931D0"/>
<path d="M381 246H357V271H381V246Z" fill="#6931D0"/>
<path d="M377.777 248H370V268.312H377.777V248Z" fill="#3900A0"/>
<path d="M366.777 248H359V268.312H366.777V248Z" fill="white"/>
<path d="M312.777 248.383H305V268.695H312.777V248.383Z" fill="#A9CC1E"/>
<path d="M264.777 248.383H257V268.695H264.777V248.383Z" fill="#A9CC1E"/>
<path d="M219.953 248.383H196.571V268.695H219.953V248.383Z" fill="#FF7A00"/>
<path d="M200.419 264.955H203.971V266.137H198.951V258.554H200.419V264.955ZM208.857 266.137H207.393V260.32L205.477 261.007V259.747L208.779 258.554H208.857V266.137Z" fill="#747474"/>
<path d="M217.82 249.716H211.42C210.979 249.716 210.62 250.073 210.62 250.516V257.716L212.22 256.116H217.82C218.261 256.116 218.62 255.757 218.62 255.316V250.516C218.62 250.072 218.26 249.716 217.82 249.716Z" fill="#0000FF"/>
<path d="M251.652 248.383H224.985V268.695H251.652V248.383Z" fill="#FF7A00"/>
<path d="M228.834 264.955H232.386V266.137H227.365V258.554H228.834V264.955ZM238.683 266.137H233.511V265.148L235.964 262.512C236.155 262.304 236.317 262.115 236.449 261.945C236.581 261.774 236.688 261.618 236.771 261.476C236.851 261.337 236.909 261.207 236.943 261.085C236.982 260.964 237.001 260.846 237.001 260.731C237.001 260.561 236.976 260.41 236.928 260.278C236.879 260.146 236.811 260.033 236.725 259.939C236.634 259.849 236.527 259.78 236.402 259.731C236.28 259.682 236.145 259.658 235.995 259.658C235.801 259.658 235.629 259.686 235.48 259.741C235.334 259.794 235.212 259.872 235.115 259.976C235.015 260.084 234.938 260.217 234.886 260.377C234.834 260.537 234.808 260.719 234.808 260.924H233.355C233.355 260.587 233.419 260.269 233.548 259.971C233.676 259.669 233.858 259.405 234.094 259.179C234.327 258.953 234.608 258.776 234.938 258.648C235.271 258.516 235.64 258.45 236.042 258.45C236.428 258.45 236.768 258.504 237.063 258.611C237.362 258.719 237.612 258.87 237.813 259.064C238.011 259.259 238.162 259.493 238.266 259.768C238.37 260.038 238.423 260.339 238.423 260.669C238.423 260.919 238.383 261.158 238.303 261.387C238.226 261.613 238.117 261.837 237.975 262.059C237.829 262.281 237.655 262.509 237.454 262.741C237.252 262.971 237.028 263.212 236.782 263.465L235.355 264.976H238.683V266.137Z" fill="#747474"/>
<path d="M249.519 249.716H243.119C242.676 249.716 242.319 250.073 242.319 250.516V257.716L243.919 256.116H249.519C249.96 256.116 250.319 255.757 250.319 255.316V250.516C250.319 250.072 249.959 249.716 249.519 249.716Z" fill="#0000FF"/>
<path d="M172 248.383H164.223V268.695H172V248.383Z" fill="#2E0084"/>
<path d="M191.539 248.383H177.032V268.695H191.539V248.383Z" fill="#AA7CFF"/>
<path d="M187.485 254.247H181.085C180.644 254.247 180.285 254.604 180.285 255.047V262.247L181.885 260.647H187.485C187.928 260.647 188.285 260.288 188.285 259.847V255.047C188.285 254.603 187.925 254.247 187.485 254.247Z" fill="#0000FF"/>
<path d="M94.5085 268V253.045H91.7565V250.72H100.375V253.045H97.6658V268H94.5085ZM103.867 268V253.984C103.782 254.027 103.611 254.091 103.355 254.176C103.113 254.261 102.843 254.347 102.544 254.432C102.246 254.503 101.968 254.574 101.712 254.645C101.471 254.716 101.3 254.773 101.2 254.816V252.619C101.4 252.548 101.648 252.448 101.947 252.32C102.246 252.192 102.559 252.05 102.886 251.893C103.227 251.723 103.54 251.538 103.824 251.339C104.123 251.14 104.365 250.933 104.55 250.72H106.811V268H103.867Z" fill="#F7B859"/>
<path d="M142.929 285.16C142.363 285.16 141.857 285.053 141.409 284.84C140.971 284.616 140.625 284.317 140.368 283.944C140.123 283.571 140.001 283.149 140.001 282.68C140.001 282.104 140.15 281.651 140.449 281.32C140.747 280.979 141.233 280.733 141.905 280.584C142.577 280.435 143.478 280.36 144.609 280.36H145.169V280.024C145.169 279.491 145.051 279.107 144.817 278.872C144.582 278.637 144.187 278.52 143.633 278.52C143.195 278.52 142.747 278.589 142.289 278.728C141.83 278.856 141.366 279.059 140.897 279.336L140.321 277.976C140.598 277.784 140.923 277.619 141.297 277.48C141.681 277.331 142.081 277.219 142.497 277.144C142.923 277.059 143.323 277.016 143.697 277.016C144.838 277.016 145.686 277.283 146.241 277.816C146.795 278.339 147.073 279.155 147.073 280.264V285H145.201V283.752C145.019 284.189 144.731 284.536 144.337 284.792C143.942 285.037 143.473 285.16 142.929 285.16ZM143.345 283.784C143.867 283.784 144.299 283.603 144.641 283.24C144.993 282.877 145.169 282.419 145.169 281.864V281.512H144.625C143.622 281.512 142.923 281.592 142.529 281.752C142.145 281.901 141.953 282.179 141.953 282.584C141.953 282.936 142.075 283.224 142.321 283.448C142.566 283.672 142.907 283.784 143.345 283.784ZM170.865 285.16C170.289 285.16 169.771 285.032 169.312 284.776C168.865 284.52 168.529 284.173 168.305 283.736V285H166.353V273.72H168.353V278.328C168.587 277.933 168.923 277.619 169.361 277.384C169.809 277.139 170.31 277.016 170.865 277.016C171.558 277.016 172.161 277.181 172.673 277.512C173.185 277.843 173.585 278.312 173.873 278.92C174.161 279.517 174.305 280.237 174.305 281.08C174.305 281.912 174.161 282.637 173.873 283.256C173.585 283.864 173.179 284.333 172.657 284.664C172.145 284.995 171.547 285.16 170.865 285.16ZM170.305 283.64C170.902 283.64 171.382 283.427 171.745 283C172.107 282.563 172.289 281.923 172.289 281.08C172.289 280.227 172.107 279.592 171.745 279.176C171.382 278.749 170.902 278.536 170.305 278.536C169.707 278.536 169.227 278.749 168.865 279.176C168.502 279.592 168.321 280.227 168.321 281.08C168.321 281.923 168.502 282.563 168.865 283C169.227 283.427 169.707 283.64 170.305 283.64ZM188.187 285.16C187.366 285.16 186.651 284.995 186.043 284.664C185.435 284.323 184.966 283.843 184.635 283.224C184.305 282.605 184.139 281.88 184.139 281.048C184.139 280.216 184.305 279.501 184.635 278.904C184.966 278.296 185.435 277.832 186.043 277.512C186.651 277.181 187.366 277.016 188.187 277.016C188.689 277.016 189.185 277.096 189.675 277.256C190.166 277.416 190.571 277.64 190.891 277.928L190.299 279.32C190.022 279.075 189.707 278.888 189.355 278.76C189.014 278.632 188.683 278.568 188.363 278.568C187.67 278.568 187.131 278.787 186.747 279.224C186.374 279.651 186.187 280.264 186.187 281.064C186.187 281.853 186.374 282.477 186.747 282.936C187.131 283.384 187.67 283.608 188.363 283.608C188.673 283.608 189.003 283.544 189.355 283.416C189.707 283.288 190.022 283.096 190.299 282.84L190.891 284.248C190.571 284.525 190.161 284.749 189.659 284.92C189.169 285.08 188.678 285.16 188.187 285.16ZM203.751 285.16C203.068 285.16 202.466 284.995 201.943 284.664C201.431 284.333 201.031 283.864 200.743 283.256C200.455 282.637 200.311 281.912 200.311 281.08C200.311 280.237 200.455 279.517 200.743 278.92C201.031 278.312 201.431 277.843 201.943 277.512C202.466 277.181 203.068 277.016 203.751 277.016C204.306 277.016 204.807 277.139 205.255 277.384C205.703 277.629 206.039 277.955 206.263 278.36V273.72H208.263V285H206.311V283.704C206.098 284.152 205.762 284.509 205.303 284.776C204.844 285.032 204.327 285.16 203.751 285.16ZM204.311 283.64C204.908 283.64 205.388 283.427 205.751 283C206.114 282.563 206.295 281.923 206.295 281.08C206.295 280.227 206.114 279.592 205.751 279.176C205.388 278.749 204.908 278.536 204.311 278.536C203.714 278.536 203.234 278.749 202.871 279.176C202.508 279.592 202.327 280.227 202.327 281.08C202.327 281.923 202.508 282.563 202.871 283C203.234 283.427 203.714 283.64 204.311 283.64ZM231.443 285.16C230.558 285.16 229.795 284.995 229.155 284.664C228.515 284.333 228.019 283.864 227.667 283.256C227.326 282.648 227.155 281.928 227.155 281.096C227.155 280.285 227.32 279.576 227.651 278.968C227.992 278.36 228.456 277.885 229.043 277.544C229.64 277.192 230.318 277.016 231.075 277.016C232.184 277.016 233.059 277.368 233.699 278.072C234.35 278.776 234.675 279.736 234.675 280.952V281.544H229.075C229.224 282.941 230.024 283.64 231.475 283.64C231.912 283.64 232.35 283.576 232.787 283.448C233.224 283.309 233.624 283.096 233.987 282.808L234.547 284.152C234.174 284.461 233.704 284.707 233.139 284.888C232.574 285.069 232.008 285.16 231.443 285.16ZM231.155 278.376C230.568 278.376 230.094 278.557 229.731 278.92C229.368 279.283 229.15 279.773 229.075 280.392H233.011C232.968 279.741 232.787 279.245 232.467 278.904C232.158 278.552 231.72 278.376 231.155 278.376ZM258.349 285V278.68H256.845V277.176H258.349V277.16C258.349 276.051 258.637 275.213 259.213 274.648C259.8 274.083 260.707 273.763 261.933 273.688L262.717 273.64L262.845 275.112L262.109 275.16C261.469 275.203 261.016 275.363 260.749 275.64C260.483 275.907 260.349 276.307 260.349 276.84V277.176H262.477V278.68H260.349V285H258.349ZM310.422 288.04C309.697 288.04 309.014 287.955 308.374 287.784C307.745 287.624 307.19 287.373 306.71 287.032L307.286 285.64C307.734 285.939 308.214 286.157 308.726 286.296C309.238 286.445 309.75 286.52 310.262 286.52C311.692 286.52 312.406 285.832 312.406 284.456V283.384C312.182 283.821 311.836 284.168 311.366 284.424C310.908 284.68 310.396 284.808 309.83 284.808C309.126 284.808 308.513 284.648 307.99 284.328C307.468 283.997 307.062 283.539 306.774 282.952C306.486 282.365 306.342 281.683 306.342 280.904C306.342 280.125 306.486 279.448 306.774 278.872C307.062 278.285 307.468 277.832 307.99 277.512C308.513 277.181 309.126 277.016 309.83 277.016C310.417 277.016 310.94 277.149 311.398 277.416C311.857 277.672 312.193 278.019 312.406 278.456V277.176H314.358V284.216C314.358 285.485 314.022 286.44 313.35 287.08C312.678 287.72 311.702 288.04 310.422 288.04ZM310.374 283.288C310.993 283.288 311.484 283.075 311.846 282.648C312.209 282.221 312.39 281.64 312.39 280.904C312.39 280.168 312.209 279.592 311.846 279.176C311.484 278.749 310.993 278.536 310.374 278.536C309.756 278.536 309.265 278.749 308.902 279.176C308.54 279.592 308.358 280.168 308.358 280.904C308.358 281.64 308.54 282.221 308.902 282.648C309.265 283.075 309.756 283.288 310.374 283.288ZM359.556 285V273.72H361.556V278.312C361.822 277.885 362.18 277.565 362.628 277.352C363.076 277.128 363.572 277.016 364.116 277.016C365.961 277.016 366.884 278.088 366.884 280.232V285H364.884V280.328C364.884 279.72 364.766 279.277 364.532 279C364.308 278.723 363.956 278.584 363.476 278.584C362.889 278.584 362.42 278.771 362.068 279.144C361.726 279.507 361.556 279.992 361.556 280.6V285H359.556ZM373.1 275.496V273.544H375.34V275.496H373.1ZM373.228 285V277.176H375.228V285H373.228Z" fill="#747474"/>
<path d="M504 197H117.556V222.076H504V197Z" fill="#EEEEEE"/>
<path d="M303 197H264V222H303V197Z" fill="#009688"/>
<path d="M266.4 213.1H266.193L266.046 213.246L264.5 214.793V205.2C264.5 204.813 264.813 204.5 265.2 204.5H274.8C275.185 204.5 275.5 204.812 275.5 205.2V212.4C275.5 212.787 275.187 213.1 274.8 213.1H266.4Z" fill="#6C6CF9" stroke="#0000FF"/>
<path d="M76.9253 220L77.224 202.72H80.488L82.9413 214.688L85.5013 202.72H88.6587L88.9787 220H86.632L86.376 207.989L83.9227 220H82.024L79.528 207.947L79.2933 220H76.9253ZM95.7575 220.235C94.7193 220.235 93.8517 220.036 93.1548 219.637C92.4579 219.225 91.9317 218.628 91.5762 217.845C91.2206 217.063 91.0215 216.103 90.9788 214.965L93.6882 214.432C93.7166 215.1 93.7948 215.691 93.9228 216.203C94.0651 216.715 94.2713 217.113 94.5415 217.397C94.8259 217.668 95.1957 217.803 95.6508 217.803C96.1628 217.803 96.5255 217.653 96.7388 217.355C96.9522 217.042 97.0588 216.651 97.0588 216.181C97.0588 215.428 96.8882 214.809 96.5468 214.325C96.2055 213.842 95.7504 213.358 95.1815 212.875L93.0055 210.955C92.3939 210.428 91.9033 209.845 91.5335 209.205C91.1779 208.551 91.0002 207.748 91.0002 206.795C91.0002 205.429 91.3984 204.377 92.1948 203.637C92.9913 202.898 94.0793 202.528 95.4588 202.528C96.2695 202.528 96.9451 202.656 97.4855 202.912C98.0259 203.154 98.4526 203.495 98.7655 203.936C99.0926 204.377 99.3344 204.882 99.4908 205.451C99.6473 206.005 99.7468 206.596 99.7895 207.221L97.1015 207.691C97.0731 207.15 97.0091 206.667 96.9095 206.24C96.8242 205.813 96.6606 205.479 96.4188 205.237C96.1913 204.996 95.8499 204.875 95.3948 204.875C94.9255 204.875 94.5628 205.031 94.3068 205.344C94.0651 205.643 93.9442 206.02 93.9442 206.475C93.9442 207.058 94.0651 207.541 94.3068 207.925C94.5486 208.295 94.8971 208.679 95.3522 209.077L97.5068 210.976C98.2179 211.573 98.8224 212.277 99.3202 213.088C99.8322 213.884 100.088 214.852 100.088 215.989C100.088 216.814 99.9033 217.547 99.5335 218.187C99.1779 218.827 98.6731 219.332 98.0188 219.701C97.3788 220.057 96.6251 220.235 95.7575 220.235ZM103.867 220V205.984C103.782 206.027 103.611 206.091 103.355 206.176C103.113 206.261 102.843 206.347 102.544 206.432C102.246 206.503 101.968 206.574 101.712 206.645C101.471 206.716 101.3 206.773 101.2 206.816V204.619C101.4 204.548 101.648 204.448 101.947 204.32C102.246 204.192 102.559 204.05 102.886 203.893C103.227 203.723 103.54 203.538 103.824 203.339C104.123 203.14 104.365 202.933 104.55 202.72H106.811V220H103.867Z" fill="#009688"/>
<path d="M264 222L261.113 227L266.887 227L264 222ZM264.5 248L264.5 226.5L263.5 226.5L263.5 248L264.5 248Z" fill="#9EB5B2"/>
<path d="M504 154H117.556V179.076H504V154Z" fill="#EEEEEE"/>
<path d="M363 154H312V179H363V154Z" fill="#FF0000"/>
<path d="M314.4 170.1H314.193L314.046 170.246L312.5 171.793V162.2C312.5 161.813 312.813 161.5 313.2 161.5H322.8C323.185 161.5 323.5 161.812 323.5 162.2V169.4C323.5 169.787 323.187 170.1 322.8 170.1H314.4Z" fill="#6C6CF9" stroke="#0000FF"/>
<path d="M74.6753 177L74.974 159.72H78.238L80.6913 171.688L83.2513 159.72H86.4087L86.7287 177H84.382L84.126 164.989L81.6727 177H79.774L77.278 164.947L77.0433 177H74.6753ZM93.5075 177.235C92.4693 177.235 91.6017 177.036 90.9048 176.637C90.2079 176.225 89.6817 175.628 89.3262 174.845C88.9706 174.063 88.7715 173.103 88.7288 171.965L91.4382 171.432C91.4666 172.1 91.5448 172.691 91.6728 173.203C91.8151 173.715 92.0213 174.113 92.2915 174.397C92.5759 174.668 92.9457 174.803 93.4008 174.803C93.9128 174.803 94.2755 174.653 94.4888 174.355C94.7022 174.042 94.8088 173.651 94.8088 173.181C94.8088 172.428 94.6382 171.809 94.2968 171.325C93.9555 170.842 93.5004 170.358 92.9315 169.875L90.7555 167.955C90.1439 167.428 89.6533 166.845 89.2835 166.205C88.9279 165.551 88.7502 164.748 88.7502 163.795C88.7502 162.429 89.1484 161.377 89.9448 160.637C90.7413 159.898 91.8293 159.528 93.2088 159.528C94.0195 159.528 94.6951 159.656 95.2355 159.912C95.7759 160.154 96.2026 160.495 96.5155 160.936C96.8426 161.377 97.0844 161.882 97.2408 162.451C97.3973 163.005 97.4968 163.596 97.5395 164.221L94.8515 164.691C94.8231 164.15 94.7591 163.667 94.6595 163.24C94.5742 162.813 94.4106 162.479 94.1688 162.237C93.9413 161.996 93.5999 161.875 93.1448 161.875C92.6755 161.875 92.3128 162.031 92.0568 162.344C91.8151 162.643 91.6942 163.02 91.6942 163.475C91.6942 164.058 91.8151 164.541 92.0568 164.925C92.2986 165.295 92.6471 165.679 93.1022 166.077L95.2568 167.976C95.9679 168.573 96.5724 169.277 97.0702 170.088C97.5822 170.884 97.8382 171.852 97.8382 172.989C97.8382 173.814 97.6533 174.547 97.2835 175.187C96.9279 175.827 96.4231 176.332 95.7688 176.701C95.1288 177.057 94.3751 177.235 93.5075 177.235ZM99.2705 177V174.909L103.537 168.317C103.85 167.834 104.142 167.372 104.412 166.931C104.696 166.49 104.924 166.035 105.094 165.565C105.279 165.082 105.372 164.556 105.372 163.987C105.372 163.347 105.258 162.856 105.03 162.515C104.803 162.173 104.447 162.003 103.964 162.003C103.509 162.003 103.153 162.131 102.897 162.387C102.641 162.643 102.463 162.977 102.364 163.389C102.278 163.802 102.236 164.257 102.236 164.755V165.48H99.3345V164.712C99.3345 163.688 99.4838 162.792 99.7825 162.024C100.095 161.242 100.586 160.63 101.254 160.189C101.923 159.748 102.798 159.528 103.878 159.528C105.358 159.528 106.467 159.926 107.206 160.723C107.946 161.519 108.316 162.628 108.316 164.051C108.316 164.762 108.216 165.409 108.017 165.992C107.818 166.561 107.555 167.108 107.228 167.635C106.901 168.161 106.545 168.701 106.161 169.256L102.62 174.632H107.868V177H99.2705Z" fill="#FF0000"/>
<path d="M312 179L309.113 184L314.887 184L312 179ZM312.5 248L312.5 183.5L311.5 183.5L311.5 248L312.5 248Z" fill="#FFABAB"/>
<path d="M504 110.155H117.556V135.231H504V110.155Z" fill="#EEEEEE"/>
<path d="M442.777 110H363V135.076H442.777V110Z" fill="#980000"/>
<path d="M381.444 110H363V135.076H381.444V110Z" fill="#843F3F"/>
<path d="M400.4 126.1H400.193L400.046 126.246L398.5 127.793V118.2C398.5 117.813 398.813 117.5 399.2 117.5H408.8C409.186 117.5 409.5 117.811 409.5 118.2V125.4C409.5 125.787 409.187 126.1 408.8 126.1H400.4Z" fill="#6C6CF9" stroke="#0000FF"/>
<path d="M95.7575 131.235C94.7193 131.235 93.8517 131.036 93.1548 130.637C92.4579 130.225 91.9317 129.628 91.5762 128.845C91.2206 128.063 91.0215 127.103 90.9788 125.965L93.6882 125.432C93.7166 126.1 93.7948 126.691 93.9228 127.203C94.0651 127.715 94.2713 128.113 94.5415 128.397C94.8259 128.668 95.1957 128.803 95.6508 128.803C96.1628 128.803 96.5255 128.653 96.7388 128.355C96.9522 128.042 97.0588 127.651 97.0588 127.181C97.0588 126.428 96.8882 125.809 96.5468 125.325C96.2055 124.842 95.7504 124.358 95.1815 123.875L93.0055 121.955C92.3939 121.428 91.9033 120.845 91.5335 120.205C91.1779 119.551 91.0002 118.748 91.0002 117.795C91.0002 116.429 91.3984 115.377 92.1948 114.637C92.9913 113.898 94.0793 113.528 95.4588 113.528C96.2695 113.528 96.9451 113.656 97.4855 113.912C98.0259 114.154 98.4526 114.495 98.7655 114.936C99.0926 115.377 99.3344 115.882 99.4908 116.451C99.6473 117.005 99.7468 117.596 99.7895 118.221L97.1015 118.691C97.0731 118.15 97.0091 117.667 96.9095 117.24C96.8242 116.813 96.6606 116.479 96.4188 116.237C96.1913 115.996 95.8499 115.875 95.3948 115.875C94.9255 115.875 94.5628 116.031 94.3068 116.344C94.0651 116.643 93.9442 117.02 93.9442 117.475C93.9442 118.058 94.0651 118.541 94.3068 118.925C94.5486 119.295 94.8971 119.679 95.3522 120.077L97.5068 121.976C98.2179 122.573 98.8224 123.277 99.3202 124.088C99.8322 124.884 100.088 125.852 100.088 126.989C100.088 127.814 99.9033 128.547 99.5335 129.187C99.1779 129.827 98.6731 130.332 98.0188 130.701C97.3788 131.057 96.6251 131.235 95.7575 131.235ZM103.867 131V116.984C103.782 117.027 103.611 117.091 103.355 117.176C103.113 117.261 102.843 117.347 102.544 117.432C102.246 117.503 101.968 117.574 101.712 117.645C101.471 117.716 101.3 117.773 101.2 117.816V115.619C101.4 115.548 101.648 115.448 101.947 115.32C102.246 115.192 102.559 115.05 102.886 114.893C103.227 114.723 103.54 114.538 103.824 114.339C104.123 114.14 104.365 113.933 104.55 113.72H106.811V131H103.867Z" fill="#980000"/>
<path d="M363 135L360.113 140L365.887 140L363 135ZM363.5 248L363.5 139.5L362.5 139.5L362.5 248L363.5 248Z" fill="#843F3F"/>
<path d="M504 21.088H117.556V46.164H504V21.088Z" fill="#EEEEEE"/>
<path d="M381 21H162V46H381V21Z" fill="#3A8BF1"/>
<path d="M168.223 41.064C168.96 41.064 169.556 40.504 169.556 39.8133C169.556 39.12 168.956 38.564 168.223 38.564C167.487 38.564 166.889 39.124 166.889 39.8133C166.889 40.504 167.487 41.064 168.223 41.064ZM172.223 35.44C172.96 35.44 173.556 35.9987 173.556 36.6893V42.9387C173.556 43.6293 172.96 44.188 172.223 44.188H164.223C163.487 44.188 162.889 43.6293 162.889 42.9387V36.6893C162.889 35.996 163.489 35.44 164.223 35.44H164.889V34.1893C164.889 32.464 166.383 31.0653 168.223 31.0653C170.064 31.0653 171.556 32.464 171.556 34.1893V35.44H172.223ZM168.223 32.3147C167.119 32.3147 166.223 33.1547 166.223 34.1893V35.44H170.223V34.1893C170.223 33.1547 169.328 32.3147 168.223 32.3147Z" fill="#D2D2D2"/>
<path d="M377.889 35.2933C378.627 35.2933 379.223 35.8907 379.223 36.6267V43.2933C379.223 44.0293 378.627 44.6267 377.889 44.6267H369.889C369.149 44.6267 368.556 44.0267 368.556 43.2933V36.6267C368.556 35.8907 369.153 35.2933 369.889 35.2933H375.889V33.96C375.889 32.856 374.995 31.96 373.889 31.96C372.785 31.96 371.889 32.856 371.889 33.96H370.556C370.556 32.1187 372.049 30.6267 373.889 30.6267C375.731 30.6267 377.223 32.1187 377.223 33.96V35.2933H377.889ZM373.889 41.2933C374.627 41.2933 375.223 40.696 375.223 39.96C375.223 39.224 374.627 38.6267 373.889 38.6267C373.153 38.6267 372.556 39.224 372.556 39.96C372.556 40.696 373.153 41.2933 373.889 41.2933Z" fill="#D2D2D2"/>
<path d="M188.8 28.96H179.2C178.537 28.96 178 29.4973 178 30.16V40.96L180.4 38.56H188.8C189.463 38.56 190 38.0227 190 37.36V30.16C190 29.4947 189.46 28.96 188.8 28.96Z" fill="#0000FF"/>
<path d="M168.223 243.753V46" stroke="#607D8B" stroke-opacity="0.7" stroke-width="1.33333" stroke-miterlimit="1" stroke-linecap="round" stroke-dasharray="0.33 4 0.33 4"/>
<path d="M373.889 243.753V46" stroke="#607D8B" stroke-opacity="0.7" stroke-width="1.33333" stroke-miterlimit="1" stroke-linecap="round" stroke-dasharray="0.33 4 0.33 4"/>
<path d="M215 249L215 34" stroke="#FF7A00" stroke-width="1.5" stroke-miterlimit="3" stroke-linejoin="bevel" stroke-dasharray="3 3"/>
<path d="M247 249L247 34" stroke="#FF7A00" stroke-width="1.5" stroke-miterlimit="3" stroke-linejoin="bevel" stroke-dasharray="3 3"/>
<path d="M247 34L191 34" stroke="#FF7A00" stroke-width="1.5" stroke-miterlimit="3" stroke-linecap="square" stroke-dasharray="3 3"/>
<path d="M184 47L184 254" stroke="#1D559C" stroke-width="1.33333" stroke-miterlimit="3" stroke-linejoin="bevel"/>
<path d="M188.556 50.86L184.223 42.1933L179.889 50.86H188.556Z" fill="#1D559C"/>
<path d="M422.223 21.088H384.889V46.164H422.223V21.088Z" fill="#3A8BF1"/>
<path d="M391.556 41.064C392.293 41.064 392.889 40.504 392.889 39.8133C392.889 39.12 392.289 38.564 391.556 38.564C390.82 38.564 390.223 39.124 390.223 39.8133C390.223 40.504 390.82 41.064 391.556 41.064ZM395.556 35.44C396.293 35.44 396.889 35.9987 396.889 36.6893V42.9387C396.889 43.6293 396.293 44.188 395.556 44.188H387.556C386.82 44.188 386.223 43.6293 386.223 42.9387V36.6893C386.223 35.996 386.823 35.44 387.556 35.44H388.223V34.1893C388.223 32.464 389.716 31.0653 391.556 31.0653C393.397 31.0653 394.889 32.464 394.889 34.1893V35.44H395.556ZM391.556 32.3147C390.452 32.3147 389.556 33.1547 389.556 34.1893V35.44H393.556V34.1893C393.556 33.1547 392.661 32.3147 391.556 32.3147Z" fill="#D2D2D2"/>
<path d="M419.556 35.2933C420.293 35.2933 420.889 35.8907 420.889 36.6267V43.2933C420.889 44.0293 420.293 44.6267 419.556 44.6267H411.556C410.816 44.6267 410.223 44.0267 410.223 43.2933V36.6267C410.223 35.8907 410.82 35.2933 411.556 35.2933H417.556V33.96C417.556 32.856 416.661 31.96 415.556 31.96C414.452 31.96 413.556 32.856 413.556 33.96H412.223C412.223 32.1187 413.716 30.6267 415.556 30.6267C417.397 30.6267 418.889 32.1187 418.889 33.96V35.2933H419.556ZM415.556 41.2933C416.293 41.2933 416.889 40.696 416.889 39.96C416.889 39.224 416.293 38.6267 415.556 38.6267C414.82 38.6267 414.223 39.224 414.223 39.96C414.223 40.696 414.82 41.2933 415.556 41.2933Z" fill="#D2D2D2"/>
<path d="M408.5 27.4H398.9C398.237 27.4 397.7 27.9374 397.7 28.6V39.4L400.1 37H408.5C409.163 37 409.7 36.4627 409.7 35.8V28.6C409.7 27.9347 409.16 27.4 408.5 27.4Z" fill="#0000FF"/>
<path d="M391.556 108.729V46" stroke="#607D8B" stroke-opacity="0.7" stroke-width="1.33333" stroke-miterlimit="1" stroke-linecap="round" stroke-dasharray="0.33 4 0.33 4"/>
<path d="M415.556 108.979V46" stroke="#607D8B" stroke-opacity="0.7" stroke-width="1.33333" stroke-miterlimit="1" stroke-linecap="round" stroke-dasharray="0.33 4 0.33 4"/>
<path d="M404 106L404 38" stroke="#1D559C" stroke-width="1.33333" stroke-miterlimit="3" stroke-linejoin="bevel"/>
<path d="M400 106L404.333 114.667L408.667 106H400Z" fill="#1D559C"/>
<path d="M25.952 44.2347C24.6862 44.2347 23.6907 43.9858 22.9653 43.488C22.2542 42.9902 21.7564 42.3147 21.472 41.4613C21.1876 40.5938 21.0453 39.5982 21.0453 38.4747V32.3093C21.0453 31.1289 21.1876 30.1049 21.472 29.2373C21.7564 28.3698 22.2542 27.7013 22.9653 27.232C23.6907 26.7627 24.6862 26.528 25.952 26.528C27.1467 26.528 28.0782 26.7342 28.7467 27.1467C29.4293 27.5449 29.9129 28.1209 30.1973 28.8747C30.4818 29.6284 30.624 30.5031 30.624 31.4987V32.9493H27.5947V31.456C27.5947 30.9724 27.5662 30.5316 27.5093 30.1333C27.4667 29.7351 27.3316 29.4222 27.104 29.1947C26.8907 28.9529 26.5138 28.832 25.9733 28.832C25.4329 28.832 25.0347 28.96 24.7787 29.216C24.5369 29.4578 24.3804 29.792 24.3093 30.2187C24.2382 30.6311 24.2027 31.1004 24.2027 31.6267V39.136C24.2027 39.7618 24.2524 40.2809 24.352 40.6933C24.4516 41.0916 24.6293 41.3973 24.8853 41.6107C25.1556 41.8098 25.5182 41.9093 25.9733 41.9093C26.4996 41.9093 26.8693 41.7884 27.0827 41.5467C27.3102 41.2907 27.4524 40.9564 27.5093 40.544C27.5662 40.1316 27.5947 39.6693 27.5947 39.1573V37.6H30.624V38.9867C30.624 40.0107 30.4889 40.9209 30.2187 41.7173C29.9484 42.4996 29.472 43.1182 28.7893 43.5733C28.1209 44.0142 27.1751 44.2347 25.952 44.2347ZM32.8648 44V26.72H36.0008V33.952H39.5208V26.72H42.6782V44H39.5208V36.192H36.0008V44H32.8648ZM44.4475 44L47.9035 26.72H51.2742L54.7302 44H51.8075L51.1248 40.0107H48.1168L47.4128 44H44.4475ZM48.4368 38.0053H50.7835L49.6102 30.752L48.4368 38.0053ZM56.468 44V26.72H58.6653L62.868 36.576V26.72H65.4707V44H63.38L59.156 33.6747V44H56.468ZM68.093 44V26.72H70.2903L74.493 36.576V26.72H77.0957V44H75.005L70.781 33.6747V44H68.093ZM79.718 44V26.72H86.9713V28.9387H82.8753V33.9093H86.0967V36.1067H82.8753V41.824H87.014V44H79.718ZM88.843 44V26.72H92.0003V41.824H96.1817V44H88.843ZM102.135 44L105.591 26.72H108.962L112.418 44H109.495L108.812 40.0107H105.804L105.1 44H102.135ZM106.124 38.0053H108.471L107.298 30.752L106.124 38.0053Z" fill="#3A8BF1"/>
<path d="M391.491 7.33999V5.38799H393.731V7.33999H391.491ZM389.795 19.932L389.651 18.476L390.387 18.396C391.208 18.3 391.619 17.82 391.619 16.956V9.01999H393.619V16.7C393.619 17.7453 393.379 18.5133 392.899 19.004C392.419 19.5053 391.613 19.7987 390.483 19.884L389.795 19.932ZM400.008 16.844V5.56399H402.008V12.348H402.04L405.192 9.01999H407.608L404.056 12.764L407.832 16.844H405.384L402.04 13.356H402.008V16.844H400.008ZM415.618 17.004C414.69 17.004 414.002 16.7533 413.554 16.252C413.117 15.74 412.898 14.9933 412.898 14.012V5.56399H414.898V13.916C414.898 14.876 415.304 15.356 416.114 15.356C416.232 15.356 416.349 15.3507 416.466 15.34C416.584 15.3293 416.696 15.308 416.802 15.276L416.77 16.86C416.386 16.956 416.002 17.004 415.618 17.004Z" fill="#747474"/>
</svg>
