<svg width="447" height="281" viewBox="0 0 447 281" fill="none" xmlns="http://www.w3.org/2000/svg">
<rect y="77" width="330" height="128" rx="5" fill="#6931D0"/>
<path d="M31.188 157.5V154.08L39.036 132.012H31.62V128.34H44.4V131.076L36.264 153.828H44.436V157.5H31.188ZM47.489 157.5V128.34H54.653C55.949 128.34 57.113 128.46 58.145 128.7C59.201 128.94 60.101 129.348 60.845 129.924C61.613 130.476 62.201 131.232 62.609 132.192C63.017 133.152 63.221 134.364 63.221 135.828C63.221 137.004 63.053 138.012 62.717 138.852C62.405 139.692 61.937 140.364 61.313 140.868C60.689 141.348 59.909 141.672 58.973 141.84C60.125 142.032 61.073 142.44 61.817 143.064C62.585 143.664 63.149 144.456 63.509 145.44C63.893 146.424 64.085 147.612 64.085 149.004C64.085 150.396 63.905 151.632 63.545 152.712C63.209 153.768 62.693 154.656 61.997 155.376C61.325 156.072 60.473 156.6 59.441 156.96C58.433 157.32 57.245 157.5 55.877 157.5H47.489ZM52.817 153.756H54.833C56.441 153.756 57.533 153.372 58.109 152.604C58.685 151.812 58.973 150.6 58.973 148.968C58.973 147.792 58.829 146.844 58.541 146.124C58.277 145.38 57.821 144.828 57.173 144.468C56.549 144.108 55.709 143.928 54.653 143.928H52.817V153.756ZM52.817 140.256H54.617C55.673 140.256 56.489 140.1 57.065 139.788C57.641 139.476 58.037 138.996 58.253 138.348C58.493 137.7 58.613 136.884 58.613 135.9C58.613 134.868 58.433 134.076 58.073 133.524C57.737 132.948 57.221 132.564 56.525 132.372C55.829 132.156 54.941 132.048 53.861 132.048H52.817V140.256ZM75.52 157.896C73.36 157.896 71.68 157.5 70.48 156.708C69.28 155.916 68.452 154.788 67.996 153.324C67.54 151.86 67.312 150.108 67.312 148.068V128.34H72.496V148.68C72.496 149.592 72.556 150.456 72.676 151.272C72.796 152.064 73.072 152.712 73.504 153.216C73.96 153.696 74.632 153.936 75.52 153.936C76.456 153.936 77.128 153.696 77.536 153.216C77.968 152.712 78.244 152.064 78.364 151.272C78.508 150.456 78.58 149.592 78.58 148.68V128.34H83.728V148.068C83.728 150.108 83.5 151.86 83.044 153.324C82.588 154.788 81.76 155.916 80.56 156.708C79.384 157.5 77.704 157.896 75.52 157.896ZM95.2627 157.896C93.5107 157.896 92.0467 157.56 90.8707 156.888C89.6947 156.192 88.8067 155.184 88.2067 153.864C87.6067 152.544 87.2707 150.924 87.1987 149.004L91.7707 148.104C91.8187 149.232 91.9507 150.228 92.1667 151.092C92.4067 151.956 92.7547 152.628 93.2107 153.108C93.6907 153.564 94.3147 153.792 95.0827 153.792C95.9467 153.792 96.5587 153.54 96.9187 153.036C97.2787 152.508 97.4587 151.848 97.4587 151.056C97.4587 149.784 97.1707 148.74 96.5947 147.924C96.0187 147.108 95.2507 146.292 94.2907 145.476L90.6187 142.236C89.5867 141.348 88.7587 140.364 88.1347 139.284C87.5347 138.18 87.2347 136.824 87.2347 135.216C87.2347 132.912 87.9067 131.136 89.2507 129.888C90.5947 128.64 92.4307 128.016 94.7587 128.016C96.1267 128.016 97.2667 128.232 98.1787 128.664C99.0907 129.072 99.8107 129.648 100.339 130.392C100.891 131.136 101.299 131.988 101.563 132.948C101.827 133.884 101.995 134.88 102.067 135.936L97.5307 136.728C97.4827 135.816 97.3747 135 97.2067 134.28C97.0627 133.56 96.7867 132.996 96.3787 132.588C95.9947 132.18 95.4187 131.976 94.6507 131.976C93.8587 131.976 93.2467 132.24 92.8147 132.768C92.4067 133.272 92.2027 133.908 92.2027 134.676C92.2027 135.66 92.4067 136.476 92.8147 137.124C93.2227 137.748 93.8107 138.396 94.5787 139.068L98.2147 142.272C99.4147 143.28 100.435 144.468 101.275 145.836C102.139 147.18 102.571 148.812 102.571 150.732C102.571 152.124 102.259 153.36 101.635 154.44C101.035 155.52 100.183 156.372 99.0787 156.996C97.9987 157.596 96.7267 157.896 95.2627 157.896Z" fill="white"/>
<rect x="163" y="109" width="137" height="64" rx="5" fill="#3A8BF1"/>
<path d="M185.966 152.264C184.542 152.264 183.422 151.984 182.606 151.424C181.806 150.864 181.246 150.104 180.926 149.144C180.606 148.168 180.446 147.048 180.446 145.784V138.848C180.446 137.52 180.606 136.368 180.926 135.392C181.246 134.416 181.806 133.664 182.606 133.136C183.422 132.608 184.542 132.344 185.966 132.344C187.31 132.344 188.358 132.576 189.11 133.04C189.878 133.488 190.422 134.136 190.742 134.984C191.062 135.832 191.222 136.816 191.222 137.936V139.568H187.814V137.888C187.814 137.344 187.782 136.848 187.718 136.4C187.67 135.952 187.518 135.6 187.262 135.344C187.022 135.072 186.598 134.936 185.99 134.936C185.382 134.936 184.934 135.08 184.646 135.368C184.374 135.64 184.198 136.016 184.118 136.496C184.038 136.96 183.998 137.488 183.998 138.08V146.528C183.998 147.232 184.054 147.816 184.166 148.28C184.278 148.728 184.478 149.072 184.766 149.312C185.07 149.536 185.478 149.648 185.99 149.648C186.582 149.648 186.998 149.512 187.238 149.24C187.494 148.952 187.654 148.576 187.718 148.112C187.782 147.648 187.814 147.128 187.814 146.552V144.8H191.222V146.36C191.222 147.512 191.07 148.536 190.766 149.432C190.462 150.312 189.926 151.008 189.158 151.52C188.406 152.016 187.342 152.264 185.966 152.264ZM193.742 152V132.56H197.27V140.696H201.23V132.56H204.782V152H201.23V143.216H197.27V152H193.742ZM206.773 152L210.661 132.56H214.453L218.341 152H215.053L214.285 147.512H210.901L210.109 152H206.773ZM211.261 145.256H213.901L212.581 137.096L211.261 145.256ZM220.296 152V132.56H222.768L227.496 143.648V132.56H230.424V152H228.072L223.32 140.384V152H220.296ZM233.374 152V132.56H235.846L240.574 143.648V132.56H243.502V152H241.15L236.398 140.384V152H233.374ZM246.452 152V132.56H254.612V135.056H250.004V140.648H253.628V143.12H250.004V149.552H254.66V152H246.452ZM256.718 152V132.56H260.27V149.552H264.974V152H256.718ZM271.671 152L275.559 132.56H279.351L283.239 152H279.951L279.183 147.512H275.799L275.007 152H271.671ZM276.159 145.256H278.799L277.479 137.096L276.159 145.256Z" fill="white"/>
<path d="M281 231L289.66 216L272.34 216L281 231ZM279.5 173L279.5 217.5L282.5 217.5L282.5 173L279.5 173Z" fill="#607D8B"/>
<rect x="226.5" y="231.5" width="106" height="49" rx="4.5" fill="#C8C000"/>
<path d="M260.5 243H240.5C239.837 243 239.201 243.263 238.732 243.732C238.263 244.201 238 244.837 238 245.5V268L243 263H260.5C261.163 263 261.799 262.737 262.268 262.268C262.737 261.799 263 261.163 263 260.5V245.5C263 244.112 261.875 243 260.5 243Z" fill="black" fill-opacity="0.6"/>
<path d="M281.58 262.5V248.4H283.72L288.72 257.62L293.7 248.4H295.8V262.5H293.48V253L289.44 260.36H287.94L283.9 253.04V262.5H281.58ZM303.763 262.7C302.657 262.7 301.63 262.56 300.683 262.28C299.737 261.987 298.937 261.593 298.283 261.1L299.063 259.08C299.717 259.547 300.43 259.907 301.203 260.16C301.99 260.413 302.843 260.54 303.763 260.54C304.817 260.54 305.583 260.367 306.063 260.02C306.543 259.66 306.783 259.2 306.783 258.64C306.783 258.173 306.61 257.807 306.263 257.54C305.93 257.273 305.35 257.053 304.523 256.88L302.323 256.42C299.817 255.887 298.563 254.6 298.563 252.56C298.563 251.68 298.797 250.913 299.263 250.26C299.73 249.607 300.377 249.1 301.203 248.74C302.03 248.38 302.983 248.2 304.063 248.2C305.023 248.2 305.923 248.347 306.763 248.64C307.603 248.92 308.303 249.32 308.863 249.84L308.083 251.76C306.977 250.827 305.63 250.36 304.043 250.36C303.123 250.36 302.403 250.553 301.883 250.94C301.363 251.327 301.103 251.833 301.103 252.46C301.103 252.94 301.263 253.327 301.583 253.62C301.903 253.9 302.45 254.12 303.223 254.28L305.403 254.74C306.723 255.02 307.703 255.46 308.343 256.06C308.997 256.66 309.323 257.46 309.323 258.46C309.323 259.3 309.097 260.04 308.643 260.68C308.19 261.32 307.543 261.82 306.703 262.18C305.877 262.527 304.897 262.7 303.763 262.7ZM311.58 262.5V260.6L316.14 255.74C316.754 255.073 317.194 254.487 317.46 253.98C317.727 253.46 317.86 252.933 317.86 252.4C317.86 251.04 317.04 250.36 315.4 250.36C314.12 250.36 312.94 250.84 311.86 251.8L311 249.88C311.56 249.373 312.26 248.967 313.1 248.66C313.94 248.353 314.814 248.2 315.72 248.2C317.227 248.2 318.38 248.54 319.18 249.22C319.994 249.9 320.4 250.873 320.4 252.14C320.4 252.993 320.194 253.813 319.78 254.6C319.38 255.387 318.747 256.233 317.88 257.14L314.78 260.38H320.94V262.5H311.58Z" fill="black" fill-opacity="0.8"/>
<rect x="226.5" y="231.5" width="106" height="49" rx="4.5" stroke="#BBB400"/>
<path d="M182 231L190.66 216L173.34 216L182 231ZM180.5 173L180.5 217.5L183.5 217.5L183.5 173L180.5 173Z" fill="#607D8B"/>
<rect x="111.5" y="231.5" width="106" height="49" rx="4.5" fill="#C8C000"/>
<path d="M145.5 243H125.5C124.837 243 124.201 243.263 123.732 243.732C123.263 244.201 123 244.837 123 245.5V268L128 263H145.5C146.163 263 146.799 262.737 147.268 262.268C147.737 261.799 148 261.163 148 260.5V245.5C148 244.112 146.875 243 145.5 243Z" fill="black" fill-opacity="0.6"/>
<path d="M166.58 262.5V248.4H168.72L173.72 257.62L178.7 248.4H180.8V262.5H178.48V253L174.44 260.36H172.94L168.9 253.04V262.5H166.58ZM188.763 262.7C187.657 262.7 186.63 262.56 185.683 262.28C184.737 261.987 183.937 261.593 183.283 261.1L184.063 259.08C184.717 259.547 185.43 259.907 186.203 260.16C186.99 260.413 187.843 260.54 188.763 260.54C189.817 260.54 190.583 260.367 191.063 260.02C191.543 259.66 191.783 259.2 191.783 258.64C191.783 258.173 191.61 257.807 191.263 257.54C190.93 257.273 190.35 257.053 189.523 256.88L187.323 256.42C184.817 255.887 183.563 254.6 183.563 252.56C183.563 251.68 183.797 250.913 184.263 250.26C184.73 249.607 185.377 249.1 186.203 248.74C187.03 248.38 187.983 248.2 189.063 248.2C190.023 248.2 190.923 248.347 191.763 248.64C192.603 248.92 193.303 249.32 193.863 249.84L193.083 251.76C191.977 250.827 190.63 250.36 189.043 250.36C188.123 250.36 187.403 250.553 186.883 250.94C186.363 251.327 186.103 251.833 186.103 252.46C186.103 252.94 186.263 253.327 186.583 253.62C186.903 253.9 187.45 254.12 188.223 254.28L190.403 254.74C191.723 255.02 192.703 255.46 193.343 256.06C193.997 256.66 194.323 257.46 194.323 258.46C194.323 259.3 194.097 260.04 193.643 260.68C193.19 261.32 192.543 261.82 191.703 262.18C190.877 262.527 189.897 262.7 188.763 262.7ZM197.16 262.5V260.38H200.34V251.32L197.88 252.8L196.88 250.92L201.08 248.4H202.9V260.38H205.88V262.5H197.16Z" fill="black" fill-opacity="0.8"/>
<rect x="111.5" y="231.5" width="106" height="49" rx="4.5" stroke="#BBB400"/>
<path d="M358 163L343 154.34L343 171.66L358 163ZM300 164.5L344.5 164.5L344.5 161.5L300 161.5L300 164.5Z" fill="#607D8B"/>
<rect x="358.5" y="144.5" width="88" height="49" rx="4.5" fill="#FF7A00"/>
<path d="M394.083 159.083C394.083 157.8 393.033 156.75 391.75 156.75H373.083C371.8 156.75 370.75 157.8 370.75 159.083V180.083L375.417 175.417H385.917V166.083H394.083V159.083ZM394.667 173.083H392.1L394.083 168.417H388.25V175.417H390.583V181.25L394.667 173.083Z" fill="black" fill-opacity="0.6"/>
<path d="M413.54 175.5V161.4H416.1V173.32H422.86V175.5H413.54ZM424.83 175.5V173.6L429.39 168.74C430.004 168.073 430.444 167.487 430.71 166.98C430.977 166.46 431.11 165.933 431.11 165.4C431.11 164.04 430.29 163.36 428.65 163.36C427.37 163.36 426.19 163.84 425.11 164.8L424.25 162.88C424.81 162.373 425.51 161.967 426.35 161.66C427.19 161.353 428.064 161.2 428.97 161.2C430.477 161.2 431.63 161.54 432.43 162.22C433.244 162.9 433.65 163.873 433.65 165.14C433.65 165.993 433.444 166.813 433.03 167.6C432.63 168.387 431.997 169.233 431.13 170.14L428.03 173.38H434.19V175.5H424.83Z" fill="black" fill-opacity="0.8"/>
<rect x="358.5" y="144.5" width="88" height="49" rx="4.5" stroke="#F27400"/>
<path d="M358 118L343 109.34L343 126.66L358 118ZM300 119.5L344.5 119.5L344.5 116.5L300 116.5L300 119.5Z" fill="#607D8B"/>
<rect x="358.5" y="87.5" width="88" height="49" rx="4.5" fill="#FF7A00"/>
<path d="M394.083 102.083C394.083 100.8 393.033 99.75 391.75 99.75H373.083C371.8 99.75 370.75 100.8 370.75 102.083V123.083L375.417 118.417H385.917V109.083H394.083V102.083ZM394.667 116.083H392.1L394.083 111.417H388.25V118.417H390.583V124.25L394.667 116.083Z" fill="black" fill-opacity="0.6"/>
<path d="M413.54 118.5V104.4H416.1V116.32H422.86V118.5H413.54ZM425.41 118.5V116.38H428.59V107.32L426.13 108.8L425.13 106.92L429.33 104.4H431.15V116.38H434.13V118.5H425.41Z" fill="black" fill-opacity="0.8"/>
<rect x="358.5" y="87.5" width="88" height="49" rx="4.5" stroke="#F27400"/>
<path d="M281 51L272.34 66L289.66 66L281 51ZM282.5 109L282.5 64.5L279.5 64.5L279.5 109L282.5 109Z" fill="#607D8B"/>
<rect x="242.5" y="1.5" width="89" height="49" rx="4.5" fill="#EBEBEB"/>
<path d="M257.2 22H262.8V24.8H257.2V22ZM281 22V34.6C281 35.3426 280.705 36.0548 280.18 36.5799C279.655 37.105 278.943 37.4 278.2 37.4H253V22C253 20.1435 253.737 18.363 255.05 17.0503C256.363 15.7375 258.143 15 260 15H274C275.857 15 277.637 15.7375 278.95 17.0503C280.263 18.363 281 20.1435 281 22ZM264.2 22C264.2 20.8861 263.758 19.8178 262.97 19.0302C262.182 18.2425 261.114 17.8 260 17.8C258.886 17.8 257.818 18.2425 257.03 19.0302C256.242 19.8178 255.8 20.8861 255.8 22V34.6H264.2V22ZM272.6 19.2H267V27.6H269.8V22H272.6V19.2Z" fill="black" fill-opacity="0.6"/>
<path d="M302.4 32.7C301.293 32.7 300.267 32.56 299.32 32.28C298.373 31.9867 297.573 31.5933 296.92 31.1L297.7 29.08C298.353 29.5467 299.067 29.9067 299.84 30.16C300.627 30.4133 301.48 30.54 302.4 30.54C303.453 30.54 304.22 30.3667 304.7 30.02C305.18 29.66 305.42 29.2 305.42 28.64C305.42 28.1733 305.247 27.8067 304.9 27.54C304.567 27.2733 303.987 27.0533 303.16 26.88L300.96 26.42C298.453 25.8867 297.2 24.6 297.2 22.56C297.2 21.68 297.433 20.9133 297.9 20.26C298.367 19.6067 299.013 19.1 299.84 18.74C300.667 18.38 301.62 18.2 302.7 18.2C303.66 18.2 304.56 18.3467 305.4 18.64C306.24 18.92 306.94 19.32 307.5 19.84L306.72 21.76C305.613 20.8267 304.267 20.36 302.68 20.36C301.76 20.36 301.04 20.5533 300.52 20.94C300 21.3267 299.74 21.8333 299.74 22.46C299.74 22.94 299.9 23.3267 300.22 23.62C300.54 23.9 301.087 24.12 301.86 24.28L304.04 24.74C305.36 25.02 306.34 25.46 306.98 26.06C307.633 26.66 307.96 27.46 307.96 28.46C307.96 29.3 307.733 30.04 307.28 30.68C306.827 31.32 306.18 31.82 305.34 32.18C304.513 32.5267 303.533 32.7 302.4 32.7ZM310.797 32.5V30.38H313.977V21.32L311.517 22.8L310.517 20.92L314.717 18.4H316.537V30.38H319.517V32.5H310.797Z" fill="black" fill-opacity="0.8"/>
<rect x="242.5" y="1.5" width="89" height="49" rx="4.5" stroke="#DEDEDE"/>
<path d="M182 109L190.66 94L173.34 94L182 109ZM180.5 49L180.5 95.5L183.5 95.5L183.5 49L180.5 49Z" fill="#607D8B"/>
<rect x="159.5" y="0.5" width="46" height="48" rx="4.5" fill="#EBEBEB"/>
<path d="M174.94 31V19.04H170.1V16.9H182.34V19.04H177.5V31H174.94ZM184.602 31V28.88H187.782V19.82L185.322 21.3L184.322 19.42L188.522 16.9H190.342V28.88H193.322V31H184.602Z" fill="black" fill-opacity="0.8"/>
<rect x="159.5" y="0.5" width="46" height="48" rx="4.5" stroke="#DEDEDE"/>
</svg>
