<?xml version="1.0" encoding="UTF-8" standalone="no"?>
<!-- Generator: Gravit.io -->
<svg xmlns="http://www.w3.org/2000/svg" xmlns:xlink="http://www.w3.org/1999/xlink" style="isolation:isolate" viewBox="0 0 378 247.79" width="378pt" height="247.79pt"><defs><clipPath id="_clipPath_iUF9Sme9t6OtqZ8Tb3K3X9dLtlKmh5wm"><rect width="378" height="247.79"/></clipPath></defs><g clip-path="url(#_clipPath_iUF9Sme9t6OtqZ8Tb3K3X9dLtlKmh5wm)"><rect x="0" y="0" width="378" height="247.79" transform="matrix(1,0,0,1,0,0)" fill="rgb(255,255,255)"/><g><rect x="88.167" y="181.315" width="289.833" height="18.807" transform="matrix(1,0,0,1,0,0)" fill="rgb(238,238,238)"/><clipPath id="_clipPath_aMFz2e7kG2ZtsKB8QPnsKsA7UOUZNrKd"><rect x="88.167" y="181.315" width="289.833" height="18.807" transform="matrix(1,0,0,1,0,0)" fill="rgb(238,238,238)"/></clipPath><g clip-path="url(#_clipPath_aMFz2e7kG2ZtsKB8QPnsKsA7UOUZNrKd)"><rect x="104.167" y="181.315" width="125" height="18.807" transform="matrix(1,0,0,1,0,0)" fill="rgb(0,0,255)"/><clipPath id="_clipPath_plVDYUeMuNVt7mc2kIlBYZpWoZXpnYx7"><rect x="104.167" y="181.315" width="125" height="18.807" transform="matrix(1,0,0,1,0,0)" fill="rgb(0,0,255)"/></clipPath><g clip-path="url(#_clipPath_plVDYUeMuNVt7mc2kIlBYZpWoZXpnYx7)"><rect x="121.167" y="181.315" width="108" height="18.807" transform="matrix(1,0,0,1,0,0)" fill="rgb(96,125,139)"/><clipPath id="_clipPath_mOtXWyBUAB87jzA8mEHyPCbcYRhhbkDJ"><rect x="121.167" y="181.315" width="108" height="18.807" transform="matrix(1,0,0,1,0,0)" fill="rgb(96,125,139)"/></clipPath><g clip-path="url(#_clipPath_mOtXWyBUAB87jzA8mEHyPCbcYRhhbkDJ)"><rect x="221.334" y="183.102" width="5.833" height="15.234" transform="matrix(1,0,0,1,0,0)" fill="rgb(210,210,210)"/><rect x="211.727" y="183.102" width="5.833" height="15.234" transform="matrix(1,0,0,1,0,0)" fill="rgb(0,255,0)"/><rect x="202.12" y="183.102" width="5.833" height="15.234" transform="matrix(1,0,0,1,0,0)" fill="rgb(0,255,0)"/><rect x="192.513" y="183.102" width="5.833" height="15.234" transform="matrix(1,0,0,1,0,0)" fill="rgb(0,255,0)"/><rect x="147.428" y="183.102" width="17.537" height="15.234" transform="matrix(1,0,0,1,0,0)" fill="rgb(255,153,0)"/><clipPath id="_clipPath_f6JBggrb0MhpEqitjJAQZRD0kM2SrUaL"><rect x="147.428" y="183.102" width="17.537" height="15.234" transform="matrix(1,0,0,1,0,0)" fill="rgb(255,153,0)"/></clipPath><g clip-path="url(#_clipPath_f6JBggrb0MhpEqitjJAQZRD0kM2SrUaL)"><path d=" M 152.979 195.281 L 150.315 195.281 L 150.315 190.48 L 149.213 190.48 L 149.213 196.168 L 152.979 196.168 L 152.979 195.281 L 152.979 195.281 Z  M 155.541 196.168 L 156.639 196.168 L 156.639 190.48 L 156.581 190.48 L 154.104 191.375 L 154.104 192.32 L 155.541 191.804 L 155.541 196.168 L 155.541 196.168 Z " fill="rgb(116,116,116)"/><path d=" M 163.365 184.102 L 158.565 184.102 C 158.234 184.102 157.965 184.37 157.965 184.702 L 157.965 190.102 L 159.165 188.902 L 163.365 188.902 C 163.696 188.902 163.965 188.633 163.965 188.302 L 163.965 184.702 C 163.965 184.369 163.695 184.102 163.365 184.102 Z " fill="rgb(0,0,255)"/></g><rect x="168.739" y="183.102" width="20" height="15.234" transform="matrix(1,0,0,1,0,0)" fill="rgb(255,153,0)"/><clipPath id="_clipPath_xyq4S9YjrupVrogErBWHmEKJcsRHDdgN"><rect x="168.739" y="183.102" width="20" height="15.234" transform="matrix(1,0,0,1,0,0)" fill="rgb(255,153,0)"/></clipPath><g clip-path="url(#_clipPath_xyq4S9YjrupVrogErBWHmEKJcsRHDdgN)"><path d=" M 174.29 195.281 L 171.625 195.281 L 171.625 190.48 L 170.524 190.48 L 170.524 196.168 L 174.29 196.168 L 174.29 195.281 L 174.29 195.281 Z  M 175.129 196.168 L 179.008 196.168 L 179.008 195.297 L 176.512 195.297 L 177.583 194.164 L 177.583 194.164 Q 177.86 193.879 178.086 193.619 L 178.086 193.619 L 178.086 193.619 Q 178.313 193.359 178.477 193.109 L 178.477 193.109 L 178.477 193.109 Q 178.637 192.859 178.725 192.603 L 178.725 192.603 L 178.725 192.603 Q 178.813 192.347 178.813 192.066 L 178.813 192.066 L 178.813 192.066 Q 178.813 191.695 178.696 191.388 L 178.696 191.388 L 178.696 191.388 Q 178.579 191.082 178.356 190.863 L 178.356 190.863 L 178.356 190.863 Q 178.129 190.644 177.795 190.523 L 177.795 190.523 L 177.795 190.523 Q 177.461 190.402 177.028 190.402 L 177.028 190.402 L 177.028 190.402 Q 176.575 190.402 176.202 190.549 L 176.202 190.549 L 176.202 190.549 Q 175.829 190.695 175.567 190.949 L 175.567 190.949 L 175.567 190.949 Q 175.301 191.203 175.157 191.541 L 175.157 191.541 L 175.157 191.541 Q 175.012 191.879 175.012 192.258 L 175.012 192.258 L 176.102 192.258 L 176.102 192.258 Q 176.102 192.027 176.161 191.847 L 176.161 191.847 L 176.161 191.847 Q 176.219 191.668 176.333 191.547 L 176.333 191.547 L 176.333 191.547 Q 176.442 191.429 176.608 191.369 L 176.608 191.369 L 176.608 191.369 Q 176.774 191.308 176.993 191.308 L 176.993 191.308 L 176.993 191.308 Q 177.161 191.308 177.299 191.363 L 177.299 191.363 L 177.299 191.363 Q 177.438 191.418 177.54 191.519 L 177.54 191.519 L 177.54 191.519 Q 177.637 191.625 177.692 191.773 L 177.692 191.773 L 177.692 191.773 Q 177.747 191.922 177.747 192.113 L 177.747 192.113 L 177.747 192.113 Q 177.747 192.242 177.706 192.379 L 177.706 192.379 L 177.706 192.379 Q 177.665 192.515 177.575 192.672 L 177.575 192.672 L 177.575 192.672 Q 177.481 192.832 177.333 193.023 L 177.333 193.023 L 177.333 193.023 Q 177.184 193.215 176.969 193.449 L 176.969 193.449 L 175.129 195.426 L 175.129 196.168 L 175.129 196.168 Z " fill="rgb(116,116,116)"/><path d=" M 187.139 184.102 L 182.339 184.102 C 182.007 184.102 181.739 184.37 181.739 184.702 L 181.739 190.102 L 182.939 188.902 L 187.139 188.902 C 187.47 188.902 187.739 188.633 187.739 188.302 L 187.739 184.702 C 187.739 184.369 187.469 184.102 187.139 184.102 Z " fill="rgb(0,0,255)"/></g><rect x="123.167" y="183.102" width="5.833" height="15.234" transform="matrix(1,0,0,1,0,0)" fill="rgb(210,210,210)"/><rect x="132.774" y="183.102" width="10.88" height="15.234" transform="matrix(1,0,0,1,0,0)" fill="rgb(210,210,210)"/><clipPath id="_clipPath_P6LzcjjjujiU9Ieskrs3dTmZepv2zprY"><rect x="132.774" y="183.102" width="10.88" height="15.234" transform="matrix(1,0,0,1,0,0)" fill="rgb(210,210,210)"/></clipPath><g clip-path="url(#_clipPath_P6LzcjjjujiU9Ieskrs3dTmZepv2zprY)"><path d=" M 140.614 187.719 L 135.814 187.719 C 135.483 187.719 135.214 187.987 135.214 188.319 L 135.214 193.719 L 136.414 192.519 L 140.614 192.519 C 140.946 192.519 141.214 192.25 141.214 191.919 L 141.214 188.319 C 141.214 187.986 140.944 187.719 140.614 187.719 Z " fill="rgb(0,0,255)"/></g></g></g></g><g opacity="0.95"><path d=" M 74.816 184.813 L 74.816 186.047 L 71.16 186.047 L 71.16 196.188 L 69.667 196.188 L 69.667 186.047 L 66.019 186.047 L 66.019 184.813 L 74.816 184.813 L 74.816 184.813 Z  M 80.878 184.758 L 80.878 196.188 L 79.425 196.188 L 79.425 186.555 L 76.511 187.625 L 76.511 186.313 L 80.652 184.758 L 80.878 184.758 L 80.878 184.758 Z " fill="rgb(0,0,255)"/></g></g><g><rect x="88.167" y="147.915" width="289.833" height="18.807" transform="matrix(1,0,0,1,0,0)" fill="rgb(238,238,238)"/><clipPath id="_clipPath_WbYuJ2sDRxBM4uc6Pgv8jp8H6wyMBKn5"><rect x="88.167" y="147.915" width="289.833" height="18.807" transform="matrix(1,0,0,1,0,0)" fill="rgb(238,238,238)"/></clipPath><g clip-path="url(#_clipPath_WbYuJ2sDRxBM4uc6Pgv8jp8H6wyMBKn5)"><rect x="195.667" y="147.915" width="178.333" height="18.807" transform="matrix(1,0,0,1,0,0)" fill="rgb(0,150,136)"/><clipPath id="_clipPath_FawLs433WBeTFzHrcxi1L9t2OTifVgu5"><rect x="195.667" y="147.915" width="178.333" height="18.807" transform="matrix(1,0,0,1,0,0)" fill="rgb(0,150,136)"/></clipPath><g clip-path="url(#_clipPath_FawLs433WBeTFzHrcxi1L9t2OTifVgu5)"><rect x="195.667" y="147.915" width="128.333" height="18.807" transform="matrix(1,0,0,1,0,0)" fill="rgb(158,181,178)"/><path d=" M 340.434 152.819 L 333.234 152.819 C 332.737 152.819 332.334 153.222 332.334 153.719 L 332.334 161.819 L 334.134 160.019 L 340.434 160.019 C 340.931 160.019 341.334 159.616 341.334 159.119 L 341.334 153.719 C 341.334 153.22 340.929 152.819 340.434 152.819 Z " fill="rgb(0,0,255)"/></g></g><g opacity="0.95"><path d=" M 74.816 151.413 L 74.816 152.647 L 71.16 152.647 L 71.16 162.788 L 69.667 162.788 L 69.667 152.647 L 66.019 152.647 L 66.019 151.413 L 74.816 151.413 L 74.816 151.413 Z  M 83.581 161.608 L 83.581 162.788 L 76.128 162.788 L 76.128 161.749 L 80.066 157.374 L 80.066 157.374 Q 80.941 156.382 81.273 155.76 L 81.273 155.76 L 81.273 155.76 Q 81.605 155.139 81.605 154.475 L 81.605 154.475 L 81.605 154.475 Q 81.605 153.585 81.066 153.014 L 81.066 153.014 L 81.066 153.014 Q 80.527 152.444 79.628 152.444 L 79.628 152.444 L 79.628 152.444 Q 78.55 152.444 77.952 153.057 L 77.952 153.057 L 77.952 153.057 Q 77.355 153.671 77.355 154.764 L 77.355 154.764 L 75.91 154.764 L 75.91 154.764 Q 75.91 153.194 76.921 152.225 L 76.921 152.225 L 76.921 152.225 Q 77.933 151.257 79.628 151.257 L 79.628 151.257 L 79.628 151.257 Q 81.214 151.257 82.136 152.089 L 82.136 152.089 L 82.136 152.089 Q 83.058 152.921 83.058 154.303 L 83.058 154.303 L 83.058 154.303 Q 83.058 155.983 80.917 158.303 L 80.917 158.303 L 77.87 161.608 L 83.581 161.608 L 83.581 161.608 Z " fill="rgb(0,150,136)"/></g></g><g><rect x="88.167" y="114.516" width="289.833" height="18.807" transform="matrix(1,0,0,1,0,0)" fill="rgb(238,238,238)"/><clipPath id="_clipPath_E5YTnoTZzL24FxG1xnI8LepDGxpH3sik"><rect x="88.167" y="114.516" width="289.833" height="18.807" transform="matrix(1,0,0,1,0,0)" fill="rgb(238,238,238)"/></clipPath><g clip-path="url(#_clipPath_E5YTnoTZzL24FxG1xnI8LepDGxpH3sik)"><rect x="204.667" y="114.516" width="119.333" height="18.807" transform="matrix(1,0,0,1,0,0)" fill="rgb(255,0,0)"/><clipPath id="_clipPath_IwW0H24JrPXg7H0MomkA5Dd1q5ZkwDSY"><rect x="204.667" y="114.516" width="119.333" height="18.807" transform="matrix(1,0,0,1,0,0)" fill="rgb(255,0,0)"/></clipPath><g clip-path="url(#_clipPath_IwW0H24JrPXg7H0MomkA5Dd1q5ZkwDSY)"><rect x="204.667" y="114.516" width="70.333" height="18.807" transform="matrix(1,0,0,1,0,0)" fill="rgb(255,171,171)"/><path d=" M 290.934 119.419 L 283.734 119.419 C 283.237 119.419 282.834 119.822 282.834 120.319 L 282.834 128.419 L 284.634 126.619 L 290.934 126.619 C 291.431 126.619 291.834 126.216 291.834 125.719 L 291.834 120.319 C 291.834 119.82 291.429 119.419 290.934 119.419 Z " fill="rgb(0,0,255)"/></g></g><g opacity="0.95"><path d=" M 74.816 118.013 L 74.816 119.247 L 71.16 119.247 L 71.16 129.388 L 69.667 129.388 L 69.667 119.247 L 66.019 119.247 L 66.019 118.013 L 74.816 118.013 L 74.816 118.013 Z  M 78.23 124.177 L 78.23 122.997 L 79.316 122.997 L 79.316 122.997 Q 80.339 122.982 80.925 122.458 L 80.925 122.458 L 80.925 122.458 Q 81.511 121.935 81.511 121.044 L 81.511 121.044 L 81.511 121.044 Q 81.511 119.044 79.519 119.044 L 79.519 119.044 L 79.519 119.044 Q 78.581 119.044 78.023 119.579 L 78.023 119.579 L 78.023 119.579 Q 77.464 120.115 77.464 120.997 L 77.464 120.997 L 76.019 120.997 L 76.019 120.997 Q 76.019 119.646 77.007 118.751 L 77.007 118.751 L 77.007 118.751 Q 77.995 117.857 79.519 117.857 L 79.519 117.857 L 79.519 117.857 Q 81.128 117.857 82.042 118.708 L 82.042 118.708 L 82.042 118.708 Q 82.956 119.56 82.956 121.076 L 82.956 121.076 L 82.956 121.076 Q 82.956 121.818 82.476 122.513 L 82.476 122.513 L 82.476 122.513 Q 81.995 123.208 81.167 123.552 L 81.167 123.552 L 81.167 123.552 Q 82.105 123.849 82.617 124.536 L 82.617 124.536 L 82.617 124.536 Q 83.128 125.224 83.128 126.216 L 83.128 126.216 L 83.128 126.216 Q 83.128 127.747 82.128 128.646 L 82.128 128.646 L 82.128 128.646 Q 81.128 129.544 79.527 129.544 L 79.527 129.544 L 79.527 129.544 Q 77.925 129.544 76.921 128.677 L 76.921 128.677 L 76.921 128.677 Q 75.917 127.81 75.917 126.388 L 75.917 126.388 L 77.37 126.388 L 77.37 126.388 Q 77.37 127.286 77.956 127.826 L 77.956 127.826 L 77.956 127.826 Q 78.542 128.365 79.527 128.365 L 79.527 128.365 L 79.527 128.365 Q 80.574 128.365 81.128 127.818 L 81.128 127.818 L 81.128 127.818 Q 81.683 127.271 81.683 126.247 L 81.683 126.247 L 81.683 126.247 Q 81.683 125.255 81.074 124.724 L 81.074 124.724 L 81.074 124.724 Q 80.464 124.193 79.316 124.177 L 79.316 124.177 L 78.23 124.177 L 78.23 124.177 Z " fill="rgb(255,0,0)"/></g></g><g><rect x="88.167" y="81.116" width="289.833" height="18.807" transform="matrix(1,0,0,1,0,0)" fill="rgb(238,238,238)"/><clipPath id="_clipPath_gTZrp7RouEB1uIcJxIJrBHQYpz7190JE"><rect x="88.167" y="81.116" width="289.833" height="18.807" transform="matrix(1,0,0,1,0,0)" fill="rgb(238,238,238)"/></clipPath><g clip-path="url(#_clipPath_gTZrp7RouEB1uIcJxIJrBHQYpz7190JE)"><rect x="215.167" y="81.116" width="59.833" height="18.807" transform="matrix(1,0,0,1,0,0)" fill="rgb(152,0,0)"/><clipPath id="_clipPath_pbUa0WDHJ1VgdkoWKR7VbgxZymqXyw53"><rect x="215.167" y="81.116" width="59.833" height="18.807" transform="matrix(1,0,0,1,0,0)" fill="rgb(152,0,0)"/></clipPath><g clip-path="url(#_clipPath_pbUa0WDHJ1VgdkoWKR7VbgxZymqXyw53)"><rect x="215.167" y="81.116" width="13.833" height="18.807" transform="matrix(1,0,0,1,0,0)" fill="rgb(132,63,63)"/><path d=" M 248.684 86.02 L 241.484 86.02 C 240.987 86.02 240.584 86.422 240.584 86.92 L 240.584 95.02 L 242.384 93.22 L 248.684 93.22 C 249.181 93.22 249.584 92.817 249.584 92.32 L 249.584 86.92 C 249.584 86.42 249.179 86.02 248.684 86.02 Z " fill="rgb(0,0,255)"/></g></g><g opacity="0.95"><path d=" M 74.816 84.613 L 74.816 85.848 L 71.16 85.848 L 71.16 95.988 L 69.667 95.988 L 69.667 85.848 L 66.019 85.848 L 66.019 84.613 L 74.816 84.613 L 74.816 84.613 Z  M 82.23 84.613 L 82.23 92.168 L 83.808 92.168 L 83.808 93.348 L 82.23 93.348 L 82.23 95.988 L 80.777 95.988 L 80.777 93.348 L 75.597 93.348 L 75.597 92.496 L 80.691 84.613 L 82.23 84.613 L 82.23 84.613 Z  M 80.605 86.902 L 77.238 92.168 L 80.777 92.168 L 80.777 86.59 L 80.605 86.902 L 80.605 86.902 Z " fill="rgb(152,0,0)"/></g></g><g><rect x="88.167" y="14.316" width="289.833" height="18.807" transform="matrix(1,0,0,1,0,0)" fill="rgb(238,238,238)"/><clipPath id="_clipPath_TZ8Qx46dh8OIyrYbqL54EPORH2kL9dnu"><rect x="88.167" y="14.316" width="289.833" height="18.807" transform="matrix(1,0,0,1,0,0)" fill="rgb(238,238,238)"/></clipPath><g clip-path="url(#_clipPath_TZ8Qx46dh8OIyrYbqL54EPORH2kL9dnu)"><rect x="121.167" y="14.316" width="108" height="18.807" transform="matrix(1,0,0,1,0,0)" fill="rgb(255,85,255)"/><clipPath id="_clipPath_4nT96kslyxWH0jITrnb05id8JHxSUOR6"><rect x="121.167" y="14.316" width="108" height="18.807" transform="matrix(1,0,0,1,0,0)" fill="rgb(255,85,255)"/></clipPath><g clip-path="url(#_clipPath_4nT96kslyxWH0jITrnb05id8JHxSUOR6)"><path d=" M 126.167 29.298 C 126.72 29.298 127.167 28.878 127.167 28.36 C 127.167 27.84 126.717 27.423 126.167 27.423 C 125.615 27.423 125.167 27.843 125.167 28.36 C 125.167 28.878 125.615 29.298 126.167 29.298 Z  M 129.167 25.08 C 129.72 25.08 130.167 25.499 130.167 26.017 L 130.167 30.704 C 130.167 31.222 129.72 31.641 129.167 31.641 L 123.167 31.641 C 122.615 31.641 122.167 31.222 122.167 30.704 L 122.167 26.017 C 122.167 25.497 122.617 25.08 123.167 25.08 L 123.667 25.08 L 123.667 24.142 C 123.667 22.848 124.787 21.799 126.167 21.799 C 127.548 21.799 128.667 22.848 128.667 24.142 L 128.667 25.08 L 129.167 25.08 Z  M 126.167 22.736 C 125.339 22.736 124.667 23.366 124.667 24.142 L 124.667 25.08 L 127.667 25.08 L 127.667 24.142 C 127.667 23.366 126.996 22.736 126.167 22.736 Z " fill="rgb(210,210,210)"/><path d=" M 227.167 24.97 C 227.72 24.97 228.167 25.418 228.167 25.97 L 228.167 30.97 C 228.167 31.522 227.72 31.97 227.167 31.97 L 221.167 31.97 C 220.612 31.97 220.167 31.52 220.167 30.97 L 220.167 25.97 C 220.167 25.418 220.615 24.97 221.167 24.97 L 225.667 24.97 L 225.667 23.97 C 225.667 23.142 224.996 22.47 224.167 22.47 C 223.339 22.47 222.667 23.142 222.667 23.97 L 221.667 23.97 C 221.667 22.589 222.787 21.47 224.167 21.47 C 225.548 21.47 226.667 22.589 226.667 23.97 L 226.667 24.97 L 227.167 24.97 Z  M 224.167 29.47 C 224.72 29.47 225.167 29.022 225.167 28.47 C 225.167 27.918 224.72 27.47 224.167 27.47 C 223.615 27.47 223.167 27.918 223.167 28.47 C 223.167 29.022 223.615 29.47 224.167 29.47 Z " fill="rgb(210,210,210)"/><path d=" M 141.6 20.22 L 134.4 20.22 C 133.903 20.22 133.5 20.623 133.5 21.12 L 133.5 29.22 L 135.3 27.42 L 141.6 27.42 C 142.097 27.42 142.5 27.017 142.5 26.52 L 142.5 21.12 C 142.5 20.621 142.095 20.22 141.6 20.22 Z " fill="rgb(0,0,255)"/></g><rect x="230.167" y="14.316" width="28" height="18.807" transform="matrix(1,0,0,1,0,0)" fill="rgb(255,85,255)"/><clipPath id="_clipPath_irUbJ0Rl3EaTVCAyvtDXRMqcJt4h7eEr"><rect x="230.167" y="14.316" width="28" height="18.807" transform="matrix(1,0,0,1,0,0)" fill="rgb(255,85,255)"/></clipPath><g clip-path="url(#_clipPath_irUbJ0Rl3EaTVCAyvtDXRMqcJt4h7eEr)"><path d=" M 235.167 29.298 C 235.72 29.298 236.167 28.878 236.167 28.36 C 236.167 27.84 235.717 27.423 235.167 27.423 C 234.615 27.423 234.167 27.843 234.167 28.36 C 234.167 28.878 234.615 29.298 235.167 29.298 Z  M 238.167 25.08 C 238.72 25.08 239.167 25.499 239.167 26.017 L 239.167 30.704 C 239.167 31.222 238.72 31.641 238.167 31.641 L 232.167 31.641 C 231.615 31.641 231.167 31.222 231.167 30.704 L 231.167 26.017 C 231.167 25.497 231.617 25.08 232.167 25.08 L 232.667 25.08 L 232.667 24.142 C 232.667 22.848 233.787 21.799 235.167 21.799 C 236.548 21.799 237.667 22.848 237.667 24.142 L 237.667 25.08 L 238.167 25.08 Z  M 235.167 22.736 C 234.339 22.736 233.667 23.366 233.667 24.142 L 233.667 25.08 L 236.667 25.08 L 236.667 24.142 C 236.667 23.366 235.996 22.736 235.167 22.736 Z " fill="rgb(210,210,210)"/><path d=" M 256.167 24.97 C 256.72 24.97 257.167 25.418 257.167 25.97 L 257.167 30.97 C 257.167 31.522 256.72 31.97 256.167 31.97 L 250.167 31.97 C 249.612 31.97 249.167 31.52 249.167 30.97 L 249.167 25.97 C 249.167 25.418 249.615 24.97 250.167 24.97 L 254.667 24.97 L 254.667 23.97 C 254.667 23.142 253.996 22.47 253.167 22.47 C 252.339 22.47 251.667 23.142 251.667 23.97 L 250.667 23.97 C 250.667 22.589 251.787 21.47 253.167 21.47 C 254.548 21.47 255.667 22.589 255.667 23.97 L 255.667 24.97 L 256.167 24.97 Z  M 253.167 29.47 C 253.72 29.47 254.167 29.022 254.167 28.47 C 254.167 27.918 253.72 27.47 253.167 27.47 C 252.615 27.47 252.167 27.918 252.167 28.47 C 252.167 29.022 252.615 29.47 253.167 29.47 Z " fill="rgb(210,210,210)"/><path d=" M 247.767 19.22 L 240.567 19.22 C 240.07 19.22 239.667 19.623 239.667 20.12 L 239.667 28.22 L 241.467 26.42 L 247.767 26.42 C 248.264 26.42 248.667 26.017 248.667 25.52 L 248.667 20.12 C 248.667 19.621 248.262 19.22 247.767 19.22 Z " fill="rgb(0,0,255)"/></g><rect x="273.167" y="14.316" width="28" height="18.807" transform="matrix(1,0,0,1,0,0)" fill="rgb(255,85,255)"/><clipPath id="_clipPath_ccxOcXkd2eFDW2u5dlMchFDHvIKjx8wf"><rect x="273.167" y="14.316" width="28" height="18.807" transform="matrix(1,0,0,1,0,0)" fill="rgb(255,85,255)"/></clipPath><g clip-path="url(#_clipPath_ccxOcXkd2eFDW2u5dlMchFDHvIKjx8wf)"><path d=" M 278.167 29.298 C 278.72 29.298 279.167 28.878 279.167 28.36 C 279.167 27.84 278.717 27.423 278.167 27.423 C 277.615 27.423 277.167 27.843 277.167 28.36 C 277.167 28.878 277.615 29.298 278.167 29.298 Z  M 281.167 25.08 C 281.72 25.08 282.167 25.499 282.167 26.017 L 282.167 30.704 C 282.167 31.222 281.72 31.641 281.167 31.641 L 275.167 31.641 C 274.615 31.641 274.167 31.222 274.167 30.704 L 274.167 26.017 C 274.167 25.497 274.617 25.08 275.167 25.08 L 275.667 25.08 L 275.667 24.142 C 275.667 22.848 276.787 21.799 278.167 21.799 C 279.548 21.799 280.667 22.848 280.667 24.142 L 280.667 25.08 L 281.167 25.08 Z  M 278.167 22.736 C 277.339 22.736 276.667 23.366 276.667 24.142 L 276.667 25.08 L 279.667 25.08 L 279.667 24.142 C 279.667 23.366 278.996 22.736 278.167 22.736 Z " fill="rgb(210,210,210)"/><path d=" M 299.167 24.97 C 299.72 24.97 300.167 25.418 300.167 25.97 L 300.167 30.97 C 300.167 31.522 299.72 31.97 299.167 31.97 L 293.167 31.97 C 292.612 31.97 292.167 31.52 292.167 30.97 L 292.167 25.97 C 292.167 25.418 292.615 24.97 293.167 24.97 L 297.667 24.97 L 297.667 23.97 C 297.667 23.142 296.996 22.47 296.167 22.47 C 295.339 22.47 294.667 23.142 294.667 23.97 L 293.667 23.97 C 293.667 22.589 294.787 21.47 296.167 21.47 C 297.548 21.47 298.667 22.589 298.667 23.97 L 298.667 24.97 L 299.167 24.97 Z  M 296.167 29.47 C 296.72 29.47 297.167 29.022 297.167 28.47 C 297.167 27.918 296.72 27.47 296.167 27.47 C 295.615 27.47 295.167 27.918 295.167 28.47 C 295.167 29.022 295.615 29.47 296.167 29.47 Z " fill="rgb(210,210,210)"/><rect x="303.167" y="14.316" width="28" height="18.807" transform="matrix(1,0,0,1,0,0)" fill="rgb(162,162,162)"/><clipPath id="_clipPath_VCzgYn6j8JTlFGxOJfz3kw8NgtxCUKwD"><rect x="303.167" y="14.316" width="28" height="18.807" transform="matrix(1,0,0,1,0,0)" fill="rgb(162,162,162)"/></clipPath><g clip-path="url(#_clipPath_VCzgYn6j8JTlFGxOJfz3kw8NgtxCUKwD)"><path d=" M 308.167 29.298 C 308.72 29.298 309.167 28.878 309.167 28.36 C 309.167 27.84 308.717 27.423 308.167 27.423 C 307.615 27.423 307.167 27.843 307.167 28.36 C 307.167 28.878 307.615 29.298 308.167 29.298 Z  M 311.167 25.08 C 311.72 25.08 312.167 25.499 312.167 26.017 L 312.167 30.704 C 312.167 31.222 311.72 31.641 311.167 31.641 L 305.167 31.641 C 304.615 31.641 304.167 31.222 304.167 30.704 L 304.167 26.017 C 304.167 25.497 304.617 25.08 305.167 25.08 L 305.667 25.08 L 305.667 24.142 C 305.667 22.848 306.787 21.799 308.167 21.799 C 309.548 21.799 310.667 22.848 310.667 24.142 L 310.667 25.08 L 311.167 25.08 Z  M 308.167 22.736 C 307.339 22.736 306.667 23.366 306.667 24.142 L 306.667 25.08 L 309.667 25.08 L 309.667 24.142 C 309.667 23.366 308.996 22.736 308.167 22.736 Z " fill="rgb(210,210,210)"/><path d=" M 329.167 24.97 C 329.72 24.97 330.167 25.418 330.167 25.97 L 330.167 30.97 C 330.167 31.522 329.72 31.97 329.167 31.97 L 323.167 31.97 C 322.612 31.97 322.167 31.52 322.167 30.97 L 322.167 25.97 C 322.167 25.418 322.615 24.97 323.167 24.97 L 327.667 24.97 L 327.667 23.97 C 327.667 23.142 326.996 22.47 326.167 22.47 C 325.339 22.47 324.667 23.142 324.667 23.97 L 323.667 23.97 C 323.667 22.589 324.787 21.47 326.167 21.47 C 327.548 21.47 328.667 22.589 328.667 23.97 L 328.667 24.97 L 329.167 24.97 Z  M 326.167 29.47 C 326.72 29.47 327.167 29.022 327.167 28.47 C 327.167 27.918 326.72 27.47 326.167 27.47 C 325.615 27.47 325.167 27.918 325.167 28.47 C 325.167 29.022 325.615 29.47 326.167 29.47 Z " fill="rgb(210,210,210)"/></g><path d=" M 290.767 19.22 L 283.567 19.22 C 283.07 19.22 282.667 19.623 282.667 20.12 L 282.667 28.22 L 284.467 26.42 L 290.767 26.42 C 291.264 26.42 291.667 26.017 291.667 25.52 L 291.667 20.12 C 291.667 19.621 291.262 19.22 290.767 19.22 Z " fill="rgb(0,0,255)"/></g><rect x="322.167" y="14.316" width="28" height="18.807" transform="matrix(1,0,0,1,0,0)" fill="rgb(255,85,255)"/><clipPath id="_clipPath_PiyTnKiVqXxxWLABEj3wHJh1Db9qM2jN"><rect x="322.167" y="14.316" width="28" height="18.807" transform="matrix(1,0,0,1,0,0)" fill="rgb(255,85,255)"/></clipPath><g clip-path="url(#_clipPath_PiyTnKiVqXxxWLABEj3wHJh1Db9qM2jN)"><path d=" M 327.167 29.298 C 327.72 29.298 328.167 28.878 328.167 28.36 C 328.167 27.84 327.717 27.423 327.167 27.423 C 326.615 27.423 326.167 27.843 326.167 28.36 C 326.167 28.878 326.615 29.298 327.167 29.298 Z  M 330.167 25.08 C 330.72 25.08 331.167 25.499 331.167 26.017 L 331.167 30.704 C 331.167 31.222 330.72 31.641 330.167 31.641 L 324.167 31.641 C 323.615 31.641 323.167 31.222 323.167 30.704 L 323.167 26.017 C 323.167 25.497 323.617 25.08 324.167 25.08 L 324.667 25.08 L 324.667 24.142 C 324.667 22.848 325.787 21.799 327.167 21.799 C 328.548 21.799 329.667 22.848 329.667 24.142 L 329.667 25.08 L 330.167 25.08 Z  M 327.167 22.736 C 326.339 22.736 325.667 23.366 325.667 24.142 L 325.667 25.08 L 328.667 25.08 L 328.667 24.142 C 328.667 23.366 327.996 22.736 327.167 22.736 Z " fill="rgb(210,210,210)"/><path d=" M 348.167 24.97 C 348.72 24.97 349.167 25.418 349.167 25.97 L 349.167 30.97 C 349.167 31.522 348.72 31.97 348.167 31.97 L 342.167 31.97 C 341.612 31.97 341.167 31.52 341.167 30.97 L 341.167 25.97 C 341.167 25.418 341.615 24.97 342.167 24.97 L 346.667 24.97 L 346.667 23.97 C 346.667 23.142 345.996 22.47 345.167 22.47 C 344.339 22.47 343.667 23.142 343.667 23.97 L 342.667 23.97 C 342.667 22.589 343.787 21.47 345.167 21.47 C 346.548 21.47 347.667 22.589 347.667 23.97 L 347.667 24.97 L 348.167 24.97 Z  M 345.167 29.47 C 345.72 29.47 346.167 29.022 346.167 28.47 C 346.167 27.918 345.72 27.47 345.167 27.47 C 344.615 27.47 344.167 27.918 344.167 28.47 C 344.167 29.022 344.615 29.47 345.167 29.47 Z " fill="rgb(210,210,210)"/><rect x="352.167" y="14.316" width="28" height="18.807" transform="matrix(1,0,0,1,0,0)" fill="rgb(162,162,162)"/><clipPath id="_clipPath_KaTaseymAdBNvWFbBirNBFSVfm8u5ODx"><rect x="352.167" y="14.316" width="28" height="18.807" transform="matrix(1,0,0,1,0,0)" fill="rgb(162,162,162)"/></clipPath><g clip-path="url(#_clipPath_KaTaseymAdBNvWFbBirNBFSVfm8u5ODx)"><path d=" M 357.167 29.298 C 357.72 29.298 358.167 28.878 358.167 28.36 C 358.167 27.84 357.717 27.423 357.167 27.423 C 356.615 27.423 356.167 27.843 356.167 28.36 C 356.167 28.878 356.615 29.298 357.167 29.298 Z  M 360.167 25.08 C 360.72 25.08 361.167 25.499 361.167 26.017 L 361.167 30.704 C 361.167 31.222 360.72 31.641 360.167 31.641 L 354.167 31.641 C 353.615 31.641 353.167 31.222 353.167 30.704 L 353.167 26.017 C 353.167 25.497 353.617 25.08 354.167 25.08 L 354.667 25.08 L 354.667 24.142 C 354.667 22.848 355.787 21.799 357.167 21.799 C 358.548 21.799 359.667 22.848 359.667 24.142 L 359.667 25.08 L 360.167 25.08 Z  M 357.167 22.736 C 356.339 22.736 355.667 23.366 355.667 24.142 L 355.667 25.08 L 358.667 25.08 L 358.667 24.142 C 358.667 23.366 357.996 22.736 357.167 22.736 Z " fill="rgb(210,210,210)"/><path d=" M 378.167 24.97 C 378.72 24.97 379.167 25.418 379.167 25.97 L 379.167 30.97 C 379.167 31.522 378.72 31.97 378.167 31.97 L 372.167 31.97 C 371.612 31.97 371.167 31.52 371.167 30.97 L 371.167 25.97 C 371.167 25.418 371.615 24.97 372.167 24.97 L 376.667 24.97 L 376.667 23.97 C 376.667 23.142 375.996 22.47 375.167 22.47 C 374.339 22.47 373.667 23.142 373.667 23.97 L 372.667 23.97 C 372.667 22.589 373.787 21.47 375.167 21.47 C 376.548 21.47 377.667 22.589 377.667 23.97 L 377.667 24.97 L 378.167 24.97 Z  M 375.167 29.47 C 375.72 29.47 376.167 29.022 376.167 28.47 C 376.167 27.918 375.72 27.47 375.167 27.47 C 374.615 27.47 374.167 27.918 374.167 28.47 C 374.167 29.022 374.615 29.47 375.167 29.47 Z " fill="rgb(210,210,210)"/></g><path d=" M 339.767 19.22 L 332.567 19.22 C 332.07 19.22 331.667 19.623 331.667 20.12 L 331.667 28.22 L 333.467 26.42 L 339.767 26.42 C 340.264 26.42 340.667 26.017 340.667 25.52 L 340.667 20.12 C 340.667 19.621 340.262 19.22 339.767 19.22 Z " fill="rgb(0,0,255)"/></g></g><g opacity="0.95"><path d=" M 82.417 28.017 L 81.331 25.048 L 76.566 25.048 L 75.495 28.017 L 73.949 28.017 L 78.292 16.642 L 79.605 16.642 L 83.956 28.017 L 82.417 28.017 L 82.417 28.017 Z  M 78.949 18.493 L 77.019 23.814 L 80.886 23.814 L 78.949 18.493 L 78.949 18.493 Z  M 20.003 24.408 L 21.511 24.408 L 21.511 24.408 Q 21.3 26.212 20.179 27.193 L 20.179 27.193 L 20.179 27.193 Q 19.058 28.173 17.199 28.173 L 17.199 28.173 L 17.199 28.173 Q 15.183 28.173 13.968 26.728 L 13.968 26.728 L 13.968 26.728 Q 12.753 25.283 12.753 22.861 L 12.753 22.861 L 12.753 21.767 L 12.753 21.767 Q 12.753 20.181 13.32 18.978 L 13.32 18.978 L 13.32 18.978 Q 13.886 17.775 14.925 17.13 L 14.925 17.13 L 14.925 17.13 Q 15.964 16.486 17.331 16.486 L 17.331 16.486 L 17.331 16.486 Q 19.144 16.486 20.238 17.497 L 20.238 17.497 L 20.238 17.497 Q 21.331 18.509 21.511 20.298 L 21.511 20.298 L 20.003 20.298 L 20.003 20.298 Q 19.808 18.939 19.156 18.329 L 19.156 18.329 L 19.156 18.329 Q 18.503 17.72 17.331 17.72 L 17.331 17.72 L 17.331 17.72 Q 15.894 17.72 15.077 18.783 L 15.077 18.783 L 15.077 18.783 Q 14.261 19.845 14.261 21.806 L 14.261 21.806 L 14.261 22.908 L 14.261 22.908 Q 14.261 24.759 15.035 25.853 L 15.035 25.853 L 15.035 25.853 Q 15.808 26.947 17.199 26.947 L 17.199 26.947 L 17.199 26.947 Q 18.449 26.947 19.117 26.38 L 19.117 26.38 L 19.117 26.38 Q 19.785 25.814 20.003 24.408 L 20.003 24.408 L 20.003 24.408 Z  M 24.777 16.017 L 24.777 20.587 L 24.777 20.587 Q 25.738 19.408 27.277 19.408 L 27.277 19.408 L 27.277 19.408 Q 29.956 19.408 29.98 22.431 L 29.98 22.431 L 29.98 28.017 L 28.535 28.017 L 28.535 22.423 L 28.535 22.423 Q 28.527 21.509 28.117 21.072 L 28.117 21.072 L 28.117 21.072 Q 27.706 20.634 26.839 20.634 L 26.839 20.634 L 26.839 20.634 Q 26.136 20.634 25.605 21.009 L 25.605 21.009 L 25.605 21.009 Q 25.074 21.384 24.777 21.993 L 24.777 21.993 L 24.777 28.017 L 23.331 28.017 L 23.331 16.017 L 24.777 16.017 L 24.777 16.017 Z  M 38.878 28.017 L 37.363 28.017 L 37.363 28.017 Q 37.238 27.767 37.16 27.126 L 37.16 27.126 L 37.16 27.126 Q 36.152 28.173 34.753 28.173 L 34.753 28.173 L 34.753 28.173 Q 33.503 28.173 32.702 27.466 L 32.702 27.466 L 32.702 27.466 Q 31.902 26.759 31.902 25.673 L 31.902 25.673 L 31.902 25.673 Q 31.902 24.353 32.906 23.622 L 32.906 23.622 L 32.906 23.622 Q 33.91 22.892 35.73 22.892 L 35.73 22.892 L 37.136 22.892 L 37.136 22.228 L 37.136 22.228 Q 37.136 21.47 36.683 21.021 L 36.683 21.021 L 36.683 21.021 Q 36.23 20.572 35.347 20.572 L 35.347 20.572 L 35.347 20.572 Q 34.574 20.572 34.05 20.962 L 34.05 20.962 L 34.05 20.962 Q 33.527 21.353 33.527 21.908 L 33.527 21.908 L 32.074 21.908 L 32.074 21.908 Q 32.074 21.275 32.523 20.685 L 32.523 20.685 L 32.523 20.685 Q 32.972 20.095 33.742 19.751 L 33.742 19.751 L 33.742 19.751 Q 34.511 19.408 35.433 19.408 L 35.433 19.408 L 35.433 19.408 Q 36.894 19.408 37.722 20.138 L 37.722 20.138 L 37.722 20.138 Q 38.55 20.868 38.581 22.15 L 38.581 22.15 L 38.581 26.04 L 38.581 26.04 Q 38.581 27.204 38.878 27.892 L 38.878 27.892 L 38.878 28.017 L 38.878 28.017 Z  M 34.964 26.915 L 34.964 26.915 L 34.964 26.915 Q 35.644 26.915 36.253 26.564 L 36.253 26.564 L 36.253 26.564 Q 36.863 26.212 37.136 25.65 L 37.136 25.65 L 37.136 23.915 L 36.003 23.915 L 36.003 23.915 Q 33.347 23.915 33.347 25.47 L 33.347 25.47 L 33.347 25.47 Q 33.347 26.15 33.8 26.533 L 33.8 26.533 L 33.8 26.533 Q 34.253 26.915 34.964 26.915 Z  M 40.847 19.564 L 42.214 19.564 L 42.261 20.626 L 42.261 20.626 Q 43.23 19.408 44.792 19.408 L 44.792 19.408 L 44.792 19.408 Q 47.472 19.408 47.495 22.431 L 47.495 22.431 L 47.495 28.017 L 46.05 28.017 L 46.05 22.423 L 46.05 22.423 Q 46.042 21.509 45.632 21.072 L 45.632 21.072 L 45.632 21.072 Q 45.222 20.634 44.355 20.634 L 44.355 20.634 L 44.355 20.634 Q 43.652 20.634 43.12 21.009 L 43.12 21.009 L 43.12 21.009 Q 42.589 21.384 42.292 21.993 L 42.292 21.993 L 42.292 28.017 L 40.847 28.017 L 40.847 19.564 L 40.847 19.564 Z  M 49.675 19.564 L 51.042 19.564 L 51.089 20.626 L 51.089 20.626 Q 52.058 19.408 53.62 19.408 L 53.62 19.408 L 53.62 19.408 Q 56.3 19.408 56.324 22.431 L 56.324 22.431 L 56.324 28.017 L 54.878 28.017 L 54.878 22.423 L 54.878 22.423 Q 54.87 21.509 54.46 21.072 L 54.46 21.072 L 54.46 21.072 Q 54.05 20.634 53.183 20.634 L 53.183 20.634 L 53.183 20.634 Q 52.48 20.634 51.949 21.009 L 51.949 21.009 L 51.949 21.009 Q 51.417 21.384 51.12 21.993 L 51.12 21.993 L 51.12 28.017 L 49.675 28.017 L 49.675 19.564 L 49.675 19.564 Z  M 62.011 28.173 L 62.011 28.173 L 62.011 28.173 Q 60.292 28.173 59.214 27.044 L 59.214 27.044 L 59.214 27.044 Q 58.136 25.915 58.136 24.025 L 58.136 24.025 L 58.136 23.759 L 58.136 23.759 Q 58.136 22.501 58.617 21.513 L 58.617 21.513 L 58.617 21.513 Q 59.097 20.525 59.96 19.966 L 59.96 19.966 L 59.96 19.966 Q 60.824 19.408 61.831 19.408 L 61.831 19.408 L 61.831 19.408 Q 63.48 19.408 64.394 20.493 L 64.394 20.493 L 64.394 20.493 Q 65.308 21.579 65.308 23.603 L 65.308 23.603 L 65.308 24.204 L 59.581 24.204 L 59.581 24.204 Q 59.613 25.454 60.312 26.224 L 60.312 26.224 L 60.312 26.224 Q 61.011 26.993 62.089 26.993 L 62.089 26.993 L 62.089 26.993 Q 62.855 26.993 63.386 26.681 L 63.386 26.681 L 63.386 26.681 Q 63.917 26.368 64.316 25.853 L 64.316 25.853 L 65.199 26.54 L 65.199 26.54 Q 64.136 28.173 62.011 28.173 Z  M 61.831 20.595 L 61.831 20.595 L 61.831 20.595 Q 60.956 20.595 60.363 21.232 L 60.363 21.232 L 60.363 21.232 Q 59.769 21.868 59.628 23.017 L 59.628 23.017 L 63.863 23.017 L 63.863 22.908 L 63.863 22.908 Q 63.8 21.806 63.269 21.201 L 63.269 21.201 L 63.269 21.201 Q 62.738 20.595 61.831 20.595 Z  M 68.55 16.017 L 68.55 28.017 L 67.105 28.017 L 67.105 16.017 L 68.55 16.017 L 68.55 16.017 Z " fill="rgb(255,0,255)"/></g></g><line x1="126.167" y1="181.315" x2="126.167" y2="33" vector-effect="non-scaling-stroke" stroke-width="1" stroke-dasharray="0.25,3,0.25,3" stroke="rgb(96,125,139)" stroke-opacity="0.7" stroke-linejoin="miter" stroke-linecap="round" stroke-miterlimit="1"/><line x1="224.167" y1="181.315" x2="224.167" y2="33" vector-effect="non-scaling-stroke" stroke-width="1" stroke-dasharray="0.25,3,0.25,3" stroke="rgb(96,125,139)" stroke-opacity="0.7" stroke-linejoin="miter" stroke-linecap="round" stroke-miterlimit="1"/><line x1="235.167" y1="80.047" x2="235.167" y2="33" vector-effect="non-scaling-stroke" stroke-width="1" stroke-dasharray="0.25,3,0.25,3" stroke="rgb(96,125,139)" stroke-opacity="0.7" stroke-linejoin="miter" stroke-linecap="round" stroke-miterlimit="1"/><line x1="278.167" y1="112.854" x2="278.167" y2="33" vector-effect="non-scaling-stroke" stroke-width="1" stroke-dasharray="0.25,3,0.25,3" stroke="rgb(96,125,139)" stroke-opacity="0.7" stroke-linejoin="miter" stroke-linecap="round" stroke-miterlimit="1"/><line x1="327.167" y1="146.719" x2="327.167" y2="33" vector-effect="non-scaling-stroke" stroke-width="1" stroke-dasharray="0.25,3,0.25,3" stroke="rgb(96,125,139)" stroke-opacity="0.7" stroke-linejoin="miter" stroke-linecap="round" stroke-miterlimit="1"/><line x1="253.167" y1="80.234" x2="253.167" y2="33" vector-effect="non-scaling-stroke" stroke-width="1" stroke-dasharray="0.25,3,0.25,3" stroke="rgb(96,125,139)" stroke-opacity="0.7" stroke-linejoin="miter" stroke-linecap="round" stroke-miterlimit="1"/><line x1="296.167" y1="113.172" x2="296.167" y2="33" vector-effect="non-scaling-stroke" stroke-width="1" stroke-dasharray="0.25,3,0.25,3" stroke="rgb(96,125,139)" stroke-opacity="0.7" stroke-linejoin="miter" stroke-linecap="round" stroke-miterlimit="1"/><line x1="345.167" y1="147.172" x2="345.167" y2="33" vector-effect="non-scaling-stroke" stroke-width="1" stroke-dasharray="0.25,3,0.25,3" stroke="rgb(96,125,139)" stroke-opacity="0.7" stroke-linejoin="miter" stroke-linecap="round" stroke-miterlimit="1"/><line x1="161.167" y1="177.734" x2="161.167" y2="23.72" vector-effect="non-scaling-stroke" stroke-width="1" stroke="rgb(247,184,89)" stroke-linejoin="bevel" stroke-linecap="butt" stroke-miterlimit="3"/><path d=" M 157.917 174.809 L 161.167 181.309 L 164.417 174.809 Z " fill="rgb(247,184,89)" stroke="none"/><line x1="138.167" y1="33.72" x2="138.167" y2="191.172" vector-effect="non-scaling-stroke" stroke-width="1" stroke="rgb(0,0,255)" stroke-linejoin="bevel" stroke-linecap="butt" stroke-miterlimit="3"/><path d=" M 141.417 36.645 L 138.167 30.145 L 134.917 36.645 Z " fill="rgb(0,0,255)" stroke="none"/><line x1="185.167" y1="177.922" x2="185.167" y2="23.72" vector-effect="non-scaling-stroke" stroke-width="1" stroke="rgb(247,184,89)" stroke-linejoin="bevel" stroke-linecap="butt" stroke-miterlimit="3"/><path d=" M 181.917 174.997 L 185.167 181.497 L 188.417 174.997 Z " fill="rgb(247,184,89)" stroke="none"/><line x1="244.167" y1="78.172" x2="244.167" y2="25.72" vector-effect="non-scaling-stroke" stroke-width="1" stroke="rgb(204,0,204)" stroke-linejoin="bevel" stroke-linecap="butt" stroke-miterlimit="3"/><path d=" M 240.917 75.247 L 244.167 81.747 L 247.417 75.247 Z " fill="rgb(204,0,204)" stroke="none"/><path d=" M 245.967 25.54 C 245.967 26.533 245.161 27.34 244.167 27.34 C 243.174 27.34 242.367 26.533 242.367 25.54 C 242.367 24.547 243.174 23.74 244.167 23.74 C 245.161 23.74 245.967 24.547 245.967 25.54 Z " fill="rgb(204,0,204)" stroke="none"/><line x1="287.167" y1="111.172" x2="287.167" y2="25.72" vector-effect="non-scaling-stroke" stroke-width="1" stroke="rgb(204,0,204)" stroke-linejoin="bevel" stroke-linecap="butt" stroke-miterlimit="3"/><path d=" M 283.917 108.247 L 287.167 114.747 L 290.417 108.247 Z " fill="rgb(204,0,204)" stroke="none"/><path d=" M 288.967 25.54 C 288.967 26.533 288.161 27.34 287.167 27.34 C 286.174 27.34 285.367 26.533 285.367 25.54 C 285.367 24.547 286.174 23.74 287.167 23.74 C 288.161 23.74 288.967 24.547 288.967 25.54 Z " fill="rgb(204,0,204)" stroke="none"/><line x1="336.167" y1="145.172" x2="336.167" y2="25.72" vector-effect="non-scaling-stroke" stroke-width="1" stroke="rgb(204,0,204)" stroke-linejoin="bevel" stroke-linecap="butt" stroke-miterlimit="3"/><path d=" M 332.917 142.247 L 336.167 148.747 L 339.417 142.247 Z " fill="rgb(204,0,204)" stroke="none"/><path d=" M 337.967 25.54 C 337.967 26.533 337.161 27.34 336.167 27.34 C 335.174 27.34 334.367 26.533 334.367 25.54 C 334.367 24.547 335.174 23.74 336.167 23.74 C 337.161 23.74 337.967 24.547 337.967 25.54 Z " fill="rgb(204,0,204)" stroke="none"/><g><g opacity="0.95"><polygon points="377.773,227.981,345.556,247.79,345.556,208.172" fill="rgb(235,235,235)"/></g><g opacity="0.95"><rect x="7.783" y="214.99" width="344.217" height="25.981" transform="matrix(1,0,0,1,0,0)" fill="rgb(235,235,235)"/></g><g opacity="0.95"><path d=" M 170.106 222.075 L 170.106 223.309 L 166.45 223.309 L 166.45 233.45 L 164.958 233.45 L 164.958 223.309 L 161.309 223.309 L 161.309 222.075 L 170.106 222.075 L 170.106 222.075 Z  M 173.137 224.996 L 173.137 233.45 L 171.692 233.45 L 171.692 224.996 L 173.137 224.996 L 173.137 224.996 Z  M 171.575 222.754 L 171.575 222.754 L 171.575 222.754 Q 171.575 222.403 171.79 222.16 L 171.79 222.16 L 171.79 222.16 Q 172.005 221.918 172.427 221.918 L 172.427 221.918 L 172.427 221.918 Q 172.848 221.918 173.067 222.16 L 173.067 222.16 L 173.067 222.16 Q 173.286 222.403 173.286 222.754 L 173.286 222.754 L 173.286 222.754 Q 173.286 223.106 173.067 223.34 L 173.067 223.34 L 173.067 223.34 Q 172.848 223.575 172.427 223.575 L 172.427 223.575 L 172.427 223.575 Q 172.005 223.575 171.79 223.34 L 171.79 223.34 L 171.79 223.34 Q 171.575 223.106 171.575 222.754 Z  M 175.442 224.996 L 176.809 224.996 L 176.848 225.934 L 176.848 225.934 Q 177.778 224.84 179.356 224.84 L 179.356 224.84 L 179.356 224.84 Q 181.13 224.84 181.77 226.2 L 181.77 226.2 L 181.77 226.2 Q 182.192 225.59 182.868 225.215 L 182.868 225.215 L 182.868 225.215 Q 183.544 224.84 184.466 224.84 L 184.466 224.84 L 184.466 224.84 Q 187.247 224.84 187.294 227.785 L 187.294 227.785 L 187.294 233.45 L 185.848 233.45 L 185.848 227.871 L 185.848 227.871 Q 185.848 226.965 185.434 226.516 L 185.434 226.516 L 185.434 226.516 Q 185.02 226.067 184.044 226.067 L 184.044 226.067 L 184.044 226.067 Q 183.239 226.067 182.708 226.547 L 182.708 226.547 L 182.708 226.547 Q 182.177 227.028 182.091 227.84 L 182.091 227.84 L 182.091 233.45 L 180.637 233.45 L 180.637 227.91 L 180.637 227.91 Q 180.637 226.067 178.833 226.067 L 178.833 226.067 L 178.833 226.067 Q 177.411 226.067 176.887 227.278 L 176.887 227.278 L 176.887 233.45 L 175.442 233.45 L 175.442 224.996 L 175.442 224.996 Z  M 192.981 233.606 L 192.981 233.606 L 192.981 233.606 Q 191.262 233.606 190.184 232.477 L 190.184 232.477 L 190.184 232.477 Q 189.106 231.348 189.106 229.457 L 189.106 229.457 L 189.106 229.192 L 189.106 229.192 Q 189.106 227.934 189.587 226.946 L 189.587 226.946 L 189.587 226.946 Q 190.067 225.957 190.93 225.399 L 190.93 225.399 L 190.93 225.399 Q 191.794 224.84 192.802 224.84 L 192.802 224.84 L 192.802 224.84 Q 194.45 224.84 195.364 225.926 L 195.364 225.926 L 195.364 225.926 Q 196.278 227.012 196.278 229.035 L 196.278 229.035 L 196.278 229.637 L 190.552 229.637 L 190.552 229.637 Q 190.583 230.887 191.282 231.657 L 191.282 231.657 L 191.282 231.657 Q 191.981 232.426 193.059 232.426 L 193.059 232.426 L 193.059 232.426 Q 193.825 232.426 194.356 232.114 L 194.356 232.114 L 194.356 232.114 Q 194.887 231.801 195.286 231.285 L 195.286 231.285 L 196.169 231.973 L 196.169 231.973 Q 195.106 233.606 192.981 233.606 Z  M 192.802 226.028 L 192.802 226.028 L 192.802 226.028 Q 191.927 226.028 191.333 226.664 L 191.333 226.664 L 191.333 226.664 Q 190.739 227.301 190.598 228.45 L 190.598 228.45 L 194.833 228.45 L 194.833 228.34 L 194.833 228.34 Q 194.77 227.239 194.239 226.633 L 194.239 226.633 L 194.239 226.633 Q 193.708 226.028 192.802 226.028 Z " fill="rgb(23,23,23)"/></g><g opacity="0.95"><polygon points="20.773,54.172,40.546,86.331,1,86.331" fill="rgb(235,235,235)"/></g><g opacity="0.95"><rect x="-61.234" y="145.974" width="164.014" height="25.981" transform="matrix(0,-1,1,0,-138.191,179.737)" fill="rgb(235,235,235)"/></g><g opacity="0.95"><path d=" M 21.789 175.676 L 21.789 178.356 L 26.242 178.356 L 26.242 179.856 L 14.867 179.856 L 14.867 175.661 L 14.867 175.661 Q 14.867 173.794 15.82 172.735 L 15.82 172.735 L 15.82 172.735 Q 16.773 171.676 18.343 171.676 L 18.343 171.676 L 18.343 171.676 Q 20 171.676 20.894 172.712 L 20.894 172.712 L 20.894 172.712 Q 21.789 173.747 21.789 175.676 L 21.789 175.676 L 21.789 175.676 Z  M 16.101 178.356 L 20.562 178.356 L 20.562 175.661 L 20.562 175.661 Q 20.562 174.458 19.996 173.817 L 19.996 173.817 L 19.996 173.817 Q 19.429 173.176 18.359 173.176 L 18.359 173.176 L 18.359 173.176 Q 17.343 173.176 16.734 173.817 L 16.734 173.817 L 16.734 173.817 Q 16.125 174.458 16.101 175.575 L 16.101 175.575 L 16.101 178.356 L 16.101 178.356 Z  M 17.742 165.903 L 19.086 165.903 L 19.086 165.903 Q 19.031 166.231 19.031 166.614 L 19.031 166.614 L 19.031 166.614 Q 19.031 168.036 20.242 168.544 L 20.242 168.544 L 26.242 168.544 L 26.242 169.989 L 17.789 169.989 L 17.789 168.583 L 18.765 168.559 L 18.765 168.559 Q 17.632 167.848 17.632 166.544 L 17.632 166.544 L 17.632 166.544 Q 17.632 166.122 17.742 165.903 L 17.742 165.903 L 17.742 165.903 Z  M 17.789 163.005 L 26.242 163.005 L 26.242 164.45 L 17.789 164.45 L 17.789 163.005 L 17.789 163.005 Z  M 15.547 164.567 L 15.547 164.567 L 15.547 164.567 Q 15.195 164.567 14.953 164.352 L 14.953 164.352 L 14.953 164.352 Q 14.711 164.137 14.711 163.715 L 14.711 163.715 L 14.711 163.715 Q 14.711 163.294 14.953 163.075 L 14.953 163.075 L 14.953 163.075 Q 15.195 162.856 15.547 162.856 L 15.547 162.856 L 15.547 162.856 Q 15.898 162.856 16.132 163.075 L 16.132 163.075 L 16.132 163.075 Q 16.367 163.294 16.367 163.715 L 16.367 163.715 L 16.367 163.715 Q 16.367 164.137 16.132 164.352 L 16.132 164.352 L 16.132 164.352 Q 15.898 164.567 15.547 164.567 Z  M 22.039 161.075 L 21.937 161.075 L 21.937 161.075 Q 20.695 161.075 19.703 160.587 L 19.703 160.587 L 19.703 160.587 Q 18.711 160.098 18.172 159.227 L 18.172 159.227 L 18.172 159.227 Q 17.632 158.356 17.632 157.239 L 17.632 157.239 L 17.632 157.239 Q 17.632 155.512 18.828 154.446 L 18.828 154.446 L 18.828 154.446 Q 20.023 153.38 22.007 153.38 L 22.007 153.38 L 22.109 153.38 L 22.109 153.38 Q 23.343 153.38 24.324 153.852 L 24.324 153.852 L 24.324 153.852 Q 25.304 154.325 25.851 155.204 L 25.851 155.204 L 25.851 155.204 Q 26.398 156.083 26.398 157.223 L 26.398 157.223 L 26.398 157.223 Q 26.398 158.942 25.203 160.008 L 25.203 160.008 L 25.203 160.008 Q 24.007 161.075 22.039 161.075 L 22.039 161.075 L 22.039 161.075 Z  M 22.109 159.622 L 22.109 159.622 L 22.109 159.622 Q 23.515 159.622 24.367 158.969 L 24.367 158.969 L 24.367 158.969 Q 25.218 158.317 25.218 157.223 L 25.218 157.223 L 25.218 157.223 Q 25.218 156.122 24.355 155.473 L 24.355 155.473 L 24.355 155.473 Q 23.492 154.825 21.937 154.825 L 21.937 154.825 L 21.937 154.825 Q 20.547 154.825 19.683 155.485 L 19.683 155.485 L 19.683 155.485 Q 18.82 156.145 18.82 157.239 L 18.82 157.239 L 18.82 157.239 Q 18.82 158.309 19.672 158.965 L 19.672 158.965 L 19.672 158.965 Q 20.523 159.622 22.109 159.622 Z  M 17.742 147.481 L 19.086 147.481 L 19.086 147.481 Q 19.031 147.809 19.031 148.192 L 19.031 148.192 L 19.031 148.192 Q 19.031 149.614 20.242 150.122 L 20.242 150.122 L 26.242 150.122 L 26.242 151.567 L 17.789 151.567 L 17.789 150.161 L 18.765 150.137 L 18.765 150.137 Q 17.632 149.426 17.632 148.122 L 17.632 148.122 L 17.632 148.122 Q 17.632 147.7 17.742 147.481 L 17.742 147.481 L 17.742 147.481 Z  M 17.789 144.583 L 26.242 144.583 L 26.242 146.028 L 17.789 146.028 L 17.789 144.583 L 17.789 144.583 Z  M 15.547 146.145 L 15.547 146.145 L 15.547 146.145 Q 15.195 146.145 14.953 145.93 L 14.953 145.93 L 14.953 145.93 Q 14.711 145.715 14.711 145.294 L 14.711 145.294 L 14.711 145.294 Q 14.711 144.872 14.953 144.653 L 14.953 144.653 L 14.953 144.653 Q 15.195 144.434 15.547 144.434 L 15.547 144.434 L 15.547 144.434 Q 15.898 144.434 16.132 144.653 L 16.132 144.653 L 16.132 144.653 Q 16.367 144.872 16.367 145.294 L 16.367 145.294 L 16.367 145.294 Q 16.367 145.715 16.132 145.93 L 16.132 145.93 L 16.132 145.93 Q 15.898 146.145 15.547 146.145 Z  M 15.742 141.755 L 15.742 140.309 L 17.789 140.309 L 17.789 138.731 L 18.906 138.731 L 18.906 140.309 L 24.148 140.309 L 24.148 140.309 Q 24.656 140.309 24.91 140.098 L 24.91 140.098 L 24.91 140.098 Q 25.164 139.887 25.164 139.38 L 25.164 139.38 L 25.164 139.38 Q 25.164 139.13 25.07 138.692 L 25.07 138.692 L 26.242 138.692 L 26.242 138.692 Q 26.398 139.262 26.398 139.801 L 26.398 139.801 L 26.398 139.801 Q 26.398 140.77 25.812 141.262 L 25.812 141.262 L 25.812 141.262 Q 25.226 141.755 24.148 141.755 L 24.148 141.755 L 18.906 141.755 L 18.906 143.294 L 17.789 143.294 L 17.789 141.755 L 15.742 141.755 L 15.742 141.755 Z  M 17.789 136.387 L 24.125 134.278 L 17.789 132.309 L 17.789 130.762 L 27.547 134.161 L 27.547 134.161 Q 29.656 134.95 29.656 136.669 L 29.656 136.669 L 29.632 136.942 L 29.531 137.481 L 28.359 137.481 L 28.39 137.09 L 28.39 137.09 Q 28.39 136.356 28.093 135.946 L 28.093 135.946 L 28.093 135.946 Q 27.797 135.536 27.007 135.27 L 27.007 135.27 L 26.148 134.95 L 17.789 137.965 L 17.789 136.387 L 17.789 136.387 Z " fill="rgb(23,23,23)"/></g></g><line x1="185.167" y1="23.72" x2="144" y2="23.72" vector-effect="non-scaling-stroke" stroke-width="1" stroke="rgb(247,184,89)" stroke-linejoin="miter" stroke-linecap="square" stroke-miterlimit="3"/><path d=" M 142.684 21.92 C 143.677 21.92 144.484 22.727 144.484 23.72 C 144.484 24.713 143.677 25.52 142.684 25.52 C 141.691 25.52 140.884 24.713 140.884 23.72 C 140.884 22.727 141.691 21.92 142.684 21.92 Z " fill="rgb(247,184,89)" stroke="none"/><line x1="196.167" y1="181.315" x2="196.167" y2="166.172" vector-effect="non-scaling-stroke" stroke-width="1" stroke="rgb(158,181,178)" stroke-linejoin="miter" stroke-linecap="butt" stroke-miterlimit="3"/><path d=" M 198.167 170.172 L 196.167 166.172 L 194.167 170.172 Z " fill="rgb(158,181,178)" stroke="none"/><line x1="205.167" y1="181.315" x2="205.167" y2="133.172" vector-effect="non-scaling-stroke" stroke-width="1" stroke="rgb(255,171,171)" stroke-linejoin="miter" stroke-linecap="butt" stroke-miterlimit="3"/><path d=" M 207.167 137.172 L 205.167 133.172 L 203.167 137.172 Z " fill="rgb(255,171,171)" stroke="none"/><line x1="215.667" y1="181.315" x2="215.667" y2="99.172" vector-effect="non-scaling-stroke" stroke-width="1" stroke="rgb(132,63,63)" stroke-linejoin="miter" stroke-linecap="butt" stroke-miterlimit="3"/><path d=" M 217.667 103.172 L 215.667 99.172 L 213.667 103.172 Z " fill="rgb(132,63,63)" stroke="none"/><path d=" M 333.702 4.793 L 335.261 4.793 L 335.308 5.42 L 335.308 5.42 Q 335.87 4.676 336.779 4.676 L 336.779 4.676 L 336.779 4.676 Q 338.413 4.676 338.46 6.967 L 338.46 6.967 L 338.46 11.133 L 336.796 11.133 L 336.796 7.09 L 336.796 7.09 Q 336.796 6.551 336.635 6.308 L 336.635 6.308 L 336.635 6.308 Q 336.474 6.064 336.07 6.064 L 336.07 6.064 L 336.07 6.064 Q 335.619 6.064 335.367 6.527 L 335.367 6.527 L 335.367 11.133 L 333.702 11.133 L 333.702 4.793 L 333.702 4.793 Z  M 308.255 4.793 L 309.808 4.793 L 309.855 5.379 L 309.855 5.379 Q 310.411 4.676 311.326 4.676 L 311.326 4.676 L 311.326 4.676 Q 312.275 4.676 312.667 5.531 L 312.667 5.531 L 312.667 5.531 Q 313.212 4.676 314.22 4.676 L 314.22 4.676 L 314.22 4.676 Q 315.884 4.676 315.925 6.979 L 315.925 6.979 L 315.925 11.133 L 314.267 11.133 L 314.267 7.084 L 314.267 7.084 Q 314.267 6.533 314.115 6.299 L 314.115 6.299 L 314.115 6.299 Q 313.962 6.064 313.599 6.064 L 313.599 6.064 L 313.599 6.064 Q 313.136 6.064 312.908 6.633 L 312.908 6.633 L 312.919 6.832 L 312.919 11.133 L 311.261 11.133 L 311.261 7.096 L 311.261 7.096 Q 311.261 6.551 311.115 6.308 L 311.115 6.308 L 311.115 6.308 Q 310.968 6.064 310.593 6.064 L 310.593 6.064 L 310.593 6.064 Q 310.165 6.064 309.913 6.527 L 309.913 6.527 L 309.913 11.133 L 308.255 11.133 L 308.255 4.793 L 308.255 4.793 Z  M 287.607 2.133 L 287.607 11.133 L 285.943 11.133 L 285.943 2.133 L 287.607 2.133 L 287.607 2.133 Z  M 266.794 11.133 L 265.634 8.689 L 265.189 9.188 L 265.189 11.133 L 263.531 11.133 L 263.531 2.133 L 265.189 2.133 L 265.189 6.996 L 265.394 6.691 L 266.542 4.793 L 268.517 4.793 L 266.677 7.406 L 268.693 11.133 L 266.794 11.133 L 266.794 11.133 Z  M 244.072 4.793 L 245.736 4.793 L 245.736 11.473 L 245.736 11.473 Q 245.736 12.557 245.238 13.125 L 245.238 13.125 L 245.238 13.125 Q 244.74 13.693 243.826 13.693 L 243.826 13.693 L 243.826 13.693 Q 243.439 13.693 243.076 13.594 L 243.076 13.594 L 243.07 12.24 L 243.07 12.24 Q 243.345 12.293 243.509 12.293 L 243.509 12.293 L 243.509 12.293 Q 244.06 12.293 244.072 11.52 L 244.072 11.52 L 244.072 4.793 L 244.072 4.793 Z  M 243.96 3.152 L 243.96 3.152 L 243.96 3.152 Q 243.96 2.766 244.206 2.52 L 244.206 2.52 L 244.206 2.52 Q 244.452 2.273 244.863 2.273 L 244.863 2.273 L 244.863 2.273 Q 245.273 2.273 245.519 2.52 L 245.519 2.52 L 245.519 2.52 Q 245.765 2.766 245.765 3.152 L 245.765 3.152 L 245.765 3.152 Q 245.765 3.533 245.522 3.785 L 245.522 3.785 L 245.522 3.785 Q 245.279 4.037 244.863 4.037 L 244.863 4.037 L 244.863 4.037 Q 244.447 4.037 244.203 3.785 L 244.203 3.785 L 244.203 3.785 Q 243.96 3.533 243.96 3.152 Z " fill="rgb(116,116,116)"/><path d=" M 226.62 204.793 L 226.62 211.133 L 224.956 211.133 L 224.956 204.793 L 226.62 204.793 L 226.62 204.793 Z  M 224.88 203.152 L 224.88 203.152 L 224.88 203.152 Q 224.88 202.766 225.126 202.52 L 225.126 202.52 L 225.126 202.52 Q 225.372 202.273 225.783 202.273 L 225.783 202.273 L 225.783 202.273 Q 226.193 202.273 226.439 202.52 L 226.439 202.52 L 226.439 202.52 Q 226.685 202.766 226.685 203.152 L 226.685 203.152 L 226.685 203.152 Q 226.685 203.533 226.442 203.785 L 226.442 203.785 L 226.442 203.785 Q 226.199 204.037 225.783 204.037 L 225.783 204.037 L 225.783 204.037 Q 225.367 204.037 225.123 203.785 L 225.123 203.785 L 225.123 203.785 Q 224.88 203.533 224.88 203.152 Z  M 215.06 202.133 L 215.06 205.35 L 215.06 205.35 Q 215.599 204.676 216.384 204.676 L 216.384 204.676 L 216.384 204.676 Q 217.251 204.676 217.702 205.285 L 217.702 205.285 L 217.702 205.285 Q 218.154 205.895 218.16 207.102 L 218.16 207.102 L 218.16 211.133 L 216.495 211.133 L 216.495 207.119 L 216.495 207.119 Q 216.495 206.563 216.323 206.313 L 216.323 206.313 L 216.323 206.313 Q 216.15 206.064 215.763 206.064 L 215.763 206.064 L 215.763 206.064 Q 215.312 206.064 215.06 206.48 L 215.06 206.48 L 215.06 211.133 L 213.402 211.133 L 213.402 202.133 L 215.06 202.133 L 215.06 202.133 Z  M 201.677 208.238 L 201.677 207.77 L 201.677 207.77 Q 201.677 206.211 202.24 205.443 L 202.24 205.443 L 202.24 205.443 Q 202.802 204.676 203.816 204.676 L 203.816 204.676 L 203.816 204.676 Q 204.677 204.676 205.146 205.355 L 205.146 205.355 L 205.21 204.793 L 206.704 204.793 L 206.704 211.133 L 206.704 211.133 Q 206.704 212.346 206.025 212.987 L 206.025 212.987 L 206.025 212.987 Q 205.345 213.629 204.074 213.629 L 204.074 213.629 L 204.074 213.629 Q 203.552 213.629 202.978 213.421 L 202.978 213.421 L 202.978 213.421 Q 202.404 213.213 202.122 212.891 L 202.122 212.891 L 202.679 211.742 L 202.679 211.742 Q 202.913 211.988 203.288 212.144 L 203.288 212.144 L 203.288 212.144 Q 203.663 212.299 203.997 212.299 L 203.997 212.299 L 203.997 212.299 Q 204.554 212.299 204.797 212.032 L 204.797 212.032 L 204.797 212.032 Q 205.04 211.766 205.046 211.174 L 205.046 211.174 L 205.046 210.629 L 205.046 210.629 Q 204.572 211.25 203.81 211.25 L 203.81 211.25 L 203.81 211.25 Q 202.796 211.25 202.243 210.462 L 202.243 210.462 L 202.243 210.462 Q 201.689 209.674 201.677 208.238 L 201.677 208.238 L 201.677 208.238 Z  M 203.335 207.77 L 203.335 208.186 L 203.335 208.186 Q 203.335 209.064 203.564 209.466 L 203.564 209.466 L 203.564 209.466 Q 203.792 209.867 204.29 209.867 L 204.29 209.867 L 204.29 209.867 Q 204.8 209.867 205.046 209.498 L 205.046 209.498 L 205.046 206.469 L 205.046 206.469 Q 204.788 206.064 204.302 206.064 L 204.302 206.064 L 204.302 206.064 Q 203.81 206.064 203.573 206.469 L 203.573 206.469 L 203.573 206.469 Q 203.335 206.873 203.335 207.77 L 203.335 207.77 L 203.335 207.77 Z  M 197.224 211.133 L 195.56 211.133 L 195.56 206.041 L 194.792 206.041 L 194.792 204.793 L 195.56 204.793 L 195.56 204.225 L 195.56 204.225 Q 195.566 203.176 196.114 202.593 L 196.114 202.593 L 196.114 202.593 Q 196.661 202.01 197.628 202.01 L 197.628 202.01 L 197.628 202.01 Q 197.921 202.01 198.378 202.127 L 198.378 202.127 L 198.367 203.451 L 198.367 203.451 Q 198.197 203.398 197.962 203.398 L 197.962 203.398 L 197.962 203.398 Q 197.224 203.398 197.224 204.277 L 197.224 204.277 L 197.224 204.793 L 198.214 204.793 L 198.214 206.041 L 197.224 206.041 L 197.224 211.133 L 197.224 211.133 Z  M 178.169 211.25 L 178.169 211.25 L 178.169 211.25 Q 176.892 211.25 176.177 210.488 L 176.177 210.488 L 176.177 210.488 Q 175.462 209.727 175.462 208.309 L 175.462 208.309 L 175.462 207.805 L 175.462 207.805 Q 175.462 206.305 176.119 205.49 L 176.119 205.49 L 176.119 205.49 Q 176.775 204.676 177.999 204.676 L 177.999 204.676 L 177.999 204.676 Q 179.195 204.676 179.798 205.44 L 179.798 205.44 L 179.798 205.44 Q 180.402 206.205 180.413 207.705 L 180.413 207.705 L 180.413 208.52 L 177.115 208.52 L 177.115 208.52 Q 177.15 209.223 177.425 209.548 L 177.425 209.548 L 177.425 209.548 Q 177.701 209.873 178.275 209.873 L 178.275 209.873 L 178.275 209.873 Q 179.107 209.873 179.663 209.305 L 179.663 209.305 L 180.314 210.307 L 180.314 210.307 Q 180.009 210.729 179.429 210.989 L 179.429 210.989 L 179.429 210.989 Q 178.849 211.25 178.169 211.25 Z  M 177.126 207.359 L 177.126 207.359 L 178.785 207.359 L 178.785 207.207 L 178.785 207.207 Q 178.773 206.639 178.597 206.346 L 178.597 206.346 L 178.597 206.346 Q 178.421 206.053 177.988 206.053 L 177.988 206.053 L 177.988 206.053 Q 177.554 206.053 177.358 206.363 L 177.358 206.363 L 177.358 206.363 Q 177.161 206.674 177.126 207.359 Z  M 152.845 208.25 L 152.845 207.77 L 152.845 207.77 Q 152.845 206.211 153.372 205.443 L 153.372 205.443 L 153.372 205.443 Q 153.9 204.676 154.908 204.676 L 154.908 204.676 L 154.908 204.676 Q 155.64 204.676 156.126 205.309 L 156.126 205.309 L 156.126 202.133 L 157.796 202.133 L 157.796 211.133 L 156.29 211.133 L 156.214 210.488 L 156.214 210.488 Q 155.704 211.25 154.902 211.25 L 154.902 211.25 L 154.902 211.25 Q 153.906 211.25 153.381 210.488 L 153.381 210.488 L 153.381 210.488 Q 152.857 209.727 152.845 208.25 L 152.845 208.25 L 152.845 208.25 Z  M 154.509 207.746 L 154.509 208.186 L 154.509 208.186 Q 154.509 209.123 154.708 209.495 L 154.708 209.495 L 154.708 209.495 Q 154.908 209.867 155.382 209.867 L 155.382 209.867 L 155.382 209.867 Q 155.874 209.867 156.126 209.428 L 156.126 209.428 L 156.126 206.533 L 156.126 206.533 Q 155.88 206.064 155.388 206.064 L 155.388 206.064 L 155.388 206.064 Q 154.931 206.064 154.72 206.434 L 154.72 206.434 L 154.72 206.434 Q 154.509 206.803 154.509 207.746 L 154.509 207.746 L 154.509 207.746 Z  M 138.777 209.873 L 138.777 209.873 L 138.777 209.873 Q 139.497 209.873 139.509 208.936 L 139.509 208.936 L 141.068 208.936 L 141.068 208.936 Q 141.056 209.973 140.429 210.611 L 140.429 210.611 L 140.429 210.611 Q 139.802 211.25 138.812 211.25 L 138.812 211.25 L 138.812 211.25 Q 137.587 211.25 136.943 210.488 L 136.943 210.488 L 136.943 210.488 Q 136.298 209.727 136.286 208.244 L 136.286 208.244 L 136.286 207.74 L 136.286 207.74 Q 136.286 206.246 136.922 205.461 L 136.922 205.461 L 136.922 205.461 Q 137.558 204.676 138.8 204.676 L 138.8 204.676 L 138.8 204.676 Q 139.849 204.676 140.452 205.323 L 140.452 205.323 L 140.452 205.323 Q 141.056 205.971 141.068 207.16 L 141.068 207.16 L 139.509 207.16 L 139.509 207.16 Q 139.503 206.627 139.333 206.34 L 139.333 206.34 L 139.333 206.34 Q 139.163 206.053 138.771 206.053 L 138.771 206.053 L 138.771 206.053 Q 138.337 206.053 138.15 206.36 L 138.15 206.36 L 138.15 206.36 Q 137.962 206.668 137.951 207.553 L 137.951 207.553 L 137.951 208.197 L 137.951 208.197 Q 137.951 208.971 138.027 209.278 L 138.027 209.278 L 138.027 209.278 Q 138.103 209.586 138.279 209.729 L 138.279 209.729 L 138.279 209.729 Q 138.454 209.873 138.777 209.873 Z  M 129.958 207.682 L 129.958 208.168 L 129.958 208.168 Q 129.958 209.709 129.466 210.479 L 129.466 210.479 L 129.466 210.479 Q 128.974 211.25 127.919 211.25 L 127.919 211.25 L 127.919 211.25 Q 127.093 211.25 126.595 210.506 L 126.595 210.506 L 126.542 211.133 L 125.013 211.133 L 125.013 202.133 L 126.671 202.133 L 126.671 205.309 L 126.671 205.309 Q 127.14 204.676 127.908 204.676 L 127.908 204.676 L 127.908 204.676 Q 128.962 204.676 129.454 205.44 L 129.454 205.44 L 129.454 205.44 Q 129.947 206.205 129.958 207.682 L 129.958 207.682 L 129.958 207.682 Z  M 128.3 208.355 L 128.3 207.752 L 128.3 207.752 Q 128.3 206.75 128.107 206.407 L 128.107 206.407 L 128.107 206.407 Q 127.913 206.064 127.433 206.064 L 127.433 206.064 L 127.433 206.064 Q 126.911 206.064 126.671 206.539 L 126.671 206.539 L 126.671 209.428 L 126.671 209.428 Q 126.894 209.873 127.445 209.873 L 127.445 209.873 L 127.445 209.873 Q 127.919 209.873 128.104 209.563 L 128.104 209.563 L 128.104 209.563 Q 128.288 209.252 128.3 208.355 L 128.3 208.355 L 128.3 208.355 Z  M 112.984 211.133 L 111.314 211.133 L 111.314 211.133 Q 111.244 210.986 111.173 210.641 L 111.173 210.641 L 111.173 210.641 Q 110.728 211.25 109.966 211.25 L 109.966 211.25 L 109.966 211.25 Q 109.169 211.25 108.645 210.723 L 108.645 210.723 L 108.645 210.723 Q 108.12 210.195 108.12 209.357 L 108.12 209.357 L 108.12 209.357 Q 108.12 208.361 108.756 207.816 L 108.756 207.816 L 108.756 207.816 Q 109.392 207.271 110.587 207.26 L 110.587 207.26 L 111.091 207.26 L 111.091 206.75 L 111.091 206.75 Q 111.091 206.322 110.945 206.146 L 110.945 206.146 L 110.945 206.146 Q 110.798 205.971 110.517 205.971 L 110.517 205.971 L 110.517 205.971 Q 109.896 205.971 109.896 206.697 L 109.896 206.697 L 108.238 206.697 L 108.238 206.697 Q 108.238 205.818 108.897 205.247 L 108.897 205.247 L 108.897 205.247 Q 109.556 204.676 110.564 204.676 L 110.564 204.676 L 110.564 204.676 Q 111.607 204.676 112.178 205.218 L 112.178 205.218 L 112.178 205.218 Q 112.749 205.76 112.749 206.768 L 112.749 206.768 L 112.749 209.75 L 112.749 209.75 Q 112.761 210.57 112.984 211.033 L 112.984 211.033 L 112.984 211.133 L 112.984 211.133 Z  M 110.335 209.949 L 110.335 209.949 L 110.335 209.949 Q 110.611 209.949 110.804 209.838 L 110.804 209.838 L 110.804 209.838 Q 110.997 209.727 111.091 209.574 L 111.091 209.574 L 111.091 208.256 L 110.693 208.256 L 110.693 208.256 Q 110.271 208.256 110.028 208.525 L 110.028 208.525 L 110.028 208.525 Q 109.785 208.795 109.785 209.246 L 109.785 209.246 L 109.785 209.246 Q 109.785 209.949 110.335 209.949 Z " fill="rgb(116,116,116)"/></g></svg>