<svg width="595" height="50" viewBox="0 0 595 50" fill="none" xmlns="http://www.w3.org/2000/svg">
<rect x="0.5" y="0.5" width="139" height="49" rx="4.5" fill="#FF7A00"/>
<rect x="0.5" y="0.5" width="139" height="49" rx="4.5" stroke="#F27400"/>
<path d="M36.0833 15.0833C36.0833 13.8 35.0333 12.75 33.75 12.75H15.0833C13.8 12.75 12.75 13.8 12.75 15.0833V36.0833L17.4167 31.4167H27.9167V22.0833H36.0833V15.0833ZM36.6667 29.0833H34.1L36.0833 24.4167H30.25V31.4167H32.5833V37.25L36.6667 29.0833Z" fill="black" fill-opacity="0.6"/>
<path d="M55.54 31.5V17.4H58.1V29.32H64.86V31.5H55.54ZM66.3705 19.62V17.18H69.1705V19.62H66.3705ZM66.5305 31.5V21.72H69.0305V31.5H66.5305ZM75.2081 31.7C74.3815 31.7 73.6081 31.6 72.8881 31.4C72.1681 31.2 71.5681 30.9133 71.0881 30.54L71.7281 28.9C72.2215 29.2333 72.7748 29.4933 73.3881 29.68C74.0015 29.8533 74.6148 29.94 75.2281 29.94C75.8681 29.94 76.3415 29.8333 76.6481 29.62C76.9681 29.3933 77.1281 29.1 77.1281 28.74C77.1281 28.18 76.7148 27.82 75.8881 27.66L73.8881 27.28C72.1948 26.96 71.3481 26.08 71.3481 24.64C71.3481 24 71.5215 23.4467 71.8681 22.98C72.2281 22.5133 72.7215 22.1533 73.3481 21.9C73.9748 21.6467 74.6948 21.52 75.5081 21.52C76.2015 21.52 76.8681 21.62 77.5081 21.82C78.1481 22.0067 78.6948 22.2933 79.1481 22.68L78.4681 24.32C78.0815 24 77.6148 23.7467 77.0681 23.56C76.5348 23.3733 76.0215 23.28 75.5281 23.28C74.8748 23.28 74.3881 23.3933 74.0681 23.62C73.7615 23.8467 73.6081 24.1467 73.6081 24.52C73.6081 25.1067 73.9881 25.4667 74.7481 25.6L76.7481 25.98C77.6148 26.14 78.2681 26.4333 78.7081 26.86C79.1615 27.2867 79.3881 27.86 79.3881 28.58C79.3881 29.5533 79.0081 30.32 78.2481 30.88C77.4881 31.4267 76.4748 31.7 75.2081 31.7ZM85.7761 31.7C83.1894 31.7 81.8961 30.42 81.8961 27.86V23.6H80.0161V21.72H81.8961V18.8H84.3961V21.72H87.3561V23.6H84.3961V27.72C84.3961 28.36 84.5361 28.84 84.8161 29.16C85.0961 29.48 85.5494 29.64 86.1761 29.64C86.3628 29.64 86.5561 29.62 86.7561 29.58C86.9561 29.5267 87.1628 29.4733 87.3761 29.42L87.7561 31.26C87.5161 31.3933 87.2094 31.5 86.8361 31.58C86.4761 31.66 86.1228 31.7 85.7761 31.7ZM93.6942 31.7C92.5876 31.7 91.6342 31.4933 90.8342 31.08C90.0342 30.6667 89.4142 30.08 88.9742 29.32C88.5476 28.56 88.3342 27.66 88.3342 26.62C88.3342 25.6067 88.5409 24.72 88.9542 23.96C89.3809 23.2 89.9609 22.6067 90.6942 22.18C91.4409 21.74 92.2876 21.52 93.2342 21.52C94.6209 21.52 95.7142 21.96 96.5142 22.84C97.3276 23.72 97.7342 24.92 97.7342 26.44V27.18H90.7342C90.9209 28.9267 91.9209 29.8 93.7342 29.8C94.2809 29.8 94.8276 29.72 95.3742 29.56C95.9209 29.3867 96.4209 29.12 96.8742 28.76L97.5742 30.44C97.1076 30.8267 96.5209 31.1333 95.8142 31.36C95.1076 31.5867 94.4009 31.7 93.6942 31.7ZM93.3342 23.22C92.6009 23.22 92.0076 23.4467 91.5542 23.9C91.1009 24.3533 90.8276 24.9667 90.7342 25.74H95.6542C95.6009 24.9267 95.3742 24.3067 94.9742 23.88C94.5876 23.44 94.0409 23.22 93.3342 23.22ZM99.7141 31.5V21.72H102.154V23.24C102.487 22.68 102.934 22.2533 103.494 21.96C104.067 21.6667 104.707 21.52 105.414 21.52C107.721 21.52 108.874 22.86 108.874 25.54V31.5H106.374V25.66C106.374 24.9 106.227 24.3467 105.934 24C105.654 23.6533 105.214 23.48 104.614 23.48C103.881 23.48 103.294 23.7133 102.854 24.18C102.427 24.6333 102.214 25.24 102.214 26V31.5H99.7141ZM116.233 31.7C115.127 31.7 114.173 31.4933 113.373 31.08C112.573 30.6667 111.953 30.08 111.513 29.32C111.087 28.56 110.873 27.66 110.873 26.62C110.873 25.6067 111.08 24.72 111.493 23.96C111.92 23.2 112.5 22.6067 113.233 22.18C113.98 21.74 114.827 21.52 115.773 21.52C117.16 21.52 118.253 21.96 119.053 22.84C119.867 23.72 120.273 24.92 120.273 26.44V27.18H113.273C113.46 28.9267 114.46 29.8 116.273 29.8C116.82 29.8 117.367 29.72 117.913 29.56C118.46 29.3867 118.96 29.12 119.413 28.76L120.113 30.44C119.647 30.8267 119.06 31.1333 118.353 31.36C117.647 31.5867 116.94 31.7 116.233 31.7ZM115.873 23.22C115.14 23.22 114.547 23.4467 114.093 23.9C113.64 24.3533 113.367 24.9667 113.273 25.74H118.193C118.14 24.9267 117.913 24.3067 117.513 23.88C117.127 23.44 116.58 23.22 115.873 23.22ZM122.253 31.5V21.72H124.693V23.44C125.173 22.28 126.2 21.64 127.773 21.52L128.533 21.46L128.693 23.58L127.253 23.72C125.613 23.88 124.793 24.72 124.793 26.24V31.5H122.253Z" fill="black" fill-opacity="0.8"/>
<rect x="161.5" y="0.5" width="163" height="49" rx="4.5" fill="#EBEBEB"/>
<rect x="161.5" y="0.5" width="163" height="49" rx="4.5" stroke="#DEDEDE"/>
<path d="M176.2 21H181.8V23.8H176.2V21ZM200 21V33.6C200 34.3426 199.705 35.0548 199.18 35.5799C198.655 36.105 197.943 36.4 197.2 36.4H172V21C172 19.1435 172.737 17.363 174.05 16.0503C175.363 14.7375 177.143 14 179 14H193C194.857 14 196.637 14.7375 197.95 16.0503C199.263 17.363 200 19.1435 200 21ZM183.2 21C183.2 19.8861 182.758 18.8178 181.97 18.0302C181.182 17.2425 180.114 16.8 179 16.8C177.886 16.8 176.818 17.2425 176.03 18.0302C175.242 18.8178 174.8 19.8861 174.8 21V33.6H183.2V21ZM191.6 18.2H186V26.6H188.8V21H191.6V18.2Z" fill="black" fill-opacity="0.6"/>
<path d="M221.4 31.7C220.293 31.7 219.267 31.56 218.32 31.28C217.373 30.9867 216.573 30.5933 215.92 30.1L216.7 28.08C217.353 28.5467 218.067 28.9067 218.84 29.16C219.627 29.4133 220.48 29.54 221.4 29.54C222.453 29.54 223.22 29.3667 223.7 29.02C224.18 28.66 224.42 28.2 224.42 27.64C224.42 27.1733 224.247 26.8067 223.9 26.54C223.567 26.2733 222.987 26.0533 222.16 25.88L219.96 25.42C217.453 24.8867 216.2 23.6 216.2 21.56C216.2 20.68 216.433 19.9133 216.9 19.26C217.367 18.6067 218.013 18.1 218.84 17.74C219.667 17.38 220.62 17.2 221.7 17.2C222.66 17.2 223.56 17.3467 224.4 17.64C225.24 17.92 225.94 18.32 226.5 18.84L225.72 20.76C224.613 19.8267 223.267 19.36 221.68 19.36C220.76 19.36 220.04 19.5533 219.52 19.94C219 20.3267 218.74 20.8333 218.74 21.46C218.74 21.94 218.9 22.3267 219.22 22.62C219.54 22.9 220.087 23.12 220.86 23.28L223.04 23.74C224.36 24.02 225.34 24.46 225.98 25.06C226.633 25.66 226.96 26.46 226.96 27.46C226.96 28.3 226.733 29.04 226.28 29.68C225.827 30.32 225.18 30.82 224.34 31.18C223.513 31.5267 222.533 31.7 221.4 31.7ZM232.457 31.7C230.057 31.7 228.857 30.3533 228.857 27.66V21.72H231.357V27.7C231.357 28.3933 231.497 28.9067 231.777 29.24C232.057 29.5733 232.504 29.74 233.117 29.74C233.784 29.74 234.331 29.5133 234.757 29.06C235.184 28.5933 235.397 27.98 235.397 27.22V21.72H237.897V31.5H235.457V30.04C234.804 31.1467 233.804 31.7 232.457 31.7ZM246.139 31.7C245.419 31.7 244.773 31.54 244.199 31.22C243.639 30.9 243.219 30.4667 242.939 29.92V31.5H240.499V17.4H242.999V23.16C243.293 22.6667 243.713 22.2733 244.259 21.98C244.819 21.6733 245.446 21.52 246.139 21.52C247.006 21.52 247.759 21.7267 248.399 22.14C249.039 22.5533 249.539 23.14 249.899 23.9C250.259 24.6467 250.439 25.5467 250.439 26.6C250.439 27.64 250.259 28.5467 249.899 29.32C249.539 30.08 249.033 30.6667 248.379 31.08C247.739 31.4933 246.993 31.7 246.139 31.7ZM245.439 29.8C246.186 29.8 246.786 29.5333 247.239 29C247.693 28.4533 247.919 27.6533 247.919 26.6C247.919 25.5333 247.693 24.74 247.239 24.22C246.786 23.6867 246.186 23.42 245.439 23.42C244.693 23.42 244.093 23.6867 243.639 24.22C243.186 24.74 242.959 25.5333 242.959 26.6C242.959 27.6533 243.186 28.4533 243.639 29C244.093 29.5333 244.693 29.8 245.439 29.8ZM256.071 31.7C255.245 31.7 254.471 31.6 253.751 31.4C253.031 31.2 252.431 30.9133 251.951 30.54L252.591 28.9C253.085 29.2333 253.638 29.4933 254.251 29.68C254.865 29.8533 255.478 29.94 256.091 29.94C256.731 29.94 257.205 29.8333 257.511 29.62C257.831 29.3933 257.991 29.1 257.991 28.74C257.991 28.18 257.578 27.82 256.751 27.66L254.751 27.28C253.058 26.96 252.211 26.08 252.211 24.64C252.211 24 252.385 23.4467 252.731 22.98C253.091 22.5133 253.585 22.1533 254.211 21.9C254.838 21.6467 255.558 21.52 256.371 21.52C257.065 21.52 257.731 21.62 258.371 21.82C259.011 22.0067 259.558 22.2933 260.011 22.68L259.331 24.32C258.945 24 258.478 23.7467 257.931 23.56C257.398 23.3733 256.885 23.28 256.391 23.28C255.738 23.28 255.251 23.3933 254.931 23.62C254.625 23.8467 254.471 24.1467 254.471 24.52C254.471 25.1067 254.851 25.4667 255.611 25.6L257.611 25.98C258.478 26.14 259.131 26.4333 259.571 26.86C260.025 27.2867 260.251 27.86 260.251 28.58C260.251 29.5533 259.871 30.32 259.111 30.88C258.351 31.4267 257.338 31.7 256.071 31.7ZM266.777 31.7C265.75 31.7 264.857 31.4933 264.097 31.08C263.337 30.6533 262.75 30.0533 262.337 29.28C261.924 28.5067 261.717 27.6 261.717 26.56C261.717 25.52 261.924 24.6267 262.337 23.88C262.75 23.12 263.337 22.54 264.097 22.14C264.857 21.7267 265.75 21.52 266.777 21.52C267.404 21.52 268.024 21.62 268.637 21.82C269.25 22.02 269.757 22.3 270.157 22.66L269.417 24.4C269.07 24.0933 268.677 23.86 268.237 23.7C267.81 23.54 267.397 23.46 266.997 23.46C266.13 23.46 265.457 23.7333 264.977 24.28C264.51 24.8133 264.277 25.58 264.277 26.58C264.277 27.5667 264.51 28.3467 264.977 28.92C265.457 29.48 266.13 29.76 266.997 29.76C267.384 29.76 267.797 29.68 268.237 29.52C268.677 29.36 269.07 29.12 269.417 28.8L270.157 30.56C269.757 30.9067 269.244 31.1867 268.617 31.4C268.004 31.6 267.39 31.7 266.777 31.7ZM271.691 31.5V21.72H274.131V23.44C274.611 22.28 275.637 21.64 277.211 21.52L277.971 21.46L278.131 23.58L276.691 23.72C275.051 23.88 274.231 24.72 274.231 26.24V31.5H271.691ZM279.363 19.62V17.18H282.163V19.62H279.363ZM279.523 31.5V21.72H282.023V31.5H279.523ZM290.26 31.7C289.54 31.7 288.894 31.54 288.32 31.22C287.76 30.9 287.34 30.4667 287.06 29.92V31.5H284.62V17.4H287.12V23.16C287.414 22.6667 287.834 22.2733 288.38 21.98C288.94 21.6733 289.567 21.52 290.26 21.52C291.127 21.52 291.88 21.7267 292.52 22.14C293.16 22.5533 293.66 23.14 294.02 23.9C294.38 24.6467 294.56 25.5467 294.56 26.6C294.56 27.64 294.38 28.5467 294.02 29.32C293.66 30.08 293.154 30.6667 292.5 31.08C291.86 31.4933 291.114 31.7 290.26 31.7ZM289.56 29.8C290.307 29.8 290.907 29.5333 291.36 29C291.814 28.4533 292.04 27.6533 292.04 26.6C292.04 25.5333 291.814 24.74 291.36 24.22C290.907 23.6867 290.307 23.42 289.56 23.42C288.814 23.42 288.214 23.6867 287.76 24.22C287.307 24.74 287.08 25.5333 287.08 26.6C287.08 27.6533 287.307 28.4533 287.76 29C288.214 29.5333 288.814 29.8 289.56 29.8ZM301.433 31.7C300.326 31.7 299.373 31.4933 298.573 31.08C297.773 30.6667 297.153 30.08 296.713 29.32C296.286 28.56 296.073 27.66 296.073 26.62C296.073 25.6067 296.279 24.72 296.693 23.96C297.119 23.2 297.699 22.6067 298.433 22.18C299.179 21.74 300.026 21.52 300.973 21.52C302.359 21.52 303.453 21.96 304.253 22.84C305.066 23.72 305.473 24.92 305.473 26.44V27.18H298.473C298.659 28.9267 299.659 29.8 301.473 29.8C302.019 29.8 302.566 29.72 303.113 29.56C303.659 29.3867 304.159 29.12 304.613 28.76L305.312 30.44C304.846 30.8267 304.259 31.1333 303.553 31.36C302.846 31.5867 302.139 31.7 301.433 31.7ZM301.073 23.22C300.339 23.22 299.746 23.4467 299.293 23.9C298.839 24.3533 298.566 24.9667 298.473 25.74H303.393C303.339 24.9267 303.113 24.3067 302.713 23.88C302.326 23.44 301.779 23.22 301.073 23.22ZM307.452 31.5V21.72H309.892V23.44C310.372 22.28 311.399 21.64 312.972 21.52L313.732 21.46L313.892 23.58L312.452 23.72C310.812 23.88 309.992 24.72 309.992 26.24V31.5H307.452Z" fill="black" fill-opacity="0.8"/>
<rect x="346.5" y="0.5" width="248" height="49" rx="4.5" fill="#C8C000"/>
<rect x="346.5" y="0.5" width="248" height="49" rx="4.5" stroke="#BBB400"/>
<path d="M380.5 12H360.5C359.837 12 359.201 12.2634 358.732 12.7322C358.263 13.2011 358 13.837 358 14.5V37L363 32H380.5C381.163 32 381.799 31.7366 382.268 31.2678C382.737 30.7989 383 30.163 383 29.5V14.5C383 13.1125 381.875 12 380.5 12Z" fill="black" fill-opacity="0.6"/>
<path d="M401.58 31.5V17.4H403.72L408.72 26.62L413.7 17.4H415.8V31.5H413.48V22L409.44 29.36H407.94L403.9 22.04V31.5H401.58ZM423.483 31.7C422.377 31.7 421.423 31.4933 420.623 31.08C419.823 30.6667 419.203 30.08 418.763 29.32C418.337 28.56 418.123 27.66 418.123 26.62C418.123 25.6067 418.33 24.72 418.743 23.96C419.17 23.2 419.75 22.6067 420.483 22.18C421.23 21.74 422.077 21.52 423.023 21.52C424.41 21.52 425.503 21.96 426.303 22.84C427.117 23.72 427.523 24.92 427.523 26.44V27.18H420.523C420.71 28.9267 421.71 29.8 423.523 29.8C424.07 29.8 424.617 29.72 425.163 29.56C425.71 29.3867 426.21 29.12 426.663 28.76L427.363 30.44C426.897 30.8267 426.31 31.1333 425.603 31.36C424.897 31.5867 424.19 31.7 423.483 31.7ZM423.123 23.22C422.39 23.22 421.797 23.4467 421.343 23.9C420.89 24.3533 420.617 24.9667 420.523 25.74H425.443C425.39 24.9267 425.163 24.3067 424.763 23.88C424.377 23.44 423.83 23.22 423.123 23.22ZM433.083 31.7C432.256 31.7 431.483 31.6 430.763 31.4C430.043 31.2 429.443 30.9133 428.963 30.54L429.603 28.9C430.096 29.2333 430.65 29.4933 431.263 29.68C431.876 29.8533 432.49 29.94 433.103 29.94C433.743 29.94 434.216 29.8333 434.523 29.62C434.843 29.3933 435.003 29.1 435.003 28.74C435.003 28.18 434.59 27.82 433.763 27.66L431.763 27.28C430.07 26.96 429.223 26.08 429.223 24.64C429.223 24 429.396 23.4467 429.743 22.98C430.103 22.5133 430.596 22.1533 431.223 21.9C431.85 21.6467 432.57 21.52 433.383 21.52C434.076 21.52 434.743 21.62 435.383 21.82C436.023 22.0067 436.57 22.2933 437.023 22.68L436.343 24.32C435.956 24 435.49 23.7467 434.943 23.56C434.41 23.3733 433.896 23.28 433.403 23.28C432.75 23.28 432.263 23.3933 431.943 23.62C431.636 23.8467 431.483 24.1467 431.483 24.52C431.483 25.1067 431.863 25.4667 432.623 25.6L434.623 25.98C435.49 26.14 436.143 26.4333 436.583 26.86C437.036 27.2867 437.263 27.86 437.263 28.58C437.263 29.5533 436.883 30.32 436.123 30.88C435.363 31.4267 434.35 31.7 433.083 31.7ZM442.849 31.7C442.022 31.7 441.249 31.6 440.529 31.4C439.809 31.2 439.209 30.9133 438.729 30.54L439.369 28.9C439.862 29.2333 440.415 29.4933 441.029 29.68C441.642 29.8533 442.255 29.94 442.869 29.94C443.509 29.94 443.982 29.8333 444.289 29.62C444.609 29.3933 444.769 29.1 444.769 28.74C444.769 28.18 444.355 27.82 443.529 27.66L441.529 27.28C439.835 26.96 438.989 26.08 438.989 24.64C438.989 24 439.162 23.4467 439.509 22.98C439.869 22.5133 440.362 22.1533 440.989 21.9C441.615 21.6467 442.335 21.52 443.149 21.52C443.842 21.52 444.509 21.62 445.149 21.82C445.789 22.0067 446.335 22.2933 446.789 22.68L446.109 24.32C445.722 24 445.255 23.7467 444.709 23.56C444.175 23.3733 443.662 23.28 443.169 23.28C442.515 23.28 442.029 23.3933 441.709 23.62C441.402 23.8467 441.249 24.1467 441.249 24.52C441.249 25.1067 441.629 25.4667 442.389 25.6L444.389 25.98C445.255 26.14 445.909 26.4333 446.349 26.86C446.802 27.2867 447.029 27.86 447.029 28.58C447.029 29.5533 446.649 30.32 445.889 30.88C445.129 31.4267 444.115 31.7 442.849 31.7ZM452.254 31.7C451.548 31.7 450.914 31.5667 450.354 31.3C449.808 31.02 449.374 30.6467 449.054 30.18C448.748 29.7133 448.594 29.1867 448.594 28.6C448.594 27.88 448.781 27.3133 449.154 26.9C449.528 26.4733 450.134 26.1667 450.974 25.98C451.814 25.7933 452.941 25.7 454.354 25.7H455.054V25.28C455.054 24.6133 454.908 24.1333 454.614 23.84C454.321 23.5467 453.828 23.4 453.134 23.4C452.588 23.4 452.028 23.4867 451.454 23.66C450.881 23.82 450.301 24.0733 449.714 24.42L448.994 22.72C449.341 22.48 449.748 22.2733 450.214 22.1C450.694 21.9133 451.194 21.7733 451.714 21.68C452.248 21.5733 452.748 21.52 453.214 21.52C454.641 21.52 455.701 21.8533 456.394 22.52C457.088 23.1733 457.434 24.1933 457.434 25.58V31.5H455.094V29.94C454.868 30.4867 454.508 30.92 454.014 31.24C453.521 31.5467 452.934 31.7 452.254 31.7ZM452.774 29.98C453.428 29.98 453.968 29.7533 454.394 29.3C454.834 28.8467 455.054 28.2733 455.054 27.58V27.14H454.374C453.121 27.14 452.248 27.24 451.754 27.44C451.274 27.6267 451.034 27.9733 451.034 28.48C451.034 28.92 451.188 29.28 451.494 29.56C451.801 29.84 452.228 29.98 452.774 29.98ZM464.532 35.3C463.625 35.3 462.772 35.1933 461.972 34.98C461.185 34.78 460.492 34.4667 459.892 34.04L460.612 32.3C461.172 32.6733 461.772 32.9467 462.412 33.12C463.052 33.3067 463.692 33.4 464.332 33.4C466.119 33.4 467.012 32.54 467.012 30.82V29.48C466.732 30.0267 466.299 30.46 465.712 30.78C465.139 31.1 464.499 31.26 463.792 31.26C462.912 31.26 462.145 31.06 461.492 30.66C460.839 30.2467 460.332 29.6733 459.972 28.94C459.612 28.2067 459.432 27.3533 459.432 26.38C459.432 25.4067 459.612 24.56 459.972 23.84C460.332 23.1067 460.839 22.54 461.492 22.14C462.145 21.7267 462.912 21.52 463.792 21.52C464.525 21.52 465.179 21.6867 465.752 22.02C466.325 22.34 466.745 22.7733 467.012 23.32V21.72H469.452V30.52C469.452 32.1067 469.032 33.3 468.192 34.1C467.352 34.9 466.132 35.3 464.532 35.3ZM464.472 29.36C465.245 29.36 465.859 29.0933 466.312 28.56C466.765 28.0267 466.992 27.3 466.992 26.38C466.992 25.46 466.765 24.74 466.312 24.22C465.859 23.6867 465.245 23.42 464.472 23.42C463.699 23.42 463.085 23.6867 462.632 24.22C462.179 24.74 461.952 25.46 461.952 26.38C461.952 27.3 462.179 28.0267 462.632 28.56C463.085 29.0933 463.699 29.36 464.472 29.36ZM476.862 31.7C475.756 31.7 474.802 31.4933 474.002 31.08C473.202 30.6667 472.582 30.08 472.142 29.32C471.716 28.56 471.502 27.66 471.502 26.62C471.502 25.6067 471.709 24.72 472.122 23.96C472.549 23.2 473.129 22.6067 473.862 22.18C474.609 21.74 475.456 21.52 476.402 21.52C477.789 21.52 478.882 21.96 479.682 22.84C480.496 23.72 480.902 24.92 480.902 26.44V27.18H473.902C474.089 28.9267 475.089 29.8 476.902 29.8C477.449 29.8 477.996 29.72 478.542 29.56C479.089 29.3867 479.589 29.12 480.042 28.76L480.742 30.44C480.276 30.8267 479.689 31.1333 478.982 31.36C478.276 31.5867 477.569 31.7 476.862 31.7ZM476.502 23.22C475.769 23.22 475.176 23.4467 474.722 23.9C474.269 24.3533 473.996 24.9667 473.902 25.74H478.822C478.769 24.9267 478.542 24.3067 478.142 23.88C477.756 23.44 477.209 23.22 476.502 23.22ZM491.853 31.7C491.026 31.7 490.253 31.6 489.533 31.4C488.813 31.2 488.213 30.9133 487.733 30.54L488.373 28.9C488.866 29.2333 489.419 29.4933 490.033 29.68C490.646 29.8533 491.259 29.94 491.873 29.94C492.513 29.94 492.986 29.8333 493.293 29.62C493.613 29.3933 493.773 29.1 493.773 28.74C493.773 28.18 493.359 27.82 492.533 27.66L490.533 27.28C488.839 26.96 487.993 26.08 487.993 24.64C487.993 24 488.166 23.4467 488.513 22.98C488.873 22.5133 489.366 22.1533 489.993 21.9C490.619 21.6467 491.339 21.52 492.153 21.52C492.846 21.52 493.513 21.62 494.153 21.82C494.793 22.0067 495.339 22.2933 495.793 22.68L495.113 24.32C494.726 24 494.259 23.7467 493.713 23.56C493.179 23.3733 492.666 23.28 492.173 23.28C491.519 23.28 491.033 23.3933 490.713 23.62C490.406 23.8467 490.253 24.1467 490.253 24.52C490.253 25.1067 490.633 25.4667 491.393 25.6L493.393 25.98C494.259 26.14 494.913 26.4333 495.353 26.86C495.806 27.2867 496.033 27.86 496.033 28.58C496.033 29.5533 495.653 30.32 494.893 30.88C494.133 31.4267 493.119 31.7 491.853 31.7ZM501.578 31.7C499.178 31.7 497.978 30.3533 497.978 27.66V21.72H500.478V27.7C500.478 28.3933 500.618 28.9067 500.898 29.24C501.178 29.5733 501.625 29.74 502.238 29.74C502.905 29.74 503.452 29.5133 503.878 29.06C504.305 28.5933 504.518 27.98 504.518 27.22V21.72H507.018V31.5H504.578V30.04C503.925 31.1467 502.925 31.7 501.578 31.7ZM515.26 31.7C514.54 31.7 513.894 31.54 513.32 31.22C512.76 30.9 512.34 30.4667 512.06 29.92V31.5H509.62V17.4H512.12V23.16C512.414 22.6667 512.834 22.2733 513.38 21.98C513.94 21.6733 514.567 21.52 515.26 21.52C516.127 21.52 516.88 21.7267 517.52 22.14C518.16 22.5533 518.66 23.14 519.02 23.9C519.38 24.6467 519.56 25.5467 519.56 26.6C519.56 27.64 519.38 28.5467 519.02 29.32C518.66 30.08 518.154 30.6667 517.5 31.08C516.86 31.4933 516.114 31.7 515.26 31.7ZM514.56 29.8C515.307 29.8 515.907 29.5333 516.36 29C516.814 28.4533 517.04 27.6533 517.04 26.6C517.04 25.5333 516.814 24.74 516.36 24.22C515.907 23.6867 515.307 23.42 514.56 23.42C513.814 23.42 513.214 23.6867 512.76 24.22C512.307 24.74 512.08 25.5333 512.08 26.6C512.08 27.6533 512.307 28.4533 512.76 29C513.214 29.5333 513.814 29.8 514.56 29.8ZM525.193 31.7C524.366 31.7 523.593 31.6 522.873 31.4C522.153 31.2 521.553 30.9133 521.073 30.54L521.713 28.9C522.206 29.2333 522.759 29.4933 523.373 29.68C523.986 29.8533 524.599 29.94 525.213 29.94C525.853 29.94 526.326 29.8333 526.633 29.62C526.953 29.3933 527.113 29.1 527.113 28.74C527.113 28.18 526.699 27.82 525.873 27.66L523.873 27.28C522.179 26.96 521.333 26.08 521.333 24.64C521.333 24 521.506 23.4467 521.853 22.98C522.213 22.5133 522.706 22.1533 523.333 21.9C523.959 21.6467 524.679 21.52 525.493 21.52C526.186 21.52 526.853 21.62 527.493 21.82C528.133 22.0067 528.679 22.2933 529.133 22.68L528.453 24.32C528.066 24 527.599 23.7467 527.053 23.56C526.519 23.3733 526.006 23.28 525.513 23.28C524.859 23.28 524.373 23.3933 524.053 23.62C523.746 23.8467 523.593 24.1467 523.593 24.52C523.593 25.1067 523.973 25.4667 524.733 25.6L526.733 25.98C527.599 26.14 528.253 26.4333 528.693 26.86C529.146 27.2867 529.373 27.86 529.373 28.58C529.373 29.5533 528.993 30.32 528.233 30.88C527.473 31.4267 526.459 31.7 525.193 31.7ZM535.898 31.7C534.871 31.7 533.978 31.4933 533.218 31.08C532.458 30.6533 531.871 30.0533 531.458 29.28C531.045 28.5067 530.838 27.6 530.838 26.56C530.838 25.52 531.045 24.6267 531.458 23.88C531.871 23.12 532.458 22.54 533.218 22.14C533.978 21.7267 534.871 21.52 535.898 21.52C536.525 21.52 537.145 21.62 537.758 21.82C538.371 22.02 538.878 22.3 539.278 22.66L538.538 24.4C538.191 24.0933 537.798 23.86 537.358 23.7C536.931 23.54 536.518 23.46 536.118 23.46C535.251 23.46 534.578 23.7333 534.098 24.28C533.631 24.8133 533.398 25.58 533.398 26.58C533.398 27.5667 533.631 28.3467 534.098 28.92C534.578 29.48 535.251 29.76 536.118 29.76C536.505 29.76 536.918 29.68 537.358 29.52C537.798 29.36 538.191 29.12 538.538 28.8L539.278 30.56C538.878 30.9067 538.365 31.1867 537.738 31.4C537.125 31.6 536.511 31.7 535.898 31.7ZM540.812 31.5V21.72H543.252V23.44C543.732 22.28 544.758 21.64 546.332 21.52L547.092 21.46L547.252 23.58L545.812 23.72C544.172 23.88 543.352 24.72 543.352 26.24V31.5H540.812ZM548.484 19.62V17.18H551.284V19.62H548.484ZM548.644 31.5V21.72H551.144V31.5H548.644ZM559.381 31.7C558.661 31.7 558.015 31.54 557.441 31.22C556.881 30.9 556.461 30.4667 556.181 29.92V31.5H553.741V17.4H556.241V23.16C556.535 22.6667 556.955 22.2733 557.501 21.98C558.061 21.6733 558.688 21.52 559.381 21.52C560.248 21.52 561.001 21.7267 561.641 22.14C562.281 22.5533 562.781 23.14 563.141 23.9C563.501 24.6467 563.681 25.5467 563.681 26.6C563.681 27.64 563.501 28.5467 563.141 29.32C562.781 30.08 562.275 30.6667 561.621 31.08C560.981 31.4933 560.235 31.7 559.381 31.7ZM558.681 29.8C559.428 29.8 560.028 29.5333 560.481 29C560.935 28.4533 561.161 27.6533 561.161 26.6C561.161 25.5333 560.935 24.74 560.481 24.22C560.028 23.6867 559.428 23.42 558.681 23.42C557.935 23.42 557.335 23.6867 556.881 24.22C556.428 24.74 556.201 25.5333 556.201 26.6C556.201 27.6533 556.428 28.4533 556.881 29C557.335 29.5333 557.935 29.8 558.681 29.8ZM570.554 31.7C569.447 31.7 568.494 31.4933 567.694 31.08C566.894 30.6667 566.274 30.08 565.834 29.32C565.407 28.56 565.194 27.66 565.194 26.62C565.194 25.6067 565.4 24.72 565.814 23.96C566.24 23.2 566.82 22.6067 567.554 22.18C568.3 21.74 569.147 21.52 570.094 21.52C571.48 21.52 572.574 21.96 573.374 22.84C574.187 23.72 574.594 24.92 574.594 26.44V27.18H567.594C567.78 28.9267 568.78 29.8 570.594 29.8C571.14 29.8 571.687 29.72 572.234 29.56C572.78 29.3867 573.28 29.12 573.734 28.76L574.434 30.44C573.967 30.8267 573.38 31.1333 572.674 31.36C571.967 31.5867 571.26 31.7 570.554 31.7ZM570.194 23.22C569.46 23.22 568.867 23.4467 568.414 23.9C567.96 24.3533 567.687 24.9667 567.594 25.74H572.514C572.46 24.9267 572.234 24.3067 571.834 23.88C571.447 23.44 570.9 23.22 570.194 23.22ZM576.573 31.5V21.72H579.013V23.44C579.493 22.28 580.52 21.64 582.093 21.52L582.853 21.46L583.013 23.58L581.573 23.72C579.933 23.88 579.113 24.72 579.113 26.24V31.5H576.573Z" fill="black" fill-opacity="0.8"/>
</svg>
