<?xml version="1.0" encoding="UTF-8" standalone="no"?>
<!-- Generator: Gravit.io -->
<svg xmlns="http://www.w3.org/2000/svg" xmlns:xlink="http://www.w3.org/1999/xlink" style="isolation:isolate" viewBox="0 0 511.3 232.2" width="511.3pt" height="232.2pt"><defs><clipPath id="_clipPath_4s5vgiB38S3pAl7QuuCNwfKUotLNVBNL"><rect width="511.3" height="232.2"/></clipPath></defs><g clip-path="url(#_clipPath_4s5vgiB38S3pAl7QuuCNwfKUotLNVBNL)"><g><path d="M 28.3 26.02 L 149.17 26.02 C 150.826 26.02 152.17 27.364 152.17 29.02 L 152.17 148.96 C 152.17 150.616 150.826 151.96 149.17 151.96 L 28.3 151.96 C 26.644 151.96 25.3 150.616 25.3 148.96 L 25.3 29.02 C 25.3 27.364 26.644 26.02 28.3 26.02 Z" style="stroke:none;fill:#D9D9D9;stroke-miterlimit:10;"/><path d=" M 65.572 105.455 L 65.572 105.455 L 65.572 93.685 L 65.572 93.685 Q 65.572 93.507 65.741 93.507 L 65.741 93.507 L 66.958 93.507 L 66.958 93.507 Q 67.127 93.507 67.127 93.685 L 67.127 93.685 L 67.127 104.416 L 73.946 104.416 L 73.946 104.416 Q 74.123 104.416 74.123 104.585 L 74.123 104.585 L 74.123 105.455 L 74.123 105.455 Q 74.123 105.624 73.946 105.624 L 73.946 105.624 L 65.741 105.624 L 65.741 105.624 Q 65.572 105.624 65.572 105.455 Z  M 79.662 105.886 L 79.662 105.886 L 79.662 105.886 Q 77.639 105.886 76.401 104.614 L 76.401 104.614 L 76.401 104.614 Q 75.163 103.343 75.163 100.981 L 75.163 100.981 L 75.163 100.981 Q 75.163 98.619 76.401 97.364 L 76.401 97.364 L 76.401 97.364 Q 77.639 96.11 79.662 96.11 L 79.662 96.11 L 79.662 96.11 Q 81.686 96.11 82.924 97.364 L 82.924 97.364 L 82.924 97.364 Q 84.162 98.619 84.162 100.981 L 84.162 100.981 L 84.162 100.981 Q 84.162 103.343 82.924 104.614 L 82.924 104.614 L 82.924 104.614 Q 81.686 105.886 79.662 105.886 Z  M 79.662 97.318 L 79.662 97.318 L 79.662 97.318 Q 78.348 97.318 77.533 98.235 L 77.533 98.235 L 77.533 98.235 Q 76.718 99.152 76.718 100.977 L 76.718 100.977 L 76.718 100.977 Q 76.718 102.802 77.533 103.735 L 77.533 103.735 L 77.533 103.735 Q 78.348 104.669 79.662 104.669 L 79.662 104.669 L 79.662 104.669 Q 80.976 104.669 81.792 103.735 L 81.792 103.735 L 81.792 103.735 Q 82.607 102.802 82.607 100.977 L 82.607 100.977 L 82.607 100.977 Q 82.607 99.152 81.792 98.235 L 81.792 98.235 L 81.792 98.235 Q 80.976 97.318 79.662 97.318 Z  M 90.651 105.016 L 90.651 105.016 Q 88.733 105.016 87.487 103.824 L 87.487 103.824 L 87.487 103.824 Q 86.24 102.633 86.24 100.571 L 86.24 100.571 L 86.24 100.571 Q 86.24 98.509 87.495 97.309 L 87.495 97.309 L 87.495 97.309 Q 88.75 96.11 90.736 96.11 L 90.736 96.11 L 90.736 96.11 Q 91.842 96.11 92.865 96.367 L 92.865 96.367 L 92.865 96.367 Q 93.887 96.625 94.335 96.887 L 94.335 96.887 L 94.808 97.14 L 94.808 104.585 L 94.808 104.585 Q 94.808 108.742 90.482 108.742 L 90.482 108.742 L 90.482 108.742 Q 88.817 108.742 87.812 108.041 L 87.812 108.041 L 87.812 108.041 Q 86.806 107.339 86.671 106.139 L 86.671 106.139 L 86.671 106.139 Q 86.654 105.97 86.849 105.97 L 86.849 105.97 L 87.939 105.97 L 87.939 105.97 Q 88.091 105.97 88.141 106.139 L 88.141 106.139 L 88.141 106.139 Q 88.353 106.765 88.948 107.145 L 88.948 107.145 L 88.948 107.145 Q 89.544 107.525 90.482 107.525 L 90.482 107.525 L 90.482 107.525 Q 91.918 107.525 92.582 106.824 L 92.582 106.824 L 92.582 106.824 Q 93.245 106.122 93.245 104.585 L 93.245 104.585 L 93.245 104.5 L 93.245 104.5 Q 92.121 105.016 90.651 105.016 L 90.651 105.016 L 90.651 105.016 Z  M 90.913 97.318 L 90.913 97.318 Q 89.51 97.318 88.653 98.176 L 88.653 98.176 L 88.653 98.176 Q 87.795 99.033 87.795 100.58 L 87.795 100.58 L 87.795 100.58 Q 87.795 102.126 88.644 102.967 L 88.644 102.967 L 88.644 102.967 Q 89.493 103.807 90.807 103.807 L 90.807 103.807 L 90.807 103.807 Q 92.121 103.807 93.245 103.292 L 93.245 103.292 L 93.245 97.833 L 93.245 97.833 Q 93.245 97.816 92.954 97.698 L 92.954 97.698 L 92.954 97.698 Q 92.662 97.58 92.071 97.449 L 92.071 97.449 L 92.071 97.449 Q 91.479 97.318 90.913 97.318 L 90.913 97.318 L 90.913 97.318 Z  M 97.918 94.977 L 97.918 93.854 L 97.918 93.854 Q 97.918 93.507 98.264 93.507 L 98.264 93.507 L 99.388 93.507 L 99.388 93.507 Q 99.582 93.507 99.658 93.587 L 99.658 93.587 L 99.658 93.587 Q 99.734 93.668 99.734 93.854 L 99.734 93.854 L 99.734 94.977 L 99.734 94.977 Q 99.734 95.172 99.658 95.248 L 99.658 95.248 L 99.658 95.248 Q 99.582 95.324 99.388 95.324 L 99.388 95.324 L 98.264 95.324 L 98.264 95.324 Q 98.078 95.324 97.998 95.248 L 97.998 95.248 L 97.998 95.248 Q 97.918 95.172 97.918 94.977 L 97.918 94.977 L 97.918 94.977 Z  M 98.045 105.455 L 98.045 105.455 L 98.045 96.541 L 98.045 96.541 Q 98.045 96.363 98.213 96.363 L 98.213 96.363 L 99.422 96.363 L 99.422 96.363 Q 99.599 96.363 99.599 96.541 L 99.599 96.541 L 99.599 105.455 L 99.599 105.455 Q 99.599 105.624 99.422 105.624 L 99.422 105.624 L 98.213 105.624 L 98.213 105.624 Q 98.045 105.624 98.045 105.455 Z  M 106.701 105.886 L 106.701 105.886 L 106.701 105.886 Q 104.804 105.886 103.571 104.614 L 103.571 104.614 L 103.571 104.614 Q 102.337 103.343 102.337 100.981 L 102.337 100.981 L 102.337 100.981 Q 102.337 98.619 103.575 97.364 L 103.575 97.364 L 103.575 97.364 Q 104.813 96.11 106.68 96.11 L 106.68 96.11 L 106.68 96.11 Q 108.547 96.11 109.604 96.879 L 109.604 96.879 L 109.604 96.879 Q 110.66 97.647 110.989 99.016 L 110.989 99.016 L 110.989 99.016 Q 111.04 99.228 110.812 99.219 L 110.812 99.219 L 109.722 99.219 L 109.722 99.219 Q 109.604 99.219 109.519 99.05 L 109.519 99.05 L 109.519 99.05 Q 108.725 97.318 106.832 97.318 L 106.832 97.318 L 106.832 97.318 Q 105.514 97.318 104.703 98.235 L 104.703 98.235 L 104.703 98.235 Q 103.892 99.152 103.892 100.977 L 103.892 100.977 L 103.892 100.977 Q 103.892 102.802 104.707 103.735 L 104.707 103.735 L 104.707 103.735 Q 105.522 104.669 106.705 104.669 L 106.705 104.669 L 106.705 104.669 Q 107.888 104.669 108.539 104.238 L 108.539 104.238 L 108.539 104.238 Q 109.19 103.807 109.604 102.945 L 109.604 102.945 L 109.604 102.945 Q 109.688 102.776 109.815 102.768 L 109.815 102.768 L 110.905 102.768 L 110.905 102.768 Q 111.091 102.768 111.082 102.903 L 111.082 102.903 L 111.082 102.903 Q 111.082 102.937 111.074 102.979 L 111.074 102.979 L 111.074 102.979 Q 110.744 104.365 109.671 105.125 L 109.671 105.125 L 109.671 105.125 Q 108.598 105.886 106.701 105.886 Z  M 37.308 85.125 L 37.308 85.125 L 41.896 73.701 L 41.896 73.701 Q 42.108 73.186 42.674 73.177 L 42.674 73.177 L 43.198 73.177 L 43.198 73.177 Q 43.772 73.177 43.975 73.701 L 43.975 73.701 L 48.563 85.125 L 48.563 85.125 Q 48.589 85.176 48.589 85.201 L 48.589 85.201 L 48.589 85.201 Q 48.589 85.294 48.42 85.294 L 48.42 85.294 L 47.177 85.294 L 47.177 85.294 Q 47.008 85.294 46.915 85.125 L 46.915 85.125 L 45.707 82.176 L 40.164 82.176 L 38.956 85.125 L 38.956 85.125 Q 38.871 85.294 38.694 85.294 L 38.694 85.294 L 37.452 85.294 L 37.452 85.294 Q 37.291 85.294 37.291 85.201 L 37.291 85.201 L 37.291 85.201 Q 37.283 85.176 37.308 85.125 Z  M 42.936 75.171 L 40.604 80.968 L 45.276 80.968 L 42.936 75.171 L 42.936 75.171 Z  M 50.828 87.973 L 50.828 87.973 L 50.828 76.211 L 50.828 76.211 Q 50.828 76.042 50.997 76.033 L 50.997 76.033 L 51.951 76.033 L 51.951 76.033 Q 52.12 76.033 52.137 76.211 L 52.137 76.211 L 52.298 77.157 L 52.298 77.157 Q 52.391 77.013 52.725 76.722 L 52.725 76.722 L 52.725 76.722 Q 53.058 76.43 53.363 76.253 L 53.363 76.253 L 53.363 76.253 Q 54.148 75.78 55.154 75.78 L 55.154 75.78 L 55.154 75.78 Q 57.004 75.78 58.2 77.034 L 58.2 77.034 L 58.2 77.034 Q 59.396 78.289 59.396 80.655 L 59.396 80.655 L 59.396 80.655 Q 59.396 83.021 58.166 84.289 L 58.166 84.289 L 58.166 84.289 Q 56.937 85.556 54.976 85.556 L 54.976 85.556 L 54.976 85.556 Q 54.317 85.556 53.671 85.425 L 53.671 85.425 L 53.671 85.425 Q 53.025 85.294 52.695 85.159 L 52.695 85.159 L 52.382 85.032 L 52.382 87.973 L 52.382 87.973 Q 52.382 88.142 52.213 88.15 L 52.213 88.15 L 50.997 88.15 L 50.997 88.15 Q 50.828 88.142 50.828 87.973 Z  M 52.382 78.805 L 52.382 83.824 L 52.382 83.824 Q 53.506 84.339 54.841 84.339 L 54.841 84.339 L 54.841 84.339 Q 56.176 84.339 57.004 83.422 L 57.004 83.422 L 57.004 83.422 Q 57.832 82.506 57.832 80.68 L 57.832 80.68 L 57.832 80.68 Q 57.832 78.855 57.072 77.922 L 57.072 77.922 L 57.072 77.922 Q 56.312 76.988 55.069 76.988 L 55.069 76.988 L 55.069 76.988 Q 53.861 76.988 52.864 78.154 L 52.864 78.154 L 52.864 78.154 Q 52.382 78.712 52.382 78.805 L 52.382 78.805 L 52.382 78.805 Z  M 62.159 87.973 L 62.159 87.973 L 62.159 76.211 L 62.159 76.211 Q 62.159 76.042 62.328 76.033 L 62.328 76.033 L 63.283 76.033 L 63.283 76.033 Q 63.452 76.033 63.468 76.211 L 63.468 76.211 L 63.629 77.157 L 63.629 77.157 Q 63.722 77.013 64.056 76.722 L 64.056 76.722 L 64.056 76.722 Q 64.389 76.43 64.694 76.253 L 64.694 76.253 L 64.694 76.253 Q 65.479 75.78 66.485 75.78 L 66.485 75.78 L 66.485 75.78 Q 68.335 75.78 69.531 77.034 L 69.531 77.034 L 69.531 77.034 Q 70.727 78.289 70.727 80.655 L 70.727 80.655 L 70.727 80.655 Q 70.727 83.021 69.497 84.289 L 69.497 84.289 L 69.497 84.289 Q 68.268 85.556 66.307 85.556 L 66.307 85.556 L 66.307 85.556 Q 65.648 85.556 65.002 85.425 L 65.002 85.425 L 65.002 85.425 Q 64.356 85.294 64.026 85.159 L 64.026 85.159 L 63.713 85.032 L 63.713 87.973 L 63.713 87.973 Q 63.713 88.142 63.544 88.15 L 63.544 88.15 L 62.328 88.15 L 62.328 88.15 Q 62.159 88.142 62.159 87.973 Z  M 63.713 78.805 L 63.713 83.824 L 63.713 83.824 Q 64.837 84.339 66.172 84.339 L 66.172 84.339 L 66.172 84.339 Q 67.507 84.339 68.335 83.422 L 68.335 83.422 L 68.335 83.422 Q 69.163 82.506 69.163 80.68 L 69.163 80.68 L 69.163 80.68 Q 69.163 78.855 68.403 77.922 L 68.403 77.922 L 68.403 77.922 Q 67.643 76.988 66.4 76.988 L 66.4 76.988 L 66.4 76.988 Q 65.192 76.988 64.195 78.154 L 64.195 78.154 L 64.195 78.154 Q 63.713 78.712 63.713 78.805 L 63.713 78.805 L 63.713 78.805 Z  M 73.49 85.125 L 73.49 85.125 L 73.49 73.355 L 73.49 73.355 Q 73.49 73.177 73.659 73.177 L 73.659 73.177 L 74.875 73.177 L 74.875 73.177 Q 75.044 73.177 75.044 73.355 L 75.044 73.355 L 75.044 85.125 L 75.044 85.125 Q 75.044 85.294 74.875 85.294 L 74.875 85.294 L 73.659 85.294 L 73.659 85.294 Q 73.49 85.294 73.49 85.125 Z  M 78.331 74.647 L 78.331 73.524 L 78.331 73.524 Q 78.331 73.177 78.678 73.177 L 78.678 73.177 L 79.802 73.177 L 79.802 73.177 Q 79.996 73.177 80.072 73.257 L 80.072 73.257 L 80.072 73.257 Q 80.148 73.338 80.148 73.524 L 80.148 73.524 L 80.148 74.647 L 80.148 74.647 Q 80.148 74.842 80.072 74.918 L 80.072 74.918 L 80.072 74.918 Q 79.996 74.994 79.802 74.994 L 79.802 74.994 L 78.678 74.994 L 78.678 74.994 Q 78.492 74.994 78.412 74.918 L 78.412 74.918 L 78.412 74.918 Q 78.331 74.842 78.331 74.647 L 78.331 74.647 L 78.331 74.647 Z  M 78.458 85.125 L 78.458 85.125 L 78.458 76.211 L 78.458 76.211 Q 78.458 76.033 78.627 76.033 L 78.627 76.033 L 79.835 76.033 L 79.835 76.033 Q 80.013 76.033 80.013 76.211 L 80.013 76.211 L 80.013 85.125 L 80.013 85.125 Q 80.013 85.294 79.835 85.294 L 79.835 85.294 L 78.627 85.294 L 78.627 85.294 Q 78.458 85.294 78.458 85.125 Z  M 87.115 85.556 L 87.115 85.556 L 87.115 85.556 Q 85.218 85.556 83.984 84.284 L 83.984 84.284 L 83.984 84.284 Q 82.751 83.013 82.751 80.651 L 82.751 80.651 L 82.751 80.651 Q 82.751 78.289 83.988 77.034 L 83.988 77.034 L 83.988 77.034 Q 85.226 75.78 87.094 75.78 L 87.094 75.78 L 87.094 75.78 Q 88.961 75.78 90.017 76.549 L 90.017 76.549 L 90.017 76.549 Q 91.074 77.318 91.403 78.686 L 91.403 78.686 L 91.403 78.686 Q 91.454 78.898 91.226 78.889 L 91.226 78.889 L 90.136 78.889 L 90.136 78.889 Q 90.017 78.889 89.933 78.72 L 89.933 78.72 L 89.933 78.72 Q 89.139 76.988 87.246 76.988 L 87.246 76.988 L 87.246 76.988 Q 85.928 76.988 85.116 77.905 L 85.116 77.905 L 85.116 77.905 Q 84.305 78.822 84.305 80.647 L 84.305 80.647 L 84.305 80.647 Q 84.305 82.472 85.121 83.406 L 85.121 83.406 L 85.121 83.406 Q 85.936 84.339 87.119 84.339 L 87.119 84.339 L 87.119 84.339 Q 88.302 84.339 88.953 83.908 L 88.953 83.908 L 88.953 83.908 Q 89.603 83.477 90.017 82.615 L 90.017 82.615 L 90.017 82.615 Q 90.102 82.446 90.229 82.438 L 90.229 82.438 L 91.319 82.438 L 91.319 82.438 Q 91.504 82.438 91.496 82.573 L 91.496 82.573 L 91.496 82.573 Q 91.496 82.607 91.488 82.649 L 91.488 82.649 L 91.488 82.649 Q 91.158 84.035 90.085 84.795 L 90.085 84.795 L 90.085 84.795 Q 89.012 85.556 87.115 85.556 Z  M 94.559 84.766 L 94.559 84.766 L 94.559 84.766 Q 93.583 83.976 93.583 82.611 L 93.583 82.611 L 93.583 82.611 Q 93.583 81.247 94.584 80.457 L 94.584 80.457 L 94.584 80.457 Q 95.586 79.667 97.385 79.667 L 97.385 79.667 L 100.334 79.667 L 100.334 79.582 L 100.334 79.582 Q 100.334 76.988 97.732 76.988 L 97.732 76.988 L 97.732 76.988 Q 96.921 76.988 96.35 77.377 L 96.35 77.377 L 96.35 77.377 Q 95.78 77.765 95.569 78.374 L 95.569 78.374 L 95.569 78.374 Q 95.518 78.543 95.366 78.543 L 95.366 78.543 L 94.276 78.543 L 94.276 78.543 Q 94.082 78.543 94.099 78.374 L 94.099 78.374 L 94.099 78.374 Q 94.234 77.199 95.214 76.489 L 95.214 76.489 L 95.214 76.489 Q 96.194 75.78 97.732 75.78 L 97.732 75.78 L 97.732 75.78 Q 99.743 75.78 100.816 76.773 L 100.816 76.773 L 100.816 76.773 Q 101.889 77.765 101.889 79.582 L 101.889 79.582 L 101.889 85.125 L 101.889 85.125 Q 101.889 85.294 101.712 85.294 L 101.712 85.294 L 100.765 85.294 L 100.765 85.294 Q 100.596 85.294 100.571 85.125 L 100.571 85.125 L 100.419 84.17 L 100.419 84.17 Q 100.317 84.331 99.971 84.614 L 99.971 84.614 L 99.971 84.614 Q 99.625 84.897 99.278 85.074 L 99.278 85.074 L 99.278 85.074 Q 98.366 85.556 97.216 85.556 L 97.216 85.556 L 97.216 85.556 Q 95.535 85.556 94.559 84.766 Z  M 95.138 82.615 L 95.138 82.615 L 95.138 82.615 Q 95.138 83.46 95.7 83.9 L 95.7 83.9 L 95.7 83.9 Q 96.262 84.339 97.301 84.339 L 97.301 84.339 L 97.301 84.339 Q 97.859 84.339 98.378 84.149 L 98.378 84.149 L 98.378 84.149 Q 98.898 83.959 99.232 83.701 L 99.232 83.701 L 99.232 83.701 Q 99.565 83.444 99.827 83.173 L 99.827 83.173 L 99.827 83.173 Q 100.089 82.903 100.212 82.721 L 100.212 82.721 L 100.212 82.721 Q 100.334 82.539 100.334 82.523 L 100.334 82.523 L 100.334 80.883 L 97.385 80.883 L 97.385 80.883 Q 95.138 80.883 95.138 82.615 Z  M 105.007 81.745 L 105.007 81.745 L 105.007 73.355 L 105.007 73.355 Q 105.007 73.177 105.176 73.177 L 105.176 73.177 L 106.393 73.177 L 106.393 73.177 Q 106.562 73.177 106.562 73.355 L 106.562 73.355 L 106.562 76.033 L 110.094 76.033 L 110.094 76.033 Q 110.263 76.033 110.263 76.211 L 110.263 76.211 L 110.263 77.072 L 110.263 77.072 Q 110.263 77.25 110.094 77.25 L 110.094 77.25 L 106.562 77.25 L 106.562 81.745 L 106.562 81.745 Q 106.562 83.03 107.157 83.684 L 107.157 83.684 L 107.157 83.684 Q 107.753 84.339 108.809 84.339 L 108.809 84.339 L 108.809 84.339 Q 109.739 84.339 110.474 84.086 L 110.474 84.086 L 110.719 83.993 L 110.719 83.993 Q 110.888 83.925 110.888 84.136 L 110.888 84.136 L 110.888 84.981 L 110.888 84.981 Q 110.888 85.125 110.719 85.21 L 110.719 85.21 L 110.719 85.21 Q 109.849 85.556 108.64 85.556 L 108.64 85.556 L 108.64 85.556 Q 106.976 85.556 105.991 84.508 L 105.991 84.508 L 105.991 84.508 Q 105.007 83.46 105.007 81.745 Z  M 112.967 74.647 L 112.967 73.524 L 112.967 73.524 Q 112.967 73.177 113.313 73.177 L 113.313 73.177 L 114.437 73.177 L 114.437 73.177 Q 114.631 73.177 114.707 73.257 L 114.707 73.257 L 114.707 73.257 Q 114.783 73.338 114.783 73.524 L 114.783 73.524 L 114.783 74.647 L 114.783 74.647 Q 114.783 74.842 114.707 74.918 L 114.707 74.918 L 114.707 74.918 Q 114.631 74.994 114.437 74.994 L 114.437 74.994 L 113.313 74.994 L 113.313 74.994 Q 113.127 74.994 113.047 74.918 L 113.047 74.918 L 113.047 74.918 Q 112.967 74.842 112.967 74.647 L 112.967 74.647 L 112.967 74.647 Z  M 113.093 85.125 L 113.093 85.125 L 113.093 76.211 L 113.093 76.211 Q 113.093 76.033 113.262 76.033 L 113.262 76.033 L 114.471 76.033 L 114.471 76.033 Q 114.648 76.033 114.648 76.211 L 114.648 76.211 L 114.648 85.125 L 114.648 85.125 Q 114.648 85.294 114.471 85.294 L 114.471 85.294 L 113.262 85.294 L 113.262 85.294 Q 113.093 85.294 113.093 85.125 Z  M 121.885 85.556 L 121.885 85.556 L 121.885 85.556 Q 119.862 85.556 118.624 84.284 L 118.624 84.284 L 118.624 84.284 Q 117.386 83.013 117.386 80.651 L 117.386 80.651 L 117.386 80.651 Q 117.386 78.289 118.624 77.034 L 118.624 77.034 L 118.624 77.034 Q 119.862 75.78 121.885 75.78 L 121.885 75.78 L 121.885 75.78 Q 123.909 75.78 125.147 77.034 L 125.147 77.034 L 125.147 77.034 Q 126.385 78.289 126.385 80.651 L 126.385 80.651 L 126.385 80.651 Q 126.385 83.013 125.147 84.284 L 125.147 84.284 L 125.147 84.284 Q 123.909 85.556 121.885 85.556 Z  M 121.885 76.988 L 121.885 76.988 L 121.885 76.988 Q 120.571 76.988 119.756 77.905 L 119.756 77.905 L 119.756 77.905 Q 118.941 78.822 118.941 80.647 L 118.941 80.647 L 118.941 80.647 Q 118.941 82.472 119.756 83.406 L 119.756 83.406 L 119.756 83.406 Q 120.571 84.339 121.885 84.339 L 121.885 84.339 L 121.885 84.339 Q 123.199 84.339 124.015 83.406 L 124.015 83.406 L 124.015 83.406 Q 124.83 82.472 124.83 80.647 L 124.83 80.647 L 124.83 80.647 Q 124.83 78.822 124.015 77.905 L 124.015 77.905 L 124.015 77.905 Q 123.199 76.988 121.885 76.988 Z  M 129.156 85.125 L 129.156 85.125 L 129.156 76.211 L 129.156 76.211 Q 129.156 76.033 129.325 76.033 L 129.325 76.033 L 130.28 76.033 L 130.28 76.033 Q 130.449 76.033 130.466 76.211 L 130.466 76.211 L 130.626 77.157 L 130.626 77.157 Q 130.728 77.013 131.066 76.722 L 131.066 76.722 L 131.066 76.722 Q 131.404 76.43 131.725 76.253 L 131.725 76.253 L 131.725 76.253 Q 132.553 75.78 133.651 75.78 L 133.651 75.78 L 133.651 75.78 Q 135.401 75.78 136.516 76.861 L 136.516 76.861 L 136.516 76.861 Q 137.631 77.943 137.631 79.844 L 137.631 79.844 L 137.631 85.125 L 137.631 85.125 Q 137.631 85.294 137.462 85.294 L 137.462 85.294 L 136.246 85.294 L 136.246 85.294 Q 136.077 85.294 136.077 85.125 L 136.077 85.125 L 136.077 79.844 L 136.077 79.844 Q 136.077 78.475 135.367 77.732 L 135.367 77.732 L 135.367 77.732 Q 134.657 76.988 133.567 76.988 L 133.567 76.988 L 133.567 76.988 Q 133.068 76.988 132.583 77.178 L 132.583 77.178 L 132.583 77.178 Q 132.097 77.368 131.776 77.626 L 131.776 77.626 L 131.776 77.626 Q 131.455 77.884 131.21 78.154 L 131.21 78.154 L 131.21 78.154 Q 130.711 78.686 130.711 78.805 L 130.711 78.805 L 130.711 85.125 L 130.711 85.125 Q 130.711 85.294 130.542 85.294 L 130.542 85.294 L 129.325 85.294 L 129.325 85.294 Q 129.156 85.294 129.156 85.125 Z " fill="rgb(70,70,70)"/></g><g/><g><path d="M 232.04 53 L 232.04 148.83 C 232.04 150.486 230.696 151.83 229.04 151.83 L 193.82 151.83 C 192.164 151.83 190.82 150.486 190.82 148.83 L 190.82 53 C 190.82 51.344 192.164 50 193.82 50 L 229.04 50 C 230.696 50 232.04 51.344 232.04 53 Z" style="stroke:none;fill:#D9D9D9;stroke-miterlimit:10;"/><path d=" M 206.026 80.381 L 206.026 80.381 L 206.026 80.381 Q 206.026 79.629 206.154 78.909 L 206.154 78.909 L 206.154 78.909 Q 206.282 78.189 206.522 77.573 L 206.522 77.573 L 206.522 77.573 Q 206.762 76.957 207.13 76.461 L 207.13 76.461 L 207.13 76.461 Q 207.274 76.269 207.458 76.197 L 207.458 76.197 L 207.458 76.197 Q 207.642 76.125 207.826 76.165 L 207.826 76.165 L 207.826 76.165 Q 208.01 76.205 208.138 76.325 L 208.138 76.325 L 208.138 76.325 Q 208.266 76.445 208.282 76.621 L 208.282 76.621 L 208.282 76.621 Q 208.298 76.797 208.17 77.005 L 208.17 77.005 L 208.17 77.005 Q 207.658 77.725 207.426 78.541 L 207.426 78.541 L 207.426 78.541 Q 207.194 79.357 207.194 80.381 L 207.194 80.381 L 207.194 80.381 Q 207.194 81.821 207.73 82.517 L 207.73 82.517 L 207.73 82.517 Q 208.266 83.213 209.146 83.213 L 209.146 83.213 L 209.146 83.213 Q 209.866 83.213 210.274 82.709 L 210.274 82.709 L 210.274 82.709 Q 210.682 82.205 210.922 81.021 L 210.922 81.021 L 211.258 79.357 L 211.258 79.357 Q 211.578 77.853 212.306 77.109 L 212.306 77.109 L 212.306 77.109 Q 213.034 76.365 214.25 76.365 L 214.25 76.365 L 214.25 76.365 Q 215.002 76.365 215.618 76.669 L 215.618 76.669 L 215.618 76.669 Q 216.234 76.973 216.674 77.517 L 216.674 77.517 L 216.674 77.517 Q 217.114 78.061 217.354 78.813 L 217.354 78.813 L 217.354 78.813 Q 217.594 79.565 217.594 80.477 L 217.594 80.477 L 217.594 80.477 Q 217.594 81.485 217.314 82.357 L 217.314 82.357 L 217.314 82.357 Q 217.034 83.229 216.474 83.933 L 216.474 83.933 L 216.474 83.933 Q 216.33 84.109 216.146 84.173 L 216.146 84.173 L 216.146 84.173 Q 215.962 84.237 215.794 84.189 L 215.794 84.189 L 215.794 84.189 Q 215.626 84.141 215.514 84.021 L 215.514 84.021 L 215.514 84.021 Q 215.402 83.901 215.386 83.717 L 215.386 83.717 L 215.386 83.717 Q 215.37 83.533 215.514 83.309 L 215.514 83.309 L 215.514 83.309 Q 215.994 82.669 216.21 81.981 L 216.21 81.981 L 216.21 81.981 Q 216.426 81.293 216.426 80.461 L 216.426 80.461 L 216.426 80.461 Q 216.426 79.613 216.17 78.997 L 216.17 78.997 L 216.17 78.997 Q 215.914 78.381 215.426 78.037 L 215.426 78.037 L 215.426 78.037 Q 214.938 77.693 214.298 77.693 L 214.298 77.693 L 214.298 77.693 Q 213.53 77.693 213.082 78.165 L 213.082 78.165 L 213.082 78.165 Q 212.634 78.637 212.426 79.709 L 212.426 79.709 L 212.074 81.373 L 212.074 81.373 Q 211.738 82.989 211.058 83.765 L 211.058 83.765 L 211.058 83.765 Q 210.378 84.541 209.21 84.541 L 209.21 84.541 L 209.21 84.541 Q 208.506 84.541 207.914 84.253 L 207.914 84.253 L 207.914 84.253 Q 207.322 83.965 206.898 83.421 L 206.898 83.421 L 206.898 83.421 Q 206.474 82.877 206.25 82.109 L 206.25 82.109 L 206.25 82.109 Q 206.026 81.341 206.026 80.381 Z  M 206.026 89.901 L 206.026 89.901 L 206.026 89.901 Q 206.026 88.669 206.514 87.781 L 206.514 87.781 L 206.514 87.781 Q 207.002 86.893 207.898 86.405 L 207.898 86.405 L 207.898 86.405 Q 208.794 85.917 210.042 85.917 L 210.042 85.917 L 210.042 85.917 Q 211.258 85.917 212.162 86.397 L 212.162 86.397 L 212.162 86.397 Q 213.066 86.877 213.578 87.717 L 213.578 87.717 L 213.578 87.717 Q 214.09 88.557 214.09 89.661 L 214.09 89.661 L 214.09 89.661 Q 214.09 90.445 213.826 91.069 L 213.826 91.069 L 213.826 91.069 Q 213.562 91.693 213.066 92.133 L 213.066 92.133 L 213.066 92.133 Q 212.57 92.573 211.866 92.805 L 211.866 92.805 L 211.866 92.805 Q 211.162 93.037 210.282 93.037 L 210.282 93.037 L 210.282 93.037 Q 210.026 93.037 209.906 92.893 L 209.906 92.893 L 209.906 92.893 Q 209.786 92.749 209.786 92.477 L 209.786 92.477 L 209.786 86.909 L 210.634 86.909 L 210.634 92.173 L 210.426 91.917 L 210.426 91.917 Q 211.29 91.917 211.89 91.661 L 211.89 91.661 L 211.89 91.661 Q 212.49 91.405 212.81 90.917 L 212.81 90.917 L 212.81 90.917 Q 213.13 90.429 213.13 89.693 L 213.13 89.693 L 213.13 89.693 Q 213.13 88.877 212.754 88.309 L 212.754 88.309 L 212.754 88.309 Q 212.378 87.741 211.714 87.453 L 211.714 87.453 L 211.714 87.453 Q 211.05 87.165 210.17 87.165 L 210.17 87.165 L 210.074 87.165 L 210.074 87.165 Q 208.602 87.165 207.834 87.877 L 207.834 87.877 L 207.834 87.877 Q 207.066 88.589 207.066 89.901 L 207.066 89.901 L 207.066 89.901 Q 207.066 90.445 207.21 90.981 L 207.21 90.981 L 207.21 90.981 Q 207.354 91.517 207.69 92.029 L 207.69 92.029 L 207.69 92.029 Q 207.834 92.253 207.826 92.437 L 207.826 92.437 L 207.826 92.437 Q 207.818 92.621 207.714 92.733 L 207.714 92.733 L 207.714 92.733 Q 207.61 92.845 207.458 92.885 L 207.458 92.885 L 207.458 92.885 Q 207.306 92.925 207.13 92.853 L 207.13 92.853 L 207.13 92.853 Q 206.954 92.781 206.826 92.573 L 206.826 92.573 L 206.826 92.573 Q 206.442 92.045 206.234 91.325 L 206.234 91.325 L 206.234 91.325 Q 206.026 90.605 206.026 89.901 Z  M 206.058 95.549 L 206.058 95.549 L 206.058 95.549 Q 206.058 95.229 206.234 95.069 L 206.234 95.069 L 206.234 95.069 Q 206.41 94.909 206.73 94.909 L 206.73 94.909 L 213.402 94.909 L 213.402 94.909 Q 213.722 94.909 213.89 95.069 L 213.89 95.069 L 213.89 95.069 Q 214.058 95.229 214.058 95.533 L 214.058 95.533 L 214.058 95.533 Q 214.058 95.837 213.89 96.005 L 213.89 96.005 L 213.89 96.005 Q 213.722 96.173 213.402 96.173 L 213.402 96.173 L 212.026 96.173 L 212.218 95.997 L 212.218 95.997 Q 213.146 96.333 213.618 97.093 L 213.618 97.093 L 213.618 97.093 Q 214.09 97.853 214.09 98.845 L 214.09 98.845 L 214.09 98.845 Q 214.09 99.773 213.754 100.389 L 213.754 100.389 L 213.754 100.389 Q 213.418 101.005 212.738 101.309 L 212.738 101.309 L 212.738 101.309 Q 212.058 101.613 211.018 101.613 L 211.018 101.613 L 206.73 101.613 L 206.73 101.613 Q 206.41 101.613 206.234 101.445 L 206.234 101.445 L 206.234 101.445 Q 206.058 101.277 206.058 100.973 L 206.058 100.973 L 206.058 100.973 Q 206.058 100.653 206.234 100.485 L 206.234 100.485 L 206.234 100.485 Q 206.41 100.317 206.73 100.317 L 206.73 100.317 L 210.938 100.317 L 210.938 100.317 Q 212.026 100.317 212.53 99.893 L 212.53 99.893 L 212.53 99.893 Q 213.034 99.469 213.034 98.541 L 213.034 98.541 L 213.034 98.541 Q 213.034 97.469 212.37 96.837 L 212.37 96.837 L 212.37 96.837 Q 211.706 96.205 210.602 96.205 L 210.602 96.205 L 206.73 96.205 L 206.73 96.205 Q 206.058 96.205 206.058 95.549 Z  M 206.026 106.621 L 206.026 106.621 L 206.026 106.621 Q 206.026 105.901 206.202 105.173 L 206.202 105.173 L 206.202 105.173 Q 206.378 104.445 206.81 103.821 L 206.81 103.821 L 206.81 103.821 Q 206.922 103.661 207.074 103.597 L 207.074 103.597 L 207.074 103.597 Q 207.226 103.533 207.378 103.557 L 207.378 103.557 L 207.378 103.557 Q 207.53 103.581 207.642 103.685 L 207.642 103.685 L 207.642 103.685 Q 207.754 103.789 207.778 103.941 L 207.778 103.941 L 207.778 103.941 Q 207.802 104.093 207.706 104.285 L 207.706 104.285 L 207.706 104.285 Q 207.322 104.909 207.17 105.493 L 207.17 105.493 L 207.17 105.493 Q 207.018 106.077 207.018 106.653 L 207.018 106.653 L 207.018 106.653 Q 207.018 107.565 207.354 108.029 L 207.354 108.029 L 207.354 108.029 Q 207.69 108.493 208.266 108.493 L 208.266 108.493 L 208.266 108.493 Q 208.714 108.493 208.978 108.189 L 208.978 108.189 L 208.978 108.189 Q 209.242 107.885 209.386 107.229 L 209.386 107.229 L 209.706 105.773 L 209.706 105.773 Q 209.914 104.765 210.426 104.277 L 210.426 104.277 L 210.426 104.277 Q 210.938 103.789 211.754 103.789 L 211.754 103.789 L 211.754 103.789 Q 212.474 103.789 212.994 104.165 L 212.994 104.165 L 212.994 104.165 Q 213.514 104.541 213.802 105.229 L 213.802 105.229 L 213.802 105.229 Q 214.09 105.917 214.09 106.829 L 214.09 106.829 L 214.09 106.829 Q 214.09 107.533 213.906 108.165 L 213.906 108.165 L 213.906 108.165 Q 213.722 108.797 213.322 109.309 L 213.322 109.309 L 213.322 109.309 Q 213.21 109.469 213.058 109.525 L 213.058 109.525 L 213.058 109.525 Q 212.906 109.581 212.754 109.541 L 212.754 109.541 L 212.754 109.541 Q 212.602 109.501 212.498 109.389 L 212.498 109.389 L 212.498 109.389 Q 212.394 109.277 212.378 109.117 L 212.378 109.117 L 212.378 109.117 Q 212.362 108.957 212.474 108.781 L 212.474 108.781 L 212.474 108.781 Q 212.794 108.301 212.946 107.805 L 212.946 107.805 L 212.946 107.805 Q 213.098 107.309 213.098 106.829 L 213.098 106.829 L 213.098 106.829 Q 213.098 105.933 212.746 105.469 L 212.746 105.469 L 212.746 105.469 Q 212.394 105.005 211.818 105.005 L 211.818 105.005 L 211.818 105.005 Q 211.37 105.005 211.082 105.293 L 211.082 105.293 L 211.082 105.293 Q 210.794 105.581 210.666 106.189 L 210.666 106.189 L 210.362 107.645 L 210.362 107.645 Q 210.138 108.685 209.65 109.205 L 209.65 109.205 L 209.65 109.205 Q 209.162 109.725 208.33 109.725 L 208.33 109.725 L 208.33 109.725 Q 207.274 109.725 206.65 108.877 L 206.65 108.877 L 206.65 108.877 Q 206.026 108.029 206.026 106.621 Z  M 206.026 114.925 L 206.026 114.925 L 206.026 114.925 Q 206.026 113.789 206.522 112.957 L 206.522 112.957 L 206.522 112.957 Q 207.018 112.125 207.922 111.669 L 207.922 111.669 L 207.922 111.669 Q 208.826 111.213 210.058 111.213 L 210.058 111.213 L 210.058 111.213 Q 210.986 111.213 211.73 111.469 L 211.73 111.469 L 211.73 111.469 Q 212.474 111.725 213.002 112.221 L 213.002 112.221 L 213.002 112.221 Q 213.53 112.717 213.81 113.397 L 213.81 113.397 L 213.81 113.397 Q 214.09 114.077 214.09 114.925 L 214.09 114.925 L 214.09 114.925 Q 214.09 116.061 213.594 116.893 L 213.594 116.893 L 213.594 116.893 Q 213.098 117.725 212.194 118.181 L 212.194 118.181 L 212.194 118.181 Q 211.29 118.637 210.058 118.637 L 210.058 118.637 L 210.058 118.637 Q 209.13 118.637 208.394 118.381 L 208.394 118.381 L 208.394 118.381 Q 207.658 118.125 207.122 117.629 L 207.122 117.629 L 207.122 117.629 Q 206.586 117.133 206.306 116.453 L 206.306 116.453 L 206.306 116.453 Q 206.026 115.773 206.026 114.925 Z  M 207.066 114.925 L 207.066 114.925 L 207.066 114.925 Q 207.066 115.645 207.418 116.189 L 207.418 116.189 L 207.418 116.189 Q 207.77 116.733 208.442 117.029 L 208.442 117.029 L 208.442 117.029 Q 209.114 117.325 210.058 117.325 L 210.058 117.325 L 210.058 117.325 Q 211.514 117.325 212.282 116.677 L 212.282 116.677 L 212.282 116.677 Q 213.05 116.029 213.05 114.925 L 213.05 114.925 L 213.05 114.925 Q 213.05 114.189 212.706 113.653 L 212.706 113.653 L 212.706 113.653 Q 212.362 113.117 211.698 112.821 L 211.698 112.821 L 211.698 112.821 Q 211.034 112.525 210.058 112.525 L 210.058 112.525 L 210.058 112.525 Q 208.618 112.525 207.842 113.181 L 207.842 113.181 L 207.842 113.181 Q 207.066 113.837 207.066 114.925 Z  M 206.058 121.245 L 206.058 121.245 L 206.058 121.245 Q 206.058 120.925 206.234 120.757 L 206.234 120.757 L 206.234 120.757 Q 206.41 120.589 206.73 120.589 L 206.73 120.589 L 213.402 120.589 L 213.402 120.589 Q 213.722 120.589 213.89 120.749 L 213.89 120.749 L 213.89 120.749 Q 214.058 120.909 214.058 121.213 L 214.058 121.213 L 214.058 121.213 Q 214.058 121.517 213.89 121.685 L 213.89 121.685 L 213.89 121.685 Q 213.722 121.853 213.402 121.853 L 213.402 121.853 L 212.106 121.853 L 212.106 121.693 L 212.106 121.693 Q 213.05 121.949 213.562 122.669 L 213.562 122.669 L 213.562 122.669 Q 214.074 123.389 214.106 124.445 L 214.106 124.445 L 214.106 124.445 Q 214.122 124.685 214.002 124.829 L 214.002 124.829 L 214.002 124.829 Q 213.882 124.973 213.594 124.989 L 213.594 124.989 L 213.594 124.989 Q 213.322 125.005 213.162 124.861 L 213.162 124.861 L 213.162 124.861 Q 213.002 124.717 212.97 124.413 L 212.97 124.413 L 212.938 124.157 L 212.938 124.157 Q 212.842 123.069 212.242 122.485 L 212.242 122.485 L 212.242 122.485 Q 211.642 121.901 210.602 121.901 L 210.602 121.901 L 206.73 121.901 L 206.73 121.901 Q 206.41 121.901 206.234 121.733 L 206.234 121.733 L 206.234 121.733 Q 206.058 121.565 206.058 121.245 Z " fill="rgb(70,70,70)"/><path d=" M 216.727 24.696 L 216.727 10.581 C 216.727 7.658 214.357 5.288 211.434 5.288 C 208.511 5.288 206.141 7.658 206.141 10.581 L 206.141 24.696 C 203.103 26.975 201.864 30.941 203.065 34.544 C 204.265 38.146 207.637 40.576 211.434 40.576 C 215.231 40.576 218.603 38.146 219.804 34.544 C 221.004 30.941 219.765 26.975 216.727 24.696 Z  M 211.434 8.816 C 212.409 8.816 213.199 9.606 213.199 10.581 L 213.199 15.874 L 209.67 15.874 L 209.67 10.581 C 209.67 9.606 210.46 8.816 211.434 8.816 Z " fill="rgb(116,116,116)"/></g><g><path d="M 447.39 53 L 447.39 148.83 C 447.39 150.486 448.734 151.83 450.39 151.83 L 485.61 151.83 C 487.266 151.83 488.61 150.486 488.61 148.83 L 488.61 53 C 488.61 51.344 487.266 50 485.61 50 L 450.39 50 C 448.734 50 447.39 51.344 447.39 53 Z" style="stroke:none;fill:#D9D9D9;stroke-miterlimit:10;"/><path d=" M 462.624 87.435 L 462.624 87.435 L 462.624 87.435 Q 462.624 87.131 462.792 86.971 L 462.792 86.971 L 462.792 86.971 Q 462.96 86.811 463.28 86.811 L 463.28 86.811 L 473.456 86.811 L 473.456 86.811 Q 473.776 86.811 473.952 86.971 L 473.952 86.971 L 473.952 86.971 Q 474.128 87.131 474.128 87.387 L 474.128 87.387 L 474.128 87.387 Q 474.128 87.643 474.04 87.763 L 474.04 87.763 L 474.04 87.763 Q 473.952 87.883 473.728 88.043 L 473.728 88.043 L 464.432 95.019 L 464.432 94.635 L 473.488 94.635 L 473.488 94.635 Q 473.792 94.635 473.96 94.795 L 473.96 94.795 L 473.96 94.795 Q 474.128 94.955 474.128 95.259 L 474.128 95.259 L 474.128 95.259 Q 474.128 95.547 473.96 95.699 L 473.96 95.699 L 473.96 95.699 Q 473.792 95.851 473.488 95.851 L 473.488 95.851 L 463.264 95.851 L 463.264 95.851 Q 462.96 95.851 462.792 95.715 L 462.792 95.715 L 462.792 95.715 Q 462.624 95.579 462.624 95.323 L 462.624 95.323 L 462.624 95.323 Q 462.624 95.083 462.72 94.939 L 462.72 94.939 L 462.72 94.939 Q 462.816 94.795 463.024 94.635 L 463.024 94.635 L 472.32 87.675 L 472.32 88.043 L 463.28 88.043 L 463.28 88.043 Q 462.96 88.043 462.792 87.883 L 462.792 87.883 L 462.792 87.883 Q 462.624 87.723 462.624 87.435 Z  M 462.736 105.323 L 462.736 99.371 L 462.736 99.371 Q 462.736 99.019 462.92 98.835 L 462.92 98.835 L 462.92 98.835 Q 463.104 98.651 463.456 98.651 L 463.456 98.651 L 473.296 98.651 L 473.296 98.651 Q 473.648 98.651 473.832 98.835 L 473.832 98.835 L 473.832 98.835 Q 474.016 99.019 474.016 99.371 L 474.016 99.371 L 474.016 105.323 L 474.016 105.323 Q 474.016 105.595 473.872 105.739 L 473.872 105.739 L 473.872 105.739 Q 473.728 105.883 473.472 105.883 L 473.472 105.883 L 473.472 105.883 Q 473.2 105.883 473.056 105.739 L 473.056 105.739 L 473.056 105.739 Q 472.912 105.595 472.912 105.323 L 472.912 105.323 L 472.912 99.931 L 469.008 99.931 L 469.008 104.987 L 469.008 104.987 Q 469.008 105.259 468.872 105.403 L 468.872 105.403 L 468.872 105.403 Q 468.736 105.547 468.464 105.547 L 468.464 105.547 L 468.464 105.547 Q 468.192 105.547 468.048 105.403 L 468.048 105.403 L 468.048 105.403 Q 467.904 105.259 467.904 104.987 L 467.904 104.987 L 467.904 99.931 L 463.84 99.931 L 463.84 105.323 L 463.84 105.323 Q 463.84 105.595 463.696 105.739 L 463.696 105.739 L 463.696 105.739 Q 463.552 105.883 463.296 105.883 L 463.296 105.883 L 463.296 105.883 Q 463.024 105.883 462.88 105.739 L 462.88 105.739 L 462.88 105.739 Q 462.736 105.595 462.736 105.323 L 462.736 105.323 L 462.736 105.323 Z  M 462.624 111.195 L 462.624 111.195 L 462.624 111.195 Q 462.624 110.891 462.808 110.715 L 462.808 110.715 L 462.808 110.715 Q 462.992 110.539 463.312 110.539 L 463.312 110.539 L 472.88 110.539 L 472.88 106.939 L 472.88 106.939 Q 472.88 106.651 473.04 106.491 L 473.04 106.491 L 473.04 106.491 Q 473.2 106.331 473.456 106.331 L 473.456 106.331 L 473.456 106.331 Q 473.728 106.331 473.872 106.491 L 473.872 106.491 L 473.872 106.491 Q 474.016 106.651 474.016 106.939 L 474.016 106.939 L 474.016 115.467 L 474.016 115.467 Q 474.016 115.755 473.872 115.915 L 473.872 115.915 L 473.872 115.915 Q 473.728 116.075 473.456 116.075 L 473.456 116.075 L 473.456 116.075 Q 473.184 116.075 473.032 115.915 L 473.032 115.915 L 473.032 115.915 Q 472.88 115.755 472.88 115.467 L 472.88 115.467 L 472.88 111.867 L 463.312 111.867 L 463.312 111.867 Q 462.992 111.867 462.808 111.699 L 462.808 111.699 L 462.808 111.699 Q 462.624 111.531 462.624 111.195 Z " fill="rgb(70,70,70)"/><path d=" M 473.517 29.646 L 470.575 32.589 L 470.575 26.704 M 470.575 13.275 L 473.517 16.218 L 470.575 19.144 M 477.946 16.218 L 469.009 7.281 L 467.444 7.281 L 467.444 19.144 L 460.261 11.976 L 458.054 14.183 L 466.803 22.932 L 458.054 31.665 L 460.261 33.888 L 467.444 26.704 L 467.444 38.583 L 469.009 38.583 L 477.946 29.646 L 471.216 22.932 L 477.946 16.218 Z " fill="rgb(116,116,116)"/></g><g><path d="M 401.96 53 L 401.96 148.83 C 401.96 150.486 400.616 151.83 398.96 151.83 L 363.74 151.83 C 362.084 151.83 360.74 150.486 360.74 148.83 L 360.74 53 C 360.74 51.344 362.084 50 363.74 50 L 398.96 50 C 400.616 50 401.96 51.344 401.96 53 Z" style="stroke:none;fill:#D9D9D9;stroke-miterlimit:10;"/><path d=" M 376.084 93.229 L 376.084 87.341 L 376.084 87.341 Q 376.084 87.021 376.268 86.845 L 376.268 86.845 L 376.268 86.845 Q 376.452 86.669 376.772 86.669 L 376.772 86.669 L 386.756 86.669 L 386.756 86.669 Q 387.092 86.669 387.268 86.837 L 387.268 86.837 L 387.268 86.837 Q 387.444 87.005 387.444 87.325 L 387.444 87.325 L 387.444 87.325 Q 387.444 87.645 387.268 87.813 L 387.268 87.813 L 387.268 87.813 Q 387.092 87.981 386.756 87.981 L 386.756 87.981 L 377.236 87.981 L 377.236 93.229 L 377.236 93.229 Q 377.236 93.517 377.084 93.677 L 377.084 93.677 L 377.084 93.677 Q 376.932 93.837 376.66 93.837 L 376.66 93.837 L 376.66 93.837 Q 376.388 93.837 376.236 93.677 L 376.236 93.677 L 376.236 93.677 Q 376.084 93.517 376.084 93.229 L 376.084 93.229 L 376.084 93.229 Z  M 376.084 102.029 L 376.084 96.077 L 376.084 96.077 Q 376.084 95.725 376.268 95.541 L 376.268 95.541 L 376.268 95.541 Q 376.452 95.357 376.804 95.357 L 376.804 95.357 L 386.644 95.357 L 386.644 95.357 Q 386.996 95.357 387.18 95.541 L 387.18 95.541 L 387.18 95.541 Q 387.364 95.725 387.364 96.077 L 387.364 96.077 L 387.364 102.029 L 387.364 102.029 Q 387.364 102.301 387.22 102.445 L 387.22 102.445 L 387.22 102.445 Q 387.076 102.589 386.82 102.589 L 386.82 102.589 L 386.82 102.589 Q 386.548 102.589 386.404 102.445 L 386.404 102.445 L 386.404 102.445 Q 386.26 102.301 386.26 102.029 L 386.26 102.029 L 386.26 96.637 L 382.356 96.637 L 382.356 101.693 L 382.356 101.693 Q 382.356 101.965 382.22 102.109 L 382.22 102.109 L 382.22 102.109 Q 382.084 102.253 381.812 102.253 L 381.812 102.253 L 381.812 102.253 Q 381.54 102.253 381.396 102.109 L 381.396 102.109 L 381.396 102.109 Q 381.252 101.965 381.252 101.693 L 381.252 101.693 L 381.252 96.637 L 377.188 96.637 L 377.188 102.029 L 377.188 102.029 Q 377.188 102.301 377.044 102.445 L 377.044 102.445 L 377.044 102.445 Q 376.9 102.589 376.644 102.589 L 376.644 102.589 L 376.644 102.589 Q 376.372 102.589 376.228 102.445 L 376.228 102.445 L 376.228 102.445 Q 376.084 102.301 376.084 102.029 L 376.084 102.029 L 376.084 102.029 Z  M 376.084 108.493 L 376.084 105.405 L 376.084 105.405 Q 376.084 105.053 376.268 104.869 L 376.268 104.869 L 376.268 104.869 Q 376.452 104.685 376.804 104.685 L 376.804 104.685 L 386.644 104.685 L 386.644 104.685 Q 386.996 104.685 387.18 104.869 L 387.18 104.869 L 387.18 104.869 Q 387.364 105.053 387.364 105.405 L 387.364 105.405 L 387.364 108.493 L 387.364 108.493 Q 387.364 111.229 385.924 112.717 L 385.924 112.717 L 385.924 112.717 Q 384.484 114.205 381.732 114.205 L 381.732 114.205 L 381.732 114.205 Q 380.356 114.205 379.308 113.829 L 379.308 113.829 L 379.308 113.829 Q 378.26 113.453 377.54 112.717 L 377.54 112.717 L 377.54 112.717 Q 376.82 111.981 376.452 110.925 L 376.452 110.925 L 376.452 110.925 Q 376.084 109.869 376.084 108.493 L 376.084 108.493 L 376.084 108.493 Z  M 386.244 105.997 L 377.204 105.997 L 377.204 108.397 L 377.204 108.397 Q 377.204 109.517 377.492 110.341 L 377.492 110.341 L 377.492 110.341 Q 377.78 111.165 378.34 111.717 L 378.34 111.717 L 378.34 111.717 Q 378.9 112.269 379.756 112.541 L 379.756 112.541 L 379.756 112.541 Q 380.612 112.813 381.732 112.813 L 381.732 112.813 L 381.732 112.813 Q 383.988 112.813 385.116 111.709 L 385.116 111.709 L 385.116 111.709 Q 386.244 110.605 386.244 108.397 L 386.244 108.397 L 386.244 105.997 L 386.244 105.997 Z " fill="rgb(70,70,70)"/><path d=" M 381.348 7.399 C 377.535 7.399 374.444 10.49 374.444 14.303 L 374.444 24.658 L 370.993 24.658 L 370.993 28.11 L 376.17 28.11 L 376.17 38.465 L 379.622 38.465 L 379.622 28.11 L 383.074 28.11 L 383.074 38.465 L 386.525 38.465 L 386.525 28.11 L 391.703 28.11 L 391.703 24.658 L 388.251 24.658 L 388.251 14.303 C 388.251 10.49 385.161 7.399 381.348 7.399 Z " fill="rgb(116,116,116)"/></g><g><path d="M 315.31 53 L 315.31 148.83 C 315.31 150.486 313.966 151.83 312.31 151.83 L 277.09 151.83 C 275.434 151.83 274.09 150.486 274.09 148.83 L 274.09 53 C 274.09 51.344 275.434 50 277.09 50 L 312.31 50 C 313.966 50 315.31 51.344 315.31 53 Z" style="stroke:none;fill:#D9D9D9;stroke-miterlimit:10;"/><path d=" M 289.32 84.189 L 289.32 84.189 L 289.32 84.189 Q 289.32 83.885 289.504 83.709 L 289.504 83.709 L 289.504 83.709 Q 289.688 83.533 290.008 83.533 L 290.008 83.533 L 299.576 83.533 L 299.576 79.933 L 299.576 79.933 Q 299.576 79.645 299.736 79.485 L 299.736 79.485 L 299.736 79.485 Q 299.896 79.325 300.152 79.325 L 300.152 79.325 L 300.152 79.325 Q 300.424 79.325 300.568 79.485 L 300.568 79.485 L 300.568 79.485 Q 300.712 79.645 300.712 79.933 L 300.712 79.933 L 300.712 88.461 L 300.712 88.461 Q 300.712 88.749 300.568 88.909 L 300.568 88.909 L 300.568 88.909 Q 300.424 89.069 300.152 89.069 L 300.152 89.069 L 300.152 89.069 Q 299.88 89.069 299.728 88.909 L 299.728 88.909 L 299.728 88.909 Q 299.576 88.749 299.576 88.461 L 299.576 88.461 L 299.576 84.861 L 290.008 84.861 L 290.008 84.861 Q 289.688 84.861 289.504 84.693 L 289.504 84.693 L 289.504 84.693 Q 289.32 84.525 289.32 84.189 Z  M 289.352 91.277 L 289.352 91.277 L 289.352 91.277 Q 289.352 90.957 289.536 90.797 L 289.536 90.797 L 289.536 90.797 Q 289.72 90.637 290.056 90.637 L 290.056 90.637 L 296.6 90.637 L 296.6 90.637 Q 296.936 90.637 297.112 90.797 L 297.112 90.797 L 297.112 90.797 Q 297.288 90.957 297.288 91.277 L 297.288 91.277 L 297.288 91.277 Q 297.288 91.581 297.112 91.757 L 297.112 91.757 L 297.112 91.757 Q 296.936 91.933 296.6 91.933 L 296.6 91.933 L 290.056 91.933 L 290.056 91.933 Q 289.72 91.933 289.536 91.765 L 289.536 91.765 L 289.536 91.765 Q 289.352 91.597 289.352 91.277 Z  M 299.08 91.277 L 299.08 91.277 L 299.08 91.277 Q 299.08 90.877 299.296 90.653 L 299.296 90.653 L 299.296 90.653 Q 299.512 90.429 299.88 90.429 L 299.88 90.429 L 299.88 90.429 Q 300.264 90.429 300.464 90.653 L 300.464 90.653 L 300.464 90.653 Q 300.664 90.877 300.664 91.277 L 300.664 91.277 L 300.664 91.277 Q 300.664 91.693 300.464 91.909 L 300.464 91.909 L 300.464 91.909 Q 300.264 92.125 299.88 92.125 L 299.88 92.125 L 299.88 92.125 Q 299.512 92.125 299.296 91.909 L 299.296 91.909 L 299.296 91.909 Q 299.08 91.693 299.08 91.277 Z  M 289.32 95.021 L 289.32 95.021 L 289.32 95.021 Q 289.32 94.701 289.496 94.541 L 289.496 94.541 L 289.496 94.541 Q 289.672 94.381 289.992 94.381 L 289.992 94.381 L 296.664 94.381 L 296.664 94.381 Q 296.984 94.381 297.152 94.541 L 297.152 94.541 L 297.152 94.541 Q 297.32 94.701 297.32 95.005 L 297.32 95.005 L 297.32 95.005 Q 297.32 95.309 297.152 95.477 L 297.152 95.477 L 297.152 95.477 Q 296.984 95.645 296.664 95.645 L 296.664 95.645 L 295.256 95.645 L 295.48 95.469 L 295.48 95.469 Q 296.376 95.773 296.864 96.453 L 296.864 96.453 L 296.864 96.453 Q 297.352 97.133 297.352 98.077 L 297.352 98.077 L 297.352 98.077 Q 297.352 99.069 296.88 99.685 L 296.88 99.685 L 296.88 99.685 Q 296.408 100.301 295.416 100.509 L 295.416 100.509 L 295.416 100.269 L 295.416 100.269 Q 296.312 100.557 296.832 101.301 L 296.832 101.301 L 296.832 101.301 Q 297.352 102.045 297.352 103.037 L 297.352 103.037 L 297.352 103.037 Q 297.352 103.917 297.016 104.485 L 297.016 104.485 L 297.016 104.485 Q 296.68 105.053 296 105.341 L 296 105.341 L 296 105.341 Q 295.32 105.629 294.28 105.629 L 294.28 105.629 L 289.992 105.629 L 289.992 105.629 Q 289.672 105.629 289.496 105.461 L 289.496 105.461 L 289.496 105.461 Q 289.32 105.293 289.32 104.973 L 289.32 104.973 L 289.32 104.973 Q 289.32 104.669 289.496 104.501 L 289.496 104.501 L 289.496 104.501 Q 289.672 104.333 289.992 104.333 L 289.992 104.333 L 294.216 104.333 L 294.216 104.333 Q 295.288 104.333 295.792 103.965 L 295.792 103.965 L 295.792 103.965 Q 296.296 103.597 296.296 102.717 L 296.296 102.717 L 296.296 102.717 Q 296.296 101.757 295.632 101.205 L 295.632 101.205 L 295.632 101.205 Q 294.968 100.653 293.832 100.653 L 293.832 100.653 L 289.992 100.653 L 289.992 100.653 Q 289.672 100.653 289.496 100.485 L 289.496 100.485 L 289.496 100.485 Q 289.32 100.317 289.32 99.997 L 289.32 99.997 L 289.32 99.997 Q 289.32 99.693 289.496 99.525 L 289.496 99.525 L 289.496 99.525 Q 289.672 99.357 289.992 99.357 L 289.992 99.357 L 294.216 99.357 L 294.216 99.357 Q 295.288 99.357 295.792 98.981 L 295.792 98.981 L 295.792 98.981 Q 296.296 98.605 296.296 97.741 L 296.296 97.741 L 296.296 97.741 Q 296.296 96.781 295.632 96.229 L 295.632 96.229 L 295.632 96.229 Q 294.968 95.677 293.832 95.677 L 293.832 95.677 L 289.992 95.677 L 289.992 95.677 Q 289.32 95.677 289.32 95.021 Z  M 289.288 111.549 L 289.288 111.549 L 289.288 111.549 Q 289.288 110.317 289.776 109.429 L 289.776 109.429 L 289.776 109.429 Q 290.264 108.541 291.16 108.053 L 291.16 108.053 L 291.16 108.053 Q 292.056 107.565 293.304 107.565 L 293.304 107.565 L 293.304 107.565 Q 294.52 107.565 295.424 108.045 L 295.424 108.045 L 295.424 108.045 Q 296.328 108.525 296.84 109.365 L 296.84 109.365 L 296.84 109.365 Q 297.352 110.205 297.352 111.309 L 297.352 111.309 L 297.352 111.309 Q 297.352 112.093 297.088 112.717 L 297.088 112.717 L 297.088 112.717 Q 296.824 113.341 296.328 113.781 L 296.328 113.781 L 296.328 113.781 Q 295.832 114.221 295.128 114.453 L 295.128 114.453 L 295.128 114.453 Q 294.424 114.685 293.544 114.685 L 293.544 114.685 L 293.544 114.685 Q 293.288 114.685 293.168 114.541 L 293.168 114.541 L 293.168 114.541 Q 293.048 114.397 293.048 114.125 L 293.048 114.125 L 293.048 108.557 L 293.896 108.557 L 293.896 113.821 L 293.688 113.565 L 293.688 113.565 Q 294.552 113.565 295.152 113.309 L 295.152 113.309 L 295.152 113.309 Q 295.752 113.053 296.072 112.565 L 296.072 112.565 L 296.072 112.565 Q 296.392 112.077 296.392 111.341 L 296.392 111.341 L 296.392 111.341 Q 296.392 110.525 296.016 109.957 L 296.016 109.957 L 296.016 109.957 Q 295.64 109.389 294.976 109.101 L 294.976 109.101 L 294.976 109.101 Q 294.312 108.813 293.432 108.813 L 293.432 108.813 L 293.336 108.813 L 293.336 108.813 Q 291.864 108.813 291.096 109.525 L 291.096 109.525 L 291.096 109.525 Q 290.328 110.237 290.328 111.549 L 290.328 111.549 L 290.328 111.549 Q 290.328 112.093 290.472 112.629 L 290.472 112.629 L 290.472 112.629 Q 290.616 113.165 290.952 113.677 L 290.952 113.677 L 290.952 113.677 Q 291.096 113.901 291.088 114.085 L 291.088 114.085 L 291.088 114.085 Q 291.08 114.269 290.976 114.381 L 290.976 114.381 L 290.976 114.381 Q 290.872 114.493 290.72 114.533 L 290.72 114.533 L 290.72 114.533 Q 290.568 114.573 290.392 114.501 L 290.392 114.501 L 290.392 114.501 Q 290.216 114.429 290.088 114.221 L 290.088 114.221 L 290.088 114.221 Q 289.704 113.693 289.496 112.973 L 289.496 112.973 L 289.496 112.973 Q 289.288 112.253 289.288 111.549 Z  M 289.32 117.213 L 289.32 117.213 L 289.32 117.213 Q 289.32 116.893 289.496 116.725 L 289.496 116.725 L 289.496 116.725 Q 289.672 116.557 289.992 116.557 L 289.992 116.557 L 296.664 116.557 L 296.664 116.557 Q 296.984 116.557 297.152 116.717 L 297.152 116.717 L 297.152 116.717 Q 297.32 116.877 297.32 117.181 L 297.32 117.181 L 297.32 117.181 Q 297.32 117.485 297.152 117.653 L 297.152 117.653 L 297.152 117.653 Q 296.984 117.821 296.664 117.821 L 296.664 117.821 L 295.368 117.821 L 295.368 117.661 L 295.368 117.661 Q 296.312 117.917 296.824 118.637 L 296.824 118.637 L 296.824 118.637 Q 297.336 119.357 297.368 120.413 L 297.368 120.413 L 297.368 120.413 Q 297.384 120.653 297.264 120.797 L 297.264 120.797 L 297.264 120.797 Q 297.144 120.941 296.856 120.957 L 296.856 120.957 L 296.856 120.957 Q 296.584 120.973 296.424 120.829 L 296.424 120.829 L 296.424 120.829 Q 296.264 120.685 296.232 120.381 L 296.232 120.381 L 296.2 120.125 L 296.2 120.125 Q 296.104 119.037 295.504 118.453 L 295.504 118.453 L 295.504 118.453 Q 294.904 117.869 293.864 117.869 L 293.864 117.869 L 289.992 117.869 L 289.992 117.869 Q 289.672 117.869 289.496 117.701 L 289.496 117.701 L 289.496 117.701 Q 289.32 117.533 289.32 117.213 Z " fill="rgb(70,70,70)"/><path d=" M 302.809 15.976 C 302.243 15.335 301.677 14.756 301.035 14.203 L 299.249 16.014 C 297.299 14.429 294.847 13.498 292.18 13.498 C 285.929 13.498 280.86 18.567 280.86 24.819 C 280.86 31.07 285.929 36.139 292.18 36.139 C 298.469 36.139 303.501 31.07 303.501 24.819 C 303.501 22.152 302.57 19.699 301.023 17.762 L 302.809 15.976 Z  M 293.438 26.076 L 290.922 26.076 L 290.922 17.272 L 293.438 17.272 L 293.438 26.076 Z  M 295.954 12.24 L 288.407 12.24 L 288.407 9.725 L 295.954 9.725 L 295.954 12.24 Z  M 308.532 17.272 L 308.532 24.819 L 306.016 24.819 L 306.016 17.272 L 308.532 17.272 Z  M 306.016 27.334 L 308.532 27.334 L 308.532 29.85 L 306.016 29.85 L 306.016 27.334 Z " fill="rgb(116,116,116)"/></g><g><path d="M 16.571 154.97 L 491.719 154.97 C 493.53 154.97 495 156.44 495 158.251 L 495 214.429 C 495 216.24 493.53 217.71 491.719 217.71 L 16.571 217.71 C 14.76 217.71 13.29 216.24 13.29 214.429 L 13.29 158.251 C 13.29 156.44 14.76 154.97 16.571 154.97 Z" style="stroke:none;fill:#6931D0;stroke-miterlimit:10;"/><path d=" M 39.577 195.56 L 31.581 195.56 L 31.581 193.496 L 36.318 180.176 L 31.842 180.176 L 31.842 177.96 L 39.556 177.96 L 39.556 179.611 L 34.645 193.344 L 39.577 193.344 L 39.577 195.56 L 39.577 195.56 Z  M 46.422 195.56 L 41.359 195.56 L 41.359 177.96 L 45.683 177.96 L 45.683 177.96 Q 46.856 177.96 47.802 178.177 L 47.802 178.177 L 47.802 178.177 Q 48.747 178.395 49.431 178.905 L 49.431 178.905 L 49.431 178.905 Q 50.116 179.416 50.485 180.285 L 50.485 180.285 L 50.485 180.285 Q 50.854 181.154 50.854 182.48 L 50.854 182.48 L 50.854 182.48 Q 50.854 183.544 50.561 184.305 L 50.561 184.305 L 50.561 184.305 Q 50.268 185.065 49.703 185.511 L 49.703 185.511 L 49.703 185.511 Q 49.138 185.956 48.29 186.108 L 48.29 186.108 L 48.29 186.108 Q 49.333 186.282 50.018 186.836 L 50.018 186.836 L 50.018 186.836 Q 50.702 187.39 51.039 188.281 L 51.039 188.281 L 51.039 188.281 Q 51.376 189.172 51.376 190.432 L 51.376 190.432 L 51.376 190.432 Q 51.376 191.693 51.061 192.659 L 51.061 192.659 L 51.061 192.659 Q 50.746 193.626 50.127 194.267 L 50.127 194.267 L 50.127 194.267 Q 49.507 194.908 48.584 195.234 L 48.584 195.234 L 48.584 195.234 Q 47.66 195.56 46.422 195.56 L 46.422 195.56 L 46.422 195.56 Z  M 44.575 187.368 L 44.575 193.3 L 45.792 193.3 L 45.792 193.3 Q 47.247 193.3 47.769 192.594 L 47.769 192.594 L 47.769 192.594 Q 48.29 191.888 48.29 190.411 L 48.29 190.411 L 48.29 190.411 Q 48.29 189.346 48.041 188.683 L 48.041 188.683 L 48.041 188.683 Q 47.791 188.02 47.215 187.694 L 47.215 187.694 L 47.215 187.694 Q 46.639 187.368 45.683 187.368 L 45.683 187.368 L 44.575 187.368 L 44.575 187.368 Z  M 44.575 180.198 L 44.575 185.152 L 45.661 185.152 L 45.661 185.152 Q 46.617 185.152 47.139 184.87 L 47.139 184.87 L 47.139 184.87 Q 47.66 184.587 47.867 184.001 L 47.867 184.001 L 47.867 184.001 Q 48.073 183.414 48.073 182.523 L 48.073 182.523 L 48.073 182.523 Q 48.073 181.589 47.758 181.078 L 47.758 181.078 L 47.758 181.078 Q 47.443 180.567 46.813 180.383 L 46.813 180.383 L 46.813 180.383 Q 46.183 180.198 45.205 180.198 L 45.205 180.198 L 44.575 180.198 L 44.575 180.198 Z  M 58.286 195.799 L 58.286 195.799 L 58.286 195.799 Q 56.33 195.799 55.244 195.082 L 55.244 195.082 L 55.244 195.082 Q 54.157 194.365 53.744 193.04 L 53.744 193.04 L 53.744 193.04 Q 53.332 191.714 53.332 189.867 L 53.332 189.867 L 53.332 177.96 L 56.46 177.96 L 56.46 190.237 L 56.46 190.237 Q 56.46 191.062 56.569 191.79 L 56.569 191.79 L 56.569 191.79 Q 56.678 192.518 57.08 192.964 L 57.08 192.964 L 57.08 192.964 Q 57.482 193.409 58.286 193.409 L 58.286 193.409 L 58.286 193.409 Q 59.133 193.409 59.513 192.964 L 59.513 192.964 L 59.513 192.964 Q 59.894 192.518 60.013 191.79 L 60.013 191.79 L 60.013 191.79 Q 60.133 191.062 60.133 190.237 L 60.133 190.237 L 60.133 177.96 L 63.24 177.96 L 63.24 189.867 L 63.24 189.867 Q 63.24 191.714 62.827 193.04 L 62.827 193.04 L 62.827 193.04 Q 62.414 194.365 61.339 195.082 L 61.339 195.082 L 61.339 195.082 Q 60.263 195.799 58.286 195.799 Z  M 70.193 195.799 L 70.193 195.799 L 70.193 195.799 Q 68.607 195.799 67.542 195.18 L 67.542 195.18 L 67.542 195.18 Q 66.477 194.561 65.934 193.366 L 65.934 193.366 L 65.934 193.366 Q 65.391 192.171 65.326 190.432 L 65.326 190.432 L 68.085 189.889 L 68.085 189.889 Q 68.129 190.91 68.335 191.693 L 68.335 191.693 L 68.335 191.693 Q 68.542 192.475 68.965 192.898 L 68.965 192.898 L 68.965 192.898 Q 69.389 193.322 70.084 193.322 L 70.084 193.322 L 70.084 193.322 Q 70.867 193.322 71.193 192.855 L 71.193 192.855 L 71.193 192.855 Q 71.518 192.388 71.518 191.671 L 71.518 191.671 L 71.518 191.671 Q 71.518 190.519 70.997 189.78 L 70.997 189.78 L 70.997 189.78 Q 70.475 189.042 69.606 188.303 L 69.606 188.303 L 67.39 186.347 L 67.39 186.347 Q 66.456 185.543 65.902 184.555 L 65.902 184.555 L 65.902 184.555 Q 65.348 183.566 65.348 182.11 L 65.348 182.11 L 65.348 182.11 Q 65.348 180.024 66.564 178.894 L 66.564 178.894 L 66.564 178.894 Q 67.781 177.764 69.889 177.764 L 69.889 177.764 L 69.889 177.764 Q 71.127 177.764 71.953 178.145 L 71.953 178.145 L 71.953 178.145 Q 72.779 178.525 73.268 179.198 L 73.268 179.198 L 73.268 179.198 Q 73.757 179.872 73.996 180.73 L 73.996 180.73 L 73.996 180.73 Q 74.235 181.589 74.3 182.545 L 74.3 182.545 L 71.562 183.023 L 71.562 183.023 Q 71.518 182.197 71.377 181.545 L 71.377 181.545 L 71.377 181.545 Q 71.236 180.893 70.877 180.524 L 70.877 180.524 L 70.877 180.524 Q 70.519 180.155 69.824 180.155 L 69.824 180.155 L 69.824 180.155 Q 69.107 180.155 68.726 180.622 L 68.726 180.622 L 68.726 180.622 Q 68.346 181.089 68.346 181.784 L 68.346 181.784 L 68.346 181.784 Q 68.346 182.675 68.715 183.251 L 68.715 183.251 L 68.715 183.251 Q 69.085 183.827 69.78 184.435 L 69.78 184.435 L 71.975 186.369 L 71.975 186.369 Q 73.061 187.282 73.833 188.509 L 73.833 188.509 L 73.833 188.509 Q 74.604 189.737 74.604 191.475 L 74.604 191.475 L 74.604 191.475 Q 74.604 192.735 74.05 193.713 L 74.05 193.713 L 74.05 193.713 Q 73.496 194.691 72.507 195.245 L 72.507 195.245 L 72.507 195.245 Q 71.518 195.799 70.193 195.799 Z " fill="rgb(232,232,232)"/><g><path d="M 99.999 165.77 L 175.061 165.77 C 176.86 165.77 178.32 167.23 178.32 169.029 L 178.32 203.661 C 178.32 205.46 176.86 206.92 175.061 206.92 L 99.999 206.92 C 98.2 206.92 96.74 205.46 96.74 203.661 L 96.74 169.029 C 96.74 167.23 98.2 165.77 99.999 165.77 Z" style="stroke:none;fill:#3A8BF1;stroke-miterlimit:10;"/><g opacity="0.87"><path d=" M 160.418 192.151 L 158.769 192.151 L 158.769 184.299 L 158.769 184.299 Q 158.697 184.335 158.488 184.407 L 158.488 184.407 L 158.488 184.407 Q 158.279 184.479 158.028 184.544 L 158.028 184.544 L 158.028 184.544 Q 157.777 184.61 157.568 184.67 L 157.568 184.67 L 157.568 184.67 Q 157.359 184.73 157.275 184.765 L 157.275 184.765 L 157.275 183.534 L 157.275 183.534 Q 157.442 183.475 157.693 183.367 L 157.693 183.367 L 157.693 183.367 Q 157.944 183.26 158.225 183.122 L 158.225 183.122 L 158.225 183.122 Q 158.506 182.985 158.751 182.817 L 158.751 182.817 L 158.751 182.817 Q 158.996 182.65 159.151 182.471 L 159.151 182.471 L 160.418 182.471 L 160.418 192.151 L 160.418 192.151 Z  M 114.575 192.282 L 114.575 192.282 L 114.575 192.282 Q 113.511 192.282 112.908 191.864 L 112.908 191.864 L 112.908 191.864 Q 112.304 191.446 112.065 190.723 L 112.065 190.723 L 112.065 190.723 Q 111.826 190 111.826 189.056 L 111.826 189.056 L 111.826 185.602 L 111.826 185.602 Q 111.826 184.61 112.065 183.881 L 112.065 183.881 L 112.065 183.881 Q 112.304 183.152 112.908 182.758 L 112.908 182.758 L 112.908 182.758 Q 113.511 182.363 114.575 182.363 L 114.575 182.363 L 114.575 182.363 Q 115.579 182.363 116.146 182.704 L 116.146 182.704 L 116.146 182.704 Q 116.714 183.044 116.953 183.678 L 116.953 183.678 L 116.953 183.678 Q 117.192 184.311 117.192 185.148 L 117.192 185.148 L 117.192 185.96 L 115.495 185.96 L 115.495 185.124 L 115.495 185.124 Q 115.495 184.718 115.453 184.383 L 115.453 184.383 L 115.453 184.383 Q 115.411 184.048 115.226 183.851 L 115.226 183.851 L 115.226 183.851 Q 115.041 183.654 114.587 183.654 L 114.587 183.654 L 114.587 183.654 Q 114.133 183.654 113.923 183.863 L 113.923 183.863 L 113.923 183.863 Q 113.714 184.072 113.655 184.425 L 113.655 184.425 L 113.655 184.425 Q 113.595 184.777 113.595 185.22 L 113.595 185.22 L 113.595 189.426 L 113.595 189.426 Q 113.595 189.952 113.678 190.293 L 113.678 190.293 L 113.678 190.293 Q 113.762 190.633 113.983 190.807 L 113.983 190.807 L 113.983 190.807 Q 114.204 190.98 114.587 190.98 L 114.587 190.98 L 114.587 190.98 Q 115.029 190.98 115.214 190.771 L 115.214 190.771 L 115.214 190.771 Q 115.399 190.562 115.447 190.215 L 115.447 190.215 L 115.447 190.215 Q 115.495 189.868 115.495 189.438 L 115.495 189.438 L 115.495 188.566 L 117.192 188.566 L 117.192 189.343 L 117.192 189.343 Q 117.192 190.203 116.965 190.866 L 116.965 190.866 L 116.965 190.866 Q 116.738 191.53 116.17 191.906 L 116.17 191.906 L 116.17 191.906 Q 115.603 192.282 114.575 192.282 Z  M 120.204 192.151 L 118.447 192.151 L 118.447 182.471 L 120.204 182.471 L 120.204 186.522 L 122.175 186.522 L 122.175 182.471 L 123.944 182.471 L 123.944 192.151 L 122.175 192.151 L 122.175 187.777 L 120.204 187.777 L 120.204 192.151 L 120.204 192.151 Z  M 126.597 192.151 L 124.936 192.151 L 126.872 182.471 L 128.76 182.471 L 130.696 192.151 L 129.059 192.151 L 128.677 189.916 L 126.992 189.916 L 126.597 192.151 L 126.597 192.151 Z  M 127.828 184.73 L 127.171 188.793 L 128.485 188.793 L 127.828 184.73 L 127.828 184.73 Z  M 133.122 192.151 L 131.617 192.151 L 131.617 182.471 L 132.848 182.471 L 135.202 187.992 L 135.202 182.471 L 136.66 182.471 L 136.66 192.151 L 135.489 192.151 L 133.122 186.367 L 133.122 192.151 L 133.122 192.151 Z  M 139.636 192.151 L 138.13 192.151 L 138.13 182.471 L 139.361 182.471 L 141.715 187.992 L 141.715 182.471 L 143.173 182.471 L 143.173 192.151 L 142.002 192.151 L 139.636 186.367 L 139.636 192.151 L 139.636 192.151 Z  M 148.73 192.151 L 144.643 192.151 L 144.643 182.471 L 148.706 182.471 L 148.706 183.714 L 146.412 183.714 L 146.412 186.498 L 148.216 186.498 L 148.216 187.729 L 146.412 187.729 L 146.412 190.932 L 148.73 190.932 L 148.73 192.151 L 148.73 192.151 Z  M 153.869 192.151 L 149.758 192.151 L 149.758 182.471 L 151.527 182.471 L 151.527 190.932 L 153.869 190.932 L 153.869 192.151 L 153.869 192.151 Z " fill="rgb(255,255,255)"/></g></g><g><path d="M 192.999 165.77 L 275.141 165.77 C 276.94 165.77 278.4 167.23 278.4 169.029 L 278.4 203.661 C 278.4 205.46 276.94 206.92 275.141 206.92 L 192.999 206.92 C 191.2 206.92 189.74 205.46 189.74 203.661 L 189.74 169.029 C 189.74 167.23 191.2 165.77 192.999 165.77 Z" style="stroke:none;fill:#3A8BF1;stroke-miterlimit:10;"/><g opacity="0.87"><path d=" M 258.186 191.744 L 253.37 191.744 L 253.37 190.572 L 255.76 186.88 L 255.76 186.88 Q 256.023 186.473 256.256 186.103 L 256.256 186.103 L 256.256 186.103 Q 256.489 185.732 256.638 185.332 L 256.638 185.332 L 256.638 185.332 Q 256.788 184.932 256.788 184.454 L 256.788 184.454 L 256.788 184.454 Q 256.788 183.916 256.597 183.629 L 256.597 183.629 L 256.597 183.629 Q 256.405 183.342 255.999 183.342 L 255.999 183.342 L 255.999 183.342 Q 255.617 183.342 255.402 183.557 L 255.402 183.557 L 255.402 183.557 Q 255.186 183.772 255.109 184.119 L 255.109 184.119 L 255.109 184.119 Q 255.031 184.466 255.031 184.884 L 255.031 184.884 L 255.031 185.29 L 253.406 185.29 L 253.406 184.86 L 253.406 184.86 Q 253.406 183.999 253.663 183.348 L 253.663 183.348 L 253.663 183.348 Q 253.92 182.697 254.481 182.326 L 254.481 182.326 L 254.481 182.326 Q 255.043 181.956 255.951 181.956 L 255.951 181.956 L 255.951 181.956 Q 257.194 181.956 257.816 182.625 L 257.816 182.625 L 257.816 182.625 Q 258.437 183.294 258.437 184.489 L 258.437 184.489 L 258.437 184.489 Q 258.437 185.087 258.27 185.571 L 258.27 185.571 L 258.27 185.571 Q 258.102 186.055 257.828 186.497 L 257.828 186.497 L 257.828 186.497 Q 257.553 186.939 257.23 187.405 L 257.23 187.405 L 255.246 190.417 L 258.186 190.417 L 258.186 191.744 L 258.186 191.744 Z  M 210.49 191.875 L 210.49 191.875 L 210.49 191.875 Q 209.427 191.875 208.823 191.457 L 208.823 191.457 L 208.823 191.457 Q 208.22 191.038 207.981 190.315 L 207.981 190.315 L 207.981 190.315 Q 207.742 189.592 207.742 188.648 L 207.742 188.648 L 207.742 185.195 L 207.742 185.195 Q 207.742 184.203 207.981 183.474 L 207.981 183.474 L 207.981 183.474 Q 208.22 182.745 208.823 182.35 L 208.823 182.35 L 208.823 182.35 Q 209.427 181.956 210.49 181.956 L 210.49 181.956 L 210.49 181.956 Q 211.494 181.956 212.062 182.296 L 212.062 182.296 L 212.062 182.296 Q 212.63 182.637 212.869 183.27 L 212.869 183.27 L 212.869 183.27 Q 213.108 183.904 213.108 184.74 L 213.108 184.74 L 213.108 185.553 L 211.411 185.553 L 211.411 184.717 L 211.411 184.717 Q 211.411 184.31 211.369 183.976 L 211.369 183.976 L 211.369 183.976 Q 211.327 183.641 211.142 183.444 L 211.142 183.444 L 211.142 183.444 Q 210.957 183.247 210.502 183.247 L 210.502 183.247 L 210.502 183.247 Q 210.048 183.247 209.839 183.456 L 209.839 183.456 L 209.839 183.456 Q 209.63 183.665 209.57 184.017 L 209.57 184.017 L 209.57 184.017 Q 209.51 184.37 209.51 184.812 L 209.51 184.812 L 209.51 189.019 L 209.51 189.019 Q 209.51 189.545 209.594 189.885 L 209.594 189.885 L 209.594 189.885 Q 209.678 190.226 209.899 190.399 L 209.899 190.399 L 209.899 190.399 Q 210.12 190.572 210.502 190.572 L 210.502 190.572 L 210.502 190.572 Q 210.945 190.572 211.13 190.363 L 211.13 190.363 L 211.13 190.363 Q 211.315 190.154 211.363 189.808 L 211.363 189.808 L 211.363 189.808 Q 211.411 189.461 211.411 189.031 L 211.411 189.031 L 211.411 188.158 L 213.108 188.158 L 213.108 188.935 L 213.108 188.935 Q 213.108 189.796 212.881 190.459 L 212.881 190.459 L 212.881 190.459 Q 212.654 191.122 212.086 191.499 L 212.086 191.499 L 212.086 191.499 Q 211.518 191.875 210.49 191.875 Z  M 216.119 191.744 L 214.363 191.744 L 214.363 182.063 L 216.119 182.063 L 216.119 186.115 L 218.091 186.115 L 218.091 182.063 L 219.86 182.063 L 219.86 191.744 L 218.091 191.744 L 218.091 187.37 L 216.119 187.37 L 216.119 191.744 L 216.119 191.744 Z  M 222.513 191.744 L 220.852 191.744 L 222.788 182.063 L 224.676 182.063 L 226.612 191.744 L 224.975 191.744 L 224.592 189.509 L 222.907 189.509 L 222.513 191.744 L 222.513 191.744 Z  M 223.744 184.322 L 223.087 188.385 L 224.401 188.385 L 223.744 184.322 L 223.744 184.322 Z  M 229.038 191.744 L 227.532 191.744 L 227.532 182.063 L 228.763 182.063 L 231.118 187.585 L 231.118 182.063 L 232.576 182.063 L 232.576 191.744 L 231.404 191.744 L 229.038 185.959 L 229.038 191.744 L 229.038 191.744 Z  M 235.551 191.744 L 234.045 191.744 L 234.045 182.063 L 235.276 182.063 L 237.631 187.585 L 237.631 182.063 L 239.089 182.063 L 239.089 191.744 L 237.918 191.744 L 235.551 185.959 L 235.551 191.744 L 235.551 191.744 Z  M 244.646 191.744 L 240.559 191.744 L 240.559 182.063 L 244.622 182.063 L 244.622 183.306 L 242.327 183.306 L 242.327 186.091 L 244.132 186.091 L 244.132 187.322 L 242.327 187.322 L 242.327 190.525 L 244.646 190.525 L 244.646 191.744 L 244.646 191.744 Z  M 249.785 191.744 L 245.674 191.744 L 245.674 182.063 L 247.442 182.063 L 247.442 190.525 L 249.785 190.525 L 249.785 191.744 L 249.785 191.744 Z " fill="rgb(255,255,255)"/></g></g><g><path d="M 293.089 165.77 L 375.231 165.77 C 377.03 165.77 378.49 167.23 378.49 169.029 L 378.49 203.661 C 378.49 205.46 377.03 206.92 375.231 206.92 L 293.089 206.92 C 291.29 206.92 289.83 205.46 289.83 203.661 L 289.83 169.029 C 289.83 167.23 291.29 165.77 293.089 165.77 Z" style="stroke:none;fill:#3A8BF1;stroke-miterlimit:10;"/><g opacity="0.87"><path d=" M 355.957 192.294 L 355.957 192.294 L 355.957 192.294 Q 355.049 192.294 354.493 191.954 L 354.493 191.954 L 354.493 191.954 Q 353.938 191.613 353.687 190.986 L 353.687 190.986 L 353.687 190.986 Q 353.436 190.358 353.436 189.522 L 353.436 189.522 L 353.436 189.187 L 355.073 189.187 L 355.073 189.187 Q 355.073 189.223 355.073 189.307 L 355.073 189.307 L 355.073 189.307 Q 355.073 189.39 355.073 189.474 L 355.073 189.474 L 355.073 189.474 Q 355.085 189.928 355.157 190.251 L 355.157 190.251 L 355.157 190.251 Q 355.228 190.573 355.426 190.741 L 355.426 190.741 L 355.426 190.741 Q 355.623 190.908 355.969 190.908 L 355.969 190.908 L 355.969 190.908 Q 356.34 190.908 356.525 190.729 L 356.525 190.729 L 356.525 190.729 Q 356.71 190.55 356.776 190.203 L 356.776 190.203 L 356.776 190.203 Q 356.842 189.856 356.842 189.378 L 356.842 189.378 L 356.842 189.378 Q 356.842 188.637 356.609 188.213 L 356.609 188.213 L 356.609 188.213 Q 356.376 187.789 355.706 187.753 L 355.706 187.753 L 355.706 187.753 Q 355.683 187.753 355.593 187.753 L 355.593 187.753 L 355.593 187.753 Q 355.503 187.753 355.432 187.753 L 355.432 187.753 L 355.432 186.427 L 355.432 186.427 Q 355.491 186.427 355.557 186.427 L 355.557 186.427 L 355.557 186.427 Q 355.623 186.427 355.683 186.427 L 355.683 186.427 L 355.683 186.427 Q 356.34 186.415 356.591 186.074 L 356.591 186.074 L 356.591 186.074 Q 356.842 185.733 356.842 184.981 L 356.842 184.981 L 356.842 184.981 Q 356.842 184.371 356.657 184.024 L 356.657 184.024 L 356.657 184.024 Q 356.471 183.678 355.945 183.678 L 355.945 183.678 L 355.945 183.678 Q 355.432 183.678 355.258 184.06 L 355.258 184.06 L 355.258 184.06 Q 355.085 184.443 355.073 185.052 L 355.073 185.052 L 355.073 185.052 Q 355.073 185.136 355.073 185.226 L 355.073 185.226 L 355.073 185.226 Q 355.073 185.315 355.073 185.411 L 355.073 185.411 L 353.436 185.411 L 353.436 184.945 L 353.436 184.945 Q 353.436 184.12 353.729 183.54 L 353.729 183.54 L 353.729 183.54 Q 354.021 182.961 354.583 182.656 L 354.583 182.656 L 354.583 182.656 Q 355.145 182.351 355.945 182.351 L 355.945 182.351 L 355.945 182.351 Q 356.77 182.351 357.332 182.65 L 357.332 182.65 L 357.332 182.65 Q 357.893 182.949 358.186 183.517 L 358.186 183.517 L 358.186 183.517 Q 358.479 184.084 358.479 184.909 L 358.479 184.909 L 358.479 184.909 Q 358.479 185.769 358.121 186.319 L 358.121 186.319 L 358.121 186.319 Q 357.762 186.869 357.2 187.036 L 357.2 187.036 L 357.2 187.036 Q 357.583 187.156 357.87 187.448 L 357.87 187.448 L 357.87 187.448 Q 358.156 187.741 358.318 188.213 L 358.318 188.213 L 358.318 188.213 Q 358.479 188.685 358.479 189.355 L 358.479 189.355 L 358.479 189.355 Q 358.479 190.227 358.234 190.89 L 358.234 190.89 L 358.234 190.89 Q 357.989 191.553 357.433 191.924 L 357.433 191.924 L 357.433 191.924 Q 356.878 192.294 355.957 192.294 Z  M 310.58 192.282 L 310.58 192.282 L 310.58 192.282 Q 309.517 192.282 308.913 191.864 L 308.913 191.864 L 308.913 191.864 Q 308.31 191.446 308.071 190.723 L 308.071 190.723 L 308.071 190.723 Q 307.832 190 307.832 189.056 L 307.832 189.056 L 307.832 185.602 L 307.832 185.602 Q 307.832 184.61 308.071 183.881 L 308.071 183.881 L 308.071 183.881 Q 308.31 183.152 308.913 182.758 L 308.913 182.758 L 308.913 182.758 Q 309.517 182.363 310.58 182.363 L 310.58 182.363 L 310.58 182.363 Q 311.584 182.363 312.152 182.704 L 312.152 182.704 L 312.152 182.704 Q 312.719 183.044 312.958 183.678 L 312.958 183.678 L 312.958 183.678 Q 313.197 184.311 313.197 185.148 L 313.197 185.148 L 313.197 185.96 L 311.5 185.96 L 311.5 185.124 L 311.5 185.124 Q 311.5 184.718 311.459 184.383 L 311.459 184.383 L 311.459 184.383 Q 311.417 184.048 311.232 183.851 L 311.232 183.851 L 311.232 183.851 Q 311.046 183.654 310.592 183.654 L 310.592 183.654 L 310.592 183.654 Q 310.138 183.654 309.929 183.863 L 309.929 183.863 L 309.929 183.863 Q 309.72 184.072 309.66 184.425 L 309.66 184.425 L 309.66 184.425 Q 309.6 184.777 309.6 185.22 L 309.6 185.22 L 309.6 189.426 L 309.6 189.426 Q 309.6 189.952 309.684 190.293 L 309.684 190.293 L 309.684 190.293 Q 309.768 190.633 309.989 190.807 L 309.989 190.807 L 309.989 190.807 Q 310.21 190.98 310.592 190.98 L 310.592 190.98 L 310.592 190.98 Q 311.034 190.98 311.22 190.771 L 311.22 190.771 L 311.22 190.771 Q 311.405 190.562 311.453 190.215 L 311.453 190.215 L 311.453 190.215 Q 311.5 189.868 311.5 189.438 L 311.5 189.438 L 311.5 188.566 L 313.197 188.566 L 313.197 189.343 L 313.197 189.343 Q 313.197 190.203 312.97 190.866 L 312.97 190.866 L 312.97 190.866 Q 312.743 191.53 312.176 191.906 L 312.176 191.906 L 312.176 191.906 Q 311.608 192.282 310.58 192.282 Z  M 316.209 192.151 L 314.452 192.151 L 314.452 182.471 L 316.209 182.471 L 316.209 186.522 L 318.181 186.522 L 318.181 182.471 L 319.95 182.471 L 319.95 192.151 L 318.181 192.151 L 318.181 187.777 L 316.209 187.777 L 316.209 192.151 L 316.209 192.151 Z  M 322.603 192.151 L 320.942 192.151 L 322.878 182.471 L 324.766 182.471 L 326.702 192.151 L 325.065 192.151 L 324.682 189.916 L 322.997 189.916 L 322.603 192.151 L 322.603 192.151 Z  M 323.834 184.73 L 323.176 188.793 L 324.491 188.793 L 323.834 184.73 L 323.834 184.73 Z  M 329.128 192.151 L 327.622 192.151 L 327.622 182.471 L 328.853 182.471 L 331.207 187.992 L 331.207 182.471 L 332.665 182.471 L 332.665 192.151 L 331.494 192.151 L 329.128 186.367 L 329.128 192.151 L 329.128 192.151 Z  M 335.641 192.151 L 334.135 192.151 L 334.135 182.471 L 335.366 182.471 L 337.721 187.992 L 337.721 182.471 L 339.178 182.471 L 339.178 192.151 L 338.007 192.151 L 335.641 186.367 L 335.641 192.151 L 335.641 192.151 Z  M 344.736 192.151 L 340.648 192.151 L 340.648 182.471 L 344.712 182.471 L 344.712 183.714 L 342.417 183.714 L 342.417 186.498 L 344.222 186.498 L 344.222 187.729 L 342.417 187.729 L 342.417 190.932 L 344.736 190.932 L 344.736 192.151 L 344.736 192.151 Z  M 349.874 192.151 L 345.763 192.151 L 345.763 182.471 L 347.532 182.471 L 347.532 190.932 L 349.874 190.932 L 349.874 192.151 L 349.874 192.151 Z " fill="rgb(255,255,255)"/></g></g><g><path d="M 398.169 165.77 L 480.311 165.77 C 482.11 165.77 483.57 167.23 483.57 169.029 L 483.57 203.661 C 483.57 205.46 482.11 206.92 480.311 206.92 L 398.169 206.92 C 396.37 206.92 394.91 205.46 394.91 203.661 L 394.91 169.029 C 394.91 167.23 396.37 165.77 398.169 165.77 Z" style="stroke:none;fill:#3A8BF1;stroke-miterlimit:10;"/><g opacity="0.87"><path d=" M 459.996 192.151 L 458.49 192.151 L 458.49 182.471 L 459.721 182.471 L 462.075 187.992 L 462.075 182.471 L 463.533 182.471 L 463.533 192.151 L 462.362 192.151 L 459.996 186.367 L 459.996 192.151 L 459.996 192.151 Z  M 415.371 192.282 L 415.371 192.282 L 415.371 192.282 Q 414.308 192.282 413.704 191.864 L 413.704 191.864 L 413.704 191.864 Q 413.101 191.446 412.862 190.723 L 412.862 190.723 L 412.862 190.723 Q 412.623 190 412.623 189.056 L 412.623 189.056 L 412.623 185.602 L 412.623 185.602 Q 412.623 184.61 412.862 183.881 L 412.862 183.881 L 412.862 183.881 Q 413.101 183.152 413.704 182.758 L 413.704 182.758 L 413.704 182.758 Q 414.308 182.363 415.371 182.363 L 415.371 182.363 L 415.371 182.363 Q 416.375 182.363 416.943 182.704 L 416.943 182.704 L 416.943 182.704 Q 417.51 183.044 417.749 183.678 L 417.749 183.678 L 417.749 183.678 Q 417.988 184.311 417.988 185.148 L 417.988 185.148 L 417.988 185.96 L 416.291 185.96 L 416.291 185.124 L 416.291 185.124 Q 416.291 184.718 416.25 184.383 L 416.25 184.383 L 416.25 184.383 Q 416.208 184.048 416.023 183.851 L 416.023 183.851 L 416.023 183.851 Q 415.837 183.654 415.383 183.654 L 415.383 183.654 L 415.383 183.654 Q 414.929 183.654 414.72 183.863 L 414.72 183.863 L 414.72 183.863 Q 414.511 184.072 414.451 184.425 L 414.451 184.425 L 414.451 184.425 Q 414.391 184.777 414.391 185.22 L 414.391 185.22 L 414.391 189.426 L 414.391 189.426 Q 414.391 189.952 414.475 190.293 L 414.475 190.293 L 414.475 190.293 Q 414.559 190.633 414.78 190.807 L 414.78 190.807 L 414.78 190.807 Q 415.001 190.98 415.383 190.98 L 415.383 190.98 L 415.383 190.98 Q 415.825 190.98 416.011 190.771 L 416.011 190.771 L 416.011 190.771 Q 416.196 190.562 416.244 190.215 L 416.244 190.215 L 416.244 190.215 Q 416.291 189.868 416.291 189.438 L 416.291 189.438 L 416.291 188.566 L 417.988 188.566 L 417.988 189.343 L 417.988 189.343 Q 417.988 190.203 417.761 190.866 L 417.761 190.866 L 417.761 190.866 Q 417.534 191.53 416.967 191.906 L 416.967 191.906 L 416.967 191.906 Q 416.399 192.282 415.371 192.282 Z  M 421 192.151 L 419.243 192.151 L 419.243 182.471 L 421 182.471 L 421 186.522 L 422.972 186.522 L 422.972 182.471 L 424.741 182.471 L 424.741 192.151 L 422.972 192.151 L 422.972 187.777 L 421 187.777 L 421 192.151 L 421 192.151 Z  M 427.394 192.151 L 425.733 192.151 L 427.669 182.471 L 429.557 182.471 L 431.493 192.151 L 429.856 192.151 L 429.473 189.916 L 427.788 189.916 L 427.394 192.151 L 427.394 192.151 Z  M 428.625 184.73 L 427.967 188.793 L 429.282 188.793 L 428.625 184.73 L 428.625 184.73 Z  M 433.919 192.151 L 432.413 192.151 L 432.413 182.471 L 433.644 182.471 L 435.998 187.992 L 435.998 182.471 L 437.456 182.471 L 437.456 192.151 L 436.285 192.151 L 433.919 186.367 L 433.919 192.151 L 433.919 192.151 Z  M 440.432 192.151 L 438.926 192.151 L 438.926 182.471 L 440.157 182.471 L 442.512 187.992 L 442.512 182.471 L 443.97 182.471 L 443.97 192.151 L 442.798 192.151 L 440.432 186.367 L 440.432 192.151 L 440.432 192.151 Z  M 449.527 192.151 L 445.439 192.151 L 445.439 182.471 L 449.503 182.471 L 449.503 183.714 L 447.208 183.714 L 447.208 186.498 L 449.013 186.498 L 449.013 187.729 L 447.208 187.729 L 447.208 190.932 L 449.527 190.932 L 449.527 192.151 L 449.527 192.151 Z  M 454.665 192.151 L 450.554 192.151 L 450.554 182.471 L 452.323 182.471 L 452.323 190.932 L 454.665 190.932 L 454.665 192.151 L 454.665 192.151 Z " fill="rgb(255,255,255)"/></g></g></g><path d=" M 383.548 190.088 L 381.084 190.088 L 381.084 187.624 L 383.548 187.624 L 383.548 190.088 L 383.548 190.088 Z  M 387.452 190.088 L 384.988 190.088 L 384.988 187.624 L 387.452 187.624 L 387.452 190.088 L 387.452 190.088 Z  M 391.356 190.088 L 388.892 190.088 L 388.892 187.624 L 391.356 187.624 L 391.356 190.088 L 391.356 190.088 Z " fill="rgb(232,232,232)"/></g></svg>
