<svg width="818" height="50" viewBox="0 0 818 50" fill="none" xmlns="http://www.w3.org/2000/svg">
<rect x="0.5" y="0.5" width="139" height="49" rx="4.5" fill="#FF7A00"/>
<rect x="0.5" y="0.5" width="139" height="49" rx="4.5" stroke="#F27400"/>
<path d="M36.0833 15.0833C36.0833 13.8 35.0333 12.75 33.75 12.75H15.0833C13.8 12.75 12.75 13.8 12.75 15.0833V36.0833L17.4167 31.4167H27.9167V22.0833H36.0833V15.0833ZM36.6667 29.0833H34.1L36.0833 24.4167H30.25V31.4167H32.5833V37.25L36.6667 29.0833Z" fill="black" fill-opacity="0.6"/>
<path d="M55.54 31.5V17.4H58.1V29.32H64.86V31.5H55.54ZM66.3705 19.62V17.18H69.1705V19.62H66.3705ZM66.5305 31.5V21.72H69.0305V31.5H66.5305ZM75.2081 31.7C74.6615 31.7 74.1281 31.6533 73.6081 31.56C73.1015 31.4667 72.6348 31.34 72.2081 31.18C71.7815 31.0067 71.4081 30.7933 71.0881 30.54L71.7281 28.9C72.0615 29.1133 72.4215 29.3 72.8081 29.46C73.1948 29.62 73.5948 29.74 74.0081 29.82C74.4215 29.9 74.8281 29.94 75.2281 29.94C75.8681 29.94 76.3415 29.8333 76.6481 29.62C76.9681 29.3933 77.1281 29.1 77.1281 28.74C77.1281 28.4333 77.0215 28.2 76.8081 28.04C76.6081 27.8667 76.3015 27.74 75.8881 27.66L73.8881 27.28C73.0615 27.12 72.4281 26.82 71.9881 26.38C71.5615 25.9267 71.3481 25.3467 71.3481 24.64C71.3481 24 71.5215 23.4467 71.8681 22.98C72.2281 22.5133 72.7215 22.1533 73.3481 21.9C73.9748 21.6467 74.6948 21.52 75.5081 21.52C75.9748 21.52 76.4281 21.5667 76.8681 21.66C77.3081 21.74 77.7215 21.8667 78.1081 22.04C78.5081 22.2 78.8548 22.4133 79.1481 22.68L78.4681 24.32C78.2148 24.1067 77.9215 23.9267 77.5881 23.78C77.2548 23.62 76.9081 23.5 76.5481 23.42C76.2015 23.3267 75.8615 23.28 75.5281 23.28C74.8748 23.28 74.3881 23.3933 74.0681 23.62C73.7615 23.8467 73.6081 24.1467 73.6081 24.52C73.6081 24.8 73.7015 25.0333 73.8881 25.22C74.0748 25.4067 74.3615 25.5333 74.7481 25.6L76.7481 25.98C77.6148 26.14 78.2681 26.4333 78.7081 26.86C79.1615 27.2867 79.3881 27.86 79.3881 28.58C79.3881 29.2333 79.2148 29.7933 78.8681 30.26C78.5215 30.7267 78.0348 31.0867 77.4081 31.34C76.7815 31.58 76.0481 31.7 75.2081 31.7ZM85.7761 31.7C84.4694 31.7 83.4961 31.3733 82.8561 30.72C82.2161 30.0667 81.8961 29.1133 81.8961 27.86V23.6H80.0161V21.72H81.8961V18.8H84.3961V21.72H87.3561V23.6H84.3961V27.72C84.3961 28.36 84.5361 28.84 84.8161 29.16C85.0961 29.48 85.5494 29.64 86.1761 29.64C86.3628 29.64 86.5561 29.62 86.7561 29.58C86.9561 29.5267 87.1628 29.4733 87.3761 29.42L87.7561 31.26C87.5161 31.3933 87.2094 31.5 86.8361 31.58C86.4761 31.66 86.1228 31.7 85.7761 31.7ZM93.6942 31.7C92.5876 31.7 91.6342 31.4933 90.8342 31.08C90.0342 30.6667 89.4142 30.08 88.9742 29.32C88.5476 28.56 88.3342 27.66 88.3342 26.62C88.3342 25.6067 88.5409 24.72 88.9542 23.96C89.3809 23.2 89.9609 22.6067 90.6942 22.18C91.4409 21.74 92.2876 21.52 93.2342 21.52C94.1676 21.52 94.9676 21.72 95.6342 22.12C96.3009 22.52 96.8142 23.0867 97.1742 23.82C97.5476 24.5533 97.7342 25.4267 97.7342 26.44V27.18H90.3542V25.74H95.9742L95.6542 26.04C95.6542 25.1333 95.4542 24.44 95.0542 23.96C94.6542 23.4667 94.0809 23.22 93.3342 23.22C92.7742 23.22 92.2942 23.3533 91.8942 23.62C91.5076 23.8733 91.2076 24.24 90.9942 24.72C90.7942 25.1867 90.6942 25.7467 90.6942 26.4V26.54C90.6942 27.2733 90.8076 27.88 91.0342 28.36C91.2609 28.84 91.6009 29.2 92.0542 29.44C92.5076 29.68 93.0676 29.8 93.7342 29.8C94.2809 29.8 94.8276 29.72 95.3742 29.56C95.9209 29.3867 96.4209 29.12 96.8742 28.76L97.5742 30.44C97.1076 30.8267 96.5209 31.1333 95.8142 31.36C95.1076 31.5867 94.4009 31.7 93.6942 31.7ZM99.7141 31.5V21.72H102.154V23.68H101.934C102.227 22.9733 102.681 22.44 103.294 22.08C103.921 21.7067 104.627 21.52 105.414 21.52C106.201 21.52 106.847 21.6667 107.354 21.96C107.861 22.2533 108.241 22.7 108.494 23.3C108.747 23.8867 108.874 24.6333 108.874 25.54V31.5H106.374V25.66C106.374 25.1533 106.307 24.74 106.174 24.42C106.054 24.1 105.861 23.8667 105.594 23.72C105.341 23.56 105.014 23.48 104.614 23.48C104.134 23.48 103.714 23.5867 103.354 23.8C102.994 24 102.714 24.2933 102.514 24.68C102.314 25.0533 102.214 25.4933 102.214 26V31.5H99.7141ZM116.233 31.7C115.127 31.7 114.173 31.4933 113.373 31.08C112.573 30.6667 111.953 30.08 111.513 29.32C111.087 28.56 110.873 27.66 110.873 26.62C110.873 25.6067 111.08 24.72 111.493 23.96C111.92 23.2 112.5 22.6067 113.233 22.18C113.98 21.74 114.827 21.52 115.773 21.52C116.707 21.52 117.507 21.72 118.173 22.12C118.84 22.52 119.353 23.0867 119.713 23.82C120.087 24.5533 120.273 25.4267 120.273 26.44V27.18H112.893V25.74H118.513L118.193 26.04C118.193 25.1333 117.993 24.44 117.593 23.96C117.193 23.4667 116.62 23.22 115.873 23.22C115.313 23.22 114.833 23.3533 114.433 23.62C114.047 23.8733 113.747 24.24 113.533 24.72C113.333 25.1867 113.233 25.7467 113.233 26.4V26.54C113.233 27.2733 113.347 27.88 113.573 28.36C113.8 28.84 114.14 29.2 114.593 29.44C115.047 29.68 115.607 29.8 116.273 29.8C116.82 29.8 117.367 29.72 117.913 29.56C118.46 29.3867 118.96 29.12 119.413 28.76L120.113 30.44C119.647 30.8267 119.06 31.1333 118.353 31.36C117.647 31.5867 116.94 31.7 116.233 31.7ZM122.253 31.5V21.72H124.693V24.08H124.493C124.68 23.28 125.046 22.6733 125.593 22.26C126.14 21.8333 126.866 21.5867 127.773 21.52L128.533 21.46L128.693 23.58L127.253 23.72C126.44 23.8 125.826 24.0533 125.413 24.48C125 24.8933 124.793 25.48 124.793 26.24V31.5H122.253Z" fill="black" fill-opacity="0.8"/>
<rect x="161.5" y="0.5" width="201" height="49" rx="4.5" fill="#D64BAA"/>
<rect x="161.5" y="0.5" width="201" height="49" rx="4.5" stroke="#B64291"/>
<path d="M197.762 24.8886V14.4762C197.762 13.1143 196.66 12 195.286 12H175.476C174.114 12 173 13.1143 173 14.4762V36.7619L177.952 31.8095H182.026C183.09 35.3876 186.409 38 190.333 38C195.112 38 199 34.1248 199 29.3333C199 27.7114 198.542 26.1886 197.762 24.8886ZM190.333 35.3381C187.015 35.3381 184.329 32.6514 184.329 29.3333C184.329 26.0152 187.015 23.3286 190.333 23.3286C193.639 23.3286 196.338 26.0152 196.338 29.3333C196.338 32.6514 193.639 35.3381 190.333 35.3381ZM190.952 29.1105L193.973 30.8562L193.045 32.4657L189.095 30.1876V25.619H190.952V29.1105Z" fill="black" fill-opacity="0.6"/>
<path d="M215.02 31.5L221.4 17.4H223.5L229.88 31.5H227.28L225.58 27.54L226.66 28.24H218.22L219.3 27.54L217.62 31.5H215.02ZM222.42 20.18L219.62 26.84L219.1 26.2H225.78L225.28 26.84L222.46 20.18H222.42ZM234.607 31.7C234.06 31.7 233.527 31.6533 233.007 31.56C232.5 31.4667 232.033 31.34 231.607 31.18C231.18 31.0067 230.807 30.7933 230.487 30.54L231.127 28.9C231.46 29.1133 231.82 29.3 232.207 29.46C232.593 29.62 232.993 29.74 233.407 29.82C233.82 29.9 234.227 29.94 234.627 29.94C235.267 29.94 235.74 29.8333 236.047 29.62C236.367 29.3933 236.527 29.1 236.527 28.74C236.527 28.4333 236.42 28.2 236.207 28.04C236.007 27.8667 235.7 27.74 235.287 27.66L233.287 27.28C232.46 27.12 231.827 26.82 231.387 26.38C230.96 25.9267 230.747 25.3467 230.747 24.64C230.747 24 230.92 23.4467 231.267 22.98C231.627 22.5133 232.12 22.1533 232.747 21.9C233.373 21.6467 234.093 21.52 234.907 21.52C235.373 21.52 235.827 21.5667 236.267 21.66C236.707 21.74 237.12 21.8667 237.507 22.04C237.907 22.2 238.253 22.4133 238.547 22.68L237.867 24.32C237.613 24.1067 237.32 23.9267 236.987 23.78C236.653 23.62 236.307 23.5 235.947 23.42C235.6 23.3267 235.26 23.28 234.927 23.28C234.273 23.28 233.787 23.3933 233.467 23.62C233.16 23.8467 233.007 24.1467 233.007 24.52C233.007 24.8 233.1 25.0333 233.287 25.22C233.473 25.4067 233.76 25.5333 234.147 25.6L236.147 25.98C237.013 26.14 237.667 26.4333 238.107 26.86C238.56 27.2867 238.787 27.86 238.787 28.58C238.787 29.2333 238.613 29.7933 238.267 30.26C237.92 30.7267 237.433 31.0867 236.807 31.34C236.18 31.58 235.447 31.7 234.607 31.7ZM241.477 35.1L243.517 30.6V31.64L239.217 21.72H241.877L244.917 29.3H244.317L247.417 21.72H249.937L244.057 35.1H241.477ZM251.124 31.5V21.72H253.564V23.68H253.344C253.638 22.9733 254.091 22.44 254.704 22.08C255.331 21.7067 256.038 21.52 256.824 21.52C257.611 21.52 258.258 21.6667 258.764 21.96C259.271 22.2533 259.651 22.7 259.904 23.3C260.158 23.8867 260.284 24.6333 260.284 25.54V31.5H257.784V25.66C257.784 25.1533 257.718 24.74 257.584 24.42C257.464 24.1 257.271 23.8667 257.004 23.72C256.751 23.56 256.424 23.48 256.024 23.48C255.544 23.48 255.124 23.5867 254.764 23.8C254.404 24 254.124 24.2933 253.924 24.68C253.724 25.0533 253.624 25.4933 253.624 26V31.5H251.124ZM267.343 31.7C266.317 31.7 265.423 31.4933 264.663 31.08C263.903 30.6533 263.317 30.0533 262.903 29.28C262.49 28.5067 262.283 27.6 262.283 26.56C262.283 25.52 262.49 24.6267 262.903 23.88C263.317 23.12 263.903 22.54 264.663 22.14C265.423 21.7267 266.317 21.52 267.343 21.52C267.97 21.52 268.59 21.62 269.203 21.82C269.817 22.02 270.323 22.3 270.723 22.66L269.983 24.4C269.637 24.0933 269.243 23.86 268.803 23.7C268.377 23.54 267.963 23.46 267.563 23.46C266.697 23.46 266.023 23.7333 265.543 24.28C265.077 24.8133 264.843 25.58 264.843 26.58C264.843 27.5667 265.077 28.3467 265.543 28.92C266.023 29.48 266.697 29.76 267.563 29.76C267.95 29.76 268.363 29.68 268.803 29.52C269.243 29.36 269.637 29.12 269.983 28.8L270.723 30.56C270.323 30.9067 269.81 31.1867 269.183 31.4C268.57 31.6 267.957 31.7 267.343 31.7ZM277.888 31.5V17.4H280.448V29.32H287.208V31.5H277.888ZM288.718 19.62V17.18H291.518V19.62H288.718ZM288.878 31.5V21.72H291.378V31.5H288.878ZM297.556 31.7C297.009 31.7 296.476 31.6533 295.956 31.56C295.449 31.4667 294.982 31.34 294.556 31.18C294.129 31.0067 293.756 30.7933 293.436 30.54L294.076 28.9C294.409 29.1133 294.769 29.3 295.156 29.46C295.542 29.62 295.942 29.74 296.356 29.82C296.769 29.9 297.176 29.94 297.576 29.94C298.216 29.94 298.689 29.8333 298.996 29.62C299.316 29.3933 299.476 29.1 299.476 28.74C299.476 28.4333 299.369 28.2 299.156 28.04C298.956 27.8667 298.649 27.74 298.236 27.66L296.236 27.28C295.409 27.12 294.776 26.82 294.336 26.38C293.909 25.9267 293.696 25.3467 293.696 24.64C293.696 24 293.869 23.4467 294.216 22.98C294.576 22.5133 295.069 22.1533 295.696 21.9C296.322 21.6467 297.042 21.52 297.856 21.52C298.322 21.52 298.776 21.5667 299.216 21.66C299.656 21.74 300.069 21.8667 300.456 22.04C300.856 22.2 301.202 22.4133 301.496 22.68L300.816 24.32C300.562 24.1067 300.269 23.9267 299.936 23.78C299.602 23.62 299.256 23.5 298.896 23.42C298.549 23.3267 298.209 23.28 297.876 23.28C297.222 23.28 296.736 23.3933 296.416 23.62C296.109 23.8467 295.956 24.1467 295.956 24.52C295.956 24.8 296.049 25.0333 296.236 25.22C296.422 25.4067 296.709 25.5333 297.096 25.6L299.096 25.98C299.962 26.14 300.616 26.4333 301.056 26.86C301.509 27.2867 301.736 27.86 301.736 28.58C301.736 29.2333 301.562 29.7933 301.216 30.26C300.869 30.7267 300.382 31.0867 299.756 31.34C299.129 31.58 298.396 31.7 297.556 31.7ZM308.124 31.7C306.817 31.7 305.844 31.3733 305.204 30.72C304.564 30.0667 304.244 29.1133 304.244 27.86V23.6H302.364V21.72H304.244V18.8H306.744V21.72H309.704V23.6H306.744V27.72C306.744 28.36 306.884 28.84 307.164 29.16C307.444 29.48 307.897 29.64 308.524 29.64C308.71 29.64 308.904 29.62 309.104 29.58C309.304 29.5267 309.51 29.4733 309.724 29.42L310.104 31.26C309.864 31.3933 309.557 31.5 309.184 31.58C308.824 31.66 308.47 31.7 308.124 31.7ZM316.042 31.7C314.935 31.7 313.982 31.4933 313.182 31.08C312.382 30.6667 311.762 30.08 311.322 29.32C310.895 28.56 310.682 27.66 310.682 26.62C310.682 25.6067 310.889 24.72 311.302 23.96C311.729 23.2 312.309 22.6067 313.042 22.18C313.789 21.74 314.635 21.52 315.582 21.52C316.515 21.52 317.315 21.72 317.982 22.12C318.649 22.52 319.162 23.0867 319.522 23.82C319.895 24.5533 320.082 25.4267 320.082 26.44V27.18H312.702V25.74H318.322L318.002 26.04C318.002 25.1333 317.802 24.44 317.402 23.96C317.002 23.4667 316.429 23.22 315.682 23.22C315.122 23.22 314.642 23.3533 314.242 23.62C313.855 23.8733 313.555 24.24 313.342 24.72C313.142 25.1867 313.042 25.7467 313.042 26.4V26.54C313.042 27.2733 313.155 27.88 313.382 28.36C313.609 28.84 313.949 29.2 314.402 29.44C314.855 29.68 315.415 29.8 316.082 29.8C316.629 29.8 317.175 29.72 317.722 29.56C318.269 29.3867 318.769 29.12 319.222 28.76L319.922 30.44C319.455 30.8267 318.869 31.1333 318.162 31.36C317.455 31.5867 316.749 31.7 316.042 31.7ZM322.062 31.5V21.72H324.502V23.68H324.282C324.575 22.9733 325.028 22.44 325.642 22.08C326.268 21.7067 326.975 21.52 327.762 21.52C328.548 21.52 329.195 21.6667 329.702 21.96C330.208 22.2533 330.588 22.7 330.842 23.3C331.095 23.8867 331.222 24.6333 331.222 25.54V31.5H328.722V25.66C328.722 25.1533 328.655 24.74 328.522 24.42C328.402 24.1 328.208 23.8667 327.942 23.72C327.688 23.56 327.362 23.48 326.962 23.48C326.482 23.48 326.062 23.5867 325.702 23.8C325.342 24 325.062 24.2933 324.862 24.68C324.662 25.0533 324.562 25.4933 324.562 26V31.5H322.062ZM338.581 31.7C337.474 31.7 336.521 31.4933 335.721 31.08C334.921 30.6667 334.301 30.08 333.861 29.32C333.434 28.56 333.221 27.66 333.221 26.62C333.221 25.6067 333.428 24.72 333.841 23.96C334.268 23.2 334.848 22.6067 335.581 22.18C336.328 21.74 337.174 21.52 338.121 21.52C339.054 21.52 339.854 21.72 340.521 22.12C341.188 22.52 341.701 23.0867 342.061 23.82C342.434 24.5533 342.621 25.4267 342.621 26.44V27.18H335.241V25.74H340.861L340.541 26.04C340.541 25.1333 340.341 24.44 339.941 23.96C339.541 23.4667 338.968 23.22 338.221 23.22C337.661 23.22 337.181 23.3533 336.781 23.62C336.394 23.8733 336.094 24.24 335.881 24.72C335.681 25.1867 335.581 25.7467 335.581 26.4V26.54C335.581 27.2733 335.694 27.88 335.921 28.36C336.148 28.84 336.488 29.2 336.941 29.44C337.394 29.68 337.954 29.8 338.621 29.8C339.168 29.8 339.714 29.72 340.261 29.56C340.808 29.3867 341.308 29.12 341.761 28.76L342.461 30.44C341.994 30.8267 341.408 31.1333 340.701 31.36C339.994 31.5867 339.288 31.7 338.581 31.7ZM344.601 31.5V21.72H347.041V24.08H346.841C347.027 23.28 347.394 22.6733 347.941 22.26C348.487 21.8333 349.214 21.5867 350.121 21.52L350.881 21.46L351.041 23.58L349.601 23.72C348.787 23.8 348.174 24.0533 347.761 24.48C347.347 24.8933 347.141 25.48 347.141 26.24V31.5H344.601Z" fill="black" fill-opacity="0.8"/>
<rect x="384.5" y="0.5" width="163" height="49" rx="4.5" fill="#EBEBEB"/>
<rect x="384.5" y="0.5" width="163" height="49" rx="4.5" stroke="#DEDEDE"/>
<path d="M399.2 21H404.8V23.8H399.2V21ZM423 21V33.6C423 34.3426 422.705 35.0548 422.18 35.5799C421.655 36.105 420.943 36.4 420.2 36.4H395V21C395 19.1435 395.737 17.363 397.05 16.0503C398.363 14.7375 400.143 14 402 14H416C417.857 14 419.637 14.7375 420.95 16.0503C422.263 17.363 423 19.1435 423 21ZM406.2 21C406.2 19.8861 405.758 18.8178 404.97 18.0302C404.182 17.2425 403.114 16.8 402 16.8C400.886 16.8 399.818 17.2425 399.03 18.0302C398.242 18.8178 397.8 19.8861 397.8 21V33.6H406.2V21ZM414.6 18.2H409V26.6H411.8V21H414.6V18.2Z" fill="black" fill-opacity="0.6"/>
<path d="M444.4 31.7C443.667 31.7 442.96 31.6333 442.28 31.5C441.613 31.38 440.993 31.2 440.42 30.96C439.86 30.72 439.36 30.4333 438.92 30.1L439.7 28.08C440.14 28.3867 440.6 28.6533 441.08 28.88C441.573 29.0933 442.093 29.26 442.64 29.38C443.2 29.4867 443.787 29.54 444.4 29.54C445.453 29.54 446.22 29.3667 446.7 29.02C447.18 28.66 447.42 28.2 447.42 27.64C447.42 27.3333 447.347 27.0733 447.2 26.86C447.053 26.6333 446.813 26.44 446.48 26.28C446.147 26.12 445.707 25.9867 445.16 25.88L442.96 25.42C441.693 25.1533 440.747 24.7067 440.12 24.08C439.507 23.44 439.2 22.6 439.2 21.56C439.2 20.68 439.433 19.9133 439.9 19.26C440.367 18.6067 441.013 18.1 441.84 17.74C442.667 17.38 443.62 17.2 444.7 17.2C445.34 17.2 445.953 17.2667 446.54 17.4C447.14 17.52 447.687 17.7067 448.18 17.96C448.687 18.2 449.127 18.4933 449.5 18.84L448.72 20.76C448.16 20.2933 447.547 19.9467 446.88 19.72C446.213 19.48 445.48 19.36 444.68 19.36C444.067 19.36 443.54 19.4467 443.1 19.62C442.66 19.7933 442.32 20.04 442.08 20.36C441.853 20.6667 441.74 21.0333 441.74 21.46C441.74 21.94 441.9 22.3267 442.22 22.62C442.54 22.9 443.087 23.12 443.86 23.28L446.04 23.74C447.36 24.02 448.34 24.46 448.98 25.06C449.633 25.66 449.96 26.46 449.96 27.46C449.96 28.3 449.733 29.04 449.28 29.68C448.827 30.32 448.18 30.82 447.34 31.18C446.513 31.5267 445.533 31.7 444.4 31.7ZM455.457 31.7C454.644 31.7 453.971 31.5533 453.437 31.26C452.904 30.9533 452.504 30.5 452.237 29.9C451.984 29.3 451.857 28.5533 451.857 27.66V21.72H454.357V27.7C454.357 28.1533 454.417 28.5333 454.537 28.84C454.671 29.1467 454.864 29.3733 455.117 29.52C455.384 29.6667 455.717 29.74 456.117 29.74C456.571 29.74 456.964 29.64 457.297 29.44C457.644 29.2267 457.911 28.9333 458.097 28.56C458.297 28.1733 458.397 27.7267 458.397 27.22V21.72H460.897V31.5H458.457V29.46H458.737C458.457 30.18 458.031 30.7333 457.457 31.12C456.897 31.5067 456.231 31.7 455.457 31.7ZM469.139 31.7C468.313 31.7 467.586 31.4933 466.959 31.08C466.346 30.6667 465.939 30.1133 465.739 29.42H465.939V31.5H463.499V17.4H465.999V23.7H465.759C465.973 23.0467 466.386 22.52 466.999 22.12C467.613 21.72 468.326 21.52 469.139 21.52C470.006 21.52 470.759 21.7267 471.399 22.14C472.039 22.5533 472.539 23.14 472.899 23.9C473.259 24.6467 473.439 25.5467 473.439 26.6C473.439 27.64 473.259 28.5467 472.899 29.32C472.539 30.08 472.033 30.6667 471.379 31.08C470.739 31.4933 469.993 31.7 469.139 31.7ZM468.439 29.8C469.186 29.8 469.786 29.5333 470.239 29C470.693 28.4533 470.919 27.6533 470.919 26.6C470.919 25.5333 470.693 24.74 470.239 24.22C469.786 23.6867 469.186 23.42 468.439 23.42C467.693 23.42 467.093 23.6867 466.639 24.22C466.186 24.74 465.959 25.5333 465.959 26.6C465.959 27.6533 466.186 28.4533 466.639 29C467.093 29.5333 467.693 29.8 468.439 29.8ZM479.071 31.7C478.525 31.7 477.991 31.6533 477.471 31.56C476.965 31.4667 476.498 31.34 476.071 31.18C475.645 31.0067 475.271 30.7933 474.951 30.54L475.591 28.9C475.925 29.1133 476.285 29.3 476.671 29.46C477.058 29.62 477.458 29.74 477.871 29.82C478.285 29.9 478.691 29.94 479.091 29.94C479.731 29.94 480.205 29.8333 480.511 29.62C480.831 29.3933 480.991 29.1 480.991 28.74C480.991 28.4333 480.885 28.2 480.671 28.04C480.471 27.8667 480.165 27.74 479.751 27.66L477.751 27.28C476.925 27.12 476.291 26.82 475.851 26.38C475.425 25.9267 475.211 25.3467 475.211 24.64C475.211 24 475.385 23.4467 475.731 22.98C476.091 22.5133 476.585 22.1533 477.211 21.9C477.838 21.6467 478.558 21.52 479.371 21.52C479.838 21.52 480.291 21.5667 480.731 21.66C481.171 21.74 481.585 21.8667 481.971 22.04C482.371 22.2 482.718 22.4133 483.011 22.68L482.331 24.32C482.078 24.1067 481.785 23.9267 481.451 23.78C481.118 23.62 480.771 23.5 480.411 23.42C480.065 23.3267 479.725 23.28 479.391 23.28C478.738 23.28 478.251 23.3933 477.931 23.62C477.625 23.8467 477.471 24.1467 477.471 24.52C477.471 24.8 477.565 25.0333 477.751 25.22C477.938 25.4067 478.225 25.5333 478.611 25.6L480.611 25.98C481.478 26.14 482.131 26.4333 482.571 26.86C483.025 27.2867 483.251 27.86 483.251 28.58C483.251 29.2333 483.078 29.7933 482.731 30.26C482.385 30.7267 481.898 31.0867 481.271 31.34C480.645 31.58 479.911 31.7 479.071 31.7ZM489.777 31.7C488.75 31.7 487.857 31.4933 487.097 31.08C486.337 30.6533 485.75 30.0533 485.337 29.28C484.924 28.5067 484.717 27.6 484.717 26.56C484.717 25.52 484.924 24.6267 485.337 23.88C485.75 23.12 486.337 22.54 487.097 22.14C487.857 21.7267 488.75 21.52 489.777 21.52C490.404 21.52 491.024 21.62 491.637 21.82C492.25 22.02 492.757 22.3 493.157 22.66L492.417 24.4C492.07 24.0933 491.677 23.86 491.237 23.7C490.81 23.54 490.397 23.46 489.997 23.46C489.13 23.46 488.457 23.7333 487.977 24.28C487.51 24.8133 487.277 25.58 487.277 26.58C487.277 27.5667 487.51 28.3467 487.977 28.92C488.457 29.48 489.13 29.76 489.997 29.76C490.384 29.76 490.797 29.68 491.237 29.52C491.677 29.36 492.07 29.12 492.417 28.8L493.157 30.56C492.757 30.9067 492.244 31.1867 491.617 31.4C491.004 31.6 490.39 31.7 489.777 31.7ZM494.691 31.5V21.72H497.131V24.08H496.931C497.117 23.28 497.484 22.6733 498.031 22.26C498.577 21.8333 499.304 21.5867 500.211 21.52L500.971 21.46L501.131 23.58L499.691 23.72C498.877 23.8 498.264 24.0533 497.851 24.48C497.437 24.8933 497.231 25.48 497.231 26.24V31.5H494.691ZM502.363 19.62V17.18H505.163V19.62H502.363ZM502.523 31.5V21.72H505.023V31.5H502.523ZM513.26 31.7C512.434 31.7 511.707 31.4933 511.08 31.08C510.467 30.6667 510.06 30.1133 509.86 29.42H510.06V31.5H507.62V17.4H510.12V23.7H509.88C510.094 23.0467 510.507 22.52 511.12 22.12C511.734 21.72 512.447 21.52 513.26 21.52C514.127 21.52 514.88 21.7267 515.52 22.14C516.16 22.5533 516.66 23.14 517.02 23.9C517.38 24.6467 517.56 25.5467 517.56 26.6C517.56 27.64 517.38 28.5467 517.02 29.32C516.66 30.08 516.154 30.6667 515.5 31.08C514.86 31.4933 514.114 31.7 513.26 31.7ZM512.56 29.8C513.307 29.8 513.907 29.5333 514.36 29C514.814 28.4533 515.04 27.6533 515.04 26.6C515.04 25.5333 514.814 24.74 514.36 24.22C513.907 23.6867 513.307 23.42 512.56 23.42C511.814 23.42 511.214 23.6867 510.76 24.22C510.307 24.74 510.08 25.5333 510.08 26.6C510.08 27.6533 510.307 28.4533 510.76 29C511.214 29.5333 511.814 29.8 512.56 29.8ZM524.433 31.7C523.326 31.7 522.373 31.4933 521.573 31.08C520.773 30.6667 520.153 30.08 519.713 29.32C519.286 28.56 519.073 27.66 519.073 26.62C519.073 25.6067 519.279 24.72 519.693 23.96C520.119 23.2 520.699 22.6067 521.433 22.18C522.179 21.74 523.026 21.52 523.973 21.52C524.906 21.52 525.706 21.72 526.373 22.12C527.039 22.52 527.553 23.0867 527.913 23.82C528.286 24.5533 528.473 25.4267 528.473 26.44V27.18H521.093V25.74H526.713L526.393 26.04C526.393 25.1333 526.193 24.44 525.793 23.96C525.393 23.4667 524.819 23.22 524.073 23.22C523.513 23.22 523.033 23.3533 522.633 23.62C522.246 23.8733 521.946 24.24 521.733 24.72C521.533 25.1867 521.433 25.7467 521.433 26.4V26.54C521.433 27.2733 521.546 27.88 521.773 28.36C521.999 28.84 522.339 29.2 522.793 29.44C523.246 29.68 523.806 29.8 524.473 29.8C525.019 29.8 525.566 29.72 526.113 29.56C526.659 29.3867 527.159 29.12 527.613 28.76L528.312 30.44C527.846 30.8267 527.259 31.1333 526.553 31.36C525.846 31.5867 525.139 31.7 524.433 31.7ZM530.452 31.5V21.72H532.892V24.08H532.692C532.879 23.28 533.246 22.6733 533.792 22.26C534.339 21.8333 535.066 21.5867 535.972 21.52L536.732 21.46L536.892 23.58L535.452 23.72C534.639 23.8 534.026 24.0533 533.612 24.48C533.199 24.8933 532.992 25.48 532.992 26.24V31.5H530.452Z" fill="black" fill-opacity="0.8"/>
<rect x="569.5" y="0.5" width="248" height="49" rx="4.5" fill="#C8C000"/>
<rect x="569.5" y="0.5" width="248" height="49" rx="4.5" stroke="#BBB400"/>
<path d="M603.5 12H583.5C582.837 12 582.201 12.2634 581.732 12.7322C581.263 13.2011 581 13.837 581 14.5V37L586 32H603.5C604.163 32 604.799 31.7366 605.268 31.2678C605.737 30.7989 606 30.163 606 29.5V14.5C606 13.1125 604.875 12 603.5 12Z" fill="black" fill-opacity="0.6"/>
<path d="M624.58 31.5V17.4H626.72L632.04 27.22H631.4L636.7 17.4H638.8V31.5H636.48V21.2H636.92L632.44 29.36H630.94L626.42 21.18H626.9V31.5H624.58ZM646.483 31.7C645.377 31.7 644.423 31.4933 643.623 31.08C642.823 30.6667 642.203 30.08 641.763 29.32C641.337 28.56 641.123 27.66 641.123 26.62C641.123 25.6067 641.33 24.72 641.743 23.96C642.17 23.2 642.75 22.6067 643.483 22.18C644.23 21.74 645.077 21.52 646.023 21.52C646.957 21.52 647.757 21.72 648.423 22.12C649.09 22.52 649.603 23.0867 649.963 23.82C650.337 24.5533 650.523 25.4267 650.523 26.44V27.18H643.143V25.74H648.763L648.443 26.04C648.443 25.1333 648.243 24.44 647.843 23.96C647.443 23.4667 646.87 23.22 646.123 23.22C645.563 23.22 645.083 23.3533 644.683 23.62C644.297 23.8733 643.997 24.24 643.783 24.72C643.583 25.1867 643.483 25.7467 643.483 26.4V26.54C643.483 27.2733 643.597 27.88 643.823 28.36C644.05 28.84 644.39 29.2 644.843 29.44C645.297 29.68 645.857 29.8 646.523 29.8C647.07 29.8 647.617 29.72 648.163 29.56C648.71 29.3867 649.21 29.12 649.663 28.76L650.363 30.44C649.897 30.8267 649.31 31.1333 648.603 31.36C647.897 31.5867 647.19 31.7 646.483 31.7ZM656.083 31.7C655.536 31.7 655.003 31.6533 654.483 31.56C653.976 31.4667 653.51 31.34 653.083 31.18C652.656 31.0067 652.283 30.7933 651.963 30.54L652.603 28.9C652.936 29.1133 653.296 29.3 653.683 29.46C654.07 29.62 654.47 29.74 654.883 29.82C655.296 29.9 655.703 29.94 656.103 29.94C656.743 29.94 657.216 29.8333 657.523 29.62C657.843 29.3933 658.003 29.1 658.003 28.74C658.003 28.4333 657.896 28.2 657.683 28.04C657.483 27.8667 657.176 27.74 656.763 27.66L654.763 27.28C653.936 27.12 653.303 26.82 652.863 26.38C652.436 25.9267 652.223 25.3467 652.223 24.64C652.223 24 652.396 23.4467 652.743 22.98C653.103 22.5133 653.596 22.1533 654.223 21.9C654.85 21.6467 655.57 21.52 656.383 21.52C656.85 21.52 657.303 21.5667 657.743 21.66C658.183 21.74 658.596 21.8667 658.983 22.04C659.383 22.2 659.73 22.4133 660.023 22.68L659.343 24.32C659.09 24.1067 658.796 23.9267 658.463 23.78C658.13 23.62 657.783 23.5 657.423 23.42C657.076 23.3267 656.736 23.28 656.403 23.28C655.75 23.28 655.263 23.3933 654.943 23.62C654.636 23.8467 654.483 24.1467 654.483 24.52C654.483 24.8 654.576 25.0333 654.763 25.22C654.95 25.4067 655.236 25.5333 655.623 25.6L657.623 25.98C658.49 26.14 659.143 26.4333 659.583 26.86C660.036 27.2867 660.263 27.86 660.263 28.58C660.263 29.2333 660.09 29.7933 659.743 30.26C659.396 30.7267 658.91 31.0867 658.283 31.34C657.656 31.58 656.923 31.7 656.083 31.7ZM665.849 31.7C665.302 31.7 664.769 31.6533 664.249 31.56C663.742 31.4667 663.275 31.34 662.849 31.18C662.422 31.0067 662.049 30.7933 661.729 30.54L662.369 28.9C662.702 29.1133 663.062 29.3 663.449 29.46C663.835 29.62 664.235 29.74 664.649 29.82C665.062 29.9 665.469 29.94 665.869 29.94C666.509 29.94 666.982 29.8333 667.289 29.62C667.609 29.3933 667.769 29.1 667.769 28.74C667.769 28.4333 667.662 28.2 667.449 28.04C667.249 27.8667 666.942 27.74 666.529 27.66L664.529 27.28C663.702 27.12 663.069 26.82 662.629 26.38C662.202 25.9267 661.989 25.3467 661.989 24.64C661.989 24 662.162 23.4467 662.509 22.98C662.869 22.5133 663.362 22.1533 663.989 21.9C664.615 21.6467 665.335 21.52 666.149 21.52C666.615 21.52 667.069 21.5667 667.509 21.66C667.949 21.74 668.362 21.8667 668.749 22.04C669.149 22.2 669.495 22.4133 669.789 22.68L669.109 24.32C668.855 24.1067 668.562 23.9267 668.229 23.78C667.895 23.62 667.549 23.5 667.189 23.42C666.842 23.3267 666.502 23.28 666.169 23.28C665.515 23.28 665.029 23.3933 664.709 23.62C664.402 23.8467 664.249 24.1467 664.249 24.52C664.249 24.8 664.342 25.0333 664.529 25.22C664.715 25.4067 665.002 25.5333 665.389 25.6L667.389 25.98C668.255 26.14 668.909 26.4333 669.349 26.86C669.802 27.2867 670.029 27.86 670.029 28.58C670.029 29.2333 669.855 29.7933 669.509 30.26C669.162 30.7267 668.675 31.0867 668.049 31.34C667.422 31.58 666.689 31.7 665.849 31.7ZM675.254 31.7C674.548 31.7 673.914 31.5667 673.354 31.3C672.808 31.02 672.374 30.6467 672.054 30.18C671.748 29.7133 671.594 29.1867 671.594 28.6C671.594 27.88 671.781 27.3133 672.154 26.9C672.528 26.4733 673.134 26.1667 673.974 25.98C674.814 25.7933 675.941 25.7 677.354 25.7H678.354V27.14H677.374C676.748 27.14 676.221 27.1667 675.794 27.22C675.368 27.26 675.021 27.3333 674.754 27.44C674.501 27.5333 674.314 27.6667 674.194 27.84C674.088 28.0133 674.034 28.2267 674.034 28.48C674.034 28.92 674.188 29.28 674.494 29.56C674.801 29.84 675.228 29.98 675.774 29.98C676.214 29.98 676.601 29.88 676.934 29.68C677.281 29.4667 677.554 29.18 677.754 28.82C677.954 28.46 678.054 28.0467 678.054 27.58V25.28C678.054 24.6133 677.908 24.1333 677.614 23.84C677.321 23.5467 676.828 23.4 676.134 23.4C675.588 23.4 675.028 23.4867 674.454 23.66C673.881 23.82 673.301 24.0733 672.714 24.42L671.994 22.72C672.341 22.48 672.748 22.2733 673.214 22.1C673.694 21.9133 674.194 21.7733 674.714 21.68C675.248 21.5733 675.748 21.52 676.214 21.52C677.174 21.52 677.961 21.6667 678.574 21.96C679.201 22.2533 679.668 22.7 679.974 23.3C680.281 23.8867 680.434 24.6467 680.434 25.58V31.5H678.094V29.42H678.254C678.161 29.8867 677.974 30.2933 677.694 30.64C677.428 30.9733 677.088 31.2333 676.674 31.42C676.261 31.6067 675.788 31.7 675.254 31.7ZM687.532 35.3C686.625 35.3 685.772 35.1933 684.972 34.98C684.185 34.78 683.492 34.4667 682.892 34.04L683.612 32.3C683.985 32.54 684.379 32.74 684.792 32.9C685.205 33.0733 685.625 33.2 686.052 33.28C686.479 33.36 686.905 33.4 687.332 33.4C688.225 33.4 688.892 33.18 689.332 32.74C689.785 32.3133 690.012 31.6733 690.012 30.82V29.02H690.192C689.992 29.7 689.572 30.2467 688.932 30.66C688.305 31.06 687.592 31.26 686.792 31.26C685.912 31.26 685.145 31.06 684.492 30.66C683.839 30.2467 683.332 29.6733 682.972 28.94C682.612 28.2067 682.432 27.3533 682.432 26.38C682.432 25.4067 682.612 24.56 682.972 23.84C683.332 23.1067 683.839 22.54 684.492 22.14C685.145 21.7267 685.912 21.52 686.792 21.52C687.619 21.52 688.339 21.7267 688.952 22.14C689.579 22.54 689.985 23.0733 690.172 23.74H690.012V21.72H692.452V30.52C692.452 31.5733 692.265 32.4533 691.892 33.16C691.519 33.88 690.965 34.4133 690.232 34.76C689.499 35.12 688.599 35.3 687.532 35.3ZM687.472 29.36C688.245 29.36 688.859 29.0933 689.312 28.56C689.765 28.0267 689.992 27.3 689.992 26.38C689.992 25.46 689.765 24.74 689.312 24.22C688.859 23.6867 688.245 23.42 687.472 23.42C686.699 23.42 686.085 23.6867 685.632 24.22C685.179 24.74 684.952 25.46 684.952 26.38C684.952 27.3 685.179 28.0267 685.632 28.56C686.085 29.0933 686.699 29.36 687.472 29.36ZM699.862 31.7C698.756 31.7 697.802 31.4933 697.002 31.08C696.202 30.6667 695.582 30.08 695.142 29.32C694.716 28.56 694.502 27.66 694.502 26.62C694.502 25.6067 694.709 24.72 695.122 23.96C695.549 23.2 696.129 22.6067 696.862 22.18C697.609 21.74 698.456 21.52 699.402 21.52C700.336 21.52 701.136 21.72 701.802 22.12C702.469 22.52 702.982 23.0867 703.342 23.82C703.716 24.5533 703.902 25.4267 703.902 26.44V27.18H696.522V25.74H702.142L701.822 26.04C701.822 25.1333 701.622 24.44 701.222 23.96C700.822 23.4667 700.249 23.22 699.502 23.22C698.942 23.22 698.462 23.3533 698.062 23.62C697.676 23.8733 697.376 24.24 697.162 24.72C696.962 25.1867 696.862 25.7467 696.862 26.4V26.54C696.862 27.2733 696.976 27.88 697.202 28.36C697.429 28.84 697.769 29.2 698.222 29.44C698.676 29.68 699.236 29.8 699.902 29.8C700.449 29.8 700.996 29.72 701.542 29.56C702.089 29.3867 702.589 29.12 703.042 28.76L703.742 30.44C703.276 30.8267 702.689 31.1333 701.982 31.36C701.276 31.5867 700.569 31.7 699.862 31.7ZM714.853 31.7C714.306 31.7 713.773 31.6533 713.253 31.56C712.746 31.4667 712.279 31.34 711.853 31.18C711.426 31.0067 711.053 30.7933 710.733 30.54L711.373 28.9C711.706 29.1133 712.066 29.3 712.453 29.46C712.839 29.62 713.239 29.74 713.653 29.82C714.066 29.9 714.473 29.94 714.873 29.94C715.513 29.94 715.986 29.8333 716.293 29.62C716.613 29.3933 716.773 29.1 716.773 28.74C716.773 28.4333 716.666 28.2 716.453 28.04C716.253 27.8667 715.946 27.74 715.533 27.66L713.533 27.28C712.706 27.12 712.073 26.82 711.633 26.38C711.206 25.9267 710.993 25.3467 710.993 24.64C710.993 24 711.166 23.4467 711.513 22.98C711.873 22.5133 712.366 22.1533 712.993 21.9C713.619 21.6467 714.339 21.52 715.153 21.52C715.619 21.52 716.073 21.5667 716.513 21.66C716.953 21.74 717.366 21.8667 717.753 22.04C718.153 22.2 718.499 22.4133 718.793 22.68L718.113 24.32C717.859 24.1067 717.566 23.9267 717.233 23.78C716.899 23.62 716.553 23.5 716.193 23.42C715.846 23.3267 715.506 23.28 715.173 23.28C714.519 23.28 714.033 23.3933 713.713 23.62C713.406 23.8467 713.253 24.1467 713.253 24.52C713.253 24.8 713.346 25.0333 713.533 25.22C713.719 25.4067 714.006 25.5333 714.393 25.6L716.393 25.98C717.259 26.14 717.913 26.4333 718.353 26.86C718.806 27.2867 719.033 27.86 719.033 28.58C719.033 29.2333 718.859 29.7933 718.513 30.26C718.166 30.7267 717.679 31.0867 717.053 31.34C716.426 31.58 715.693 31.7 714.853 31.7ZM724.578 31.7C723.765 31.7 723.092 31.5533 722.558 31.26C722.025 30.9533 721.625 30.5 721.358 29.9C721.105 29.3 720.978 28.5533 720.978 27.66V21.72H723.478V27.7C723.478 28.1533 723.538 28.5333 723.658 28.84C723.792 29.1467 723.985 29.3733 724.238 29.52C724.505 29.6667 724.838 29.74 725.238 29.74C725.692 29.74 726.085 29.64 726.418 29.44C726.765 29.2267 727.032 28.9333 727.218 28.56C727.418 28.1733 727.518 27.7267 727.518 27.22V21.72H730.018V31.5H727.578V29.46H727.858C727.578 30.18 727.152 30.7333 726.578 31.12C726.018 31.5067 725.352 31.7 724.578 31.7ZM738.26 31.7C737.434 31.7 736.707 31.4933 736.08 31.08C735.467 30.6667 735.06 30.1133 734.86 29.42H735.06V31.5H732.62V17.4H735.12V23.7H734.88C735.094 23.0467 735.507 22.52 736.12 22.12C736.734 21.72 737.447 21.52 738.26 21.52C739.127 21.52 739.88 21.7267 740.52 22.14C741.16 22.5533 741.66 23.14 742.02 23.9C742.38 24.6467 742.56 25.5467 742.56 26.6C742.56 27.64 742.38 28.5467 742.02 29.32C741.66 30.08 741.154 30.6667 740.5 31.08C739.86 31.4933 739.114 31.7 738.26 31.7ZM737.56 29.8C738.307 29.8 738.907 29.5333 739.36 29C739.814 28.4533 740.04 27.6533 740.04 26.6C740.04 25.5333 739.814 24.74 739.36 24.22C738.907 23.6867 738.307 23.42 737.56 23.42C736.814 23.42 736.214 23.6867 735.76 24.22C735.307 24.74 735.08 25.5333 735.08 26.6C735.08 27.6533 735.307 28.4533 735.76 29C736.214 29.5333 736.814 29.8 737.56 29.8ZM748.193 31.7C747.646 31.7 747.113 31.6533 746.593 31.56C746.086 31.4667 745.619 31.34 745.193 31.18C744.766 31.0067 744.393 30.7933 744.073 30.54L744.713 28.9C745.046 29.1133 745.406 29.3 745.793 29.46C746.179 29.62 746.579 29.74 746.993 29.82C747.406 29.9 747.813 29.94 748.213 29.94C748.853 29.94 749.326 29.8333 749.633 29.62C749.953 29.3933 750.113 29.1 750.113 28.74C750.113 28.4333 750.006 28.2 749.793 28.04C749.593 27.8667 749.286 27.74 748.873 27.66L746.873 27.28C746.046 27.12 745.413 26.82 744.973 26.38C744.546 25.9267 744.333 25.3467 744.333 24.64C744.333 24 744.506 23.4467 744.853 22.98C745.213 22.5133 745.706 22.1533 746.333 21.9C746.959 21.6467 747.679 21.52 748.493 21.52C748.959 21.52 749.413 21.5667 749.853 21.66C750.293 21.74 750.706 21.8667 751.093 22.04C751.493 22.2 751.839 22.4133 752.133 22.68L751.453 24.32C751.199 24.1067 750.906 23.9267 750.573 23.78C750.239 23.62 749.893 23.5 749.533 23.42C749.186 23.3267 748.846 23.28 748.513 23.28C747.859 23.28 747.373 23.3933 747.053 23.62C746.746 23.8467 746.593 24.1467 746.593 24.52C746.593 24.8 746.686 25.0333 746.873 25.22C747.059 25.4067 747.346 25.5333 747.733 25.6L749.733 25.98C750.599 26.14 751.253 26.4333 751.693 26.86C752.146 27.2867 752.373 27.86 752.373 28.58C752.373 29.2333 752.199 29.7933 751.853 30.26C751.506 30.7267 751.019 31.0867 750.393 31.34C749.766 31.58 749.033 31.7 748.193 31.7ZM758.898 31.7C757.871 31.7 756.978 31.4933 756.218 31.08C755.458 30.6533 754.871 30.0533 754.458 29.28C754.045 28.5067 753.838 27.6 753.838 26.56C753.838 25.52 754.045 24.6267 754.458 23.88C754.871 23.12 755.458 22.54 756.218 22.14C756.978 21.7267 757.871 21.52 758.898 21.52C759.525 21.52 760.145 21.62 760.758 21.82C761.371 22.02 761.878 22.3 762.278 22.66L761.538 24.4C761.191 24.0933 760.798 23.86 760.358 23.7C759.931 23.54 759.518 23.46 759.118 23.46C758.251 23.46 757.578 23.7333 757.098 24.28C756.631 24.8133 756.398 25.58 756.398 26.58C756.398 27.5667 756.631 28.3467 757.098 28.92C757.578 29.48 758.251 29.76 759.118 29.76C759.505 29.76 759.918 29.68 760.358 29.52C760.798 29.36 761.191 29.12 761.538 28.8L762.278 30.56C761.878 30.9067 761.365 31.1867 760.738 31.4C760.125 31.6 759.511 31.7 758.898 31.7ZM763.812 31.5V21.72H766.252V24.08H766.052C766.238 23.28 766.605 22.6733 767.152 22.26C767.698 21.8333 768.425 21.5867 769.332 21.52L770.092 21.46L770.252 23.58L768.812 23.72C767.998 23.8 767.385 24.0533 766.972 24.48C766.558 24.8933 766.352 25.48 766.352 26.24V31.5H763.812ZM771.484 19.62V17.18H774.284V19.62H771.484ZM771.644 31.5V21.72H774.144V31.5H771.644ZM782.381 31.7C781.555 31.7 780.828 31.4933 780.201 31.08C779.588 30.6667 779.181 30.1133 778.981 29.42H779.181V31.5H776.741V17.4H779.241V23.7H779.001C779.215 23.0467 779.628 22.52 780.241 22.12C780.855 21.72 781.568 21.52 782.381 21.52C783.248 21.52 784.001 21.7267 784.641 22.14C785.281 22.5533 785.781 23.14 786.141 23.9C786.501 24.6467 786.681 25.5467 786.681 26.6C786.681 27.64 786.501 28.5467 786.141 29.32C785.781 30.08 785.275 30.6667 784.621 31.08C783.981 31.4933 783.235 31.7 782.381 31.7ZM781.681 29.8C782.428 29.8 783.028 29.5333 783.481 29C783.935 28.4533 784.161 27.6533 784.161 26.6C784.161 25.5333 783.935 24.74 783.481 24.22C783.028 23.6867 782.428 23.42 781.681 23.42C780.935 23.42 780.335 23.6867 779.881 24.22C779.428 24.74 779.201 25.5333 779.201 26.6C779.201 27.6533 779.428 28.4533 779.881 29C780.335 29.5333 780.935 29.8 781.681 29.8ZM793.554 31.7C792.447 31.7 791.494 31.4933 790.694 31.08C789.894 30.6667 789.274 30.08 788.834 29.32C788.407 28.56 788.194 27.66 788.194 26.62C788.194 25.6067 788.4 24.72 788.814 23.96C789.24 23.2 789.82 22.6067 790.554 22.18C791.3 21.74 792.147 21.52 793.094 21.52C794.027 21.52 794.827 21.72 795.494 22.12C796.16 22.52 796.674 23.0867 797.034 23.82C797.407 24.5533 797.594 25.4267 797.594 26.44V27.18H790.214V25.74H795.834L795.514 26.04C795.514 25.1333 795.314 24.44 794.914 23.96C794.514 23.4667 793.94 23.22 793.194 23.22C792.634 23.22 792.154 23.3533 791.754 23.62C791.367 23.8733 791.067 24.24 790.854 24.72C790.654 25.1867 790.554 25.7467 790.554 26.4V26.54C790.554 27.2733 790.667 27.88 790.894 28.36C791.12 28.84 791.46 29.2 791.914 29.44C792.367 29.68 792.927 29.8 793.594 29.8C794.14 29.8 794.687 29.72 795.234 29.56C795.78 29.3867 796.28 29.12 796.734 28.76L797.434 30.44C796.967 30.8267 796.38 31.1333 795.674 31.36C794.967 31.5867 794.26 31.7 793.554 31.7ZM799.573 31.5V21.72H802.013V24.08H801.813C802 23.28 802.367 22.6733 802.913 22.26C803.46 21.8333 804.187 21.5867 805.093 21.52L805.853 21.46L806.013 23.58L804.573 23.72C803.76 23.8 803.147 24.0533 802.733 24.48C802.32 24.8933 802.113 25.48 802.113 26.24V31.5H799.573Z" fill="black" fill-opacity="0.8"/>
</svg>
