<svg width="595" height="50" viewBox="0 0 595 50" fill="none" xmlns="http://www.w3.org/2000/svg">
<rect x="0.5" y="0.5" width="139" height="49" rx="4.5" fill="#FF7A00"/>
<path d="M36.0833 15.0833C36.0833 13.8 35.0333 12.75 33.75 12.75H15.0833C13.8 12.75 12.75 13.8 12.75 15.0833V36.0833L17.4167 31.4167H27.9167V22.0833H36.0833V15.0833ZM36.6667 29.0833H34.1L36.0833 24.4167H30.25V31.4167H32.5833V37.25L36.6667 29.0833Z" fill="black" fill-opacity="0.6"/>
<path d="M55.54 31.5V17.4H58.1V29.32H64.86V31.5H55.54ZM66.3705 19.62V17.18H69.1705V19.62H66.3705ZM66.5305 31.5V21.72H69.0305V31.5H66.5305ZM75.2081 31.7C74.3815 31.7 73.6081 31.6 72.8881 31.4C72.1681 31.2 71.5681 30.9133 71.0881 30.54L71.7281 28.9C72.2215 29.2333 72.7748 29.4933 73.3881 29.68C74.0015 29.8533 74.6148 29.94 75.2281 29.94C75.8681 29.94 76.3415 29.8333 76.6481 29.62C76.9681 29.3933 77.1281 29.1 77.1281 28.74C77.1281 28.18 76.7148 27.82 75.8881 27.66L73.8881 27.28C72.1948 26.96 71.3481 26.08 71.3481 24.64C71.3481 24 71.5215 23.4467 71.8681 22.98C72.2281 22.5133 72.7215 22.1533 73.3481 21.9C73.9748 21.6467 74.6948 21.52 75.5081 21.52C76.2015 21.52 76.8681 21.62 77.5081 21.82C78.1481 22.0067 78.6948 22.2933 79.1481 22.68L78.4681 24.32C78.0815 24 77.6148 23.7467 77.0681 23.56C76.5348 23.3733 76.0215 23.28 75.5281 23.28C74.8748 23.28 74.3881 23.3933 74.0681 23.62C73.7615 23.8467 73.6081 24.1467 73.6081 24.52C73.6081 25.1067 73.9881 25.4667 74.7481 25.6L76.7481 25.98C77.6148 26.14 78.2681 26.4333 78.7081 26.86C79.1615 27.2867 79.3881 27.86 79.3881 28.58C79.3881 29.5533 79.0081 30.32 78.2481 30.88C77.4881 31.4267 76.4748 31.7 75.2081 31.7ZM85.7761 31.7C83.1894 31.7 81.8961 30.42 81.8961 27.86V23.6H80.0161V21.72H81.8961V18.8H84.3961V21.72H87.3561V23.6H84.3961V27.72C84.3961 28.36 84.5361 28.84 84.8161 29.16C85.0961 29.48 85.5494 29.64 86.1761 29.64C86.3628 29.64 86.5561 29.62 86.7561 29.58C86.9561 29.5267 87.1628 29.4733 87.3761 29.42L87.7561 31.26C87.5161 31.3933 87.2094 31.5 86.8361 31.58C86.4761 31.66 86.1228 31.7 85.7761 31.7ZM93.6942 31.7C92.5876 31.7 91.6342 31.4933 90.8342 31.08C90.0342 30.6667 89.4142 30.08 88.9742 29.32C88.5476 28.56 88.3342 27.66 88.3342 26.62C88.3342 25.6067 88.5409 24.72 88.9542 23.96C89.3809 23.2 89.9609 22.6067 90.6942 22.18C91.4409 21.74 92.2876 21.52 93.2342 21.52C94.6209 21.52 95.7142 21.96 96.5142 22.84C97.3276 23.72 97.7342 24.92 97.7342 26.44V27.18H90.7342C90.9209 28.9267 91.9209 29.8 93.7342 29.8C94.2809 29.8 94.8276 29.72 95.3742 29.56C95.9209 29.3867 96.4209 29.12 96.8742 28.76L97.5742 30.44C97.1076 30.8267 96.5209 31.1333 95.8142 31.36C95.1076 31.5867 94.4009 31.7 93.6942 31.7ZM93.3342 23.22C92.6009 23.22 92.0076 23.4467 91.5542 23.9C91.1009 24.3533 90.8276 24.9667 90.7342 25.74H95.6542C95.6009 24.9267 95.3742 24.3067 94.9742 23.88C94.5876 23.44 94.0409 23.22 93.3342 23.22ZM99.7141 31.5V21.72H102.154V23.24C102.487 22.68 102.934 22.2533 103.494 21.96C104.067 21.6667 104.707 21.52 105.414 21.52C107.721 21.52 108.874 22.86 108.874 25.54V31.5H106.374V25.66C106.374 24.9 106.227 24.3467 105.934 24C105.654 23.6533 105.214 23.48 104.614 23.48C103.881 23.48 103.294 23.7133 102.854 24.18C102.427 24.6333 102.214 25.24 102.214 26V31.5H99.7141ZM116.233 31.7C115.127 31.7 114.173 31.4933 113.373 31.08C112.573 30.6667 111.953 30.08 111.513 29.32C111.087 28.56 110.873 27.66 110.873 26.62C110.873 25.6067 111.08 24.72 111.493 23.96C111.92 23.2 112.5 22.6067 113.233 22.18C113.98 21.74 114.827 21.52 115.773 21.52C117.16 21.52 118.253 21.96 119.053 22.84C119.867 23.72 120.273 24.92 120.273 26.44V27.18H113.273C113.46 28.9267 114.46 29.8 116.273 29.8C116.82 29.8 117.367 29.72 117.913 29.56C118.46 29.3867 118.96 29.12 119.413 28.76L120.113 30.44C119.647 30.8267 119.06 31.1333 118.353 31.36C117.647 31.5867 116.94 31.7 116.233 31.7ZM115.873 23.22C115.14 23.22 114.547 23.4467 114.093 23.9C113.64 24.3533 113.367 24.9667 113.273 25.74H118.193C118.14 24.9267 117.913 24.3067 117.513 23.88C117.127 23.44 116.58 23.22 115.873 23.22ZM122.253 31.5V21.72H124.693V23.44C125.173 22.28 126.2 21.64 127.773 21.52L128.533 21.46L128.693 23.58L127.253 23.72C125.613 23.88 124.793 24.72 124.793 26.24V31.5H122.253Z" fill="black" fill-opacity="0.8"/>
<rect x="0.5" y="0.5" width="139" height="49" rx="4.5" stroke="#F27400"/>
<rect x="161.5" y="0.5" width="248" height="49" rx="4.5" fill="#C8C000"/>
<path d="M195.5 12H175.5C174.837 12 174.201 12.2634 173.732 12.7322C173.263 13.2011 173 13.837 173 14.5V37L178 32H195.5C196.163 32 196.799 31.7366 197.268 31.2678C197.737 30.7989 198 30.163 198 29.5V14.5C198 13.1125 196.875 12 195.5 12Z" fill="black" fill-opacity="0.6"/>
<path d="M216.58 31.5V17.4H218.72L223.72 26.62L228.7 17.4H230.8V31.5H228.48V22L224.44 29.36H222.94L218.9 22.04V31.5H216.58ZM238.483 31.7C237.377 31.7 236.423 31.4933 235.623 31.08C234.823 30.6667 234.203 30.08 233.763 29.32C233.337 28.56 233.123 27.66 233.123 26.62C233.123 25.6067 233.33 24.72 233.743 23.96C234.17 23.2 234.75 22.6067 235.483 22.18C236.23 21.74 237.077 21.52 238.023 21.52C239.41 21.52 240.503 21.96 241.303 22.84C242.117 23.72 242.523 24.92 242.523 26.44V27.18H235.523C235.71 28.9267 236.71 29.8 238.523 29.8C239.07 29.8 239.617 29.72 240.163 29.56C240.71 29.3867 241.21 29.12 241.663 28.76L242.363 30.44C241.897 30.8267 241.31 31.1333 240.603 31.36C239.897 31.5867 239.19 31.7 238.483 31.7ZM238.123 23.22C237.39 23.22 236.797 23.4467 236.343 23.9C235.89 24.3533 235.617 24.9667 235.523 25.74H240.443C240.39 24.9267 240.163 24.3067 239.763 23.88C239.377 23.44 238.83 23.22 238.123 23.22ZM248.083 31.7C247.256 31.7 246.483 31.6 245.763 31.4C245.043 31.2 244.443 30.9133 243.963 30.54L244.603 28.9C245.096 29.2333 245.65 29.4933 246.263 29.68C246.876 29.8533 247.49 29.94 248.103 29.94C248.743 29.94 249.216 29.8333 249.523 29.62C249.843 29.3933 250.003 29.1 250.003 28.74C250.003 28.18 249.59 27.82 248.763 27.66L246.763 27.28C245.07 26.96 244.223 26.08 244.223 24.64C244.223 24 244.396 23.4467 244.743 22.98C245.103 22.5133 245.596 22.1533 246.223 21.9C246.85 21.6467 247.57 21.52 248.383 21.52C249.076 21.52 249.743 21.62 250.383 21.82C251.023 22.0067 251.57 22.2933 252.023 22.68L251.343 24.32C250.956 24 250.49 23.7467 249.943 23.56C249.41 23.3733 248.896 23.28 248.403 23.28C247.75 23.28 247.263 23.3933 246.943 23.62C246.636 23.8467 246.483 24.1467 246.483 24.52C246.483 25.1067 246.863 25.4667 247.623 25.6L249.623 25.98C250.49 26.14 251.143 26.4333 251.583 26.86C252.036 27.2867 252.263 27.86 252.263 28.58C252.263 29.5533 251.883 30.32 251.123 30.88C250.363 31.4267 249.35 31.7 248.083 31.7ZM257.849 31.7C257.022 31.7 256.249 31.6 255.529 31.4C254.809 31.2 254.209 30.9133 253.729 30.54L254.369 28.9C254.862 29.2333 255.415 29.4933 256.029 29.68C256.642 29.8533 257.255 29.94 257.869 29.94C258.509 29.94 258.982 29.8333 259.289 29.62C259.609 29.3933 259.769 29.1 259.769 28.74C259.769 28.18 259.355 27.82 258.529 27.66L256.529 27.28C254.835 26.96 253.989 26.08 253.989 24.64C253.989 24 254.162 23.4467 254.509 22.98C254.869 22.5133 255.362 22.1533 255.989 21.9C256.615 21.6467 257.335 21.52 258.149 21.52C258.842 21.52 259.509 21.62 260.149 21.82C260.789 22.0067 261.335 22.2933 261.789 22.68L261.109 24.32C260.722 24 260.255 23.7467 259.709 23.56C259.175 23.3733 258.662 23.28 258.169 23.28C257.515 23.28 257.029 23.3933 256.709 23.62C256.402 23.8467 256.249 24.1467 256.249 24.52C256.249 25.1067 256.629 25.4667 257.389 25.6L259.389 25.98C260.255 26.14 260.909 26.4333 261.349 26.86C261.802 27.2867 262.029 27.86 262.029 28.58C262.029 29.5533 261.649 30.32 260.889 30.88C260.129 31.4267 259.115 31.7 257.849 31.7ZM267.254 31.7C266.548 31.7 265.914 31.5667 265.354 31.3C264.808 31.02 264.374 30.6467 264.054 30.18C263.748 29.7133 263.594 29.1867 263.594 28.6C263.594 27.88 263.781 27.3133 264.154 26.9C264.528 26.4733 265.134 26.1667 265.974 25.98C266.814 25.7933 267.941 25.7 269.354 25.7H270.054V25.28C270.054 24.6133 269.908 24.1333 269.614 23.84C269.321 23.5467 268.828 23.4 268.134 23.4C267.588 23.4 267.028 23.4867 266.454 23.66C265.881 23.82 265.301 24.0733 264.714 24.42L263.994 22.72C264.341 22.48 264.748 22.2733 265.214 22.1C265.694 21.9133 266.194 21.7733 266.714 21.68C267.248 21.5733 267.748 21.52 268.214 21.52C269.641 21.52 270.701 21.8533 271.394 22.52C272.088 23.1733 272.434 24.1933 272.434 25.58V31.5H270.094V29.94C269.868 30.4867 269.508 30.92 269.014 31.24C268.521 31.5467 267.934 31.7 267.254 31.7ZM267.774 29.98C268.428 29.98 268.968 29.7533 269.394 29.3C269.834 28.8467 270.054 28.2733 270.054 27.58V27.14H269.374C268.121 27.14 267.248 27.24 266.754 27.44C266.274 27.6267 266.034 27.9733 266.034 28.48C266.034 28.92 266.188 29.28 266.494 29.56C266.801 29.84 267.228 29.98 267.774 29.98ZM279.532 35.3C278.625 35.3 277.772 35.1933 276.972 34.98C276.185 34.78 275.492 34.4667 274.892 34.04L275.612 32.3C276.172 32.6733 276.772 32.9467 277.412 33.12C278.052 33.3067 278.692 33.4 279.332 33.4C281.119 33.4 282.012 32.54 282.012 30.82V29.48C281.732 30.0267 281.299 30.46 280.712 30.78C280.139 31.1 279.499 31.26 278.792 31.26C277.912 31.26 277.145 31.06 276.492 30.66C275.839 30.2467 275.332 29.6733 274.972 28.94C274.612 28.2067 274.432 27.3533 274.432 26.38C274.432 25.4067 274.612 24.56 274.972 23.84C275.332 23.1067 275.839 22.54 276.492 22.14C277.145 21.7267 277.912 21.52 278.792 21.52C279.525 21.52 280.179 21.6867 280.752 22.02C281.325 22.34 281.745 22.7733 282.012 23.32V21.72H284.452V30.52C284.452 32.1067 284.032 33.3 283.192 34.1C282.352 34.9 281.132 35.3 279.532 35.3ZM279.472 29.36C280.245 29.36 280.859 29.0933 281.312 28.56C281.765 28.0267 281.992 27.3 281.992 26.38C281.992 25.46 281.765 24.74 281.312 24.22C280.859 23.6867 280.245 23.42 279.472 23.42C278.699 23.42 278.085 23.6867 277.632 24.22C277.179 24.74 276.952 25.46 276.952 26.38C276.952 27.3 277.179 28.0267 277.632 28.56C278.085 29.0933 278.699 29.36 279.472 29.36ZM291.862 31.7C290.756 31.7 289.802 31.4933 289.002 31.08C288.202 30.6667 287.582 30.08 287.142 29.32C286.716 28.56 286.502 27.66 286.502 26.62C286.502 25.6067 286.709 24.72 287.122 23.96C287.549 23.2 288.129 22.6067 288.862 22.18C289.609 21.74 290.456 21.52 291.402 21.52C292.789 21.52 293.882 21.96 294.682 22.84C295.496 23.72 295.902 24.92 295.902 26.44V27.18H288.902C289.089 28.9267 290.089 29.8 291.902 29.8C292.449 29.8 292.996 29.72 293.542 29.56C294.089 29.3867 294.589 29.12 295.042 28.76L295.742 30.44C295.276 30.8267 294.689 31.1333 293.982 31.36C293.276 31.5867 292.569 31.7 291.862 31.7ZM291.502 23.22C290.769 23.22 290.176 23.4467 289.722 23.9C289.269 24.3533 288.996 24.9667 288.902 25.74H293.822C293.769 24.9267 293.542 24.3067 293.142 23.88C292.756 23.44 292.209 23.22 291.502 23.22ZM306.853 31.7C306.026 31.7 305.253 31.6 304.533 31.4C303.813 31.2 303.213 30.9133 302.733 30.54L303.373 28.9C303.866 29.2333 304.419 29.4933 305.033 29.68C305.646 29.8533 306.259 29.94 306.873 29.94C307.513 29.94 307.986 29.8333 308.293 29.62C308.613 29.3933 308.773 29.1 308.773 28.74C308.773 28.18 308.359 27.82 307.533 27.66L305.533 27.28C303.839 26.96 302.993 26.08 302.993 24.64C302.993 24 303.166 23.4467 303.513 22.98C303.873 22.5133 304.366 22.1533 304.993 21.9C305.619 21.6467 306.339 21.52 307.153 21.52C307.846 21.52 308.513 21.62 309.153 21.82C309.793 22.0067 310.339 22.2933 310.793 22.68L310.113 24.32C309.726 24 309.259 23.7467 308.713 23.56C308.179 23.3733 307.666 23.28 307.173 23.28C306.519 23.28 306.033 23.3933 305.713 23.62C305.406 23.8467 305.253 24.1467 305.253 24.52C305.253 25.1067 305.633 25.4667 306.393 25.6L308.393 25.98C309.259 26.14 309.913 26.4333 310.353 26.86C310.806 27.2867 311.033 27.86 311.033 28.58C311.033 29.5533 310.653 30.32 309.893 30.88C309.133 31.4267 308.119 31.7 306.853 31.7ZM316.578 31.7C314.178 31.7 312.978 30.3533 312.978 27.66V21.72H315.478V27.7C315.478 28.3933 315.618 28.9067 315.898 29.24C316.178 29.5733 316.625 29.74 317.238 29.74C317.905 29.74 318.452 29.5133 318.878 29.06C319.305 28.5933 319.518 27.98 319.518 27.22V21.72H322.018V31.5H319.578V30.04C318.925 31.1467 317.925 31.7 316.578 31.7ZM330.26 31.7C329.54 31.7 328.894 31.54 328.32 31.22C327.76 30.9 327.34 30.4667 327.06 29.92V31.5H324.62V17.4H327.12V23.16C327.414 22.6667 327.834 22.2733 328.38 21.98C328.94 21.6733 329.567 21.52 330.26 21.52C331.127 21.52 331.88 21.7267 332.52 22.14C333.16 22.5533 333.66 23.14 334.02 23.9C334.38 24.6467 334.56 25.5467 334.56 26.6C334.56 27.64 334.38 28.5467 334.02 29.32C333.66 30.08 333.154 30.6667 332.5 31.08C331.86 31.4933 331.114 31.7 330.26 31.7ZM329.56 29.8C330.307 29.8 330.907 29.5333 331.36 29C331.814 28.4533 332.04 27.6533 332.04 26.6C332.04 25.5333 331.814 24.74 331.36 24.22C330.907 23.6867 330.307 23.42 329.56 23.42C328.814 23.42 328.214 23.6867 327.76 24.22C327.307 24.74 327.08 25.5333 327.08 26.6C327.08 27.6533 327.307 28.4533 327.76 29C328.214 29.5333 328.814 29.8 329.56 29.8ZM340.193 31.7C339.366 31.7 338.593 31.6 337.873 31.4C337.153 31.2 336.553 30.9133 336.073 30.54L336.713 28.9C337.206 29.2333 337.759 29.4933 338.373 29.68C338.986 29.8533 339.599 29.94 340.213 29.94C340.853 29.94 341.326 29.8333 341.633 29.62C341.953 29.3933 342.113 29.1 342.113 28.74C342.113 28.18 341.699 27.82 340.873 27.66L338.873 27.28C337.179 26.96 336.333 26.08 336.333 24.64C336.333 24 336.506 23.4467 336.853 22.98C337.213 22.5133 337.706 22.1533 338.333 21.9C338.959 21.6467 339.679 21.52 340.493 21.52C341.186 21.52 341.853 21.62 342.493 21.82C343.133 22.0067 343.679 22.2933 344.133 22.68L343.453 24.32C343.066 24 342.599 23.7467 342.053 23.56C341.519 23.3733 341.006 23.28 340.513 23.28C339.859 23.28 339.373 23.3933 339.053 23.62C338.746 23.8467 338.593 24.1467 338.593 24.52C338.593 25.1067 338.973 25.4667 339.733 25.6L341.733 25.98C342.599 26.14 343.253 26.4333 343.693 26.86C344.146 27.2867 344.373 27.86 344.373 28.58C344.373 29.5533 343.993 30.32 343.233 30.88C342.473 31.4267 341.459 31.7 340.193 31.7ZM350.898 31.7C349.871 31.7 348.978 31.4933 348.218 31.08C347.458 30.6533 346.871 30.0533 346.458 29.28C346.045 28.5067 345.838 27.6 345.838 26.56C345.838 25.52 346.045 24.6267 346.458 23.88C346.871 23.12 347.458 22.54 348.218 22.14C348.978 21.7267 349.871 21.52 350.898 21.52C351.525 21.52 352.145 21.62 352.758 21.82C353.371 22.02 353.878 22.3 354.278 22.66L353.538 24.4C353.191 24.0933 352.798 23.86 352.358 23.7C351.931 23.54 351.518 23.46 351.118 23.46C350.251 23.46 349.578 23.7333 349.098 24.28C348.631 24.8133 348.398 25.58 348.398 26.58C348.398 27.5667 348.631 28.3467 349.098 28.92C349.578 29.48 350.251 29.76 351.118 29.76C351.505 29.76 351.918 29.68 352.358 29.52C352.798 29.36 353.191 29.12 353.538 28.8L354.278 30.56C353.878 30.9067 353.365 31.1867 352.738 31.4C352.125 31.6 351.511 31.7 350.898 31.7ZM355.812 31.5V21.72H358.252V23.44C358.732 22.28 359.758 21.64 361.332 21.52L362.092 21.46L362.252 23.58L360.812 23.72C359.172 23.88 358.352 24.72 358.352 26.24V31.5H355.812ZM363.484 19.62V17.18H366.284V19.62H363.484ZM363.644 31.5V21.72H366.144V31.5H363.644ZM374.381 31.7C373.661 31.7 373.015 31.54 372.441 31.22C371.881 30.9 371.461 30.4667 371.181 29.92V31.5H368.741V17.4H371.241V23.16C371.535 22.6667 371.955 22.2733 372.501 21.98C373.061 21.6733 373.688 21.52 374.381 21.52C375.248 21.52 376.001 21.7267 376.641 22.14C377.281 22.5533 377.781 23.14 378.141 23.9C378.501 24.6467 378.681 25.5467 378.681 26.6C378.681 27.64 378.501 28.5467 378.141 29.32C377.781 30.08 377.275 30.6667 376.621 31.08C375.981 31.4933 375.235 31.7 374.381 31.7ZM373.681 29.8C374.428 29.8 375.028 29.5333 375.481 29C375.935 28.4533 376.161 27.6533 376.161 26.6C376.161 25.5333 375.935 24.74 375.481 24.22C375.028 23.6867 374.428 23.42 373.681 23.42C372.935 23.42 372.335 23.6867 371.881 24.22C371.428 24.74 371.201 25.5333 371.201 26.6C371.201 27.6533 371.428 28.4533 371.881 29C372.335 29.5333 372.935 29.8 373.681 29.8ZM385.554 31.7C384.447 31.7 383.494 31.4933 382.694 31.08C381.894 30.6667 381.274 30.08 380.834 29.32C380.407 28.56 380.194 27.66 380.194 26.62C380.194 25.6067 380.4 24.72 380.814 23.96C381.24 23.2 381.82 22.6067 382.554 22.18C383.3 21.74 384.147 21.52 385.094 21.52C386.48 21.52 387.574 21.96 388.374 22.84C389.187 23.72 389.594 24.92 389.594 26.44V27.18H382.594C382.78 28.9267 383.78 29.8 385.594 29.8C386.14 29.8 386.687 29.72 387.234 29.56C387.78 29.3867 388.28 29.12 388.734 28.76L389.434 30.44C388.967 30.8267 388.38 31.1333 387.674 31.36C386.967 31.5867 386.26 31.7 385.554 31.7ZM385.194 23.22C384.46 23.22 383.867 23.4467 383.414 23.9C382.96 24.3533 382.687 24.9667 382.594 25.74H387.514C387.46 24.9267 387.234 24.3067 386.834 23.88C386.447 23.44 385.9 23.22 385.194 23.22ZM391.573 31.5V21.72H394.013V23.44C394.493 22.28 395.52 21.64 397.093 21.52L397.853 21.46L398.013 23.58L396.573 23.72C394.933 23.88 394.113 24.72 394.113 26.24V31.5H391.573Z" fill="black" fill-opacity="0.8"/>
<rect x="161.5" y="0.5" width="248" height="49" rx="4.5" stroke="#BBB400"/>
<rect x="431.5" y="0.5" width="163" height="49" rx="4.5" fill="#EBEBEB"/>
<path d="M446.2 21H451.8V23.8H446.2V21ZM470 21V33.6C470 34.3426 469.705 35.0548 469.18 35.5799C468.655 36.105 467.943 36.4 467.2 36.4H442V21C442 19.1435 442.737 17.363 444.05 16.0503C445.363 14.7375 447.143 14 449 14H463C464.857 14 466.637 14.7375 467.95 16.0503C469.263 17.363 470 19.1435 470 21ZM453.2 21C453.2 19.8861 452.758 18.8178 451.97 18.0302C451.182 17.2425 450.114 16.8 449 16.8C447.886 16.8 446.818 17.2425 446.03 18.0302C445.242 18.8178 444.8 19.8861 444.8 21V33.6H453.2V21ZM461.6 18.2H456V26.6H458.8V21H461.6V18.2Z" fill="black" fill-opacity="0.6"/>
<path d="M491.4 31.7C490.293 31.7 489.267 31.56 488.32 31.28C487.373 30.9867 486.573 30.5933 485.92 30.1L486.7 28.08C487.353 28.5467 488.067 28.9067 488.84 29.16C489.627 29.4133 490.48 29.54 491.4 29.54C492.453 29.54 493.22 29.3667 493.7 29.02C494.18 28.66 494.42 28.2 494.42 27.64C494.42 27.1733 494.247 26.8067 493.9 26.54C493.567 26.2733 492.987 26.0533 492.16 25.88L489.96 25.42C487.453 24.8867 486.2 23.6 486.2 21.56C486.2 20.68 486.433 19.9133 486.9 19.26C487.367 18.6067 488.013 18.1 488.84 17.74C489.667 17.38 490.62 17.2 491.7 17.2C492.66 17.2 493.56 17.3467 494.4 17.64C495.24 17.92 495.94 18.32 496.5 18.84L495.72 20.76C494.613 19.8267 493.267 19.36 491.68 19.36C490.76 19.36 490.04 19.5533 489.52 19.94C489 20.3267 488.74 20.8333 488.74 21.46C488.74 21.94 488.9 22.3267 489.22 22.62C489.54 22.9 490.087 23.12 490.86 23.28L493.04 23.74C494.36 24.02 495.34 24.46 495.98 25.06C496.633 25.66 496.96 26.46 496.96 27.46C496.96 28.3 496.733 29.04 496.28 29.68C495.827 30.32 495.18 30.82 494.34 31.18C493.513 31.5267 492.533 31.7 491.4 31.7ZM502.457 31.7C500.057 31.7 498.857 30.3533 498.857 27.66V21.72H501.357V27.7C501.357 28.3933 501.497 28.9067 501.777 29.24C502.057 29.5733 502.504 29.74 503.117 29.74C503.784 29.74 504.331 29.5133 504.757 29.06C505.184 28.5933 505.397 27.98 505.397 27.22V21.72H507.897V31.5H505.457V30.04C504.804 31.1467 503.804 31.7 502.457 31.7ZM516.139 31.7C515.419 31.7 514.773 31.54 514.199 31.22C513.639 30.9 513.219 30.4667 512.939 29.92V31.5H510.499V17.4H512.999V23.16C513.293 22.6667 513.713 22.2733 514.259 21.98C514.819 21.6733 515.446 21.52 516.139 21.52C517.006 21.52 517.759 21.7267 518.399 22.14C519.039 22.5533 519.539 23.14 519.899 23.9C520.259 24.6467 520.439 25.5467 520.439 26.6C520.439 27.64 520.259 28.5467 519.899 29.32C519.539 30.08 519.033 30.6667 518.379 31.08C517.739 31.4933 516.993 31.7 516.139 31.7ZM515.439 29.8C516.186 29.8 516.786 29.5333 517.239 29C517.693 28.4533 517.919 27.6533 517.919 26.6C517.919 25.5333 517.693 24.74 517.239 24.22C516.786 23.6867 516.186 23.42 515.439 23.42C514.693 23.42 514.093 23.6867 513.639 24.22C513.186 24.74 512.959 25.5333 512.959 26.6C512.959 27.6533 513.186 28.4533 513.639 29C514.093 29.5333 514.693 29.8 515.439 29.8ZM526.071 31.7C525.245 31.7 524.471 31.6 523.751 31.4C523.031 31.2 522.431 30.9133 521.951 30.54L522.591 28.9C523.085 29.2333 523.638 29.4933 524.251 29.68C524.865 29.8533 525.478 29.94 526.091 29.94C526.731 29.94 527.205 29.8333 527.511 29.62C527.831 29.3933 527.991 29.1 527.991 28.74C527.991 28.18 527.578 27.82 526.751 27.66L524.751 27.28C523.058 26.96 522.211 26.08 522.211 24.64C522.211 24 522.385 23.4467 522.731 22.98C523.091 22.5133 523.585 22.1533 524.211 21.9C524.838 21.6467 525.558 21.52 526.371 21.52C527.065 21.52 527.731 21.62 528.371 21.82C529.011 22.0067 529.558 22.2933 530.011 22.68L529.331 24.32C528.945 24 528.478 23.7467 527.931 23.56C527.398 23.3733 526.885 23.28 526.391 23.28C525.738 23.28 525.251 23.3933 524.931 23.62C524.625 23.8467 524.471 24.1467 524.471 24.52C524.471 25.1067 524.851 25.4667 525.611 25.6L527.611 25.98C528.478 26.14 529.131 26.4333 529.571 26.86C530.025 27.2867 530.251 27.86 530.251 28.58C530.251 29.5533 529.871 30.32 529.111 30.88C528.351 31.4267 527.338 31.7 526.071 31.7ZM536.777 31.7C535.75 31.7 534.857 31.4933 534.097 31.08C533.337 30.6533 532.75 30.0533 532.337 29.28C531.924 28.5067 531.717 27.6 531.717 26.56C531.717 25.52 531.924 24.6267 532.337 23.88C532.75 23.12 533.337 22.54 534.097 22.14C534.857 21.7267 535.75 21.52 536.777 21.52C537.404 21.52 538.024 21.62 538.637 21.82C539.25 22.02 539.757 22.3 540.157 22.66L539.417 24.4C539.07 24.0933 538.677 23.86 538.237 23.7C537.81 23.54 537.397 23.46 536.997 23.46C536.13 23.46 535.457 23.7333 534.977 24.28C534.51 24.8133 534.277 25.58 534.277 26.58C534.277 27.5667 534.51 28.3467 534.977 28.92C535.457 29.48 536.13 29.76 536.997 29.76C537.384 29.76 537.797 29.68 538.237 29.52C538.677 29.36 539.07 29.12 539.417 28.8L540.157 30.56C539.757 30.9067 539.244 31.1867 538.617 31.4C538.004 31.6 537.39 31.7 536.777 31.7ZM541.691 31.5V21.72H544.131V23.44C544.611 22.28 545.637 21.64 547.211 21.52L547.971 21.46L548.131 23.58L546.691 23.72C545.051 23.88 544.231 24.72 544.231 26.24V31.5H541.691ZM549.363 19.62V17.18H552.163V19.62H549.363ZM549.523 31.5V21.72H552.023V31.5H549.523ZM560.26 31.7C559.54 31.7 558.894 31.54 558.32 31.22C557.76 30.9 557.34 30.4667 557.06 29.92V31.5H554.62V17.4H557.12V23.16C557.414 22.6667 557.834 22.2733 558.38 21.98C558.94 21.6733 559.567 21.52 560.26 21.52C561.127 21.52 561.88 21.7267 562.52 22.14C563.16 22.5533 563.66 23.14 564.02 23.9C564.38 24.6467 564.56 25.5467 564.56 26.6C564.56 27.64 564.38 28.5467 564.02 29.32C563.66 30.08 563.154 30.6667 562.5 31.08C561.86 31.4933 561.114 31.7 560.26 31.7ZM559.56 29.8C560.307 29.8 560.907 29.5333 561.36 29C561.814 28.4533 562.04 27.6533 562.04 26.6C562.04 25.5333 561.814 24.74 561.36 24.22C560.907 23.6867 560.307 23.42 559.56 23.42C558.814 23.42 558.214 23.6867 557.76 24.22C557.307 24.74 557.08 25.5333 557.08 26.6C557.08 27.6533 557.307 28.4533 557.76 29C558.214 29.5333 558.814 29.8 559.56 29.8ZM571.433 31.7C570.326 31.7 569.373 31.4933 568.573 31.08C567.773 30.6667 567.153 30.08 566.713 29.32C566.286 28.56 566.073 27.66 566.073 26.62C566.073 25.6067 566.279 24.72 566.693 23.96C567.119 23.2 567.699 22.6067 568.433 22.18C569.179 21.74 570.026 21.52 570.973 21.52C572.359 21.52 573.453 21.96 574.253 22.84C575.066 23.72 575.473 24.92 575.473 26.44V27.18H568.473C568.659 28.9267 569.659 29.8 571.473 29.8C572.019 29.8 572.566 29.72 573.113 29.56C573.659 29.3867 574.159 29.12 574.613 28.76L575.312 30.44C574.846 30.8267 574.259 31.1333 573.553 31.36C572.846 31.5867 572.139 31.7 571.433 31.7ZM571.073 23.22C570.339 23.22 569.746 23.4467 569.293 23.9C568.839 24.3533 568.566 24.9667 568.473 25.74H573.393C573.339 24.9267 573.113 24.3067 572.713 23.88C572.326 23.44 571.779 23.22 571.073 23.22ZM577.452 31.5V21.72H579.892V23.44C580.372 22.28 581.399 21.64 582.972 21.52L583.732 21.46L583.892 23.58L582.452 23.72C580.812 23.88 579.992 24.72 579.992 26.24V31.5H577.452Z" fill="black" fill-opacity="0.8"/>
<rect x="431.5" y="0.5" width="163" height="49" rx="4.5" stroke="#DEDEDE"/>
</svg>
