<?xml version="1.0" encoding="UTF-8" standalone="no"?>
<!DOCTYPE svg PUBLIC "-//W3C//DTD SVG 1.1//EN" "http://www.w3.org/Graphics/SVG/1.1/DTD/svg11.dtd">
<!-- Generated by Microsoft Visio, SVG Export em_overview.svg Page-1 -->
<svg xmlns="http://www.w3.org/2000/svg" xmlns:xlink="http://www.w3.org/1999/xlink" xmlns:ev="http://www.w3.org/2001/xml-events"
		width="6.35023in" height="4.29145in" viewBox="0 0 457.216 308.984" xml:space="preserve" color-interpolation-filters="sRGB"
		class="st15">
	<style type="text/css">
	<![CDATA[
		.st1 {fill:#00a9ce;stroke:none;stroke-width:1}
		.st2 {fill:#ffffff;font-family:Arial;font-size:1.16666em}
		.st3 {fill:#f58220;stroke:none;stroke-width:1}
		.st4 {fill:#ffffff;font-family:Arial;font-size:1.00001em}
		.st5 {fill:#768692;stroke:none;stroke-width:1}
		.st6 {marker-end:url(#mrkr13-30);stroke:#f58220;stroke-linecap:butt;stroke-width:1}
		.st7 {fill:#f58220;fill-opacity:1;stroke:#f58220;stroke-opacity:1;stroke-width:0.28409090909091}
		.st8 {stroke:#00a9ce;stroke-linecap:butt;stroke-width:1}
		.st9 {marker-start:url(#mrkr13-87);stroke:#f58220;stroke-linecap:butt;stroke-width:1}
		.st10 {fill:#ffffff;stroke:#000000;stroke-width:1}
		.st11 {fill:none;stroke:none;stroke-width:1}
		.st12 {fill:#000000;font-family:Arial;font-size:0.666664em}
		.st13 {marker-end:url(#mrkr13-133);stroke:#000000;stroke-linecap:butt;stroke-width:1}
		.st14 {fill:#000000;fill-opacity:1;stroke:#000000;stroke-opacity:1;stroke-width:0.28409090909091}
		.st15 {fill:none;fill-rule:evenodd;font-size:12px;overflow:visible;stroke-linecap:square;stroke-miterlimit:3}
	]]>
	</style>

	<defs id="Markers">
		<g id="lend13">
			<path d="M 3 1 L 0 0 L 3 -1 L 3 1 " style="stroke:none"/>
		</g>
		<marker id="mrkr13-30" class="st7" refX="-10.56" orient="auto" markerUnits="strokeWidth" overflow="visible">
			<use xlink:href="#lend13" transform="scale(-3.52,-3.52) "/>
		</marker>
		<marker id="mrkr13-87" class="st7" refX="10.2" orient="auto" markerUnits="strokeWidth" overflow="visible">
			<use xlink:href="#lend13" transform="scale(3.52) "/>
		</marker>
		<marker id="mrkr13-133" class="st14" refX="-10.56" orient="auto" markerUnits="strokeWidth" overflow="visible">
			<use xlink:href="#lend13" transform="scale(-3.52,-3.52) "/>
		</marker>
	</defs>
	<g>
		<title>Page-1</title>
		<g id="shape6-1" transform="translate(1,-201.073)">
			<title>Nordic Blue</title>
			<desc>Application Event Manager</desc>
			<rect x="0" y="254.344" width="453.543" height="54.6402" class="st1"/>
			<text x="143.11" y="285.86" class="st2">Application Event Manager</text>		</g>
		<g id="shape7-4" transform="translate(2.67296,-93.7334)">
			<title>Nordic Blue.7</title>
			<desc>Module 0</desc>
			<rect x="0" y="254.344" width="72.8643" height="54.6402" class="st3"/>
			<text x="11.75" y="285.26" class="st4">Module 0</text>		</g>
		<g id="shape8-7" transform="translate(92.9634,-93.7334)">
			<title>Nordic Blue.8</title>
			<desc>Module 1</desc>
			<rect x="0" y="254.344" width="72.8643" height="54.6402" class="st3"/>
			<text x="11.75" y="285.26" class="st4">Module 1</text>		</g>
		<g id="shape9-10" transform="translate(183.254,-93.7334)">
			<title>Nordic Blue.9</title>
			<desc>Module 2</desc>
			<rect x="0" y="254.344" width="72.8643" height="54.6402" class="st3"/>
			<text x="11.75" y="285.26" class="st4">Module 2</text>		</g>
		<g id="shape10-13" transform="translate(363.835,-93.7334)">
			<title>Nordic Blue.10</title>
			<desc>Module 4</desc>
			<rect x="0" y="254.344" width="87.874" height="54.6402" class="st3"/>
			<text x="19.25" y="285.26" class="st4">Module 4</text>		</g>
		<g id="shape11-16" transform="translate(2.67296,-46.9757)">
			<title>Nordic Blue.11</title>
			<desc>Driver 0</desc>
			<rect x="0" y="277.021" width="163.155" height="31.9631" class="st1"/>
			<text x="60.57" y="296.6" class="st4">Driver 0</text>		</g>
		<g id="shape12-19" transform="translate(183.254,-46.9757)">
			<title>Nordic Blue.12</title>
			<desc>Driver 1</desc>
			<rect x="0" y="277.021" width="72.8643" height="31.9631" class="st1"/>
			<text x="15.43" y="296.6" class="st4">Driver 1</text>		</g>
		<g id="shape13-22" transform="translate(2.67296,-1)">
			<title>Nordic Blue.13</title>
			<desc>Hardware</desc>
			<rect x="0" y="277.021" width="453.543" height="31.9631" class="st5"/>
			<text x="196.43" y="297.2" class="st2">Hardware</text>		</g>
		<g id="shape24-25" transform="translate(203.399,-148.374)">
			<title>Dynamic connector.24</title>
			<path d="M-7.08 308.98 L-7.09 266.84" class="st6"/>
		</g>
		<g id="shape25-31" transform="translate(217.072,-148.374)">
			<title>Dynamic connector.25</title>
			<path d="M-7.01 308.98 L-7.13 266.84" class="st6"/>
		</g>
		<g id="shape26-36" transform="translate(230.045,-148.374)">
			<title>Dynamic connector.26</title>
			<path d="M-7.08 308.98 L-7.09 266.84" class="st6"/>
		</g>
		<g id="shape27-41" transform="translate(233.12,-201.073)">
			<title>Dynamic connector.27</title>
			<path d="M6.84 308.98 L7.23 351.12" class="st6"/>
		</g>
		<g id="shape28-46" transform="translate(378.34,-201.073)">
			<title>Dynamic connector.28</title>
			<path d="M7.09 308.98 L7.09 351.12" class="st6"/>
		</g>
		<g id="shape29-51" transform="translate(420.017,-148.374)">
			<title>Dynamic connector.29</title>
			<path d="M7.09 308.98 L7.09 266.84" class="st6"/>
		</g>
		<g id="shape32-56" transform="translate(135.945,-93.7334)">
			<title>Dynamic connector.32</title>
			<path d="M-7.07 308.98 L-7.1 323.78" class="st8"/>
		</g>
		<g id="shape33-59" transform="translate(212.599,-93.7334)">
			<title>Dynamic connector.33</title>
			<path d="M7.09 308.98 L7.09 323.78" class="st8"/>
		</g>
		<g id="shape39-62" transform="translate(32.0289,-93.7334)">
			<title>Dynamic connector.39</title>
			<path d="M7.08 308.98 L7.1 323.78" class="st8"/>
		</g>
		<g id="shape45-65" transform="translate(273.544,-93.7334)">
			<title>Nordic Blue.45</title>
			<desc>Module 3</desc>
			<rect x="0" y="254.344" width="72.8643" height="54.6402" class="st3"/>
			<text x="11.75" y="285.26" class="st4">Module 3</text>		</g>
		<g id="shape48-68" transform="translate(32.4646,-47.056)">
			<title>Dynamic connector.48</title>
			<path d="M7.09 309.06 L7.09 323.08" class="st8"/>
		</g>
		<g id="shape50-71" transform="translate(121.756,-47.056)">
			<title>Dynamic connector.50</title>
			<path d="M7.09 309.06 L7.09 323.08" class="st8"/>
		</g>
		<g id="shape54-74" transform="translate(212.603,-47.056)">
			<title>Dynamic connector.54</title>
			<path d="M7.08 309.06 L7.09 323.08" class="st8"/>
		</g>
		<g id="shape57-77" transform="translate(122.316,-148.374)">
			<title>Dynamic connector.57</title>
			<path d="M7.08 308.98 L7.09 266.84" class="st6"/>
		</g>
		<g id="shape58-82" transform="translate(142.165,-148.374)">
			<title>Dynamic connector.58</title>
			<path d="M7.09 298.78 L7.09 298.42 L7.09 256.28" class="st9"/>
		</g>
		<g id="shape59-88" transform="translate(103.331,-148.374)">
			<title>Dynamic connector.59</title>
			<path d="M7.09 308.98 L7.09 266.84" class="st6"/>
		</g>
		<g id="shape60-93" transform="translate(290.984,-148.374)">
			<title>Dynamic connector.60</title>
			<path d="M7.09 308.98 L7.09 266.84" class="st6"/>
		</g>
		<g id="shape61-98" transform="translate(317.63,-201.073)">
			<title>Dynamic connector.61</title>
			<path d="M7.09 319.18 L7.09 319.54 L7.09 361.68" class="st9"/>
		</g>
		<g id="shape62-103" transform="translate(49.189,-148.374)">
			<title>Dynamic connector</title>
			<path d="M7.09 298.78 L7.09 298.42 L7.09 256.28" class="st9"/>
		</g>
		<g id="shape63-108" transform="translate(15.4567,-148.374)">
			<title>Dynamic connector.63</title>
			<path d="M7.09 308.98 L7.09 266.84" class="st6"/>
		</g>
		<g id="shape72-113" transform="translate(273.544,-46.9757)">
			<title>Nordic Blue.72</title>
			<desc>Library 0</desc>
			<rect x="0" y="277.021" width="72.8643" height="31.9631" class="st1"/>
			<text x="13.09" y="296.6" class="st4">Library 0</text>		</g>
		<g id="shape73-116" transform="translate(302.89,-78.9387)">
			<title>Dynamic connector.73</title>
			<path d="M7.09 308.98 L7.09 294.19" class="st8"/>
		</g>
		<g id="shape74-119" transform="translate(337.748,-266.032)">
			<title>Sheet.74</title>
			<rect x="0" y="267.032" width="116.22" height="41.9528" class="st10"/>
		</g>
		<g id="shape75-121" transform="translate(342,-295.702)">
			<title>Nordic Blue.75</title>
			<rect x="0" y="301.116" width="25.5118" height="7.86858" class="st3"/>
		</g>
		<g id="shape76-123" transform="translate(342,-283.039)">
			<title>Nordic Blue.76</title>
			<rect x="0" y="301.116" width="25.5118" height="7.86858" class="st1"/>
		</g>
		<g id="shape79-125" transform="translate(367.512,-279.037)">
			<title>Sheet.79</title>
			<desc>NCS components</desc>
			<rect x="0" y="293.11" width="86.4567" height="15.874" class="st11"/>
			<text x="4" y="303.45" class="st12">NCS components</text>		</g>
		<g id="shape82-128" transform="translate(362.268,-266.882)">
			<title>Dynamic connector.82</title>
			<path d="M0 301.9 L-4.75 301.9" class="st13"/>
		</g>
		<g id="shape83-134" transform="translate(367.512,-292.11)">
			<title>Sheet.83</title>
			<desc>Modules and events</desc>
			<rect x="0" y="293.11" width="86.4567" height="15.874" class="st11"/>
			<text x="4" y="303.45" class="st12">Modules and events</text>		</g>
		<g id="shape84-137" transform="translate(367.512,-266.032)">
			<title>Sheet.84</title>
			<desc>Events</desc>
			<rect x="0" y="293.11" width="86.4567" height="15.874" class="st11"/>
			<text x="4" y="303.45" class="st12">Events</text>		</g>
	</g>
</svg>
