<?xml version="1.0" encoding="UTF-8" standalone="no"?>
<!DOCTYPE svg PUBLIC "-//W3C//DTD SVG 1.1//EN" "http://www.w3.org/Graphics/SVG/1.1/DTD/svg11.dtd">
<!-- Generated by Microsoft Visio, SVG Export dfu_roles_mesh.svg Page-1 -->
<svg xmlns="http://www.w3.org/2000/svg" xmlns:xlink="http://www.w3.org/1999/xlink" xmlns:ev="http://www.w3.org/2001/xml-events"
		width="7.48403in" height="4.85061in" viewBox="0 0 538.85 349.244" xml:space="preserve" color-interpolation-filters="sRGB"
		class="st10">
	<style type="text/css">
	<![CDATA[
		.st1 {fill:none;stroke:#00a9ce;stroke-width:1}
		.st2 {fill:none;stroke:none;stroke-width:1}
		.st3 {fill:#00a9ce;font-family:Arial;font-size:0.916672em}
		.st4 {fill:#0033a0;stroke:none;stroke-width:1}
		.st5 {fill:#ffffff;font-family:Arial;font-size:0.916672em}
		.st6 {font-size:1em}
		.st7 {fill:#6ad1e3;stroke:none;stroke-width:1}
		.st8 {marker-end:url(#mrkr13-55);stroke:#000000;stroke-linecap:butt;stroke-width:1}
		.st9 {fill:#000000;fill-opacity:1;stroke:#000000;stroke-opacity:1;stroke-width:0.28409090909091}
		.st10 {fill:none;fill-rule:evenodd;font-size:12px;overflow:visible;stroke-linecap:square;stroke-miterlimit:3}
	]]>
	</style>

	<defs id="Markers">
		<g id="lend13">
			<path d="M 3 1 L 0 0 L 3 -1 L 3 1 " style="stroke:none"/>
		</g>
		<marker id="mrkr13-55" class="st9" refX="-10.56" orient="auto" markerUnits="strokeWidth" overflow="visible">
			<use xlink:href="#lend13" transform="scale(-3.52,-3.52) "/>
		</marker>
	</defs>
	<g>
		<title>Page-1</title>
		<g id="shape5-1" transform="translate(1,-1)">
			<title>Nordic Blue</title>
			<rect x="0" y="2" width="140" height="347.244" class="st1"/>
		</g>
		<g id="shape6-3" transform="translate(198.903,-1)">
			<title>Nordic Blue.6</title>
			<rect x="0" y="2" width="144.269" height="347.244" class="st1"/>
		</g>
		<g id="shape7-5" transform="translate(397.85,-1)">
			<title>Nordic Blue.7</title>
			<rect x="0" y="2" width="140" height="347.244" class="st1"/>
		</g>
		<g id="shape8-7" transform="translate(4.04074,-326.984)">
			<title>Sheet.8</title>
			<desc>Initiator</desc>
			<rect x="0" y="330.244" width="132.913" height="19" class="st2"/>
			<text x="48.42" y="343.04" class="st3">Initiator</text>		</g>
		<g id="shape9-10" transform="translate(201.584,-326.984)">
			<title>Sheet.9</title>
			<desc>Distributor</desc>
			<rect x="0" y="330.244" width="138.331" height="19" class="st2"/>
			<text x="44.1" y="343.04" class="st3">Distributor</text>		</g>
		<g id="shape10-13" transform="translate(401.752,-326.601)">
			<title>Sheet.10</title>
			<desc>Target</desc>
			<rect x="0" y="330.244" width="132.913" height="19" class="st2"/>
			<text x="50.56" y="343.04" class="st3">Target</text>		</g>
		<g id="shape11-16" transform="translate(11.7804,-258.171)">
			<title>Nordic Blueslate</title>
			<desc>BLOB Transfer Client</desc>
			<rect x="0" y="294.604" width="113.738" height="54.6402" class="st4"/>
			<text x="4.6" y="325.22" class="st5">BLOB Transfer Client</text>		</g>
		<g id="shape12-19" transform="translate(214.103,-258.171)">
			<title>Nordic Blueslate.12</title>
			<desc>BLOB Transfer Server</desc>
			<rect x="0" y="294.604" width="113.738" height="54.6402" class="st4"/>
			<text x="20.19" y="318.62" class="st5">BLOB Transfer <tspan x="40.67" dy="1.2em" class="st6">Server</tspan></text>		</g>
		<g id="shape13-23" transform="translate(214.103,-11.4633)">
			<title>Nordic Blueslate.13</title>
			<desc>BLOB Transfer Client</desc>
			<rect x="0" y="294.604" width="113.738" height="54.6402" class="st4"/>
			<text x="4.6" y="325.22" class="st5">BLOB Transfer Client</text>		</g>
		<g id="shape14-26" transform="translate(411.824,-11.4633)">
			<title>Nordic Blueslate.14</title>
			<desc>BLOB Transfer Server</desc>
			<rect x="0" y="294.604" width="113.738" height="54.6402" class="st4"/>
			<text x="20.19" y="318.62" class="st5">BLOB Transfer <tspan x="40.67" dy="1.2em" class="st6">Server</tspan></text>		</g>
		<g id="shape15-30" transform="translate(12.5448,-176.115)">
			<title>Nordic Sky</title>
			<desc>Firmware Distribution Client</desc>
			<rect x="0" y="294.604" width="112.973" height="54.6402" class="st7"/>
			<text x="4.53" y="318.62" class="st5">Firmware Distribution <tspan x="42.43" dy="1.2em" class="st6">Client</tspan></text>		</g>
		<g id="shape16-34" transform="translate(13.6612,-13.1759)">
			<title>Nordic Sky.16</title>
			<desc>Firmware Update Client</desc>
			<rect x="0" y="294.604" width="112.973" height="54.6402" class="st7"/>
			<text x="14.31" y="318.62" class="st5">Firmware Update <tspan x="42.43" dy="1.2em" class="st6">Client</tspan></text>		</g>
		<g id="shape17-38" transform="translate(213.076,-176.115)">
			<title>Nordic Sky.17</title>
			<desc>Firmware Distribution Server</desc>
			<rect x="0" y="294.604" width="113.738" height="54.6402" class="st7"/>
			<text x="4.91" y="318.62" class="st5">Firmware Distribution <tspan x="40.67" dy="1.2em" class="st6">Server</tspan></text>		</g>
		<g id="shape18-42" transform="translate(212.724,-91.8394)">
			<title>Nordic Sky.18</title>
			<desc>Firmware Update Client</desc>
			<rect x="0" y="294.604" width="113.738" height="54.6402" class="st7"/>
			<text x="14.69" y="318.62" class="st5">Firmware Update <tspan x="42.81" dy="1.2em" class="st6">Client</tspan></text>		</g>
		<g id="shape19-46" transform="translate(411.824,-91.8394)">
			<title>Nordic Sky.19</title>
			<desc>Firmware Update Server</desc>
			<rect x="0" y="294.604" width="113.738" height="54.6402" class="st7"/>
			<text x="14.69" y="318.62" class="st5">Firmware Update <tspan x="40.67" dy="1.2em" class="st6">Server</tspan></text>		</g>
		<g id="shape40-50" transform="translate(125.518,-285.491)">
			<title>Flowline1</title>
			<path d="M0 349.24 L78.02 349.24" class="st8"/>
		</g>
		<g id="shape41-56" transform="translate(125.518,-203.435)">
			<title>Flowline1.41</title>
			<path d="M0 349.24 L77 349.24" class="st8"/>
		</g>
		<g id="shape42-61" transform="translate(326.462,-119.16)">
			<title>Flowline1.42</title>
			<path d="M0 349.24 L74.8 349.24" class="st8"/>
		</g>
		<g id="shape43-66" transform="translate(327.84,-38.7835)">
			<title>Flowline1.43</title>
			<path d="M0 349.24 L73.42 349.24" class="st8"/>
		</g>
		<g id="shape74-71" transform="translate(-78.3525,117.262) rotate(-89.8298)">
			<title>Flowline1.74</title>
			<path d="M0 349.24 L16.86 349.24" class="st8"/>
		</g>
		<g id="shape77-76" transform="translate(620.15,173.062) rotate(90)">
			<title>Flowline1.77</title>
			<path d="M0 349.24 L19.09 349.24" class="st8"/>
		</g>
		<g id="shape78-81" transform="translate(620.15,257.346) rotate(90)">
			<title>Flowline1.78</title>
			<path d="M0 349.24 L15.14 349.24" class="st8"/>
		</g>
		<g id="shape79-86" transform="translate(817.937,257.345) rotate(90)">
			<title>Flowline1.79</title>
			<path d="M0 349.24 L15.14 349.24" class="st8"/>
		</g>
		<g id="shape80-91" transform="translate(-281.431,117.205) rotate(-89.8298)">
			<title>Flowline1.80</title>
			<path d="M0 349.24 L16.86 349.24" class="st8"/>
		</g>
	</g>
</svg>
