<?xml version="1.0" encoding="UTF-8" standalone="no"?>
<!DOCTYPE svg PUBLIC "-//W3C//DTD SVG 1.1//EN" "http://www.w3.org/Graphics/SVG/1.1/DTD/svg11.dtd">
<!-- Generated by Microsoft Visio, SVG Export dfu_stages_procedures_mesh.svg Page-1 -->
<svg xmlns="http://www.w3.org/2000/svg" xmlns:xlink="http://www.w3.org/1999/xlink" xmlns:ev="http://www.w3.org/2001/xml-events"
		width="7.10078in" height="7.48841in" viewBox="0 0 511.256 539.165" xml:space="preserve" color-interpolation-filters="sRGB"
		class="st11">
	<style type="text/css">
	<![CDATA[
		.st1 {fill:none;stroke:#00a9ce;stroke-dasharray:0.01,3;stroke-width:1}
		.st2 {fill:#6ad1e3;stroke:none;stroke-width:1}
		.st3 {fill:#ffffff;font-family:Arial;font-size:0.916672em}
		.st4 {font-size:1em}
		.st5 {fill:none;stroke:none;stroke-width:1}
		.st6 {fill:#00a9ce;font-family:Arial;font-size:0.916672em}
		.st7 {marker-end:url(#mrkr13-50);stroke:#000000;stroke-linecap:butt;stroke-width:1}
		.st8 {fill:#000000;fill-opacity:1;stroke:#000000;stroke-opacity:1;stroke-width:0.28409090909091}
		.st9 {stroke:#000000;stroke-linecap:butt;stroke-width:1}
		.st10 {marker-start:url(#mrkr13-74);stroke:#000000;stroke-linecap:butt;stroke-width:1}
		.st11 {fill:none;fill-rule:evenodd;font-size:12px;overflow:visible;stroke-linecap:square;stroke-miterlimit:3}
	]]>
	</style>

	<defs id="Markers">
		<g id="lend13">
			<path d="M 3 1 L 0 0 L 3 -1 L 3 1 " style="stroke:none"/>
		</g>
		<marker id="mrkr13-50" class="st8" refX="-10.56" orient="auto" markerUnits="strokeWidth" overflow="visible">
			<use xlink:href="#lend13" transform="scale(-3.52,-3.52) "/>
		</marker>
		<marker id="mrkr13-74" class="st8" refX="10.2" orient="auto" markerUnits="strokeWidth" overflow="visible">
			<use xlink:href="#lend13" transform="scale(3.52) "/>
		</marker>
	</defs>
	<g>
		<title>Page-1</title>
		<g id="shape7-1" transform="translate(1,-420.137)">
			<title>Nordic Blue</title>
			<path d="M0 539.17 L508.18 539.17 L508.18 421.14 L0 421.14 L0 539.17 Z" class="st1"/>
		</g>
		<g id="shape8-3" transform="translate(18.7898,-457.378)">
			<title>Nordic Sky</title>
			<desc>Uploading the firmware from Initiator</desc>
			<rect x="0" y="485.307" width="102.507" height="53.8583" class="st2"/>
			<text x="17.31" y="502.34" class="st3">Uploading the <tspan x="17.64" dy="1.2em" class="st4">firmware from </tspan><tspan
						x="33.22" dy="1.2em" class="st4">Initiator</tspan></text>		</g>
		<g id="shape9-8" transform="translate(428.081,-424.35)">
			<title>Sheet.9</title>
			<desc>Upload stage</desc>
			<rect x="0" y="520.165" width="79.3701" height="19" class="st5"/>
			<text x="7.27" y="532.97" class="st6">Upload stage</text>		</g>
		<g id="shape12-11" transform="translate(1,-1)">
			<title>Nordic Blue.12</title>
			<path d="M0 539.17 L508.18 539.17 L508.18 128.14 L0 128.14 L0 539.17 Z" class="st1"/>
		</g>
		<g id="shape13-13" transform="translate(407.749,-4.52405)">
			<title>Sheet.13</title>
			<desc>Distribution stage</desc>
			<rect x="0" y="520.165" width="102.507" height="19" class="st5"/>
			<text x="8.76" y="532.97" class="st6">Distribution stage</text>		</g>
		<g id="shape14-16" transform="translate(18.2536,-326.984)">
			<title>Nordic Sky.14</title>
			<desc>Populating the Distributor’s receivers list</desc>
			<rect x="0" y="480.016" width="102.507" height="59.1496" class="st2"/>
			<text x="16.09" y="499.69" class="st3">Populating the <tspan x="22.22" dy="1.2em" class="st4">Distributor</tspan>’s <tspan
						x="20.69" dy="1.2em" class="st4">receivers list</tspan></text>		</g>
		<g id="shape15-21" transform="translate(18.2536,-227.93)">
			<title>Nordic Sky.15</title>
			<desc>Initiating the distribution</desc>
			<rect x="0" y="480.016" width="102.507" height="59.1496" class="st2"/>
			<text x="21.59" y="506.29" class="st3">Initiating the <tspan x="24.66" dy="1.2em" class="st4">distribution</tspan></text>		</g>
		<g id="shape16-25" transform="translate(18.7898,-131.542)">
			<title>Nordic Sky.16</title>
			<desc>Firmware distribution</desc>
			<rect x="0" y="480.016" width="102.507" height="59.1496" class="st2"/>
			<text x="28.34" y="506.29" class="st3">Firmware <tspan x="24.66" dy="1.2em" class="st4">distribution</tspan></text>		</g>
		<g id="shape17-29" transform="translate(18.7898,-30.8123)">
			<title>Nordic Sky.17</title>
			<desc>Applying the firmware image</desc>
			<rect x="0" y="480.016" width="102.507" height="59.1496" class="st2"/>
			<text x="20.98" y="506.29" class="st3">Applying the <tspan x="13.66" dy="1.2em" class="st4">firmware image</tspan></text>		</g>
		<g id="shape18-33" transform="translate(151.145,-131.542)">
			<title>Nordic Sky.18</title>
			<desc>Suspending the distribution</desc>
			<rect x="0" y="480.016" width="102.92" height="59.1496" class="st2"/>
			<text x="13.23" y="506.29" class="st3">Suspending the <tspan x="24.86" dy="1.2em" class="st4">distribution</tspan></text>		</g>
		<g id="shape19-37" transform="translate(266.385,-227.93)">
			<title>Nordic Sky.19</title>
			<desc>Cancelling the distribution</desc>
			<rect x="0" y="480.016" width="102.92" height="59.1496" class="st2"/>
			<text x="16.6" y="506.29" class="st3">Cancelling the <tspan x="24.86" dy="1.2em" class="st4">distribution</tspan></text>		</g>
		<g id="shape20-41" transform="translate(379.977,-326.984)">
			<title>Nordic Sky.20</title>
			<desc>Recovering from failed distribution</desc>
			<rect x="0" y="480.016" width="102.507" height="59.1496" class="st2"/>
			<text x="10.91" y="506.29" class="st3">Recovering from <tspan x="9.98" dy="1.2em" class="st4">failed distribution</tspan></text>		</g>
		<g id="shape22-45" transform="translate(608.979,81.7874) rotate(90)">
			<title>Flowline1.41</title>
			<path d="M0 539.17 L60.31 539.17" class="st7"/>
		</g>
		<g id="shape23-51" transform="translate(609.248,216.094) rotate(90.4158)">
			<title>Flowline1.23</title>
			<path d="M0 539.17 L28.5 539.17" class="st7"/>
		</g>
		<g id="shape24-56" transform="translate(608.654,306.772) rotate(89.5256)">
			<title>Flowline1.24</title>
			<path d="M0 539.17 L26.46 539.17" class="st7"/>
		</g>
		<g id="shape25-61" transform="translate(609.2,410.604) rotate(90.3167)">
			<title>Flowline1.25</title>
			<path d="M0 539.17 L31.02 539.17" class="st7"/>
		</g>
		<g id="shape30-66" transform="translate(431.231,-385.837)">
			<title>Dynamic connector</title>
			<path d="M0 538.87 L0 525.29 L-361.42 525.29" class="st9"/>
		</g>
		<g id="shape31-69" transform="translate(431.231,-326.984)">
			<title>Dynamic connector.31</title>
			<path d="M0 549.37 L0 549.73 L0 805.76 L-309.93 805.76" class="st10"/>
		</g>
		<g id="shape35-75" transform="translate(319.262,-287.299)">
			<title>Dynamic connector.35</title>
			<path d="M0 539.17 L0 516.49 L-249.45 516.49" class="st9"/>
		</g>
		<g id="shape36-78" transform="translate(312.176,-227.772)">
			<title>Dynamic connector.36</title>
			<path d="M7.09 549.37 L7.09 549.73 L7.09 706.41" class="st10"/>
		</g>
		<g id="shape37-83" transform="translate(431.231,-250.449)">
			<title>Dynamic connector.37</title>
			<path d="M0 532.08 L-51.24 532.08" class="st7"/>
		</g>
		<g id="shape38-88" transform="translate(431.231,-203.961)">
			<title>Dynamic connector.38</title>
			<path d="M0 532.36 L-109.61 532.19 A2.3622 2.3622 -180 0 0 -114.33 532.18 L-361.42 531.8" class="st9"/>
		</g>
		<g id="shape39-91" transform="translate(430.947,-96.811)">
			<title>Dynamic connector.39</title>
			<path d="M0 532.36 L-109.32 532.19 A2.3622 2.3622 -180 0 0 -114.05 532.18 L-361.13 531.8" class="st9"/>
		</g>
		<g id="shape40-94" transform="translate(207.294,-103.898)">
			<title>Dynamic connector.40</title>
			<path d="M-7.09 539.17 L-7.09 522.23" class="st7"/>
		</g>
		<g id="shape42-99" transform="translate(69.6245,-198.197)">
			<title>Dynamic connector.42</title>
			<path d="M0 532.08 L130.68 532.08" class="st9"/>
		</g>
		<g id="shape43-102" transform="translate(192.837,-205.661)">
			<title>Dynamic connector.43</title>
			<path d="M7.09 539.17 L7.09 553.91" class="st9"/>
		</g>
		<g id="shape44-105" transform="translate(319.262,-153.362)">
			<title>Dynamic connector.44</title>
			<path d="M0 532.22 L-54.64 531.98" class="st7"/>
		</g>
	</g>
</svg>
