<?xml version="1.0" encoding="UTF-8" standalone="no"?>
<!-- Created with Inkscape (http://www.inkscape.org/) -->

<svg
   xmlns:dc="http://purl.org/dc/elements/1.1/"
   xmlns:cc="http://creativecommons.org/ns#"
   xmlns:rdf="http://www.w3.org/1999/02/22-rdf-syntax-ns#"
   xmlns:svg="http://www.w3.org/2000/svg"
   xmlns="http://www.w3.org/2000/svg"
   xmlns:sodipodi="http://sodipodi.sourceforge.net/DTD/sodipodi-0.dtd"
   xmlns:inkscape="http://www.inkscape.org/namespaces/inkscape"
   width="106.55701"
   height="106.49829"
   id="svg5827"
   version="1.1"
   inkscape:version="0.48.5 r10040"
   sodipodi:docname="Fibers.svg">
  <defs
     id="defs3" />
  <sodipodi:namedview
     inkscape:document-units="mm"
     id="base"
     pagecolor="#ffffff"
     bordercolor="#666666"
     borderopacity="1.0"
     inkscape:pageopacity="0.0"
     inkscape:pageshadow="2"
     inkscape:zoom="3.959798"
     inkscape:cx="138.72634"
     inkscape:cy="23.280168"
     inkscape:current-layer="layer1"
     showgrid="false"
     units="mm"
     fit-margin-top="0"
     fit-margin-left="0"
     fit-margin-right="0"
     fit-margin-bottom="0"
     inkscape:window-width="1920"
     inkscape:window-height="1017"
     inkscape:window-x="-8"
     inkscape:window-y="-8"
     inkscape:window-maximized="1" />
  <metadata
     id="metadata4">
    <rdf:RDF>
      <cc:Work
         rdf:about="">
        <dc:format>image/svg+xml</dc:format>
        <dc:type
           rdf:resource="http://purl.org/dc/dcmitype/StillImage" />
        <dc:title></dc:title>
      </cc:Work>
    </rdf:RDF>
  </metadata>
  <g
     inkscape:label="Layer 1"
     inkscape:groupmode="layer"
     id="layer1"
     transform="translate(-320.92486,-84.790913)">
    <g
       transform="translate(111.50953,81.385786)"
       style="font-size:12px;fill:none;stroke-linecap:square;stroke-miterlimit:3;overflow:visible"
       id="g5872">
      <path
         inkscape:connector-curvature="0"
         style="fill:#686868;fill-opacity:1;fill-rule:evenodd;stroke:none"
         d="m 315.97234,56.654274 c 0,0.176127 0,0.293546 0,0.410964 -0.0587,6.751545 -1.40902,13.209546 -3.69868,19.080455 -0.11742,0.293545 -0.23483,0.587091 -0.35225,0.880636 -1.99611,4.872855 -4.75544,9.452164 -8.10186,13.503092 -0.29354,0.352254 -0.52838,0.6458 -0.82192,0.998054 -1.40902,1.585146 -2.87675,3.111582 -4.46189,4.5206 -0.29355,0.293546 -0.6458,0.587091 -0.93935,0.821928 -4.16835,3.639967 -8.92378,6.692837 -14.09018,8.865077 -0.29355,0.11741 -0.58709,0.23483 -0.82193,0.35225 -6.04704,2.40707 -12.68116,3.81609 -19.55013,3.81609 -0.17612,0 -0.29354,0 -0.46967,0 -0.11742,0 -0.23484,0 -0.41096,0 -6.86897,0 -13.5031,-1.40902 -19.55013,-3.81609 -0.23484,-0.11742 -0.52838,-0.23484 -0.82193,-0.35225 -5.1664,-2.17224 -9.92184,-5.22511 -14.09018,-8.865077 -0.29355,-0.234837 -0.58709,-0.528382 -0.93935,-0.821928 -1.58514,-1.409018 -3.05287,-2.935454 -4.46189,-4.5206 -0.29354,-0.352254 -0.52838,-0.6458 -0.82193,-0.998054 -3.34641,-4.050928 -6.10574,-8.630237 -8.10185,-13.503092 -0.11742,-0.293545 -0.23484,-0.587091 -0.35225,-0.880636 -2.28966,-5.870909 -3.63997,-12.32891 -3.69868,-19.080455 0,-0.117418 0,-0.234837 0,-0.410964 0,-0.117418 0,-0.234836 0,-0.410963 0.0587,-6.751546 1.40902,-13.150837 3.69868,-19.080455 0.11741,-0.293546 0.23483,-0.528382 0.35225,-0.821928 1.99611,-4.931564 4.75544,-9.452164 8.10185,-13.5618 0.29355,-0.293546 0.52839,-0.587091 0.82193,-0.939346 1.40902,-1.643854 2.87675,-3.170291 4.46189,-4.579309 0.35226,-0.293545 0.6458,-0.587091 0.93935,-0.821927 4.16834,-3.639964 8.92378,-6.6341276 14.09018,-8.806364 0.29355,-0.1761273 0.58709,-0.2348364 0.82193,-0.3522545 6.04703,-2.4657819 12.68116,-3.816091 19.55013,-3.8748001 0.17612,0 0.29354,0 0.41096,0 0.17613,0 0.29355,0 0.46967,0 6.86897,0.058709 13.50309,1.4090182 19.55013,3.8748001 0.23484,0.1174181 0.52838,0.1761272 0.82193,0.3522545 5.1664,2.1722364 9.92183,5.1664 14.09018,8.806364 0.29355,0.234836 0.6458,0.528382 0.93935,0.821927 1.58514,1.409018 3.05287,2.935455 4.46189,4.579309 0.29354,0.352255 0.52838,0.6458 0.82192,0.939346 3.34642,4.109636 6.10575,8.630236 8.10186,13.5618 0.11742,0.293546 0.23483,0.528382 0.35225,0.821928 2.28966,5.929618 3.63997,12.387618 3.69868,19.080455 0,0.176127 0,0.293545 0,0.410963"
         id="path5409" />
      <path
         inkscape:connector-curvature="0"
         style="fill:#828282;fill-opacity:1;fill-rule:evenodd;stroke:none"
         d="m 315.97234,56.654274 c 0,0.176127 0,0.293546 0,0.410964 l -106.55701,0 c 0,-0.117418 0,-0.234837 0,-0.410964 0,-0.117418 0,-0.234836 0,-0.410963 l 106.55701,0 c 0,0.176127 0,0.293545 0,0.410963 z"
         id="path5415" />
      <g
         id="g5808">
        <path
           id="path5411"
           d="m 298.53574,96.048075 c -0.29355,0.293546 -0.6458,0.587091 -0.93935,0.821928 l -69.80511,0 c -0.29355,-0.234837 -0.58709,-0.528382 -0.93935,-0.821928 l 71.68381,0 z"
           style="fill:#828282;fill-opacity:1;fill-rule:evenodd;stroke:none"
           inkscape:connector-curvature="0" />
        <path
           id="path5413"
           d="m 312.27366,76.145693 c -0.11742,0.293545 -0.23483,0.587091 -0.35225,0.880636 l -98.45515,0 c -0.11742,-0.293545 -0.23484,-0.587091 -0.35225,-0.880636 l 99.15965,0 z"
           style="fill:#828282;fill-opacity:1;fill-rule:evenodd;stroke:none"
           inkscape:connector-curvature="0" />
        <path
           id="path5417"
           d="m 312.27366,37.162856 -99.15965,0 c 0.11741,-0.293546 0.23483,-0.528382 0.35225,-0.821928 l 98.45515,0 c 0.11742,0.293546 0.23483,0.528382 0.35225,0.821928 z"
           style="fill:#828282;fill-opacity:1;fill-rule:evenodd;stroke:none"
           inkscape:connector-curvature="0" />
        <path
           id="path5419"
           d="m 298.53574,17.260473 -71.68381,0 c 0.35226,-0.293545 0.6458,-0.587091 0.93935,-0.821927 l 69.80511,0 c 0.29355,0.234836 0.6458,0.528382 0.93935,0.821927 z"
           style="fill:#828282;fill-opacity:1;fill-rule:evenodd;stroke:none"
           inkscape:connector-curvature="0" />
        <path
           id="path5421"
           d="m 303.81955,22.779128 0,67.750293 c -0.29354,0.352254 -0.52838,0.6458 -0.82192,0.998054 l 0,-69.687693 c 0.29354,0.352255 0.52838,0.6458 0.82192,0.939346 z"
           style="fill:#828282;fill-opacity:1;fill-rule:evenodd;stroke:none"
           inkscape:connector-curvature="0" />
        <path
           id="path5423"
           d="m 283.50621,7.632182 0,98.102898 c -0.29355,0.11741 -0.58709,0.23483 -0.82193,0.35225 l 0,-98.8074025 c 0.23484,0.1174181 0.52838,0.1761272 0.82193,0.3522545 z"
           style="fill:#828282;fill-opacity:1;fill-rule:evenodd;stroke:none"
           inkscape:connector-curvature="0" />
        <path
           id="path5425"
           d="m 263.13415,3.4051274 0,106.4982926 c -0.17612,0 -0.29354,0 -0.46967,0 -0.11742,0 -0.23484,0 -0.41096,0 l 0,-106.4982926 c 0.17612,0 0.29354,0 0.41096,0 0.17613,0 0.29355,0 0.46967,0 z"
           style="fill:#828282;fill-opacity:1;fill-rule:evenodd;stroke:none"
           inkscape:connector-curvature="0" />
        <path
           id="path5427"
           d="m 242.70339,7.2799275 0,98.8074025 c -0.23484,-0.11742 -0.52838,-0.23484 -0.82193,-0.35225 l 0,-98.102898 c 0.29355,-0.1761273 0.58709,-0.2348364 0.82193,-0.3522545 z"
           style="fill:#828282;fill-opacity:1;fill-rule:evenodd;stroke:none"
           inkscape:connector-curvature="0" />
        <path
           id="path5429"
           d="m 222.39004,21.839782 0,69.687693 c -0.29354,-0.352254 -0.52838,-0.6458 -0.82193,-0.998054 l 0,-67.750293 c 0.29355,-0.293546 0.52839,-0.587091 0.82193,-0.939346 z"
           style="fill:#828282;fill-opacity:1;fill-rule:evenodd;stroke:none"
           inkscape:connector-curvature="0" />
        <path
           id="path5431"
           d="m 231.54866,35.812546 0,55.01042 62.23164,0 0,-55.01042 -62.23164,0 z"
           style="fill:#f2f2f2;fill-opacity:1;fill-rule:evenodd;stroke:none"
           inkscape:connector-curvature="0" />
        <path
           id="path5433"
           d="m 238.82859,46.732438 0,4.227054 47.73049,0 0,-4.227054 -47.73049,0 z"
           style="fill:#ead57d;fill-opacity:1;fill-rule:evenodd;stroke:none"
           inkscape:connector-curvature="0" />
        <path
           id="path5435"
           d="m 241.76404,39.511219 c 0.6458,0 0.76322,0.469673 0.46968,0.880637 l -2.5832,3.346418 c -0.29355,0.410964 -0.88064,0.469673 -1.2329,0 l -2.52449,-3.346418 c -0.35225,-0.469673 -0.17612,-0.880637 0.41097,-0.880637 l 5.45994,0 z"
           style="fill:#c2c2c2;fill-opacity:1;fill-rule:evenodd;stroke:none"
           inkscape:connector-curvature="0" />
        <path
           id="path5437"
           d="m 238.82859,63.347111 0,4.168345 47.73049,0 0,-4.168345 -47.73049,0 z"
           style="fill:#19d77a;fill-opacity:1;fill-rule:evenodd;stroke:none"
           inkscape:connector-curvature="0" />
        <path
           id="path5439"
           d="m 241.76404,56.125892 c 0.6458,0 0.76322,0.410964 0.46968,0.821928 l -2.5832,3.346418 c -0.29355,0.469673 -0.88064,0.469673 -1.2329,0 l -2.52449,-3.346418 c -0.35225,-0.469673 -0.17612,-0.821928 0.41097,-0.821928 l 5.45994,0 z"
           style="fill:#c2c2c2;fill-opacity:1;fill-rule:evenodd;stroke:none"
           inkscape:connector-curvature="0" />
        <path
           id="path5441"
           d="m 238.82859,79.961784 0,4.168345 47.73049,0 0,-4.168345 -47.73049,0 z"
           style="fill:#f0553a;fill-opacity:1;fill-rule:evenodd;stroke:none"
           inkscape:connector-curvature="0" />
        <path
           id="path5443"
           d="m 241.76404,72.740566 c 0.6458,0 0.76322,0.352254 0.46968,0.821927 l -2.5832,3.287709 c -0.29355,0.410964 -0.88064,0.410964 -1.2329,0 l -2.52449,-3.287709 c -0.35225,-0.469673 -0.17612,-0.821927 0.41097,-0.821927 l 5.45994,0 z"
           style="fill:#c2c2c2;fill-opacity:1;fill-rule:evenodd;stroke:none"
           inkscape:connector-curvature="0" />
        <text
           id="text5445"
           style="font-size:17.8475647px;font-style:normal;font-weight:normal;text-align:start;text-anchor:start;fill:#ffffff;font-family:Intel Clear"
           y="30.496477"
           x="238.84772"
           xml:space="preserve">Fibers</text>
      </g>
    </g>
  </g>
</svg>
