<svg version="1.1" id="Layer_1" xmlns="http://www.w3.org/2000/svg" x="0" y="0" viewBox="0 0 532.8 134.4" xml:space="preserve"><style>.st0{fill:#5a2ab5}</style><path class="st0" d="M23.5 44.8c0-2.6.6-5 1.7-7.4 1.1-2.3 2.7-4.4 4.8-6.1 2.1-1.8 4.6-3.2 7.6-4.3 3-1.1 6.4-1.6 10.2-1.6 3.7 0 7 .5 9.9 1.6 2.9 1.1 5.4 2.6 7.4 4.5s3.6 4.2 4.7 6.8c1.1 2.6 1.7 5.5 1.7 8.6L56.4 48c0-2.7-.8-4.9-2.3-6.4-1.5-1.5-3.6-2.3-6.4-2.3-2.4 0-4.4.7-5.9 2s-2.2 2.8-2.2 4.5c0 1.7.8 2.9 2.5 3.8 1.7.9 3.7 1.7 6.2 2.4 2.5.8 5.2 1.6 8 2.4 2.9.9 5.6 2.1 8 3.7 2.5 1.6 4.5 3.7 6.2 6.3 1.7 2.6 2.5 5.9 2.5 10 0 2.7-.6 5.3-1.7 7.7-1.1 2.4-2.7 4.5-4.9 6.3-2.2 1.8-4.8 3.2-8 4.3-3.2 1.1-6.8 1.6-10.8 1.6-3.9 0-7.4-.5-10.5-1.6-3.1-1.1-5.7-2.6-7.8-4.6s-3.7-4.3-4.9-7c-1.1-2.7-1.7-5.7-1.7-8.9l15.1-1.1c0 6.1 3.2 9.2 9.7 9.2 3 0 5.3-.7 6.8-2.1 1.5-1.4 2.3-3 2.3-4.9 0-1.7-.8-3.1-2.5-4-1.7-.9-3.7-1.8-6.2-2.6s-5.2-1.6-8-2.5c-2.9-.9-5.6-2.1-8-3.6-2.5-1.5-4.5-3.6-6.2-6.1-1.3-2.4-2.2-5.6-2.2-9.7zM75.3 44.3h15.6L101.7 75l10.8-30.7h15.6l-19.9 49.6c-2.5 6.2-5.2 10.7-8.1 13.5-2.9 2.8-6.7 4.3-11.3 4.3-.6 0-1.1 0-1.7-.1-.5 0-1.1-.1-1.6-.2-.6-.1-1.1-.2-1.6-.3V98.8c3 0 5.3-.6 6.8-1.9 1.5-1.3 2.7-3 3.4-5.1L75.3 44.3zM158.8 43.8c2.5 0 4.7.3 6.5 1 1.8.7 3.3 1.4 4.4 2.2 1.3.9 2.3 2 3.1 3.2 1.1-1.2 2.5-2.3 4-3.2 1.3-.8 2.8-1.5 4.6-2.2 1.8-.7 3.8-1 5.9-1 5.4 0 9.7 1.7 12.9 5.2 3.2 3.5 4.9 8.6 4.9 15.3v29.6h-14.6v-28c0-2.7-.7-4.9-2.1-6.4-1.4-1.5-3-2.3-4.9-2.3-1.9 0-3.5.8-4.9 2.3-1.4 1.5-2.1 3.6-2.1 6.4v28h-14.6v-28c0-2.7-.7-4.9-2.1-6.4-1.4-1.5-3-2.3-4.9-2.3-1.9 0-3.5.8-4.9 2.3-1.4 1.5-2.1 3.6-2.1 6.4v28h-14.6V44.3h10.8l2.2 4.9c.9-1 2-1.9 3.3-2.7 1.1-.6 2.4-1.3 3.9-1.8 1.8-.6 3.5-.9 5.3-.9zM242.4 94.4c-2.2 0-4.1-.3-5.8-.8-1.7-.5-3.2-1.2-4.4-1.9-1.4-.8-2.7-1.7-3.8-2.7l-2.2 4.9h-10.8V26H230v22.1c.9-.8 2-1.5 3.3-2.2 1.1-.6 2.4-1.1 3.9-1.5 1.5-.4 3.3-.6 5.1-.6 3.1 0 6 .6 8.8 1.9 2.8 1.3 5.3 3 7.4 5.3 2.1 2.3 3.8 4.9 5.1 8 1.3 3.1 1.9 6.5 1.9 10.1 0 3.7-.6 7-1.9 10.1-1.3 3.1-2.9 5.8-5.1 8-2.1 2.3-4.6 4-7.4 5.3-2.7 1.3-5.6 1.9-8.7 1.9zm8.6-25.3c0-3.5-1-6.4-3.1-8.6-2.1-2.2-4.6-3.3-7.7-3.3-3 0-5.6 1.1-7.7 3.3s-3.1 5.1-3.1 8.6 1 6.4 3.1 8.6 4.6 3.3 7.7 3.3c3 0 5.6-1.1 7.7-3.3 2.1-2.2 3.1-5.1 3.1-8.6zM274.2 30.8c0-2.2.8-4 2.4-5.7 1.6-1.6 3.5-2.4 5.7-2.4s4 .8 5.7 2.4c1.6 1.6 2.4 3.5 2.4 5.7s-.8 4-2.4 5.7c-1.6 1.6-3.5 2.4-5.7 2.4s-4-.8-5.7-2.4c-1.6-1.6-2.4-3.5-2.4-5.7zm15.1 63.1h-14.6V44.3h14.6v49.6zM302.2 26h46.9v15.1h-31.3v14h25.3v15.1h-25.3v23.7h-15.6V26zM371.8 93.9h-14.6V26h14.6v67.9zM380.4 69.1c0-3.7.7-7.1 2-10.2 1.3-3.1 3.1-5.9 5.4-8.2 2.3-2.3 5-4.2 8-5.5 3.1-1.3 6.3-2 9.9-2 3.5 0 6.8.7 9.9 2 3.1 1.3 5.7 3.2 8 5.5s4.1 5.1 5.4 8.2c1.3 3.1 2 6.5 2 10.2 0 3.7-.7 7.1-2 10.2-1.3 3.1-3.1 5.9-5.4 8.2-2.3 2.3-5 4.2-8 5.5-3.1 1.3-6.3 2-9.9 2-3.5 0-6.8-.7-9.9-2-3.1-1.3-5.7-3.2-8-5.5s-4.1-5.1-5.4-8.2c-1.3-3.1-2-6.5-2-10.2zm36.1 0c0-3.8-1-6.8-3.1-9.1-2.1-2.2-4.6-3.3-7.7-3.3-3 0-5.6 1.1-7.7 3.3-2.1 2.2-3.1 5.2-3.1 9.1 0 3.8 1 6.8 3.1 9.1 2.1 2.2 4.6 3.3 7.7 3.3 3 0 5.6-1.1 7.7-3.3 2.1-2.3 3.1-5.3 3.1-9.1zM472 66.4l-8.6 27.5H451l-16.7-49.6h15.1l8.6 29.1 9.2-29.1h9.7l9.2 29.1 8.6-29.1h15.1l-16.7 49.6h-12.4L472 66.4z"/></svg>