<svg width="504" height="331" viewBox="0 0 504 331" fill="none" xmlns="http://www.w3.org/2000/svg">
<path d="M504 0.156006H0V330.543H504V0.156006Z" fill="white"/>
<path d="M504 63.156H117.556V88.232H504V63.156Z" fill="url(#paint0_linear_90_635)"/>
<path d="M503.697 304.131L460.741 330.543V277.719L503.697 304.131Z" fill="#EBEBEB"/>
<path d="M469.333 286.809H10.3773V321.451H469.333V286.809Z" fill="#EBEBEB"/>
<path d="M27.6973 72.3853L54.0613 115.264H1.33331L27.6973 72.3853Z" fill="#EBEBEB"/>
<path d="M10.3773 102.765V321.451H45.0187V102.765H10.3773Z" fill="#EBEBEB"/>
<path d="M35.656 240.081H20.616V233.553C20.616 231.904 21.0284 230.631 21.8533 229.735C22.6782 228.839 23.8302 228.391 25.3093 228.391C26.7884 228.391 27.9475 228.839 28.7866 229.735C29.6115 230.631 30.024 231.904 30.024 233.553V237.351H35.656V240.081ZM27.8693 237.351V233.98C27.8693 232.017 27.016 231.036 25.3093 231.036C23.6169 231.036 22.7706 232.017 22.7706 233.98V237.351H27.8693ZM35.656 226.629H25.224V224.026H27.0586C25.8213 223.514 25.1386 222.419 25.0106 220.741L24.9466 219.93L27.208 219.76L27.3573 221.296C27.528 223.045 28.424 223.92 30.0453 223.92H35.656V226.629ZM22.984 218.445H20.3813V215.459H22.984V218.445ZM35.656 218.275H25.224V215.608H35.656V218.275ZM35.8693 208.08C35.8693 209.161 35.6489 210.1 35.208 210.896C34.7671 211.692 34.1413 212.311 33.3306 212.752C32.5058 213.193 31.5386 213.413 30.4293 213.413C29.32 213.413 28.36 213.193 27.5493 212.752C26.7386 212.311 26.1129 211.692 25.672 210.896C25.2311 210.1 25.0106 209.161 25.0106 208.08C25.0106 206.999 25.2311 206.06 25.672 205.264C26.1129 204.468 26.7386 203.849 27.5493 203.408C28.36 202.967 29.32 202.747 30.4293 202.747C31.5386 202.747 32.5058 202.967 33.3306 203.408C34.1413 203.849 34.7671 204.468 35.208 205.264C35.6489 206.06 35.8693 206.999 35.8693 208.08ZM33.8426 208.08C33.8426 207.284 33.5582 206.644 32.9893 206.16C32.4062 205.676 31.5529 205.435 30.4293 205.435C29.2915 205.435 28.4453 205.676 27.8906 206.16C27.3218 206.644 27.0373 207.284 27.0373 208.08C27.0373 208.876 27.3218 209.516 27.8906 210C28.4453 210.484 29.2915 210.725 30.4293 210.725C31.5529 210.725 32.4062 210.484 32.9893 210C33.5582 209.516 33.8426 208.876 33.8426 208.08ZM35.656 200.546H25.224V197.943H27.0586C25.8213 197.431 25.1386 196.336 25.0106 194.658L24.9466 193.847L27.208 193.676L27.3573 195.212C27.528 196.962 28.424 197.836 30.0453 197.836H35.656V200.546ZM22.984 192.362H20.3813V189.375H22.984V192.362ZM35.656 192.191H25.224V189.525H35.656V192.191ZM35.8693 181.975C35.8693 184.734 34.504 186.114 31.7733 186.114H27.2293V188.119H25.224V186.114H22.1093V183.447H25.224V180.29H27.2293V183.447H31.624C32.3066 183.447 32.8186 183.298 33.16 182.999C33.5013 182.701 33.672 182.217 33.672 181.549C33.672 181.35 33.6506 181.143 33.608 180.93C33.5511 180.717 33.4942 180.496 33.4373 180.269L35.4 179.863C35.5422 180.119 35.656 180.446 35.7413 180.845C35.8266 181.229 35.8693 181.606 35.8693 181.975ZM39.496 177.461L35.2293 175.541L25.224 179.872V177.034L32.52 174.112L25.224 171.125V168.437L39.496 174.709V177.461Z" fill="#171717" fill-opacity="0.8"/>
<path d="M219.839 312.089V299.332H214.676V297.049H227.732V299.332H222.569V312.089H219.839ZM229.035 299.417V296.815H232.022V299.417H229.035ZM229.206 312.089V301.657H231.873V312.089H229.206ZM234.686 312.089V301.657H237.289V303.257C237.602 302.688 238.035 302.248 238.59 301.935C239.145 301.608 239.785 301.444 240.51 301.444C242.075 301.444 243.099 302.127 243.582 303.492C243.909 302.852 244.379 302.354 244.99 301.999C245.602 301.629 246.299 301.444 247.081 301.444C249.427 301.444 250.601 302.873 250.601 305.732V312.089H247.934V305.839C247.934 305.042 247.799 304.459 247.529 304.089C247.273 303.72 246.832 303.535 246.206 303.535C245.509 303.535 244.962 303.784 244.563 304.281C244.165 304.765 243.966 305.44 243.966 306.308V312.089H241.299V305.839C241.299 305.042 241.164 304.459 240.894 304.089C240.638 303.72 240.204 303.535 239.593 303.535C238.896 303.535 238.348 303.784 237.95 304.281C237.552 304.765 237.353 305.44 237.353 306.308V312.089H234.686ZM258.493 312.303C257.313 312.303 256.296 312.082 255.442 311.641C254.589 311.2 253.928 310.575 253.458 309.764C253.003 308.953 252.776 307.993 252.776 306.884C252.776 305.803 252.996 304.857 253.437 304.047C253.892 303.236 254.511 302.603 255.293 302.148C256.09 301.679 256.993 301.444 258.002 301.444C259.482 301.444 260.648 301.913 261.501 302.852C262.369 303.791 262.802 305.071 262.802 306.692V307.481H255.336C255.535 309.344 256.602 310.276 258.536 310.276C259.119 310.276 259.702 310.191 260.285 310.02C260.868 309.835 261.402 309.551 261.885 309.167L262.632 310.959C262.134 311.371 261.508 311.698 260.754 311.94C260.001 312.182 259.247 312.303 258.493 312.303ZM258.109 303.257C257.327 303.257 256.694 303.499 256.21 303.983C255.727 304.466 255.435 305.12 255.336 305.945H260.584C260.527 305.078 260.285 304.416 259.858 303.961C259.446 303.492 258.863 303.257 258.109 303.257Z" fill="#171717" fill-opacity="0.8"/>
<path d="M504 244.156H117.556V269.232H504V244.156Z" fill="#EEEEEE"/>
<path d="M162 244H139V269H162V244Z" fill="#F7B859"/>
<path d="M304 244H300V269H304V244Z" fill="#F7B859"/>
<path d="M94.5085 266.156V251.201H91.7565V248.876H100.375V251.201H97.6658V266.156H94.5085ZM103.867 266.156V252.14C103.782 252.183 103.611 252.247 103.355 252.332C103.113 252.417 102.843 252.503 102.544 252.588C102.246 252.659 101.968 252.73 101.712 252.801C101.471 252.872 101.3 252.929 101.2 252.972V250.775C101.4 250.704 101.648 250.604 101.947 250.476C102.246 250.348 102.559 250.206 102.886 250.049C103.227 249.879 103.54 249.694 103.824 249.495C104.123 249.296 104.365 249.089 104.55 248.876H106.811V266.156H103.867Z" fill="#F7B859"/>
<path d="M504 195.156H117.556V220.232H504V195.156Z" fill="#EEEEEE"/>
<path d="M473 195H228V220H473V195Z" fill="#009688"/>
<path d="M417 195H228V220H417V195Z" fill="white" fill-opacity="0.4"/>
<path d="M234.4 211.1H234.193L234.046 211.246L232.5 212.793V203.2C232.5 202.813 232.813 202.5 233.2 202.5H242.8C243.185 202.5 243.5 202.812 243.5 203.2V210.4C243.5 210.787 243.187 211.1 242.8 211.1H234.4Z" fill="#6C6CF9" stroke="#0000FF"/>
<path d="M76.9253 218.156L77.224 200.876H80.488L82.9413 212.844L85.5013 200.876H88.6587L88.9787 218.156H86.632L86.376 206.145L83.9227 218.156H82.024L79.528 206.103L79.2933 218.156H76.9253ZM95.7575 218.391C94.7193 218.391 93.8517 218.192 93.1548 217.793C92.4579 217.381 91.9317 216.784 91.5762 216.001C91.2206 215.219 91.0215 214.259 90.9788 213.121L93.6882 212.588C93.7166 213.256 93.7948 213.847 93.9228 214.359C94.0651 214.871 94.2713 215.269 94.5415 215.553C94.8259 215.824 95.1957 215.959 95.6508 215.959C96.1628 215.959 96.5255 215.809 96.7388 215.511C96.9522 215.198 97.0588 214.807 97.0588 214.337C97.0588 213.584 96.8882 212.965 96.5468 212.481C96.2055 211.998 95.7504 211.514 95.1815 211.031L93.0055 209.111C92.3939 208.584 91.9033 208.001 91.5335 207.361C91.1779 206.707 91.0002 205.904 91.0002 204.951C91.0002 203.585 91.3984 202.533 92.1948 201.793C92.9913 201.054 94.0793 200.684 95.4588 200.684C96.2695 200.684 96.9451 200.812 97.4855 201.068C98.0259 201.31 98.4526 201.651 98.7655 202.092C99.0926 202.533 99.3344 203.038 99.4908 203.607C99.6473 204.161 99.7468 204.752 99.7895 205.377L97.1015 205.847C97.0731 205.306 97.0091 204.823 96.9095 204.396C96.8242 203.969 96.6606 203.635 96.4188 203.393C96.1913 203.152 95.8499 203.031 95.3948 203.031C94.9255 203.031 94.5628 203.187 94.3068 203.5C94.0651 203.799 93.9442 204.176 93.9442 204.631C93.9442 205.214 94.0651 205.697 94.3068 206.081C94.5486 206.451 94.8971 206.835 95.3522 207.233L97.5068 209.132C98.2179 209.729 98.8224 210.433 99.3202 211.244C99.8322 212.04 100.088 213.008 100.088 214.145C100.088 214.97 99.9033 215.703 99.5335 216.343C99.1779 216.983 98.6731 217.488 98.0188 217.857C97.3788 218.213 96.6251 218.391 95.7575 218.391ZM103.867 218.156V204.14C103.782 204.183 103.611 204.247 103.355 204.332C103.113 204.417 102.843 204.503 102.544 204.588C102.246 204.659 101.968 204.73 101.712 204.801C101.471 204.872 101.3 204.929 101.2 204.972V202.775C101.4 202.704 101.648 202.604 101.947 202.476C102.246 202.348 102.559 202.206 102.886 202.049C103.227 201.879 103.54 201.694 103.824 201.495C104.123 201.296 104.365 201.089 104.55 200.876H106.811V218.156H103.867Z" fill="#009688"/>
<path d="M504 152.156H117.556V177.232H504V152.156Z" fill="#EEEEEE"/>
<path d="M417 152H240V177H417V152Z" fill="#FF0000"/>
<path d="M369 152H240V177H369V152Z" fill="white" fill-opacity="0.4"/>
<path d="M246.4 168.1H246.193L246.046 168.246L244.5 169.793V160.2C244.5 159.813 244.813 159.5 245.2 159.5H254.8C255.185 159.5 255.5 159.812 255.5 160.2V167.4C255.5 167.787 255.187 168.1 254.8 168.1H246.4Z" fill="#6C6CF9" stroke="#0000FF"/>
<path d="M74.6753 175.156L74.974 157.876H78.238L80.6913 169.844L83.2513 157.876H86.4087L86.7287 175.156H84.382L84.126 163.145L81.6727 175.156H79.774L77.278 163.103L77.0433 175.156H74.6753ZM93.5075 175.391C92.4693 175.391 91.6017 175.192 90.9048 174.793C90.2079 174.381 89.6817 173.784 89.3262 173.001C88.9706 172.219 88.7715 171.259 88.7288 170.121L91.4382 169.588C91.4666 170.256 91.5448 170.847 91.6728 171.359C91.8151 171.871 92.0213 172.269 92.2915 172.553C92.5759 172.824 92.9457 172.959 93.4008 172.959C93.9128 172.959 94.2755 172.809 94.4888 172.511C94.7022 172.198 94.8088 171.807 94.8088 171.337C94.8088 170.584 94.6382 169.965 94.2968 169.481C93.9555 168.998 93.5004 168.514 92.9315 168.031L90.7555 166.111C90.1439 165.584 89.6533 165.001 89.2835 164.361C88.9279 163.707 88.7502 162.904 88.7502 161.951C88.7502 160.585 89.1484 159.533 89.9448 158.793C90.7413 158.054 91.8293 157.684 93.2088 157.684C94.0195 157.684 94.6951 157.812 95.2355 158.068C95.7759 158.31 96.2026 158.651 96.5155 159.092C96.8426 159.533 97.0844 160.038 97.2408 160.607C97.3973 161.161 97.4968 161.752 97.5395 162.377L94.8515 162.847C94.8231 162.306 94.7591 161.823 94.6595 161.396C94.5742 160.969 94.4106 160.635 94.1688 160.393C93.9413 160.152 93.5999 160.031 93.1448 160.031C92.6755 160.031 92.3128 160.187 92.0568 160.5C91.8151 160.799 91.6942 161.176 91.6942 161.631C91.6942 162.214 91.8151 162.697 92.0568 163.081C92.2986 163.451 92.6471 163.835 93.1022 164.233L95.2568 166.132C95.9679 166.729 96.5724 167.433 97.0702 168.244C97.5822 169.04 97.8382 170.008 97.8382 171.145C97.8382 171.97 97.6533 172.703 97.2835 173.343C96.9279 173.983 96.4231 174.488 95.7688 174.857C95.1288 175.213 94.3751 175.391 93.5075 175.391ZM99.2705 175.156V173.065L103.537 166.473C103.85 165.99 104.142 165.528 104.412 165.087C104.696 164.646 104.924 164.191 105.094 163.721C105.279 163.238 105.372 162.712 105.372 162.143C105.372 161.503 105.258 161.012 105.03 160.671C104.803 160.329 104.447 160.159 103.964 160.159C103.509 160.159 103.153 160.287 102.897 160.543C102.641 160.799 102.463 161.133 102.364 161.545C102.278 161.958 102.236 162.413 102.236 162.911V163.636H99.3345V162.868C99.3345 161.844 99.4838 160.948 99.7825 160.18C100.095 159.398 100.586 158.786 101.254 158.345C101.923 157.904 102.798 157.684 103.878 157.684C105.358 157.684 106.467 158.082 107.206 158.879C107.946 159.675 108.316 160.784 108.316 162.207C108.316 162.918 108.216 163.565 108.017 164.148C107.818 164.717 107.555 165.264 107.228 165.791C106.901 166.317 106.545 166.857 106.161 167.412L102.62 172.788H107.868V175.156H99.2705Z" fill="#FF0000"/>
<path d="M504 108.311H117.556V133.387H504V108.311Z" fill="#EEEEEE"/>
<path d="M369 108H252V133H369V108Z" fill="#980000"/>
<path d="M307 108H252V133H307V108Z" fill="white" fill-opacity="0.4"/>
<path d="M325.4 124.256H325.193L325.046 124.402L323.5 125.949V116.356C323.5 115.969 323.813 115.656 324.2 115.656H333.8C334.186 115.656 334.5 115.967 334.5 116.356V123.556C334.5 123.943 334.187 124.256 333.8 124.256H325.4Z" fill="#6C6CF9" stroke="#0000FF"/>
<path d="M95.7575 129.391C94.7193 129.391 93.8517 129.192 93.1548 128.793C92.4579 128.381 91.9317 127.784 91.5762 127.001C91.2206 126.219 91.0215 125.259 90.9788 124.121L93.6882 123.588C93.7166 124.256 93.7948 124.847 93.9228 125.359C94.0651 125.871 94.2713 126.269 94.5415 126.553C94.8259 126.824 95.1957 126.959 95.6508 126.959C96.1628 126.959 96.5255 126.809 96.7388 126.511C96.9522 126.198 97.0588 125.807 97.0588 125.337C97.0588 124.584 96.8882 123.965 96.5468 123.481C96.2055 122.998 95.7504 122.514 95.1815 122.031L93.0055 120.111C92.3939 119.584 91.9033 119.001 91.5335 118.361C91.1779 117.707 91.0002 116.904 91.0002 115.951C91.0002 114.585 91.3984 113.533 92.1948 112.793C92.9913 112.054 94.0793 111.684 95.4588 111.684C96.2695 111.684 96.9451 111.812 97.4855 112.068C98.0259 112.31 98.4526 112.651 98.7655 113.092C99.0926 113.533 99.3344 114.038 99.4908 114.607C99.6473 115.161 99.7468 115.752 99.7895 116.377L97.1015 116.847C97.0731 116.306 97.0091 115.823 96.9095 115.396C96.8242 114.969 96.6606 114.635 96.4188 114.393C96.1913 114.152 95.8499 114.031 95.3948 114.031C94.9255 114.031 94.5628 114.187 94.3068 114.5C94.0651 114.799 93.9442 115.176 93.9442 115.631C93.9442 116.214 94.0651 116.697 94.3068 117.081C94.5486 117.451 94.8971 117.835 95.3522 118.233L97.5068 120.132C98.2179 120.729 98.8224 121.433 99.3202 122.244C99.8322 123.04 100.088 124.008 100.088 125.145C100.088 125.97 99.9033 126.703 99.5335 127.343C99.1779 127.983 98.6731 128.488 98.0188 128.857C97.3788 129.213 96.6251 129.391 95.7575 129.391ZM103.867 129.156V115.14C103.782 115.183 103.611 115.247 103.355 115.332C103.113 115.417 102.843 115.503 102.544 115.588C102.246 115.659 101.968 115.73 101.712 115.801C101.471 115.872 101.3 115.929 101.2 115.972V113.775C101.4 113.704 101.648 113.604 101.947 113.476C102.246 113.348 102.559 113.206 102.886 113.049C103.227 112.879 103.54 112.694 103.824 112.495C104.123 112.296 104.365 112.089 104.55 111.876H106.811V129.156H103.867Z" fill="#980000"/>
<path d="M504 19.244H117.556V44.32H504V19.244Z" fill="#EEEEEE"/>
<path d="M302 19H162V44H302V19Z" fill="#3A8BF1"/>
<path d="M168.223 39.22C168.96 39.22 169.556 38.66 169.556 37.9693C169.556 37.276 168.956 36.72 168.223 36.72C167.487 36.72 166.889 37.28 166.889 37.9693C166.889 38.66 167.487 39.22 168.223 39.22ZM172.223 33.596C172.96 33.596 173.556 34.1547 173.556 34.8453V41.0947C173.556 41.7853 172.96 42.344 172.223 42.344H164.223C163.487 42.344 162.889 41.7853 162.889 41.0947V34.8453C162.889 34.152 163.489 33.596 164.223 33.596H164.889V32.3453C164.889 30.62 166.383 29.2213 168.223 29.2213C170.064 29.2213 171.556 30.62 171.556 32.3453V33.596H172.223ZM168.223 30.4707C167.119 30.4707 166.223 31.3107 166.223 32.3453V33.596H170.223V32.3453C170.223 31.3107 169.328 30.4707 168.223 30.4707Z" fill="#D2D2D2"/>
<path d="M299.889 33.4493C300.627 33.4493 301.223 34.0467 301.223 34.7827V41.4493C301.223 42.1853 300.627 42.7827 299.889 42.7827H291.889C291.149 42.7827 290.556 42.1827 290.556 41.4493V34.7827C290.556 34.0467 291.153 33.4493 291.889 33.4493H297.889V32.116C297.889 31.012 296.995 30.116 295.889 30.116C294.785 30.116 293.889 31.012 293.889 32.116H292.556C292.556 30.2747 294.049 28.7827 295.889 28.7827C297.731 28.7827 299.223 30.2747 299.223 32.116V33.4493H299.889ZM295.889 39.4493C296.627 39.4493 297.223 38.852 297.223 38.116C297.223 37.38 296.627 36.7827 295.889 36.7827C295.153 36.7827 294.556 37.38 294.556 38.116C294.556 38.852 295.153 39.4493 295.889 39.4493Z" fill="#D2D2D2"/>
<path d="M188.8 27.116H179.2C178.537 27.116 178 27.6533 178 28.316V39.116L180.4 36.716H188.8C189.463 36.716 190 36.1787 190 35.516V28.316C190 27.6507 189.46 27.116 188.8 27.116Z" fill="#0000FF"/>
<path d="M168 66L168 44" stroke="#607D8B" stroke-opacity="0.7" stroke-width="1.33333" stroke-miterlimit="1" stroke-linecap="round" stroke-dasharray="0.33 4 0.33 4"/>
<path d="M296 66L296 44" stroke="#607D8B" stroke-opacity="0.7" stroke-width="1.33333" stroke-miterlimit="1" stroke-linecap="round" stroke-dasharray="0.33 4 0.33 4"/>
<path d="M215 67L215 32" stroke="#FF7A00" stroke-width="1.5" stroke-miterlimit="3" stroke-linejoin="bevel" stroke-dasharray="3 3"/>
<path d="M247 66L247 32" stroke="#FF7A00" stroke-width="1.5" stroke-miterlimit="3" stroke-linejoin="bevel" stroke-dasharray="3 3"/>
<path d="M247 32.156L191 32.156" stroke="#FF7A00" stroke-width="1.5" stroke-miterlimit="3" stroke-linecap="square" stroke-dasharray="3 3"/>
<path d="M347.223 19.244H309.889V44.32H347.223V19.244Z" fill="#3A8BF1"/>
<path d="M316.556 39.22C317.293 39.22 317.889 38.66 317.889 37.9693C317.889 37.276 317.289 36.72 316.556 36.72C315.82 36.72 315.223 37.28 315.223 37.9693C315.223 38.66 315.82 39.22 316.556 39.22ZM320.556 33.596C321.293 33.596 321.889 34.1547 321.889 34.8453V41.0947C321.889 41.7853 321.293 42.344 320.556 42.344H312.556C311.82 42.344 311.223 41.7853 311.223 41.0947V34.8453C311.223 34.152 311.823 33.596 312.556 33.596H313.223V32.3453C313.223 30.62 314.716 29.2213 316.556 29.2213C318.397 29.2213 319.889 30.62 319.889 32.3453V33.596H320.556ZM316.556 30.4707C315.452 30.4707 314.556 31.3107 314.556 32.3453V33.596H318.556V32.3453C318.556 31.3107 317.661 30.4707 316.556 30.4707Z" fill="#D2D2D2"/>
<path d="M344.556 33.4494C345.293 33.4494 345.889 34.0467 345.889 34.7827V41.4494C345.889 42.1854 345.293 42.7827 344.556 42.7827H336.556C335.816 42.7827 335.223 42.1827 335.223 41.4494V34.7827C335.223 34.0467 335.82 33.4494 336.556 33.4494H342.556V32.116C342.556 31.012 341.661 30.116 340.556 30.116C339.452 30.116 338.556 31.012 338.556 32.116H337.223C337.223 30.2747 338.716 28.7827 340.556 28.7827C342.397 28.7827 343.889 30.2747 343.889 32.116V33.4494H344.556ZM340.556 39.4494C341.293 39.4494 341.889 38.852 341.889 38.116C341.889 37.38 341.293 36.7827 340.556 36.7827C339.82 36.7827 339.223 37.38 339.223 38.116C339.223 38.852 339.82 39.4494 340.556 39.4494Z" fill="#D2D2D2"/>
<path d="M333.5 25.556H323.9C323.237 25.556 322.7 26.0934 322.7 26.756V37.556L325.1 35.156H333.5C334.163 35.156 334.7 34.6187 334.7 33.956V26.756C334.7 26.0907 334.16 25.556 333.5 25.556Z" fill="#0000FF"/>
<path d="M316.556 106.885V44.156" stroke="#607D8B" stroke-opacity="0.7" stroke-width="1.33333" stroke-miterlimit="1" stroke-linecap="round" stroke-dasharray="0.33 4 0.33 4"/>
<path d="M340.556 107.135V44.156" stroke="#607D8B" stroke-opacity="0.7" stroke-width="1.33333" stroke-miterlimit="1" stroke-linecap="round" stroke-dasharray="0.33 4 0.33 4"/>
<path d="M25.952 42.3907C24.6862 42.3907 23.6907 42.1418 22.9653 41.644C22.2542 41.1462 21.7564 40.4707 21.472 39.6173C21.1876 38.7498 21.0453 37.7542 21.0453 36.6307V30.4653C21.0453 29.2849 21.1876 28.2609 21.472 27.3933C21.7564 26.5258 22.2542 25.8573 22.9653 25.388C23.6907 24.9187 24.6862 24.684 25.952 24.684C27.1467 24.684 28.0782 24.8902 28.7467 25.3027C29.4293 25.7009 29.9129 26.2769 30.1973 27.0307C30.4818 27.7844 30.624 28.6591 30.624 29.6547V31.1053H27.5947V29.612C27.5947 29.1284 27.5662 28.6876 27.5093 28.2893C27.4667 27.8911 27.3316 27.5782 27.104 27.3507C26.8907 27.1089 26.5138 26.988 25.9733 26.988C25.4329 26.988 25.0347 27.116 24.7787 27.372C24.5369 27.6138 24.3804 27.948 24.3093 28.3747C24.2382 28.7871 24.2027 29.2564 24.2027 29.7827V37.292C24.2027 37.9178 24.2524 38.4369 24.352 38.8493C24.4516 39.2476 24.6293 39.5533 24.8853 39.7667C25.1556 39.9658 25.5182 40.0653 25.9733 40.0653C26.4996 40.0653 26.8693 39.9445 27.0827 39.7027C27.3102 39.4467 27.4524 39.1125 27.5093 38.7C27.5662 38.2876 27.5947 37.8253 27.5947 37.3133V35.756H30.624V37.1427C30.624 38.1667 30.4889 39.0769 30.2187 39.8733C29.9484 40.6556 29.472 41.2742 28.7893 41.7293C28.1209 42.1702 27.1751 42.3907 25.952 42.3907ZM32.8648 42.156V24.876H36.0008V32.108H39.5208V24.876H42.6782V42.156H39.5208V34.348H36.0008V42.156H32.8648ZM44.4475 42.156L47.9035 24.876H51.2742L54.7302 42.156H51.8075L51.1248 38.1667H48.1168L47.4128 42.156H44.4475ZM48.4368 36.1613H50.7835L49.6102 28.908L48.4368 36.1613ZM56.468 42.156V24.876H58.6653L62.868 34.732V24.876H65.4707V42.156H63.38L59.156 31.8307V42.156H56.468ZM68.093 42.156V24.876H70.2903L74.493 34.732V24.876H77.0957V42.156H75.005L70.781 31.8307V42.156H68.093ZM79.718 42.156V24.876H86.9713V27.0947H82.8753V32.0653H86.0967V34.2627H82.8753V39.98H87.014V42.156H79.718ZM88.843 42.156V24.876H92.0003V39.98H96.1817V42.156H88.843ZM102.135 42.156L105.591 24.876H108.962L112.418 42.156H109.495L108.812 38.1667H105.804L105.1 42.156H102.135ZM106.124 36.1613H108.471L107.298 28.908L106.124 36.1613Z" fill="#3A8BF1"/>
<path d="M302 63H162V88H302V63Z" fill="#6931D0"/>
<path d="M171.777 65H164V85.312H171.777V65Z" fill="#2E0084"/>
<path d="M255.777 65H248V85.312H255.777V65Z" fill="white"/>
<path d="M243.777 65H236V85.312H243.777V65Z" fill="#A9CC1E"/>
<path d="M231.777 65H224V85.312H231.777V65Z" fill="#A9CC1E"/>
<path d="M219.953 65H196.571V85.312H219.953V65Z" fill="#FF7A00"/>
<path d="M200.419 82.111H203.971V83.2933H198.951V75.71H200.419V82.111ZM208.857 83.2933H207.393V77.4756L205.477 78.1631V76.9027L208.779 75.71H208.857V83.2933Z" fill="#747474"/>
<path d="M217.82 66.872H211.42C210.979 66.872 210.62 67.2293 210.62 67.672V74.872L212.22 73.272H217.82C218.261 73.272 218.62 72.9133 218.62 72.472V67.672C218.62 67.228 218.26 66.872 217.82 66.872Z" fill="#0000FF"/>
<path d="M287.652 65H260.985V85.312H287.652V65Z" fill="#FF7A00"/>
<path d="M264.834 82.111H268.386V83.2933H263.365V75.71H264.834V82.111ZM274.683 83.2933H269.511V82.3038L271.964 79.6683C272.155 79.46 272.317 79.2708 272.449 79.1006C272.581 78.9305 272.688 78.7742 272.771 78.6319C272.851 78.493 272.909 78.3628 272.943 78.2413C272.982 78.1197 273.001 78.0017 273.001 77.8871C273.001 77.7169 272.976 77.5659 272.928 77.434C272.879 77.302 272.811 77.1892 272.725 77.0954C272.634 77.0051 272.527 76.9357 272.402 76.8871C272.28 76.8385 272.145 76.8142 271.995 76.8142C271.801 76.8142 271.629 76.8419 271.48 76.8975C271.334 76.9496 271.212 77.0277 271.115 77.1319C271.015 77.2395 270.938 77.3732 270.886 77.5329C270.834 77.6926 270.808 77.8749 270.808 78.0798H269.355C269.355 77.743 269.419 77.4253 269.548 77.1267C269.676 76.8246 269.858 76.5607 270.094 76.335C270.327 76.1093 270.608 75.9322 270.938 75.8038C271.271 75.6718 271.64 75.6058 272.042 75.6058C272.428 75.6058 272.768 75.6597 273.063 75.7673C273.362 75.8749 273.612 76.026 273.813 76.2204C274.011 76.4149 274.162 76.6492 274.266 76.9235C274.37 77.1944 274.423 77.4947 274.423 77.8246C274.423 78.0746 274.383 78.3142 274.303 78.5433C274.226 78.769 274.117 78.993 273.975 79.2152C273.829 79.4374 273.655 79.6649 273.454 79.8975C273.252 80.1267 273.028 80.368 272.782 80.6215L271.355 82.1319H274.683V83.2933Z" fill="#747474"/>
<path d="M285.519 66.872H279.119C278.676 66.872 278.319 67.2293 278.319 67.672V74.872L279.919 73.272H285.519C285.96 73.272 286.319 72.9133 286.319 72.472V67.672C286.319 67.228 285.959 66.872 285.519 66.872Z" fill="#0000FF"/>
<path d="M191.539 65H177.032V85.312H191.539V65Z" fill="#AA7CFF"/>
<path d="M187.485 71.4026H181.085C180.644 71.4026 180.285 71.76 180.285 72.2027V79.4026L181.885 77.8027H187.485C187.928 77.8027 188.285 77.444 188.285 77.0027V72.2027C188.285 71.7587 187.925 71.4026 187.485 71.4026Z" fill="#0000FF"/>
<path d="M300 65H292V86H300V65Z" fill="#3900A0"/>
<path d="M43.4877 85.156V70.2013H40.7357V67.876H49.3543V70.2013H46.645V85.156H43.4877ZM52.8463 85.156V71.14C52.761 71.1827 52.5903 71.2467 52.3343 71.332C52.0926 71.4173 51.8223 71.5027 51.5237 71.588C51.225 71.6591 50.9477 71.7302 50.6917 71.8013C50.4499 71.8724 50.2792 71.9293 50.1797 71.972V69.7747C50.3788 69.7036 50.6277 69.604 50.9263 69.476C51.225 69.348 51.5379 69.2058 51.865 69.0493C52.2063 68.8787 52.5192 68.6938 52.8037 68.4947C53.1023 68.2956 53.3441 68.0893 53.529 67.876H55.7903V85.156H52.8463ZM69.268 89.124C68.3862 89.124 67.6609 88.9249 67.092 88.5267C66.5231 88.1427 66.068 87.6022 65.7267 86.9053C65.3853 86.2227 65.1293 85.4333 64.9587 84.5373C64.8022 83.6271 64.7027 82.6529 64.66 81.6147C64.6173 80.5764 64.596 79.524 64.596 78.4573C64.596 77.348 64.6173 76.2671 64.66 75.2147C64.7027 74.1622 64.8022 73.1809 64.9587 72.2707C65.1293 71.3604 65.3853 70.564 65.7267 69.8813C66.068 69.1987 66.5231 68.6653 67.092 68.2813C67.6609 67.8973 68.3862 67.7053 69.268 67.7053V69.7107C68.8271 69.7107 68.4716 69.9382 68.2013 70.3933C67.9453 70.8484 67.7533 71.4742 67.6253 72.2707C67.4973 73.0671 67.412 73.9987 67.3693 75.0653C67.3409 76.1178 67.3267 77.2484 67.3267 78.4573C67.3267 79.6947 67.3409 80.8396 67.3693 81.892C67.412 82.9445 67.4973 83.8618 67.6253 84.644C67.7676 85.4262 67.9667 86.0307 68.2227 86.4573C68.4787 86.8982 68.8271 87.1258 69.268 87.14V89.124ZM71.3232 85.156V67.876H74.4592V75.108H77.9792V67.876H81.1365V85.156H77.9792V77.348H74.4592V85.156H71.3232ZM83.7805 85.156V67.876H86.9378V82.98H91.1192V85.156H83.7805ZM92.7597 85.156V67.876H97.837C98.8752 67.876 99.7143 68.068 100.354 68.452C101.009 68.836 101.485 69.3978 101.784 70.1373C102.097 70.8627 102.253 71.7444 102.253 72.7827C102.253 73.9062 102.061 74.8164 101.677 75.5133C101.293 76.196 100.753 76.6938 100.056 77.0067C99.373 77.3196 98.5623 77.476 97.6237 77.476H95.917V85.156H92.7597ZM95.917 75.2573H97.1117C97.6806 75.2573 98.1214 75.1791 98.4343 75.0227C98.7614 74.852 98.9819 74.5889 99.0957 74.2333C99.2237 73.8636 99.2877 73.3729 99.2877 72.7613C99.2877 72.1356 99.2379 71.6307 99.1383 71.2467C99.053 70.8484 98.8539 70.5569 98.541 70.372C98.2423 70.1871 97.7659 70.0947 97.1117 70.0947H95.917V75.2573ZM103.391 89.124V87.1187C103.832 87.1187 104.18 86.8982 104.436 86.4573C104.707 86.0165 104.906 85.4049 105.034 84.6227C105.162 83.8262 105.247 82.9018 105.29 81.8493C105.332 80.7969 105.354 79.6591 105.354 78.436C105.354 77.2129 105.332 76.0751 105.29 75.0227C105.247 73.956 105.162 73.0316 105.034 72.2493C104.92 71.4529 104.728 70.8342 104.458 70.3933C104.202 69.9382 103.846 69.7036 103.391 69.6893V67.7053C104.273 67.7053 104.998 67.8973 105.567 68.2813C106.15 68.6511 106.612 69.1844 106.954 69.8813C107.295 70.564 107.544 71.3604 107.7 72.2707C107.857 73.1667 107.956 74.1409 107.999 75.1933C108.042 76.2316 108.063 77.3124 108.063 78.436C108.063 79.5027 108.042 80.5551 107.999 81.5933C107.956 82.6316 107.857 83.6058 107.7 84.516C107.544 85.4262 107.295 86.2227 106.954 86.9053C106.612 87.6022 106.15 88.1427 105.567 88.5267C104.998 88.9249 104.273 89.124 103.391 89.124Z" fill="#F7B859"/>
<path d="M228 195L230.887 190L225.113 190L228 195ZM227.5 87L227.5 190.5L228.5 190.5L228.5 87L227.5 87Z" fill="#66C0B8"/>
<path d="M240 152L242.887 147L237.113 147L240 152ZM240.5 147.5L240.5 87L239.5 87L239.5 147.5L240.5 147.5Z" fill="#FF6666"/>
<path d="M252 108L254.887 103L249.113 103L252 108ZM252.5 103.5L252.5 87L251.5 87L251.5 103.5L252.5 103.5Z" fill="#C16666"/>
<path d="M162 88L159.113 93L164.887 93L162 88ZM162.5 269L162.5 92.5L161.5 92.5L161.5 269L162.5 269Z" fill="black"/>
<path d="M184 37L181.113 42L186.887 42L184 37ZM184.5 70L184.5 41.5L183.5 41.5L183.5 70L184.5 70Z" fill="#1D559C"/>
<path d="M329 115L331.887 110L326.113 110L329 115ZM328.5 36L328.5 110.5L329.5 110.5L329.5 36L328.5 36Z" fill="#1D559C"/>
<path d="M302 244L299.113 239L304.887 239L302 244ZM302.5 63L302.5 239.5L301.5 239.5L301.5 63L302.5 63Z" fill="black"/>
<path d="M178.504 263V250.31H183.526C184.894 250.31 185.938 250.64 186.658 251.3C187.39 251.96 187.756 252.902 187.756 254.126C187.756 255.338 187.39 256.28 186.658 256.952C185.938 257.612 184.894 257.942 183.526 257.942H179.98V263H178.504ZM179.98 256.7H183.346C185.314 256.7 186.298 255.842 186.298 254.126C186.298 252.398 185.314 251.534 183.346 251.534H179.98V256.7ZM189.521 263V254.252H190.943V255.818C191.411 254.762 192.371 254.18 193.823 254.072L194.345 254.018L194.453 255.278L193.535 255.386C192.707 255.458 192.077 255.722 191.645 256.178C191.213 256.622 190.997 257.234 190.997 258.014V263H189.521ZM195.792 252.074V250.436H197.592V252.074H195.792ZM195.972 263V254.252H197.43V263H195.972ZM203.792 263.162C202.94 263.162 202.202 262.976 201.578 262.604C200.954 262.232 200.468 261.71 200.12 261.038C199.784 260.354 199.616 259.55 199.616 258.626C199.616 257.702 199.784 256.904 200.12 256.232C200.468 255.548 200.954 255.02 201.578 254.648C202.202 254.276 202.94 254.09 203.792 254.09C204.632 254.09 205.364 254.276 205.988 254.648C206.624 255.02 207.11 255.548 207.446 256.232C207.794 256.904 207.968 257.702 207.968 258.626C207.968 259.55 207.794 260.354 207.446 261.038C207.11 261.71 206.624 262.232 205.988 262.604C205.364 262.976 204.632 263.162 203.792 263.162ZM203.792 261.992C204.608 261.992 205.262 261.704 205.754 261.128C206.246 260.54 206.492 259.706 206.492 258.626C206.492 257.534 206.246 256.7 205.754 256.124C205.262 255.548 204.608 255.26 203.792 255.26C202.964 255.26 202.304 255.548 201.812 256.124C201.332 256.7 201.092 257.534 201.092 258.626C201.092 259.706 201.332 260.54 201.812 261.128C202.304 261.704 202.964 261.992 203.792 261.992ZM210.158 263V254.252H211.58V255.818C212.048 254.762 213.008 254.18 214.46 254.072L214.982 254.018L215.09 255.278L214.172 255.386C213.344 255.458 212.714 255.722 212.282 256.178C211.85 256.622 211.634 257.234 211.634 258.014V263H210.158ZM216.429 252.074V250.436H218.229V252.074H216.429ZM216.609 263V254.252H218.067V263H216.609ZM224.303 263.162C223.271 263.162 222.497 262.892 221.981 262.352C221.465 261.8 221.207 261.008 221.207 259.976V255.386H219.497V254.252H221.207V251.57H222.665V254.252H225.437V255.386H222.665V259.832C222.665 260.516 222.809 261.038 223.097 261.398C223.385 261.746 223.853 261.92 224.501 261.92C224.693 261.92 224.885 261.896 225.077 261.848C225.269 261.8 225.443 261.752 225.599 261.704L225.851 262.82C225.695 262.904 225.467 262.982 225.167 263.054C224.867 263.126 224.579 263.162 224.303 263.162ZM228.199 266.24L229.693 262.856L226.003 254.252H227.587L230.485 261.344L233.401 254.252H234.931L229.729 266.24H228.199ZM245.488 263.162C244.792 263.162 244.18 263.006 243.652 262.694C243.136 262.382 242.746 261.956 242.482 261.416V263H241.06V250.31H242.518V255.764C242.77 255.248 243.16 254.84 243.688 254.54C244.216 254.24 244.816 254.09 245.488 254.09C246.268 254.09 246.946 254.276 247.522 254.648C248.11 255.008 248.56 255.53 248.872 256.214C249.196 256.886 249.358 257.69 249.358 258.626C249.358 259.55 249.196 260.354 248.872 261.038C248.56 261.71 248.11 262.232 247.522 262.604C246.946 262.976 246.268 263.162 245.488 263.162ZM245.182 261.992C245.998 261.992 246.652 261.704 247.144 261.128C247.636 260.54 247.882 259.706 247.882 258.626C247.882 257.534 247.636 256.7 247.144 256.124C246.652 255.548 245.998 255.26 245.182 255.26C244.366 255.26 243.712 255.548 243.22 256.124C242.728 256.7 242.482 257.534 242.482 258.626C242.482 259.706 242.728 260.54 243.22 261.128C243.712 261.704 244.366 261.992 245.182 261.992ZM255.191 263.162C254.339 263.162 253.601 262.976 252.977 262.604C252.353 262.232 251.867 261.71 251.519 261.038C251.183 260.354 251.015 259.55 251.015 258.626C251.015 257.702 251.183 256.904 251.519 256.232C251.867 255.548 252.353 255.02 252.977 254.648C253.601 254.276 254.339 254.09 255.191 254.09C256.031 254.09 256.763 254.276 257.387 254.648C258.023 255.02 258.509 255.548 258.845 256.232C259.193 256.904 259.367 257.702 259.367 258.626C259.367 259.55 259.193 260.354 258.845 261.038C258.509 261.71 258.023 262.232 257.387 262.604C256.763 262.976 256.031 263.162 255.191 263.162ZM255.191 261.992C256.007 261.992 256.661 261.704 257.153 261.128C257.645 260.54 257.891 259.706 257.891 258.626C257.891 257.534 257.645 256.7 257.153 256.124C256.661 255.548 256.007 255.26 255.191 255.26C254.363 255.26 253.703 255.548 253.211 256.124C252.731 256.7 252.491 257.534 252.491 258.626C252.491 259.706 252.731 260.54 253.211 261.128C253.703 261.704 254.363 261.992 255.191 261.992ZM265.192 263.162C264.34 263.162 263.602 262.976 262.978 262.604C262.354 262.232 261.868 261.71 261.52 261.038C261.184 260.354 261.016 259.55 261.016 258.626C261.016 257.702 261.184 256.904 261.52 256.232C261.868 255.548 262.354 255.02 262.978 254.648C263.602 254.276 264.34 254.09 265.192 254.09C266.032 254.09 266.764 254.276 267.388 254.648C268.024 255.02 268.51 255.548 268.846 256.232C269.194 256.904 269.368 257.702 269.368 258.626C269.368 259.55 269.194 260.354 268.846 261.038C268.51 261.71 268.024 262.232 267.388 262.604C266.764 262.976 266.032 263.162 265.192 263.162ZM265.192 261.992C266.008 261.992 266.662 261.704 267.154 261.128C267.646 260.54 267.892 259.706 267.892 258.626C267.892 257.534 267.646 256.7 267.154 256.124C266.662 255.548 266.008 255.26 265.192 255.26C264.364 255.26 263.704 255.548 263.212 256.124C262.732 256.7 262.492 257.534 262.492 258.626C262.492 259.706 262.732 260.54 263.212 261.128C263.704 261.704 264.364 261.992 265.192 261.992ZM274.51 263.162C273.826 263.162 273.178 263.066 272.566 262.874C271.954 262.682 271.45 262.412 271.054 262.064L271.522 261.038C271.954 261.386 272.428 261.644 272.944 261.812C273.472 261.968 274.006 262.046 274.546 262.046C275.23 262.046 275.746 261.92 276.094 261.668C276.442 261.416 276.616 261.074 276.616 260.642C276.616 260.306 276.502 260.042 276.274 259.85C276.046 259.646 275.686 259.49 275.194 259.382L273.556 259.022C272.068 258.698 271.324 257.93 271.324 256.718C271.324 255.926 271.636 255.29 272.26 254.81C272.896 254.33 273.724 254.09 274.744 254.09C275.344 254.09 275.914 254.186 276.454 254.378C277.006 254.558 277.462 254.828 277.822 255.188L277.336 256.214C276.988 255.89 276.58 255.644 276.112 255.476C275.656 255.296 275.2 255.206 274.744 255.206C274.072 255.206 273.562 255.338 273.214 255.602C272.866 255.866 272.692 256.214 272.692 256.646C272.692 257.318 273.136 257.75 274.024 257.942L275.662 258.284C276.43 258.452 277.012 258.722 277.408 259.094C277.804 259.454 278.002 259.946 278.002 260.57C278.002 261.374 277.684 262.01 277.048 262.478C276.412 262.934 275.566 263.162 274.51 263.162ZM283.647 263.162C282.615 263.162 281.841 262.892 281.325 262.352C280.809 261.8 280.551 261.008 280.551 259.976V255.386H278.841V254.252H280.551V251.57H282.009V254.252H284.781V255.386H282.009V259.832C282.009 260.516 282.153 261.038 282.441 261.398C282.729 261.746 283.197 261.92 283.845 261.92C284.037 261.92 284.229 261.896 284.421 261.848C284.613 261.8 284.787 261.752 284.943 261.704L285.195 262.82C285.039 262.904 284.811 262.982 284.511 263.054C284.211 263.126 283.923 263.162 283.647 263.162Z" fill="#8E8E8E"/>
<defs>
<linearGradient id="paint0_linear_90_635" x1="310.778" y1="63.156" x2="310.778" y2="88.232" gradientUnits="userSpaceOnUse">
<stop stop-color="#EEEEEE" stop-opacity="0"/>
<stop offset="1" stop-color="#EEEEEE"/>
</linearGradient>
</defs>
</svg>
